<svg xmlns="http://www.w3.org/2000/svg" xmlns:xlink="http://www.w3.org/1999/xlink" version="1.1" x="0px" y="0px" viewBox="0 0 50.4 63" enable-background="new 0 0 50.4 50.4" xml:space="preserve">
	<g>
		<path d="M13.73,7.889c-0.979,0-1.777,0.792-1.777,1.771c0,0.98,0.797,1.776,1.777,1.776c0.977,0,1.775-0.796,1.775-1.776   C15.506,8.682,14.707,7.889,13.73,7.889z" />
		<polygon points="50.4,8.453 50.4,1.38 0,1.38 0,8.453 2.927,8.453 2.927,4.307 23.411,4.307 23.411,23.817 20.879,23.817    20.879,16.36 5.458,16.36 5.458,23.817 2.927,23.817 2.927,12.233 0,12.233 0,30.941 2.927,30.941 2.927,26.736 23.411,26.736    23.411,46.246 20.879,46.246 20.879,38.787 5.458,38.787 5.458,46.246 2.927,46.246 2.927,34.722 0,34.722 0,49.172 50.4,49.172    50.4,34.722 47.474,34.722 47.474,46.246 44.455,46.246 44.455,38.787 29.033,38.787 29.033,46.246 26.338,46.246 26.338,26.736    47.474,26.736 47.474,30.941 50.4,30.941 50.4,12.233 47.474,12.233 47.474,23.817 44.455,23.817 44.455,16.36 29.033,16.36    29.033,23.817 26.338,23.817 26.338,4.307 47.474,4.307 47.474,8.453  " />
		<rect x="8.292" y="8.495" width="1.266" height="6.99" />
		<path d="M19.259,15.525c-0.498-1.229-1.838-3.624-4.678-3.519c-1.708,0.063-2.007,2.417-2.055,3.519H19.259z" />
		<path d="M37.305,7.889c-0.979,0-1.777,0.792-1.777,1.771c0,0.98,0.799,1.776,1.777,1.776s1.776-0.796,1.776-1.776   C39.081,8.682,38.283,7.889,37.305,7.889z" />
		<rect x="31.868" y="8.495" width="1.267" height="6.99" />
		<path d="M42.835,15.525c-0.498-1.229-1.839-3.624-4.678-3.519c-1.71,0.063-2.008,2.417-2.056,3.519H42.835z" />
		<path d="M13.73,30.316c-0.979,0-1.777,0.793-1.777,1.772c0,0.98,0.797,1.776,1.777,1.776c0.977,0,1.775-0.796,1.775-1.776   C15.506,31.109,14.707,30.316,13.73,30.316z" />
		<rect x="8.292" y="30.924" width="1.266" height="6.991" />
		<path d="M19.259,37.953c-0.498-1.228-1.838-3.623-4.678-3.519c-1.708,0.062-2.007,2.418-2.055,3.519H19.259z" />
		<path d="M37.305,30.316c-0.979,0-1.777,0.793-1.777,1.772c0,0.98,0.799,1.776,1.777,1.776s1.776-0.796,1.776-1.776   C39.081,31.109,38.283,30.316,37.305,30.316z" />
		<rect x="31.868" y="30.924" width="1.267" height="6.991" />
		<path d="M42.835,37.953c-0.498-1.228-1.839-3.623-4.678-3.519c-1.71,0.062-2.008,2.418-2.056,3.519H42.835z" />
	</g>
	<!--
	<text x="0" y="65.4" fill="#000000" font-size="5px" font-weight="bold" font-family="'Helvetica Neue', Helvetica, Arial-Unicode, Arial, Sans-serif">
	Created by Luis Prado
	</text>
	<text x="0" y="70.4" fill="#000000" font-size="5px" font-weight="bold" font-family="'Helvetica Neue', Helvetica, Arial-Unicode, Arial, Sans-serif">
	from the Noun Project
	</text>
	-->
</svg>
