<svg xmlns="http://www.w3.org/2000/svg" xmlns:xlink="http://www.w3.org/1999/xlink" version="1.1" x="0px" y="0px" viewBox="0 0 100 125" style="enable-background:new 0 0 100 100;" xml:space="preserve">
	<path d="M33.216,56.373h5.418c0.553,0,1-0.447,1-1V51.7c0-2.045-1.664-3.709-3.709-3.709s-3.709,1.664-3.709,3.709v3.673  C32.216,55.926,32.663,56.373,33.216,56.373z M34.216,51.7c0-0.942,0.767-1.709,1.709-1.709s1.709,0.767,1.709,1.709v2.673h-3.418  V51.7z" />
	<path d="M20.771,56.373h5.418c0.553,0,1-0.447,1-1V51.7c0-2.045-1.664-3.709-3.709-3.709s-3.709,1.664-3.709,3.709v3.673  C19.771,55.926,20.219,56.373,20.771,56.373z M21.771,51.7c0-0.942,0.767-1.709,1.709-1.709s1.709,0.767,1.709,1.709v2.673h-3.418  V51.7z" />
	<path d="M11,88.001c-0.553,0-1,0.447-1,1s0.447,1,1,1h78c0.553,0,1-0.447,1-1s-0.447-1-1-1h-0.429V24.683H89c0.553,0,1-0.447,1-1  v-6.057c0-0.553-0.447-1-1-1H74.5v-5.625c0-0.553-0.447-1-1-1h-4.525c-0.553,0-1,0.447-1,1v5.625h-3.917v-5.625c0-0.553-0.447-1-1-1  h-4.525c-0.553,0-1,0.447-1,1v5.625H54.5c-0.553,0-1,0.447-1,1v6.057c0,0.553,0.447,1,1,1h0.509v39.003  c-2.171,0.435-3.806,2.253-3.806,4.427c0,0.446,0.069,0.885,0.207,1.31c-0.609,0.854-0.939,1.862-0.939,2.899  c0,0.558,0.094,1.103,0.279,1.627c-0.701,0.979-1.081,2.137-1.081,3.324c0,2.968,2.329,5.428,5.359,5.873l0.011,4.856h-7.235V68.849  h0.612c0.301,0,0.585-0.135,0.775-0.368c0.189-0.233,0.265-0.539,0.204-0.833l-1.592-7.739V43.618c0-0.072-0.008-0.145-0.023-0.216  l-1.351-6.118c-0.102-0.458-0.508-0.784-0.977-0.784h-3.615v-1.347c0-0.553-0.447-1-1-1h-4.411c-0.553,0-1,0.447-1,1V36.5H23.826  v-1.347c0-0.553-0.447-1-1-1h-4.411c-0.553,0-1,0.447-1,1V36.5h-3.464c-0.469,0-0.875,0.326-0.977,0.784l-1.351,6.118  c-0.016,0.071-0.023,0.144-0.023,0.216V59.97l-1.58,7.677c-0.061,0.294,0.015,0.6,0.204,0.833c0.19,0.233,0.475,0.368,0.775,0.368  h0.594v19.152H11z M45.805,45.306v13.752H13.601V45.306H45.805z M22.669,66.849v-5.791h3.355v5.791H22.669z M28.024,61.058h3.356  v5.791h-3.356V61.058z M33.381,61.058h3.355v5.791h-3.355V61.058z M38.736,61.058h3.356v5.791h-3.356V61.058z M44.093,61.058h1.906  l1.191,5.791h-3.098V61.058z M12.227,66.849l1.192-5.791h1.894v5.791H12.227z M17.312,61.058h3.356v5.791h-3.356V61.058z   M74.556,88.001h-6.659V75.83c0-1.836,1.493-3.329,3.329-3.329s3.33,1.493,3.33,3.329V88.001z M69.975,12.001H72.5v4.625h-2.525  V12.001z M59.532,12.001h2.525v4.625h-2.525V12.001z M55.5,18.626H88v4.057H55.5V18.626z M51.669,77.272  c0-0.92,0.339-1.784,0.979-2.498c0.276-0.308,0.334-0.753,0.147-1.121c-0.216-0.425-0.325-0.873-0.325-1.332  c0-0.747,0.292-1.476,0.822-2.051c0.281-0.305,0.345-0.752,0.16-1.123c-0.166-0.333-0.25-0.682-0.25-1.035  c0-1.395,1.259-2.528,2.806-2.528c1.499,0,2.73,1.057,2.802,2.401l0.004,0.127c0,0.355-0.084,0.703-0.249,1.033  c-0.186,0.372-0.122,0.819,0.159,1.125c0.53,0.575,0.822,1.304,0.822,2.051c0,0.459-0.109,0.907-0.325,1.332  c-0.188,0.369-0.128,0.816,0.15,1.124c0.096,0.106,0.185,0.219,0.267,0.33c0.464,0.645,0.71,1.393,0.71,2.165  c0,2.179-1.947,3.951-4.34,3.951S51.669,79.451,51.669,77.272z M57.028,83.139c3.012-0.46,5.32-2.912,5.32-5.867  c0-1.189-0.373-2.338-1.081-3.325c0.186-0.524,0.279-1.068,0.279-1.626c0-1.037-0.33-2.046-0.939-2.898  c0.138-0.425,0.207-0.863,0.207-1.311c0-0.076-0.002-0.151-0.006-0.23c-0.112-2.087-1.71-3.777-3.8-4.194V24.683h29.562v63.318  H76.556V75.83c0-2.938-2.391-5.329-5.33-5.329c-2.938,0-5.329,2.391-5.329,5.329v12.171H57.04L57.028,83.139z M23.539,88.001v-7.159  h22.266v7.159H23.539z M45.805,78.842H23.539v-9.993h22.266V78.842z M37.428,36.153h2.411v3.598h-2.411V36.153z M19.415,36.153  h2.411v3.598h-2.411V36.153z M14.755,38.5h2.66v2.251c0,0.553,0.447,1,1,1h4.411c0.553,0,1-0.447,1-1V38.5h11.602v2.251  c0,0.553,0.447,1,1,1h4.411c0.553,0,1-0.447,1-1V38.5h2.812l1.061,4.806H13.694L14.755,38.5z M13.594,68.849h7.945v19.152h-7.945  V68.849z" />
	<path d="M63.689,38.918h5.419c0.553,0,1-0.447,1-1v-3.673c0-2.045-1.664-3.709-3.709-3.709c-2.046,0-3.71,1.664-3.71,3.709v3.673  C62.689,38.471,63.137,38.918,63.689,38.918z M64.689,34.245c0-0.942,0.767-1.709,1.71-1.709c0.942,0,1.709,0.767,1.709,1.709v2.673  h-3.419V34.245z" />
	<path d="M74.439,38.918h5.419c0.553,0,1-0.447,1-1v-3.673c0-2.045-1.664-3.709-3.709-3.709c-2.046,0-3.71,1.664-3.71,3.709v3.673  C73.439,38.471,73.887,38.918,74.439,38.918z M75.439,34.245c0-0.942,0.767-1.709,1.71-1.709c0.942,0,1.709,0.767,1.709,1.709v2.673  h-3.419V34.245z" />
	<path d="M63.642,52.216h5.419c0.553,0,1-0.447,1-1v-3.673c0-2.045-1.664-3.709-3.71-3.709c-2.045,0-3.709,1.664-3.709,3.709v3.673  C62.642,51.769,63.089,52.216,63.642,52.216z M64.642,47.543c0-0.942,0.767-1.709,1.709-1.709c0.943,0,1.71,0.767,1.71,1.709v2.673  h-3.419V47.543z" />
	<path d="M74.392,52.216h5.419c0.553,0,1-0.447,1-1v-3.673c0-2.045-1.664-3.709-3.71-3.709c-2.045,0-3.709,1.664-3.709,3.709v3.673  C73.392,51.769,73.839,52.216,74.392,52.216z M75.392,47.543c0-0.942,0.767-1.709,1.709-1.709c0.943,0,1.71,0.767,1.71,1.709v2.673  h-3.419V47.543z" />
	<path d="M69.061,65.466c0.553,0,1-0.447,1-1v-3.673c0-2.045-1.664-3.709-3.71-3.709c-2.045,0-3.709,1.664-3.709,3.709v3.673  c0,0.553,0.447,1,1,1H69.061z M64.642,60.793c0-0.942,0.767-1.709,1.709-1.709c0.943,0,1.71,0.767,1.71,1.709v2.673h-3.419V60.793z" />
	<path d="M74.392,65.466h5.419c0.553,0,1-0.447,1-1v-3.673c0-2.045-1.664-3.709-3.71-3.709c-2.045,0-3.709,1.664-3.709,3.709v3.673  C73.392,65.019,73.839,65.466,74.392,65.466z M75.392,60.793c0-0.942,0.767-1.709,1.709-1.709c0.943,0,1.71,0.767,1.71,1.709v2.673  h-3.419V60.793z" />
	<!--
	<text x="0" y="115" fill="#000000" font-size="5px" font-weight="bold" font-family="'Helvetica Neue', Helvetica, Arial-Unicode, Arial, Sans-serif">
	Created by Made by Made
	</text>
	<text x="0" y="120" fill="#000000" font-size="5px" font-weight="bold" font-family="'Helvetica Neue', Helvetica, Arial-Unicode, Arial, Sans-serif">
	from the Noun Project
	</text>
	-->
</svg>
