<svg xmlns="http://www.w3.org/2000/svg" xmlns:xlink="http://www.w3.org/1999/xlink" xml:space="preserve" version="1.0" style="shape-rendering:geometricPrecision;text-rendering:geometricPrecision;image-rendering:optimizeQuality;" viewBox="0 0 10000 12500" x="0px" y="0px" fill-rule="evenodd" clip-rule="evenodd">
	<g>
		<path class="fil0" d="M6355 3550c18,1145 -456,2123 -1694,2272 525,-554 706,-1005 682,-1766 -230,901 -2130,2195 -2530,2024 26,889 384,1833 888,2561 -803,-39 -970,-733 -1312,-1301 -372,638 -22,1116 362,1642 -2721,-1201 -1922,-7222 733,-7838 2313,-537 3511,826 3511,826 2568,84 2170,4506 1198,5989 -392,599 -619,930 -619,930 0,0 454,-1095 475,-1487 20,-393 20,-537 20,-537 -277,733 -603,1779 -1508,1879 565,-579 1344,-2807 1054,-3243l-537 558c68,-871 -205,-1806 -723,-2509z" />
	</g>
	<!--
	<text x="0" y="10015" fill="#000000" font-size="5px" font-weight="bold" font-family="'Helvetica Neue', Helvetica, Arial-Unicode, Arial, Sans-serif">
	Created by BETIANITI
	</text>
	<text x="0" y="10020" fill="#000000" font-size="5px" font-weight="bold" font-family="'Helvetica Neue', Helvetica, Arial-Unicode, Arial, Sans-serif">
	from the Noun Project
	</text>
	-->
</svg>
