<svg xmlns="http://www.w3.org/2000/svg" xmlns:xlink="http://www.w3.org/1999/xlink" version="1.1" x="0px" y="0px" viewBox="0 -11.562 84.406 72.1875" enable-background="new 0 -11.562 84.406 57.75" xml:space="preserve">
	<path d="M80.476,22.736c-0.422-0.629-0.745-1.031-1.432-1.596l-11.175-9.72c-1.319-1.146-3.275-1.137-4.749-0.104V-7.948  c0-0.555-0.45-1.004-1.004-1.004H22.441c-0.554,0-1.004,0.45-1.004,1.004v19.265c-1.474-1.034-3.431-1.043-4.75,0.104L5.533,21.123  c-0.707,0.582-1.031,0.984-1.452,1.614c-0.835,1.252-0.835,2.284-0.835,3.394v10.542c0,3.552,3.154,6.441,7.031,6.441h22.408  c1.888,0,3.424-1.538,3.424-3.425c0-0.792-0.27-1.52-0.721-2.1h2.821c1.888,0,3.425-1.537,3.425-3.425  c0-0.512-0.116-0.997-0.32-1.434h1.929c-0.203,0.437-0.318,0.921-0.318,1.434c0,1.889,1.535,3.425,3.424,3.425h2.821  c-0.452,0.58-0.723,1.309-0.723,2.1c0,1.887,1.537,3.425,3.426,3.425h22.406c3.877,0,7.031-2.89,7.031-6.441v-10.56  C81.311,25.021,81.311,23.989,80.476,22.736z M63.12,18.149l1.774,1.542H63.12V18.149z M23.446-6.943h37.666v26.634H48.357  c-1.888,0-3.425,1.536-3.425,3.424c0,0.791,0.271,1.52,0.723,2.101h-0.311c-0.149,0-0.297,0.013-0.441,0.031  c-0.04,0.005-0.078,0.012-0.118,0.018c-0.117,0.02-0.233,0.045-0.347,0.076c-0.026,0.007-0.054,0.012-0.08,0.021  c-0.135,0.041-0.267,0.09-0.395,0.146c-0.03,0.014-0.06,0.029-0.09,0.043c-0.102,0.049-0.199,0.102-0.295,0.159  c-0.031,0.019-0.062,0.037-0.092,0.056c-0.116,0.075-0.229,0.156-0.334,0.244c-0.016,0.013-0.03,0.028-0.045,0.041  c-0.091,0.078-0.177,0.162-0.258,0.249c-0.027,0.029-0.054,0.057-0.079,0.087c-0.081,0.092-0.158,0.189-0.229,0.29  c-0.009,0.014-0.021,0.026-0.029,0.04c-0.077,0.113-0.146,0.234-0.211,0.356c-0.007,0.014-0.016,0.026-0.022,0.04  c-0.007-0.014-0.016-0.026-0.022-0.04c-0.064-0.123-0.133-0.243-0.211-0.356c-0.009-0.014-0.021-0.026-0.029-0.04  c-0.071-0.101-0.147-0.197-0.229-0.29c-0.025-0.029-0.053-0.058-0.079-0.087c-0.082-0.086-0.167-0.17-0.258-0.249  c-0.016-0.013-0.03-0.028-0.044-0.041c-0.106-0.088-0.219-0.169-0.335-0.244c-0.03-0.02-0.061-0.038-0.092-0.056  c-0.095-0.058-0.194-0.11-0.294-0.159c-0.031-0.015-0.06-0.03-0.091-0.043c-0.128-0.056-0.259-0.106-0.394-0.146  c-0.027-0.008-0.053-0.013-0.08-0.021c-0.114-0.031-0.23-0.056-0.347-0.076c-0.039-0.006-0.078-0.013-0.118-0.018  c-0.144-0.018-0.291-0.031-0.441-0.031h-0.31c0.452-0.581,0.722-1.31,0.722-2.101c0-1.888-1.536-3.424-3.425-3.424H23.446V-6.943z   M21.438,19.691h-1.774l1.774-1.543V19.691z M38.209,35.579H23.972c-0.555,0-1.004,0.45-1.004,1.004v0.089  c0,0.149-0.01,0.305-0.031,0.475c-0.035,0.285,0.055,0.573,0.245,0.787c0.191,0.215,0.465,0.339,0.752,0.339h8.75  c0.781,0,1.416,0.634,1.416,1.415c0,0.78-0.635,1.415-1.416,1.415H10.277c-2.769,0-5.022-1.987-5.022-4.431V26.113  c0-0.978,0-1.516,0.497-2.261c0.31-0.464,0.516-0.732,1.079-1.197l11.175-9.719c0.739-0.644,1.955-0.458,2.709,0.41  c0.755,0.869,0.769,2.098,0.031,2.74l-4.427,3.852c-0.316,0.275-0.429,0.717-0.282,1.109c0.146,0.392,0.521,0.653,0.941,0.653h5.463  H36.2c0.781,0,1.416,0.634,1.416,1.415c0,0.78-0.635,1.416-1.416,1.416H23.935c-0.287,0-0.561,0.123-0.751,0.337  c-0.191,0.215-0.28,0.501-0.246,0.786c0.021,0.175,0.031,0.332,0.031,0.478v0.088c0,0.555,0.45,1.004,1.004,1.004h15.24  c0.781,0,1.417,0.634,1.417,1.415c0,0.781-0.635,1.416-1.417,1.416H23.972c-0.555,0-1.004,0.45-1.004,1.004v0.666  c0,0.003,0.001,0.007,0.001,0.01c0,0.003-0.001,0.006-0.001,0.01c0,0.554,0.449,1.004,1.004,1.004h14.237  c0.781,0,1.416,0.635,1.416,1.415C39.625,34.944,38.99,35.579,38.209,35.579z M41.933,30.72c0.009-0.012,0.015-0.026,0.023-0.038  c0.115-0.153,0.218-0.316,0.305-0.487c0.006-0.011,0.014-0.019,0.019-0.029c0.005,0.01,0.013,0.018,0.019,0.029  c0.088,0.171,0.189,0.334,0.305,0.487c0.009,0.012,0.015,0.026,0.024,0.038H41.933z M79.302,36.672c0,2.444-2.253,4.431-5.022,4.431  H51.873c-0.781,0-1.416-0.635-1.416-1.415c0-0.781,0.635-1.415,1.416-1.415h8.75c0.287,0,0.561-0.124,0.752-0.339  c0.19-0.214,0.279-0.502,0.245-0.787c-0.021-0.17-0.031-0.325-0.031-0.475v-0.089c0-0.555-0.449-1.004-1.004-1.004H46.349  c-0.781,0-1.416-0.635-1.416-1.416c0-0.78,0.635-1.415,1.416-1.415h14.236c0.555,0,1.004-0.45,1.004-1.004v-0.02v-0.666  c0-0.554-0.449-1.004-1.004-1.004h-15.24c-0.781,0-1.417-0.635-1.417-1.416c0-0.78,0.636-1.415,1.417-1.415h15.239  c0.555,0,1.004-0.45,1.004-1.004v-0.088c0-0.146,0.011-0.303,0.031-0.478c0.034-0.285-0.055-0.571-0.245-0.786  c-0.19-0.215-0.465-0.337-0.751-0.337H48.357c-0.781,0-1.416-0.635-1.416-1.416c0-0.781,0.635-1.415,1.416-1.415h13.759h5.463  c0.418,0,0.794-0.261,0.94-0.653c0.147-0.392,0.035-0.834-0.281-1.109l-4.428-3.852c-0.738-0.642-0.725-1.872,0.029-2.74  c0.757-0.869,1.973-1.052,2.712-0.411l11.194,9.737c0.543,0.447,0.748,0.715,1.059,1.178c0.497,0.746,0.497,1.284,0.497,2.279  V36.672z" />
	<!--
	<text x="0" y="61.188" fill="#000000" font-size="5px" font-weight="bold" font-family="'Helvetica Neue', Helvetica, Arial-Unicode, Arial, Sans-serif">
	Created by corpus delicti
	</text>
	<text x="0" y="66.188" fill="#000000" font-size="5px" font-weight="bold" font-family="'Helvetica Neue', Helvetica, Arial-Unicode, Arial, Sans-serif">
	from the Noun Project
	</text>
	-->
</svg>
