<svg xmlns="http://www.w3.org/2000/svg" xmlns:xlink="http://www.w3.org/1999/xlink" version="1.1" x="0px" y="0px" viewBox="0 0 100 125" enable-background="new 0 0 100 100" xml:space="preserve">
	<g>
		<g>
			<path d="M91.268,86.207c-0.92-1.588-2.947-2.128-4.531-1.211c-0.061,0.034-6.223,3.207-12.002,5.119    c-7.186,2.378-13.316,2.038-16.248-2.479c-1.422-2.19-2.527-7.496,1.836-15.754c2.895-5.477,7.832-9.581,7.877-9.618    c1.43-1.144,1.662-3.23,0.518-4.662c-1.145-1.431-3.232-1.661-4.662-0.519c-0.236,0.191-5.99,4.672-9.576,11.258    c-2.962,5.437-4.304,12.623-4.304,12.623s-0.907,0.078-2.112-0.139c-1.268-0.229-1.99-0.726-1.99-0.726l4.307-17.501    c0.006-0.021,0.17-0.757,0.068-1.466l-0.004-0.026c-0.002-0.006-0.002-0.013-0.002-0.019l-3.074-20.566    c-0.31-2.07-2.236-3.501-4.309-3.189c-2.071,0.309-3.499,2.238-3.189,4.309l2.926,19.575l-3.915,9.487l-1.946-11.992    c-0.004-0.027-0.187-1.726-1.869-2.688l-17.532-9.951c-1.823-1.035-4.136-0.396-5.168,1.425c-1.034,1.821-0.396,4.135,1.426,5.168    l15.612,8.862V73.06c0,0,0.237,12.208,7.581,18.638c9.009,7.888,19.629,8.378,29.615,6.832c0,0,12.48-1.587,23.219-7.932    C91.121,89.828,92.186,87.792,91.268,86.207z" />
			<path d="M71.793,83.431c0,3.357-2.725,6.081-6.08,6.081c-3.359,0-6.082-2.724-6.082-6.081s2.723-6.081,6.082-6.081    C69.068,77.35,71.793,80.073,71.793,83.431z" />
		</g>
	</g>
	<g>
		<path d="M31.1,46.169c-1.119,0-2.038-0.919-2.038-2.038c0-1.128,0.919-2.038,2.038-2.038c1.127,0,2.038,0.91,2.038,2.038   C33.137,45.25,32.227,46.169,31.1,46.169L31.1,46.169z M31.1,39.251c-1.119,0-2.038-0.919-2.038-2.038   c0-1.127,0.919-2.037,2.038-2.037c1.127,0,2.038,0.91,2.038,2.037C33.137,38.332,32.227,39.251,31.1,39.251L31.1,39.251z    M31.1,32.333c-1.119,0-2.038-0.919-2.038-2.038c0-1.127,0.919-2.037,2.038-2.037c1.127,0,2.038,0.909,2.038,2.037   C33.137,31.415,32.227,32.333,31.1,32.333L31.1,32.333z M31.1,25.416c-1.119,0-2.038-0.919-2.038-2.038   c0-1.128,0.919-2.038,2.038-2.038c1.127,0,2.038,0.91,2.038,2.038C33.137,24.496,32.227,25.416,31.1,25.416L31.1,25.416z" />
		<path d="M60.164,52.168c-1.119,0-2.037-0.91-2.037-2.037c0-1.12,0.918-2.039,2.037-2.039c1.127,0,2.037,0.919,2.037,2.039   C62.201,51.258,61.291,52.168,60.164,52.168L60.164,52.168z M60.164,45.25c-1.119,0-2.037-0.91-2.037-2.039   c0-1.118,0.918-2.037,2.037-2.037c1.127,0,2.037,0.918,2.037,2.037C62.201,44.34,61.291,45.25,60.164,45.25L60.164,45.25z    M60.164,38.332c-1.119,0-2.037-0.91-2.037-2.038c0-1.118,0.918-2.037,2.037-2.037c1.127,0,2.037,0.919,2.037,2.037   C62.201,37.422,61.291,38.332,60.164,38.332L60.164,38.332z M60.164,31.415c-1.119,0-2.037-0.911-2.037-2.038   c0-1.118,0.918-2.038,2.037-2.038c1.127,0,2.037,0.92,2.037,2.038C62.201,30.503,61.291,31.415,60.164,31.415L60.164,31.415z" />
		<path d="M43.106,32.428c-1.119,0-2.038-0.919-2.038-2.038c0-1.128,0.919-2.037,2.038-2.037c1.127,0,2.037,0.909,2.037,2.037   C45.144,31.509,44.234,32.428,43.106,32.428L43.106,32.428z M43.106,25.51c-1.119,0-2.038-0.919-2.038-2.038   c0-1.127,0.919-2.037,2.038-2.037c1.127,0,2.037,0.91,2.037,2.037C45.144,24.591,44.234,25.51,43.106,25.51L43.106,25.51z    M43.106,18.593c-1.119,0-2.038-0.919-2.038-2.039c0-1.127,0.919-2.037,2.038-2.037c1.127,0,2.037,0.91,2.037,2.037   C45.144,17.673,44.234,18.593,43.106,18.593L43.106,18.593z M43.106,11.675c-1.119,0-2.038-0.92-2.038-2.039   c0-1.128,0.919-2.038,2.038-2.038c1.127,0,2.037,0.91,2.037,2.038C45.144,10.755,44.234,11.675,43.106,11.675L43.106,11.675z    M43.106,4.755c-1.119,0-2.038-0.919-2.038-2.037c0-1.128,0.919-2.038,2.038-2.038c1.127,0,2.037,0.91,2.037,2.038   C45.144,3.836,44.234,4.755,43.106,4.755L43.106,4.755z" />
	</g>
	<!--
	<text x="0" y="115" fill="#000000" font-size="5px" font-weight="bold" font-family="'Helvetica Neue', Helvetica, Arial-Unicode, Arial, Sans-serif">
	Created by Luis Prado
	</text>
	<text x="0" y="120" fill="#000000" font-size="5px" font-weight="bold" font-family="'Helvetica Neue', Helvetica, Arial-Unicode, Arial, Sans-serif">
	from the Noun Project
	</text>
	-->
</svg>
