<svg xmlns="http://www.w3.org/2000/svg" xmlns:xlink="http://www.w3.org/1999/xlink" version="1.1" x="0px" y="0px" viewBox="0 0 100 125" style="enable-background:new 0 0 100 100;" xml:space="preserve">
	<g>
		<path d="M8.8707943,53.9963036c0.2037277,0,0.4114313-0.0407448,0.6101904-0.1272049l74.5177994-32.5596466l-0.0845337,0.2185726   c-0.3041,0.7870846,0.0874557,1.6705685,0.8735428,1.9746704c0.1808701,0.0695667,0.3677063,0.1023617,0.5505676,0.1023617   c0.612175,0,1.1895676-0.3706856,1.4241028-0.9759083l1.4042358-3.6343079   c0.0128555-0.0334778,0.0174561-0.0677643,0.0278244-0.1014919c0.0189438-0.0609932,0.0393829-0.1214905,0.05056-0.184597   c0.0080795-0.0456524,0.0078888-0.0909939,0.0117416-0.1365852c0.0046539-0.0539742,0.0120468-0.1074543,0.0109329-0.1619873   c-0.0010605-0.0475788-0.0101242-0.0936661-0.0155945-0.1405602c-0.0060196-0.0520496-0.0086288-0.1041012-0.0201874-0.1559639   c-0.0129776-0.0581379-0.0347824-0.1132927-0.0543442-0.1693172c-0.0128555-0.0370197-0.0198746-0.0747223-0.0357742-0.1112442   c-0.0008698-0.0019245-0.0021744-0.0034771-0.0030441-0.0054035c-0.0401917-0.0909939-0.0893784-0.1779518-0.1465912-0.2597523   c-0.0198746-0.0283852-0.0447769-0.0514297-0.06633-0.0780754c-0.0413055-0.0513058-0.0813675-0.1034794-0.1293793-0.1494427   c-0.0258408-0.0246582-0.0558395-0.0432911-0.083168-0.0659008c-0.0493164-0.0409946-0.097084-0.083416-0.1521149-0.1183243   c-0.083107-0.0527325-0.1709366-0.0973301-0.2622986-0.1331062c-0.0020523-0.0008068-0.0037308-0.0021114-0.0057755-0.0029182   l-3.633316-1.404233c-0.7860947-0.3011198-1.6705704,0.0874538-1.9746704,0.8735456   c-0.3041,0.7870865,0.0874481,1.6705704,0.8735428,1.9746704l0.1723633,0.0665855L8.2586164,51.0705719   c-0.7721791,0.3378906-1.1249762,1.238266-0.7880797,2.0104446C7.7219667,53.654438,8.2824678,53.9963036,8.8707943,53.9963036z" />
		<path d="M92.7431259,81.4329987h-14.426918V62.0649261l4.3627548-4.3627586c0.596283-0.5962791,0.596283-1.5622482,0-2.1585236   c-0.5962753-0.5962791-1.5622406-0.5962791-2.1585236,0l-2.2042313,2.2042351v-8.5357666   c0.1734161,0.0081978,0.3539734,0.0139732,0.5475769,0.0139732c2.1535568,0,5.4877396-0.590313,8.4949646-3.597538   c4.8447495-4.8447495,3.4166641-10.5372086,3.3530655-10.7767143c-0.1411209-0.5376434-0.5634842-0.9560318-1.1031189-1.0911865   c-0.239502-0.0606232-5.9657516-1.437027-10.7608109,3.3570404c-0.8796921,0.8796959-1.5482101,1.7908173-2.0586472,2.6937447   c-0.510437-0.9029274-1.1789474-1.8140488-2.0586472-2.6937447c-4.7950592-4.795063-10.5213089-3.4186554-10.7608109-3.3570404   c-0.5396309,0.1351547-0.9619942,0.5535431-1.1031151,1.0911865c-0.0636024,0.2395058-1.491684,5.9319649,3.3530693,10.7767143   c3.0072174,3.007225,6.3414001,3.597538,8.494957,3.597538c0.1939774,0,0.3749084-0.0058365,0.5485764-0.0140343v21.8680878   l-1.8633652-1.8628693c-0.5962753-0.5962753-1.5622482-0.5962753-2.1585236,0s-0.5962753,1.5632401,0,2.1585236l3.5836258,3.582634   c0.1293793,0.1293793,0.2816162,0.2178879,0.4382629,0.2911148v6.1834564H51.9418755v-6.7279892l2.6991463-2.6991501   c0.5962791-0.5962753,0.5962791-1.5622482,0-2.1585236c-0.5962753-0.5962753-1.5622444-0.5962753-2.1585197,0l-0.5406265,0.5406265   v-7.9891815c0.1734161,0.0081978,0.3539772,0.0139732,0.5475807,0.0139732c2.1545486,0,5.4887314-0.590313,8.4949608-3.597538   c4.8447533-4.8437576,3.4166679-10.5362167,3.3530693-10.7757187c-0.1411209-0.5376434-0.5634842-0.95504-1.1021233-1.0911903   c-0.242485-0.0606194-5.9677391-1.4380188-10.7618065,3.3560486c-0.8796349,0.879818-1.5480232,1.7908783-2.0584602,2.6938057   c-0.5105019-0.9029274-1.1790123-1.8139877-2.0588341-2.6938057c-4.7940674-4.7940674-10.5183258-3.4166679-10.7608147-3.3560486   c-0.5386353,0.1361504-0.9609985,0.5535469-1.1021156,1.0911903c-0.0636063,0.239502-1.4916878,5.9319611,3.3520699,10.7757187   c3.007225,3.007225,6.3414078,3.597538,8.4949608,3.597538c0.1939774,0,0.3749084-0.0057755,0.5485764-0.0140381v19.0342827   h-24.363884v-5.8475494c0.173418,0.008194,0.3539772,0.0139771,0.5475807,0.0139771   c2.1545486,0,5.4877377-0.5903168,8.4949608-3.59655c4.8447533-4.8447495,3.4166679-10.5372086,3.3530655-10.7767143   c-0.1411171-0.5376434-0.5634804-0.956028-1.1021194-1.0911865c-0.242485-0.0626068-5.9687328-1.4390144-10.7618065,3.3570404   c-0.8796329,0.8796349-1.5480232,1.7905083-2.0584602,2.6933098c-0.5105-0.9028015-1.1790142-1.8136749-2.0588341-2.6933098   c-4.7920799-4.7940674-10.5183268-3.4176598-10.7608128-3.3570404c-0.5386372,0.1361504-0.9610004,0.5535431-1.1021194,1.0911865   c-0.0636024,0.2395058-1.4916863,5.9319649,3.3520718,10.7767143c3.0072241,3.0062332,6.3404121,3.59655,8.4949608,3.59655   c0.1939754,0,0.3749084-0.0058441,0.5485744-0.0140381v5.8476105H7.2568707c-0.8427382,0-1.5264692,0.6837311-1.5264692,1.526474   c0,0.8427353,0.6837311,1.5264664,1.5264692,1.5264664h85.4862518c0.8427429,0,1.526474-0.6837311,1.526474-1.5264664   C94.2695999,82.1167297,93.5858688,81.4329987,92.7431259,81.4329987z M81.0064087,39.2762108   c2.5490875-2.5480919,5.4191666-2.7657318,6.8860092-2.6822548c0.0953979,1.4588928-0.1222382,4.3061142-2.6921921,6.8760681   c-2.5719528,2.5719414-5.4122086,2.7915726-6.8760681,2.6921921c-0.0077667-0.1274529-0.0085754-0.2780762-0.0103149-0.4254074   c0.0005646-0.0795631-0.000618-0.1608696-0.0016785-0.2438507C78.3392487,43.922142,78.8014221,41.4811935,81.0064087,39.2762108z    M68.3782501,43.4700241c-2.5719376-2.5719414-2.78759-5.4211502-2.6921844-6.8760681   c1.4638596-0.0824852,4.3369217,0.1351585,6.8860016,2.6822548c2.2042389,2.2051048,2.6669769,4.6453705,2.6942444,6.2166214   c-0.0010605,0.0829201-0.0022354,0.1643486-0.0016785,0.2438545c-0.0017395,0.1473274-0.0025482,0.2980766-0.0103073,0.4255295   C73.7894669,46.2526512,70.9472122,46.0389862,68.3782501,43.4700241z M54.6320801,52.4628792   c2.5480881-2.5480919,5.4181709-2.7736855,6.8860054-2.6812592c0.0954056,1.458889-0.1222382,4.3051186-2.6921921,6.8750725   c-2.5719414,2.5719414-5.4112129,2.7885895-6.8760681,2.6921921c-0.0076408-0.1259003-0.0083847-0.27491-0.0101852-0.4202499   c0.0006828-0.0821762-0.0004959-0.166275-0.0016136-0.2520523C51.9656639,57.1057014,52.4284019,54.6665573,54.6320801,52.4628792z    M42.0039253,56.6566925c-2.5719414-2.5719414-2.7875977-5.4211502-2.6911964-6.8750725   c1.4708138-0.0824852,4.3369217,0.1331673,6.8850098,2.6812592c2.2047997,2.2047958,2.667038,4.6447487,2.6942406,6.2159996   c-0.0011177,0.0835419-0.0022354,0.1655312-0.0016136,0.2456551c-0.0017395,0.1468964-0.0026703,0.2972069-0.0103722,0.4243507   C47.4230881,59.4393196,44.5748711,59.2276421,42.0039253,56.6566925z M27.2152596,65.6505356   c2.54809-2.5490799,5.4171753-2.7637405,6.8860054-2.682251c0.0954056,1.4588928-0.1222382,4.3061142-2.6921902,6.8760681   c-2.5719433,2.5709534-5.4132023,2.7895813-6.87607,2.6912003c-0.0076389-0.1259003-0.0083847-0.27491-0.0101852-0.4201889   c0.0006828-0.0821762-0.0004978-0.166153-0.0016155-0.2519302C24.5490303,70.2927399,25.0123882,67.8542786,27.2152596,65.6505356z    M14.5871038,69.8443527c-2.5719414-2.5719376-2.7875957-5.422142-2.6911974-6.8760681   c1.4737988-0.0814896,4.3379154,0.1341629,6.8850136,2.682251c2.2047958,2.2048035,2.6670341,4.6446304,2.6942406,6.2152634   c-0.0010567,0.0834732-0.0022373,0.1654663-0.0016155,0.2455292c-0.0017395,0.1468277-0.0026093,0.297142-0.0103722,0.4242249   C20.0062695,72.6240005,17.1580524,72.4143066,14.5871038,69.8443527z" />
	</g>
	<!--
	<text x="0" y="115" fill="#000000" font-size="5px" font-weight="bold" font-family="'Helvetica Neue', Helvetica, Arial-Unicode, Arial, Sans-serif">
	Created by Dmitry Vasiliev
	</text>
	<text x="0" y="120" fill="#000000" font-size="5px" font-weight="bold" font-family="'Helvetica Neue', Helvetica, Arial-Unicode, Arial, Sans-serif">
	from the Noun Project
	</text>
	-->
</svg>
