<svg xmlns="http://www.w3.org/2000/svg" viewBox="0 0 64 80" x="0px" y="0px">
	<g>
		<path d="M52.965,6.737l-.013,0a.986.986,0,0,0-.636-.689l-12-4A1,1,0,0,0,40,2H24a1,1,0,0,0-.316.052l-12,4a.986.986,0,0,0-.636.689l-.013,0-6,22a1,1,0,0,0,.678,1.221L15,32.744V61a1,1,0,0,0,1,1H48a1,1,0,0,0,1-1V32.744l9.287-2.786a1,1,0,0,0,.678-1.221Zm-4.443,11.93a28.977,28.977,0,0,1-3.279-.637c-.989-.247-1.6-.658-1.549-1.046A1.411,1.411,0,0,1,45,16a3,3,0,0,0,2.882-1.756,3.666,3.666,0,0,0-1.175-3.951c-.485-.485.026-1.859,1.293-3.572l2.838.946ZM34,4V6H30V4Zm2,4V4h3V7A7,7,0,0,1,25,7V4h3V8ZM7.221,28.322,7.77,26.31l4.914,1.638.632-1.9L8.3,24.379l3.578-13.12L15,26.1v4.552Zm17.792,12.44c.5.357,2.3,1.338,4.694-1.055.538-.537.825-.371.948-.3a2.207,2.207,0,0,1,.742,2.267C31.1,42.77,29.932,43,29,43c-3.871,0-5.25,1.55-5.25,3s1.49,3,4.25,3a1.346,1.346,0,0,1,1.326.625,1.08,1.08,0,0,1-.251,1.143c-.673.737-2.078.841-3.759.284a24.168,24.168,0,0,0-7.43-1.551q-.456,0-.886.036V41.292a6.032,6.032,0,0,0,4.929-3.921c.593-1.484,1.24-2.061,1.613-2.1a.526.526,0,0,1,.465.269,1.027,1.027,0,0,1,.1,1.017A3.4,3.4,0,0,0,25.013,40.762ZM47,26V60H17V58h9V56H17V51.547c1.862-.2,4.179.234,7.684,1.4a8.173,8.173,0,0,0,2.584.464,4.3,4.3,0,0,0,3.286-1.3,3.073,3.073,0,0,0,.6-3.3A3.274,3.274,0,0,0,28,47c-1.477,0-2.25-.651-2.25-1,0-.267.77-1,3.25-1,3.229,0,4.1-1.964,4.33-2.809a4.186,4.186,0,0,0-1.675-4.516,2.691,2.691,0,0,0-3.362.618c-.861.862-1.65,1.181-2.111.847a1.416,1.416,0,0,1-.287-1.693,3.032,3.032,0,0,0-.25-3.058,2.485,2.485,0,0,0-2.333-1.11c-.909.106-2.209.773-3.241,3.35A4.023,4.023,0,0,1,17,39.25V26a1.014,1.014,0,0,0-.021-.206L13.162,7.667,23,4.387V7A9,9,0,0,0,41,7V4.387L46.017,6.06c-2.106,3.091-1.6,4.769-.724,5.647.644.644.928,1.322.741,1.772A1.041,1.041,0,0,1,45,14a3.367,3.367,0,0,0-3.291,2.74c-.069.562-.054,2.454,3.049,3.23a31.44,31.44,0,0,0,3.35.664l-1.087,5.16A1.014,1.014,0,0,0,47,26Zm2,4.656V26.1l3.125-14.845,4.654,17.063Z" />
		<polygon points="43 56 39 56 39 58 45 58 45 50 43 50 43 56" />
		<path d="M44,21H34a1,1,0,0,0-1,1V32a1,1,0,0,0,1,1H44a1,1,0,0,0,1-1V22A1,1,0,0,0,44,21ZM43,31H35V23h8Z" />
		<rect x="19" y="42" width="2" height="2" />
		<rect x="20" y="46" width="2" height="2" />
		<path d="M29.351,18.063c-7.313-2.742-8.322-8.945-8.361-9.2A1,1,0,0,0,19,9V22a3,3,0,0,0,6,0V18.056a16.663,16.663,0,0,0,3,1.623V24h2V19A1,1,0,0,0,29.351,18.063ZM23,22a1,1,0,0,1-2,0V13.987a14.487,14.487,0,0,0,2,2.431Z" />
		<rect x="27" y="26.586" width="2" height="2.828" transform="translate(-11.598 28) rotate(-45)" />
		<rect x="37.197" y="43.5" width="3.606" height="2" transform="translate(-19.66 52.266) rotate(-56.31)" />
		<rect x="34" y="48.586" width="2" height="2.828" transform="translate(-25.104 39.393) rotate(-45)" />
	</g>
	<!--
	<text x="0" y="79" fill="#000000" font-size="5px" font-weight="bold" font-family="'Helvetica Neue', Helvetica, Arial-Unicode, Arial, Sans-serif">
	Created by Smalllike
	</text>
	<text x="0" y="84" fill="#000000" font-size="5px" font-weight="bold" font-family="'Helvetica Neue', Helvetica, Arial-Unicode, Arial, Sans-serif">
	from the Noun Project
	</text>
	-->
</svg>
