<svg xmlns="http://www.w3.org/2000/svg" data-name="Layer 1" viewBox="0 0 128 160" x="0px" y="0px">
	<path d="M64.3031,53.20412l.79721.63525a2.03947,2.03947,0,0,0,2.80953-.32373,2.00064,2.00064,0,0,0-.32367-2.81006l-.76939-.61279a1.99994,1.99994,0,0,0-2.51368,3.11133Z" />
	<path d="M58.39064,89.938l-.75181.67969a2,2,0,0,0-.13192,2.82508,2.04323,2.04323,0,0,0,2.82477.132l.73033-.66016A1.99976,1.99976,0,0,0,58.39064,89.938Z" />
	<path d="M65.16426,83.98488l-.742.65625a1.99975,1.99975,0,0,0-.1826,2.82225,2.02544,2.02544,0,0,0,2.82175.18264l.75767-.66895a2.00006,2.00006,0,0,0-2.65477-2.99219Z" />
	<path d="M51.80351,96.357q-.353.38525-.69518.77441A1.99992,1.99992,0,1,0,54.11265,99.772q.31561-.35962.64148-.71484a1.99982,1.99982,0,1,0-2.95061-2.7002Z" />
	<path d="M48.23827,114.15236q-.09007-.40942-.14353-.81641a1.99954,1.99954,0,1,0-3.96507.52051q.07542.57562.20208,1.15319a2.06015,2.06015,0,0,0,2.38239,1.525A2.00019,2.00019,0,0,0,48.23827,114.15236Z" />
	<path d="M46.68,107.65581a2.01635,2.01635,0,0,0,2.65764-.96682q.18893-.40576.40129-.80811a1.99953,1.99953,0,1,0-3.53742-1.86523q-.2585.48926-.48819.98193A2.00061,2.00061,0,0,0,46.68,107.65581Z" />
	<path d="M51.658,120.39162a1.99973,1.99973,0,1,0-3.23864,2.34668l.59852.8208a2.03036,2.03036,0,0,0,2.79635.42383,2.00112,2.00112,0,0,0,.42375-2.79687Z" />
	<path d="M80.9391,63.86428q-.27021-.52222-.59364-1.02539a1.99973,1.99973,0,1,0-3.36655,2.15918c.1479.23093.28458.46527.40808.704a2.07144,2.07144,0,0,0,2.69485.85752A2.00011,2.00011,0,0,0,80.9391,63.86428Z" />
	<path d="M74.3466,56.69875l-.77964-.64111a2.00005,2.00005,0,0,0-2.53565,3.09375l.766.62939a2.05069,2.05069,0,0,0,2.81539-.26611A2.0003,2.0003,0,0,0,74.3466,56.69875Z" />
	<path d="M71.67524,77.86672l-.71715.6792A1.99984,1.99984,0,0,0,73.69878,81.459l.73668-.69775a1.99982,1.99982,0,0,0-2.76022-2.89453Z" />
	<path d="M79.74646,70.667a1.99986,1.99986,0,0,0-2.707.81787q-.20284.37793-.436.75A2.00063,2.00063,0,0,0,77.24,74.99067a2.03747,2.03747,0,0,0,2.75545-.63665q.30317-.48633.56874-.97949A2,2,0,0,0,79.74646,70.667Z" />
	<path d="M64.31579,44.75392a1.99974,1.99974,0,1,0-3.70438-1.50781,8.58316,8.58316,0,0,0-.4008,1.2417,1.99992,1.99992,0,0,0,1.483,2.40818,2.02944,2.02944,0,0,0,2.40786-1.48337A4.57985,4.57985,0,0,1,64.31579,44.75392Z" />
	<path d="M70.64662,24.36525c2.44189.76024,5.0273,2.57808,5.6586,4.22024,1.16456,3.02946-1.88888,5.27439-3.65605,7.2534-2.62743,2.94238-3.57061,6.89111-2.40384,10.05957,1.46359,3.97705,5.17675,5.84375,8.54184,7.28174,7.199,3.07568,11.78872,6.49481,13.88268,10.33936A10.94859,10.94859,0,0,1,96.00265,63c.30951,0,.61378.02124.91688.04645-3.2409-7.85181-12.86048-11.9635-16.56137-13.545-2.82954-1.209-5.44526-2.49951-6.35963-4.98535-.80551-2.186.37639-4.605,1.63349-6.01221,2.98324-3.33941,6.27778-6.4833,4.4059-11.354-1.1391-2.964-4.64668-5.43522-8.038-6.53485l.00727-5.79669L82.83132,9.90676a2.00014,2.00014,0,0,0,.0786-3.605L70.9122.21633A2,2,0,0,0,68.008,2V20H65.53184c-2.46956,0-2.904,4.45705-.75276,5.24072,1.15406.4204,3.09652,1.30954,3.13712,2.54293.13237,4.04124-6.206,6.34646-9.21018,7.56742-4.235,1.72116-10.03551,4.079-11.69155,8.30254C42.87786,54.20348,62.09691,54.79018,61.51163,64.3882c-.28852,4.73145-3.98167,10.24316-10.68109,15.939C43.218,86.8,34.883,92.34339,27.17879,98.69924c-6.91422,5.7041-12.77248,15.38525-6.52855,23.896a1.99957,1.99957,0,1,0,3.224-2.36621c-4.59337-6.26172.28022-13.84912,5.849-18.44386C37.442,95.41694,45.79444,89.8594,53.42088,83.375c7.65626-6.50977,11.72141-12.81592,12.08218-18.74365.41691-6.83832-4.43559-9.664-8.33425-11.935-2.18566-1.27316-7.77331-4.1647-6.43094-7.58228,1.6214-4.13518,7.77526-5.26254,11.39913-6.85968,4.96781-2.18945,9.91755-6.31738,9.77647-10.603A5.36573,5.36573,0,0,0,70.64662,24.36525ZM72.0072,5.25685l5.37935,2.72852L72.0072,10.42629Z" />
	<path d="M84.00493,122.48567c-4.38821-2.60968-9.27241-6.2193-10.25538-11.33575-.89857-4.67743,1.33263-9.12128,4.25652-12.85522v-6.069c-4.75947,4.93463-9.70043,11.78528-8.18351,19.67914,1.53639,8.00031,9.4171,12.5553,14.89256,15.59247a7.67173,7.67173,0,0,1-.71019-3.217Z" />
	<path d="M89.004,74a6.99867,6.99867,0,1,0,6.99867-7A6.99921,6.99921,0,0,0,89.004,74Zm9.9981,0a2.99943,2.99943,0,1,1-2.99943-3A3.00311,3.00311,0,0,1,99.00209,74Z" />
	<path d="M104.48249,85H87.52428a5.52206,5.52206,0,0,0-5.519,5.5127v17.73145A3.76177,3.76177,0,0,0,85.76436,112h2.23981v12.28027A3.71833,3.71833,0,0,0,91.71294,128h8.57943a3.71833,3.71833,0,0,0,3.70877-3.71973V111.35012h2.0582A4.13189,4.13189,0,0,0,110,107.34181V90.51271A5.52143,5.52143,0,0,0,104.48249,85Zm1.51827,22.26172a.46035.46035,0,0,1-.0742.08838h-1.92542V105a1.99962,1.99962,0,1,0-3.99924,0v19H92.00341V105a1.99962,1.99962,0,1,0-3.99924,0v3H86.00455V90.51271A1.51787,1.51787,0,0,1,87.52428,89h16.95821a1.51724,1.51724,0,0,1,1.51827,1.5127Z" />
	<!--
	<text x="0" y="143" fill="#000000" font-size="5px" font-weight="bold" font-family="'Helvetica Neue', Helvetica, Arial-Unicode, Arial, Sans-serif">
	Created by priyanka
	</text>
	<text x="0" y="148" fill="#000000" font-size="5px" font-weight="bold" font-family="'Helvetica Neue', Helvetica, Arial-Unicode, Arial, Sans-serif">
	from the Noun Project
	</text>
	-->
</svg>
