<svg xmlns="http://www.w3.org/2000/svg" xmlns:xlink="http://www.w3.org/1999/xlink" version="1.1" x="0px" y="0px" viewBox="0 0 100 125" style="enable-background:new 0 0 100 100;" xml:space="preserve">
	<path d="M96.7,73.2h3.3v-2h-4V45.5L83.1,29.7L70.1,45.5v25.7h-5.3V45.3h0c-0.4-3.1-3-5.4-6.1-5.4c-3.2,0-5.8,2.4-6.1,5.4h0v25.9  H40.7v-7.8c1.8-0.4,3.1-3.6,3.1-7.7c0-4.3-2.1-7.7-3.4-7.7c-1.4,0-3.4,3.5-3.4,7.7c0,3.8,1.2,6.9,2.8,7.6v7.9H29.7v-7.8  c1.8-0.4,3.1-3.6,3.1-7.7c0-4.3-2.1-7.7-3.4-7.7c-1.4,0-3.4,3.5-3.4,7.7c0,3.8,1.2,6.9,2.8,7.6v7.9H18.6v-7.8  c1.8-0.4,3.1-3.6,3.1-7.7c0-4.3-2.1-7.7-3.4-7.7c-1.4,0-3.4,3.5-3.4,7.7c0,3.8,1.2,6.9,2.8,7.6v7.9H7.6v-7.8  c1.8-0.4,3.1-3.6,3.1-7.7c0-4.3-2.1-7.7-3.4-7.7c-1.4,0-3.4,3.5-3.4,7.7c0,3.8,1.2,6.9,2.8,7.6v7.9H0v2h5.6c-1.9,0.4-3.8,1.1-5.6,2  c0,3.2,0,1.1,0,3.2c7-4.9,15.5-5.2,24.2-5.2C15.7,74,7.3,77.1,0,81.1c0,3.2,0,1.1,0,3.2c7.8-5.5,17.5-10.1,27.3-11c1,0,2.1,0,3.1,0  c-0.6,0-1.2,0-1.8,0c0,0,0,0,0,0h6C21.2,74.4,8.3,83.1,0,91c0,4.2,0,1.5,0,6.5c6.2-8.8,21.4-22.8,37-24.3h5  c-16.2,1.7-31.5,18.7-35.7,27.1h8.3C18.3,92.1,31,74.8,45,73.2h5.6C37.8,74.9,25.3,91.9,22,100.3l8.3,0v0  c2.8-8.1,12.9-25.6,23.5-27.1h5.5C50,74.9,40.4,91.9,38,100.3h8.3c1.8-8,9.6-26,16.6-27.1h4.4c-9.2,1.7-10.3,18.7-12.9,27.1l9,0  c2-8,0.2-26,7.8-27.1h5c-9.7,1.7-0.8,18.7-3.8,27.1l9,0c2.3-8-9.4-26-0.8-27.1h3.6c-8.6,1.7,10.8,18.7,7.8,27.1h7.9c0,0,0-2.1,0-7.6  C94.4,84.2,82.4,74,88.7,73.2h3.7c-3.2,0.8,1.6,4.6,7.6,9.3c0-2.8,0,0,0-4.3C96.1,75.5,94.2,73.5,96.7,73.2z M89.2,53.1L89.2,53.1  L89.2,53.1L89.2,53.1z M89.2,52.3l-2-2.9l2-2.9V52.3z M88.6,53.1h-4.1l2-2.9L88.6,53.1z M88.6,45.8l-2,2.9l-2-2.9H88.6z M84,45.8  L84,45.8L84,45.8L84,45.8z M84,46.5l2,2.9l-2,2.9V46.5z M84,53.1L84,53.1L84,53.1L84,53.1z M80.3,49.4l2-2.9v5.7L80.3,49.4z   M82.4,53.1L82.4,53.1L82.4,53.1L82.4,53.1z M81.8,53.1h-4.1l2-2.9L81.8,53.1z M81.8,45.8l-2,2.9l-2-2.9H81.8z M77.2,46.5l2,2.9  l-2,2.9V46.5z M77.2,53.1L77.2,53.1L77.2,53.1L77.2,53.1z M77.2,71.2V58.9h11.7v12.3H77.2z" />
	<!--
	<text x="0" y="115" fill="#000000" font-size="5px" font-weight="bold" font-family="'Helvetica Neue', Helvetica, Arial-Unicode, Arial, Sans-serif">
	Created by Evan Caughey
	</text>
	<text x="0" y="120" fill="#000000" font-size="5px" font-weight="bold" font-family="'Helvetica Neue', Helvetica, Arial-Unicode, Arial, Sans-serif">
	from the Noun Project
	</text>
	-->
</svg>
