<svg xmlns="http://www.w3.org/2000/svg" viewBox="0 0 64 80" x="0px" y="0px">
	<g>
		<path d="M10,6a4,4,0,1,0,4,4A4,4,0,0,0,10,6Zm0,6a2,2,0,1,1,2-2A2,2,0,0,1,10,12Z" />
		<path d="M10,5a1,1,0,0,0,1-1V3A1,1,0,0,0,9,3V4A1,1,0,0,0,10,5Z" />
		<path d="M5.051,6.465A1,1,0,1,0,6.465,5.05l-.708-.707A1,1,0,1,0,4.343,5.758Z" />
		<path d="M5,10A1,1,0,0,0,4,9H3a1,1,0,0,0,0,2H4A1,1,0,0,0,5,10Z" />
		<path d="M5.051,13.535l-.708.707a1,1,0,1,0,1.414,1.415l.708-.707a1,1,0,1,0-1.414-1.415Z" />
		<path d="M10,15a1,1,0,0,0-1,1v1a1,1,0,0,0,2,0V16A1,1,0,0,0,10,15Z" />
		<path d="M14.949,13.535a1,1,0,1,0-1.414,1.415l.708.707a1,1,0,1,0,1.414-1.415Z" />
		<path d="M18,10a1,1,0,0,0-1-1H16a1,1,0,0,0,0,2h1A1,1,0,0,0,18,10Z" />
		<path d="M14.242,6.757a1,1,0,0,0,.707-.292l.708-.707a1,1,0,1,0-1.414-1.415l-.708.707a1,1,0,0,0,.707,1.707Z" />
		<path d="M61,19H58a1,1,0,0,0-1,1v5H42.22a2.964,2.964,0,0,0-4.44,0H22V20a1,1,0,0,0-1-1H18a1,1,0,0,0-1,1V61a1,1,0,0,0,1,1h3a1,1,0,0,0,1-1V27H37a1,1,0,0,0,2,0h2a1,1,0,0,1-1,1,1,1,0,0,0-1,1v2H31c-.022,0-.04.011-.062.012a.992.992,0,0,0-.264.054.948.948,0,0,0-.094.033,1.013,1.013,0,0,0-.284.191l0,0-5,5a1,1,0,0,0,0,1.414L30,42.414V54a1,1,0,0,0,1,1H49a1,1,0,0,0,1-1V42.414l4.707-4.707a1,1,0,0,0,0-1.414l-5-5,0,0a1,1,0,0,0-.283-.19.843.843,0,0,0-.1-.034.969.969,0,0,0-.261-.053c-.022,0-.041-.013-.064-.013H41V29.829A3.006,3.006,0,0,0,43,27H57V61a1,1,0,0,0,1,1h3a1,1,0,0,0,1-1V20A1,1,0,0,0,61,19ZM20,60H19V21h1Zm7.414-23L30,34.414v5.172ZM50,39.586V34.414L52.586,37ZM48,53H32V33h2.09a5.993,5.993,0,0,0,11.82,0H48ZM40,36a4.006,4.006,0,0,1-3.873-3h7.746A4.006,4.006,0,0,1,40,36ZM60,60H59V21h1Z" />
	</g>
	<!--
	<text x="0" y="79" fill="#000000" font-size="5px" font-weight="bold" font-family="'Helvetica Neue', Helvetica, Arial-Unicode, Arial, Sans-serif">
	Created by Komkrit Noenpoempisut
	</text>
	<text x="0" y="84" fill="#000000" font-size="5px" font-weight="bold" font-family="'Helvetica Neue', Helvetica, Arial-Unicode, Arial, Sans-serif">
	from the Noun Project
	</text>
	-->
</svg>
