<svg xmlns:x="http://ns.adobe.com/Extensibility/1.0/" xmlns:i="http://ns.adobe.com/AdobeIllustrator/10.0/" xmlns:graph="http://ns.adobe.com/Graphs/1.0/" xmlns="http://www.w3.org/2000/svg" xmlns:xlink="http://www.w3.org/1999/xlink" version="1.1" x="0px" y="0px" viewBox="0 0 100 125" style="enable-background:new 0 0 100 100;" xml:space="preserve">
	<g>
		<g>
			<path d="M5273.1,2400.1v-2c0-2.8-5-4-9.7-4s-9.7,1.3-9.7,4v2c0,1.8,0.7,3.6,2,4.9l5,4.9c0.3,0.3,0.4,0.6,0.4,1v6.4     c0,0.4,0.2,0.7,0.6,0.8l2.9,0.9c0.5,0.1,1-0.2,1-0.8v-7.2c0-0.4,0.2-0.7,0.4-1l5.1-5C5272.4,2403.7,5273.1,2401.9,5273.1,2400.1z      M5263.4,2400c-4.8,0-7.4-1.3-7.5-1.8v0c0.1-0.5,2.7-1.8,7.5-1.8c4.8,0,7.3,1.3,7.5,1.8C5270.7,2398.7,5268.2,2400,5263.4,2400z" />
			<path d="M5268.4,2410.3c-0.6,0-1,0.4-1,1c0,0.6,0.4,1,1,1h4.3c0.6,0,1-0.4,1-1c0-0.6-0.4-1-1-1H5268.4z" />
			<path d="M5272.7,2413.7h-4.3c-0.6,0-1,0.4-1,1c0,0.6,0.4,1,1,1h4.3c0.6,0,1-0.4,1-1C5273.7,2414.1,5273.3,2413.7,5272.7,2413.7z" />
			<path d="M5272.7,2417h-4.3c-0.6,0-1,0.4-1,1c0,0.6,0.4,1,1,1h4.3c0.6,0,1-0.4,1-1C5273.7,2417.5,5273.3,2417,5272.7,2417z" />
		</g>
		<g>
			<path d="M41.8,34.5c0.3-0.5,0.7-1,1-1.5v-9c0-1.8-1.5-3.3-3.3-3.3H21.5c-1.8,0-3.3,1.5-3.3,3.3v15.5c0,1.8,1.5,3.3,3.3,3.3h5     c0.2-1.3,0.7-2.6,1.5-3.7c1.3-1.8,3.3-3,5.5-3.3L41.8,34.5z" />
			<ellipse transform="matrix(0.9941 -0.1082 0.1082 0.9941 -1.0125 6.4813)" cx="59.2" cy="12.6" rx="10.1" ry="10.1" />
			<path d="M81.5,90.3L71.1,62.3l1.7-1.7c2.1-2.1,2.9-5.1,2.3-7.9L72.9,43c0,0,0-0.1,0-0.1l-3.3-14.6c-0.5-2.2-2.5-3.7-4.8-3.6     c-0.9,0.1-2.7,0.2-4.5,0.2c-1.8,0.1-3.5,0.2-4.3,0.2c-2.3,0.2-3.9,0.8-11.6,12c-0.3,0.4-0.7,0.7-1.2,0.8L34,39.4     c-2.5,0.4-4.3,2.7-3.9,5.3c0.4,2.5,2.7,4.3,5.3,3.9l9.2-1.4c3-0.5,5.7-2.2,7.5-4.7c0.3-0.5,0.7-1,1-1.4l5.9,18.5l-8.1,8.1     c-1.3,1.3-2.2,2.8-2.8,4.5l-6.3,18.3c-1,2.8,0.5,5.8,3.3,6.8c0.6,0.2,1.2,0.3,1.7,0.3c2.2,0,4.3-1.4,5-3.6L58,75.6     c0.1-0.2,0.1-0.3,0.3-0.4l4.6-4.6L71.5,94c0.8,2.1,2.8,3.5,5,3.5c0.6,0,1.2-0.1,1.8-0.3C81.1,96.1,82.5,93.1,81.5,90.3z" />
		</g>
	</g>
	<!--
	<text x="0" y="115" fill="#000000" font-size="5px" font-weight="bold" font-family="'Helvetica Neue', Helvetica, Arial-Unicode, Arial, Sans-serif">
	Created by Adrien Coquet
	</text>
	<text x="0" y="120" fill="#000000" font-size="5px" font-weight="bold" font-family="'Helvetica Neue', Helvetica, Arial-Unicode, Arial, Sans-serif">
	from the Noun Project
	</text>
	-->
</svg>
