<svg xmlns="http://www.w3.org/2000/svg" data-name="Capa 1" viewBox="0 0 32 40" x="0px" y="0px">
	<path d="M31.22,8.36c-3.1.65-7,1.35-9,4.14-1.77,2.5-.36,4,.79,6.3,2.88,5.87-7.31,5.29-10.2,6.62A5,5,0,0,0,9.73,31c.11.64,1.08.37,1-.26-1.28-7.13,11.66-3.47,13.69-9.16.78-2.17-1-3.41-1.71-5.27-1.85-4.8,5.64-6.3,8.81-7C32.11,9.19,31.85,8.23,31.22,8.36Z" />
	<path d="M17.63,20.28A3.84,3.84,0,0,0,18,18c-.13-2.68-.25-4.22,1.89-6.15,3-2.72,7.48-3.28,11.31-3.89.64-.1.37-1.06-.26-1-5.65.9-14.92,2.65-14,10.25.46,4-3.25,3.78-6.24,4.18a15.34,15.34,0,0,0-4.67,1.22A9,9,0,0,0,.75,29.16c-.1.63.86.9,1,.27.7-4.07,4.31-6.21,8.11-6.85C12.06,22.21,16.26,22.57,17.63,20.28Z" />
	<path d="M25.27,26.08a3.85,3.85,0,0,0-3.67,2.38A3.4,3.4,0,0,0,17,30.71c-.15.62.82.89,1,.26a2.4,2.4,0,0,1,3.28-1.59,7,7,0,0,0-.29,1.49c-.05.64.95.63,1,0,.12-1.55.82-3.22,2.44-3.68s3.49,1,2.48,2.69c-.33.55.53,1.05.87.5A2.89,2.89,0,0,0,25.27,26.08Z" />
	<path d="M4.91,13.2a34.34,34.34,0,0,0,.25,7.58c.09.63,1.06.36,1-.27a32.5,32.5,0,0,1-.22-7.31C6,12.56,5,12.56,4.91,13.2Z" />
	<path d="M3.86,17.64a.5.5,0,0,0,0-1c-4.37,0-2.13-6.49,1-7.21,4.28-1,6.78,6.54,2.27,7.34-.63.11-.36,1.07.27,1,5.54-1,3-10-2.28-9.36A5.54,5.54,0,0,0,.54,13C.11,15.64,1.13,17.63,3.86,17.64Z" />
	<path d="M12.57,5.24a34.41,34.41,0,0,0,.26,7.59c.09.63,1.05.36,1-.27a33.18,33.18,0,0,1-.22-7.32C13.63,4.6,12.63,4.61,12.57,5.24Z" />
	<path d="M11.35,9.45c.63.11.9-.85.27-1C7.48,7.76,9.76.8,13.72,1.73c2.84.66,4.93,6.63.91,6.63a.5.5,0,0,0,0,1c2.54,0,3.51-1.82,3.13-4.26A5.18,5.18,0,0,0,13.48.67C8.56.06,6.15,8.53,11.35,9.45Z" />
	<!--
	<text x="0" y="47" fill="#000000" font-size="5px" font-weight="bold" font-family="'Helvetica Neue', Helvetica, Arial-Unicode, Arial, Sans-serif">
	Created by Alfonso López-Sanz
	</text>
	<text x="0" y="52" fill="#000000" font-size="5px" font-weight="bold" font-family="'Helvetica Neue', Helvetica, Arial-Unicode, Arial, Sans-serif">
	from the Noun Project
	</text>
	-->
</svg>
