<svg xmlns="http://www.w3.org/2000/svg" xmlns:xlink="http://www.w3.org/1999/xlink" version="1.1" x="0px" y="0px" viewBox="0 0 100 125" style="enable-background:new 0 0 100 100;" xml:space="preserve">
	<g>
		<path d="M93.707,79.659c-0.027-0.11-2.741-11.168-7.637-19.632c-5.005-8.653-19.875-8.519-20.495-8.521H44.449   c-7.24,0-15.981,3.062-23.004,5.523c-5.385,1.887-10.028,3.508-12.372,3.23c-1.147-0.141-1.866-0.538-2.135-1.181   c-0.62-1.481,1.032-4.124,1.681-4.974l15.716-17.912h3.886c0.762,0.4,5.003,2.547,8.25,2.547c1.614,0,2.701-0.316,3.321-0.967   c0.561-0.588,0.56-1.274,0.56-1.621l-1,0.018c0,0.259,0,0.615-0.284,0.913c-0.286,0.3-0.968,0.657-2.597,0.657   c-3.249,0-7.841-2.462-7.887-2.487c-0.073-0.04-0.155-0.06-0.238-0.06h-3.133l0.403-0.459c3.227-3.227,5.69-4.729,7.776-5.472   c0.554,0.138,2.799,0.815,2.776,2.738c-0.027,2.273-0.797,2.938-0.796,2.938c-0.223,0.164-0.271,0.477-0.107,0.699   c0.098,0.133,0.25,0.204,0.404,0.204c0.103,0,0.206-0.032,0.295-0.097c0.12-0.088,1.171-0.939,1.204-3.733   c0.019-1.601-1.057-2.624-2.161-3.204c0.399-0.084,0.786-0.148,1.165-0.197c0.525,0.33,2.425,1.645,2.402,3.395   c0,0.956-0.177,1.265-0.162,1.265h0.001c-0.211,0.173-0.244,0.485-0.073,0.699c0.099,0.124,0.244,0.188,0.391,0.188   c0.109,0,0.22-0.036,0.312-0.11c0.16-0.128,0.532-0.583,0.531-2.034c0.018-1.321-0.73-2.401-1.49-3.156   c1.648,0.701,3.614,1.828,3.844,2.831c0.045,0.195,0.057,0.502-0.353,0.913l-0.703,0.703c-0.195,0.195-0.195,0.512,0,0.707   c0.098,0.098,0.226,0.146,0.354,0.146s0.256-0.049,0.354-0.146l0.703-0.703c0.702-0.702,0.725-1.39,0.621-1.844   c-0.286-1.245-1.909-2.307-3.324-3.017c3.256-0.021,7.995,0.079,8.038,0.08c0.266,0.021,0.507-0.208,0.515-0.484   c0.009-0.276-0.208-0.507-0.484-0.515c-0.229-0.008-7.894-0.167-10.41-0.026c-0.012,0-0.023,0.001-0.035,0.002   c-0.134,0.008-0.263,0.016-0.364,0.026c-1.211,0.116-2.378,0.326-3.572,0.725c-0.02,0.004-0.037,0.014-0.057,0.02   c-2.444,0.827-5.007,2.458-8.306,5.757l-1.039,1.185c-0.208,0.048-0.363,0.218-0.382,0.436L7.867,53.451   c-0.116,0.149-2.821,3.693-1.852,6.014c0.417,0.999,1.406,1.602,2.937,1.788c2.564,0.317,7.094-1.271,12.824-3.279   c6.952-2.436,15.604-5.467,22.674-5.467h13.874v5.938c0,0.276,0.224,0.5,0.5,0.5s0.5-0.224,0.5-0.5v-5.938h6.259   c0.152-0.002,14.912-0.122,19.623,8.021c4.822,8.338,7.504,19.259,7.562,19.458c0.009,0.021,0.921,2.101,0.047,3.249   c-0.614,0.807-2.058,1.055-4.181,0.716c-6.589-1.049-15.065-5.358-16.396-6.041c-0.013-0.008-0.021-0.02-0.034-0.027l-0.191-0.097   c-0.275-0.232-4.042-3.464-4.884-7.525c-0.941-4.533-3.801-6.148-6.164-6.148h-1.326c-0.276,0-0.5,0.224-0.5,0.5s0.224,0.5,0.5,0.5   h1.326c1.97,0,4.366,1.406,5.185,5.352c0.544,2.622,2.154,4.871,3.467,6.345c-1.596-0.396-3.621-0.297-6.032,1.552   c-3.495,2.676-8.864,0.999-8.918,0.983c-0.262-0.085-0.544,0.06-0.629,0.322c-0.084,0.263,0.06,0.545,0.323,0.629   c0.131,0.043,1.891,0.595,4.1,0.595c1.827,0,3.961-0.378,5.732-1.736c3.316-2.543,5.722-1.316,7.313-0.503l0.248,0.126   c0.001,0,0.002,0,0.003,0.001c1.588,0.83,9.966,5.086,16.72,6.161c0.667,0.105,1.277,0.159,1.831,0.158   c1.56,0,2.668-0.42,3.304-1.257C94.856,82.201,93.724,79.675,93.707,79.659z" />
		<path d="M62.068,72.444c0.002,0,0.004,0,0.007,0c0.273,0,0.496-0.22,0.5-0.493c0.004-0.276-0.217-0.503-0.493-0.507   c-8.362-0.118-9.909-4.354-9.97-4.534c-0.088-0.261-0.369-0.402-0.63-0.315c-0.262,0.086-0.405,0.368-0.319,0.631   C51.231,67.433,52.941,72.315,62.068,72.444z" />
		<path d="M60.742,75.121c0.27-0.059,0.442-0.324,0.384-0.595c-0.058-0.27-0.324-0.436-0.594-0.384   c-4.651,1.003-8.563-1.763-8.603-1.791c-0.224-0.161-0.537-0.112-0.698,0.113c-0.162,0.224-0.111,0.535,0.112,0.697   c0.146,0.105,3.102,2.204,7.079,2.204C59.165,75.366,59.942,75.292,60.742,75.121z" />
		<path d="M59.733,78.043c0.262-0.088,0.403-0.371,0.316-0.633c-0.087-0.261-0.368-0.405-0.632-0.316   c-2.935,0.979-6.249-0.879-6.282-0.897c-0.241-0.136-0.545-0.053-0.682,0.188c-0.137,0.239-0.054,0.544,0.186,0.682   c0.118,0.067,2.341,1.315,4.914,1.315C58.265,78.381,59.005,78.286,59.733,78.043z" />
		<path d="M56.743,29.939c-0.493-0.243-1.03-0.417-1.595-0.52c-0.565-0.102-1.129-0.126-1.676-0.073   c-0.537,0.054-1.034,0.18-1.479,0.376c-0.252,0.112-0.367,0.407-0.255,0.66c0.113,0.253,0.407,0.367,0.66,0.255   c0.348-0.154,0.742-0.253,1.173-0.296c0.452-0.044,0.924-0.024,1.399,0.062c0.474,0.085,0.921,0.231,1.331,0.433   c0.071,0.035,0.146,0.051,0.221,0.051c0.185,0,0.362-0.103,0.449-0.279C57.092,30.361,56.99,30.061,56.743,29.939z" />
		<path d="M54.469,34.381c0.656,0,1.188-0.532,1.188-1.188c0-0.099-0.034-0.187-0.056-0.279c0.032,0.023,0.065,0.046,0.095,0.071   c0.052,0.043,0.102,0.088,0.151,0.137c0.047,0.047,0.092,0.097,0.134,0.148c0.099,0.121,0.243,0.184,0.388,0.184   c0.111,0,0.223-0.037,0.316-0.113c0.214-0.175,0.246-0.49,0.071-0.704c-0.063-0.078-0.131-0.151-0.2-0.221   c-0.07-0.07-0.144-0.137-0.221-0.202c-0.077-0.063-0.156-0.123-0.239-0.178c-0.083-0.056-0.168-0.108-0.256-0.156   c-0.088-0.047-0.178-0.091-0.273-0.132c-0.093-0.039-0.188-0.073-0.284-0.104c-0.097-0.03-0.196-0.056-0.299-0.077   c-0.101-0.021-0.203-0.036-0.305-0.046c-0.209-0.022-0.432-0.022-0.635,0c-0.104,0.01-0.207,0.026-0.311,0.047   c-0.1,0.021-0.199,0.047-0.296,0.077c-0.097,0.03-0.191,0.065-0.288,0.105c-0.092,0.04-0.182,0.083-0.27,0.13   c-0.088,0.048-0.173,0.1-0.256,0.156c-0.083,0.056-0.163,0.116-0.238,0.178c-0.077,0.064-0.151,0.131-0.22,0.2   c-0.071,0.071-0.138,0.145-0.202,0.222c-0.175,0.213-0.143,0.528,0.071,0.704c0.214,0.174,0.529,0.143,0.704-0.071   c0.042-0.051,0.087-0.101,0.136-0.149c0.047-0.047,0.097-0.092,0.15-0.136c0.051-0.042,0.105-0.083,0.161-0.12   s0.114-0.073,0.173-0.105c0.005-0.003,0.01-0.004,0.015-0.007c-0.055,0.137-0.089,0.284-0.089,0.441   C53.282,33.85,53.813,34.381,54.469,34.381z" />
		<path d="M65.443,29.723c-0.444-0.196-0.942-0.323-1.479-0.376c-0.545-0.053-1.109-0.029-1.675,0.073   c-0.565,0.103-1.102,0.277-1.595,0.52c-0.248,0.122-0.35,0.422-0.228,0.67c0.087,0.176,0.265,0.279,0.449,0.279   c0.074,0,0.149-0.017,0.221-0.051c0.409-0.202,0.857-0.348,1.331-0.433c0.476-0.086,0.945-0.106,1.399-0.062   c0.431,0.043,0.826,0.143,1.173,0.296c0.255,0.111,0.548-0.002,0.66-0.255C65.809,30.13,65.695,29.834,65.443,29.723z" />
		<path d="M64.253,32.865c0.056,0.038,0.11,0.078,0.161,0.12c0.052,0.043,0.102,0.088,0.151,0.137   c0.047,0.047,0.092,0.097,0.134,0.148c0.099,0.121,0.243,0.184,0.388,0.184c0.111,0,0.223-0.037,0.316-0.113   c0.214-0.175,0.246-0.49,0.071-0.704c-0.063-0.078-0.131-0.151-0.2-0.221c-0.07-0.07-0.144-0.137-0.221-0.202   c-0.077-0.063-0.156-0.123-0.239-0.178c-0.083-0.056-0.168-0.108-0.256-0.156c-0.088-0.047-0.178-0.091-0.273-0.132   c-0.093-0.039-0.188-0.073-0.284-0.104c-0.097-0.03-0.196-0.056-0.299-0.077c-0.101-0.021-0.203-0.036-0.305-0.046   c-0.209-0.022-0.432-0.022-0.635,0c-0.104,0.01-0.207,0.026-0.311,0.047c-0.1,0.021-0.199,0.047-0.296,0.077   c-0.097,0.03-0.191,0.065-0.288,0.105c-0.092,0.04-0.182,0.083-0.27,0.13c-0.088,0.048-0.173,0.1-0.256,0.156   c-0.083,0.056-0.163,0.116-0.238,0.178c-0.077,0.064-0.151,0.131-0.22,0.2c-0.071,0.071-0.138,0.145-0.202,0.222   c-0.175,0.213-0.143,0.528,0.071,0.704c0.213,0.174,0.528,0.143,0.704-0.071c0.042-0.051,0.087-0.101,0.136-0.149   c0.047-0.047,0.097-0.092,0.15-0.136c0.03-0.025,0.063-0.047,0.095-0.071c-0.023,0.092-0.056,0.18-0.056,0.279   c0,0.656,0.532,1.188,1.188,1.188s1.188-0.532,1.188-1.188c0-0.156-0.034-0.304-0.089-0.441c0.005,0.003,0.01,0.004,0.015,0.007   C64.139,32.792,64.197,32.828,64.253,32.865z" />
		<path d="M57.738,38.646c0.27,0.416,0.698,0.669,1.237,0.732c0.168,0.02,0.324,0.029,0.469,0.029c1.238,0,1.691-0.664,1.947-1.038   c0.029-0.043,0.066-0.097,0.096-0.135c0.233,0.021,0.467-0.13,0.531-0.37c0.071-0.267-0.088-0.541-0.355-0.611   c-0.612-0.163-0.927,0.303-1.097,0.553c-0.245,0.359-0.476,0.696-1.472,0.58c-0.321-0.038-0.448-0.18-0.515-0.284   c-0.236-0.364-0.222-1.11,0.039-1.946c0.582-1.873,0.404-4.312,0.396-4.416c-0.021-0.275-0.255-0.486-0.537-0.46   c-0.275,0.021-0.481,0.261-0.46,0.537c0.002,0.023,0.172,2.351-0.354,4.042C57.451,36.531,57.183,37.79,57.738,38.646z" />
		<circle cx="56.268" cy="37.709" r="0.531" />
		<path d="M55.237,42.267c0,2.01,1.52,3.468,3.615,3.468c1.786,0,2.962-1.09,3.596-3.333c0.24-0.849,0.23-1.361-0.035-1.71   c-0.123-0.163-0.36-0.356-0.793-0.356c-0.359,0-0.766,0.128-1.237,0.276c-0.494,0.155-1.054,0.332-1.531,0.332   c-0.459,0-0.913-0.084-1.313-0.159c-0.35-0.065-0.68-0.127-0.978-0.127C55.682,40.658,55.237,41.199,55.237,42.267z M58.852,41.944   c0.63,0,1.268-0.201,1.831-0.377c0.36-0.113,0.731-0.23,0.923-0.286c0.003,0.007,0.069,0.181-0.12,0.851   c-0.51,1.801-1.322,2.604-2.634,2.604c-1.301,0-2.615-0.763-2.615-2.468c0-0.609,0.122-0.609,0.324-0.609   c0.205,0,0.478,0.051,0.794,0.11C57.798,41.85,58.3,41.944,58.852,41.944z" />
		<path d="M67.969,30.388c0,0.276,0.224,0.5,0.5,0.5c0.929,0,1.685,0.755,1.685,1.684c0,0.929-0.756,1.685-1.685,1.685   c-0.276,0-0.5,0.224-0.5,0.5c0,5.806-5.015,12.679-9.251,12.679s-9.251-6.873-9.251-12.679c0-0.276-0.224-0.5-0.5-0.5   c-0.929,0-1.685-0.756-1.685-1.685c0-0.929,0.756-1.684,1.685-1.684c0.276,0,0.5-0.224,0.5-0.5s-0.224-0.5-0.5-0.5   c-1.48,0-2.685,1.204-2.685,2.684c0,1.317,0.955,2.41,2.208,2.636c0.246,6.279,5.55,13.227,10.228,13.227   s9.981-6.948,10.228-13.227c1.253-0.226,2.208-1.319,2.208-2.636c0-1.48-1.204-2.684-2.685-2.684   C68.193,29.888,67.969,30.111,67.969,30.388z" />
		<path d="M67.058,29.078c0.099,0.109,0.234,0.165,0.371,0.165c0.12,0,0.24-0.042,0.335-0.129c0.991-0.897,0.772-1.998,0.519-2.454   c-0.134-0.242-0.437-0.328-0.68-0.194c-0.241,0.134-0.328,0.439-0.194,0.68c0.014,0.025,0.341,0.632-0.315,1.227   C66.889,28.557,66.873,28.874,67.058,29.078z" />
		<path d="M49.674,28.316c0.041,0,0.083-0.004,0.124-0.014c0.169-0.041,0.307-0.172,0.361-0.337c0.008-0.023,0.818-2.271,7.271-2.271   c3.963,0,6.514-0.374,8.277-1.353c0.199,0.653,0.198,1.593-0.806,2.529c-0.202,0.188-0.213,0.505-0.025,0.707   c0.099,0.106,0.232,0.159,0.366,0.159c0.122,0,0.245-0.044,0.341-0.134c1.433-1.336,1.388-2.801,0.985-3.828   c0.784-0.626,1.383-1.427,1.881-2.443c1.135-2.313,1.526-4.923,0.892-5.942c-0.194-0.312-0.485-0.485-0.899-0.485   c-0.004,0-0.008,0-0.012,0c-0.385,0.032-0.668,0.275-1.028,0.584c-1.054,0.905-3.248,2.789-11.53,2.789   c-4.102,0-5.871,2.192-6.633,4.031c-0.938,2.264-0.718,5.061,0.089,5.867C49.419,28.269,49.545,28.316,49.674,28.316z" />
	</g>
	<!--
	<text x="0" y="115" fill="#000000" font-size="5px" font-weight="bold" font-family="'Helvetica Neue', Helvetica, Arial-Unicode, Arial, Sans-serif">
	Created by athanagore x
	</text>
	<text x="0" y="120" fill="#000000" font-size="5px" font-weight="bold" font-family="'Helvetica Neue', Helvetica, Arial-Unicode, Arial, Sans-serif">
	from the Noun Project
	</text>
	-->
</svg>
