<svg xmlns:x="http://ns.adobe.com/Extensibility/1.0/" xmlns:i="http://ns.adobe.com/AdobeIllustrator/10.0/" xmlns:graph="http://ns.adobe.com/Graphs/1.0/" xmlns="http://www.w3.org/2000/svg" xmlns:xlink="http://www.w3.org/1999/xlink" version="1.1" x="0px" y="0px" viewBox="0 0 100 125" style="enable-background:new 0 0 100 100;" xml:space="preserve">
	<g>
		<g>
			<path d="M87.9,36c-0.6,2-2,5.2-3.5,8.5c0.9,2.3,0.8,5.3-0.9,8.6c-0.4,0.8-0.9,1.6-1.5,2.4c-1.5,2.1-3.6,4.3-5.8,6.8     c-0.2,0.2-0.3,0.3-0.5,0.5c-0.6,0.6-1.5,0.8-2.2,0.3c-0.9-0.6-1-1.7-0.3-2.5c0.2-0.2,0.4-0.4,0.5-0.6c2.9-3.2,5.7-6.2,6.9-8.5     c2.2-4.3,0.7-7.1-1.4-8.4c-1.7-1-4.1-1-5.4,0.9c-1.9,2.8-4.5,5.7-7,8.6c-2.9,3.3-5.8,6.8-7.4,9.5c-1.8,3.1-4.2,10.4-4.6,18     c-0.2,3.7-0.3,8-0.4,10.6c0,1.3,1,2.4,2.3,2.4l15.1,0c1.3,0,2.3-1.1,2.3-2.4l0-4.3c0-1,0.5-2,1.3-2.6c5.4-3.7,10.4-8.2,13.3-11.5     c6.2-7.2,8.4-28.5,8.7-34.8C97.8,31.6,89.8,30.1,87.9,36z" />
			<path d="M40.6,62.4c-1.7-2.8-4.5-6.2-7.4-9.5c-2.5-2.8-5.1-5.8-7-8.6c-1.3-2-3.7-2-5.4-0.9c-2.1,1.2-3.6,4.1-1.4,8.4     c1.2,2.3,3.9,5.3,6.9,8.5c0.2,0.2,0.4,0.4,0.5,0.6c0.7,0.7,0.5,1.9-0.3,2.5c-0.7,0.4-1.6,0.3-2.2-0.3c-0.2-0.2-0.3-0.3-0.5-0.5     c-2.3-2.5-4.3-4.7-5.8-6.8c-0.6-0.8-1.1-1.7-1.5-2.4c-1.7-3.3-1.8-6.3-0.9-8.6c-1.5-3.4-2.9-6.5-3.5-8.5     c-1.8-5.9-9.9-4.4-9.6,1.9c0.3,6.3,2.6,27.6,8.7,34.8c2.8,3.3,7.9,7.7,13.3,11.5c0.8,0.6,1.3,1.5,1.3,2.6l0,4.3     c0,1.3,1.1,2.4,2.3,2.4l15.1,0c1.3,0,2.4-1.1,2.3-2.4c-0.1-2.6-0.2-6.9-0.4-10.6C44.8,72.7,42.5,65.4,40.6,62.4z" />
			<path d="M68,29.7l-4.1-4.1c-0.7-0.7-1.8-0.7-2.5,0l-6.7,6.7V8.3c0-1-0.8-1.8-1.8-1.8h-5.8c-1,0-1.8,0.8-1.8,1.8v23.9l-6.7-6.7     c-0.7-0.7-1.8-0.7-2.5,0L32,29.7c-0.7,0.7-0.7,1.8,0,2.5l16.8,16.8c0.7,0.7,1.8,0.7,2.5,0L68,32.2C68.7,31.5,68.7,30.4,68,29.7z" />
		</g>
	</g>
	<!--
	<text x="0" y="115" fill="#000000" font-size="5px" font-weight="bold" font-family="'Helvetica Neue', Helvetica, Arial-Unicode, Arial, Sans-serif">
	Created by Adrien Coquet
	</text>
	<text x="0" y="120" fill="#000000" font-size="5px" font-weight="bold" font-family="'Helvetica Neue', Helvetica, Arial-Unicode, Arial, Sans-serif">
	from the Noun Project
	</text>
	-->
</svg>
