<svg xmlns="http://www.w3.org/2000/svg" data-name="Layer 1" viewBox="0 0 128 160" x="0px" y="0px">
	<path d="M89.99695,64a13.00153,13.00153,0,1,0,13.00153-13A13.01549,13.01549,0,0,0,89.99695,64Zm13.00153-9a9,9,0,1,1-9.001,9A9.01065,9.01065,0,0,1,102.99847,55Z" />
	<path d="M17.09784,66.90576a6.11758,6.11758,0,0,0,1.07532.0957,6.02727,6.02727,0,0,0,3.56-1.16895l1.005-.73053v8.18512a16.67223,16.67223,0,0,0,1.254,6.376l8.752,22.12354L26.1106,119.89551a6.47229,6.47229,0,0,0,.53815,5.07813,6.0845,6.0845,0,0,0,3.85791,2.96729L30.74493,128H43.8197a6.141,6.141,0,0,0,6.14526-5.417A6.00188,6.00188,0,0,0,43.99158,116H42.18671c1.82635-3.69678,3.64886-7.96875,5.6745-13.28857l.19434-.51074-.0918-.53857c-.02344-.13477-2.01294-11.707-3.96436-20.96777L79.41956,99.70215a3.97885,3.97885,0,0,0,4.89215-.87793l7.1864-8.07227a6.17547,6.17547,0,1,0-9.3634-8.05371l-1.36536,1.541C68.65955,74.40332,52.85,61.57666,49.25781,58.6626l.02844-3.51184,11.92023,2.233a6.342,6.342,0,0,0,1.1662.10889,6.26119,6.26119,0,0,0,6.14716-5.16211,6.28285,6.28285,0,0,0-4.608-7.1582L49.3974,41.45416l.08411-10.38287A11.92182,11.92182,0,0,0,46.748,23.47638,12.02226,12.02226,0,1,0,33.68445,19.238a13.43818,13.43818,0,0,0-10.94629,12.9339V48.736l-8.47852,7.06531A6.44515,6.44515,0,0,0,13.06317,64.249,6.1132,6.1132,0,0,0,17.09784,66.90576ZM43.99158,120a2.00159,2.00159,0,0,1,1.99048,2.20313A2.11157,2.11157,0,0,1,43.8197,124H31.2782a2.14223,2.14223,0,0,1-1.14172-.98633,2.42277,2.42277,0,0,1-.23834-1.83447L33.2616,112H39.663q-.88577,1.90723-1.76489,3.61914A3.00089,3.00089,0,0,0,40.56152,120ZM78.99664,87.95215A2.99032,2.99032,0,0,0,83.129,87.6084l2.04419-2.30957a2.17943,2.17943,0,0,1,2.9574-.37061,2.17717,2.17717,0,0,1,.36719,3.17773L81.3114,96.17773,72.79016,91.6051l4.05219-5.40259C77.57135,86.79449,78.29242,87.38013,78.99664,87.95215ZM43.24078,4a8,8,0,1,1-1.484,15.85651,12.215,12.215,0,0,0-1.72046-.53113A7.99686,7.99686,0,0,1,43.24078,4ZM26.73859,32.17188A9.3998,9.3998,0,0,1,36.11469,23h1.1496a8.35791,8.35791,0,0,1,1.55933.15,11.89085,11.89085,0,0,0,1.76532.54626A8.06422,8.06422,0,0,1,45.481,31.05518l-.05383,6.63629-6.08167-6.7027a2.0002,2.0002,0,0,0-2.9632,2.6875l9.73059,10.72461a2.002,2.002,0,0,0,.98547.59375l15.82123,4.05273a2.26638,2.26638,0,0,1,1.66229,2.58154,2.25852,2.25852,0,0,1-2.639,1.82324L44.90088,50.25977,33.74921,37.61328a2.00006,2.00006,0,0,0-3.00037,2.64551l11.60681,13.1626a2.00005,2.00005,0,0,0,1.132.64307l1.80408.338-.04993,6.15277.74811.60693S60.77893,73.15967,73.735,83.67926L69.22516,89.692,42.25378,75.21869c-.97327-.64484-2.69275-1.78827-5.06085-3.37885a2,2,0,1,0-2.23071,3.32031c1.88263,1.26477,3.353,2.24512,4.37311,2.92285,1.90216,8.38959,4.11511,20.97485,4.5918,23.7168-.86365,2.25385-1.68793,4.30267-2.49176,6.2002H34.72729l2.29669-6.26807L27.70062,78.165a12.748,12.748,0,0,1-.962-4.87793ZM16.82043,58.874l5.91772-4.931v6.21356l-3.35785,2.44055A2.04788,2.04788,0,0,1,17.8,62.96777a2.14513,2.14513,0,0,1-1.41028-.94043A2.40474,2.40474,0,0,1,16.82043,58.874Z" />
	<!--
	<text x="0" y="143" fill="#000000" font-size="5px" font-weight="bold" font-family="'Helvetica Neue', Helvetica, Arial-Unicode, Arial, Sans-serif">
	Created by priyanka
	</text>
	<text x="0" y="148" fill="#000000" font-size="5px" font-weight="bold" font-family="'Helvetica Neue', Helvetica, Arial-Unicode, Arial, Sans-serif">
	from the Noun Project
	</text>
	-->
</svg>
