<svg xmlns="http://www.w3.org/2000/svg" xmlns:xlink="http://www.w3.org/1999/xlink" version="1.1" x="0px" y="0px" viewBox="0 0 100 125" style="enable-background:new 0 0 100 100;" xml:space="preserve">
	<g>
		<path d="M95,65.8L95,65.8c-0.2-1-0.5-1.8-0.9-2.6l-6.2-16.9v-3c0-6.9-5.6-12.5-12.5-12.5H55.2c-6.9,0-12.5,5.6-12.5,12.5v3   l-6.6,17.7c-0.1,0.3-0.2,0.5-0.3,0.8l-0.2,0.6c-0.1,0.3-0.1,0.6-0.1,0.8c0,0.2,0,0.5,0,0.7V73v7.2h3v-5.7h53.6v5.7h3V73V67   c0-0.2,0-0.3,0-0.5C95.1,66.3,95.1,66.1,95,65.8z M44.9,49h6v2.5c0,0.8,0.7,1.5,1.5,1.5h25.8c0.8,0,1.5-0.7,1.5-1.5V49h6l3.9,10.8   c-0.6-0.2-1.3-0.3-2-0.3H43c-0.7,0-1.4,0.1-2.1,0.3L44.9,49z M76.7,41.4V50h-9.9v-8.6H76.7z M63.8,50h-9.9v-8.6h9.9V50z M45.7,43.4   c0-5.2,4.3-9.5,9.5-9.5h20.2c5.2,0,9.5,4.3,9.5,9.5V46h-5.2v-6.1c0-0.8-0.7-1.5-1.5-1.5H52.4c-0.8,0-1.5,0.7-1.5,1.5V46h-5.2V43.4z    M38.5,67c0-0.6,0.1-1.1,0.3-1.6l0.1-0.2c0.7-1.6,2.3-2.7,4.1-2.7h44.6c1.6,0,2.9,0.8,3.7,2l0.7,1.9c0,0.2,0.1,0.4,0.1,0.6v4.4   H38.5V67z" />
		<path d="M6.4,77.5h0.3v2.7h3v-2.7h15.8v2.7h3v-2.7h0.3c0.8,0,1.5-0.7,1.5-1.5V46.1c0-3-2.5-5.5-5.5-5.5h-5.5v-8.3H26   c0.5,0,0.9-0.2,1.2-0.5c0.3-0.3,0.4-0.8,0.3-1.2l-1.6-7.7c-0.5-2.6-2.8-4.4-5.4-4.4h-5.8c-2.6,0-4.9,1.9-5.4,4.4l-1.6,7.7   c-0.1,0.4,0,0.9,0.3,1.2c0.3,0.3,0.7,0.5,1.2,0.5h7v8.3h-5.8c-3,0-5.5,2.5-5.5,5.5V76C4.9,76.8,5.6,77.5,6.4,77.5z M12.2,23.3   c0.2-1.2,1.3-2,2.5-2h5.8c1.2,0,2.2,0.8,2.5,2l1.2,5.9H11L12.2,23.3z M27.2,59.7H7.9v-6.5h19.3V59.7z M7.9,62.7h19.3v11.8H7.9V62.7   z M10.4,43.6h14.3c1.4,0,2.5,1.1,2.5,2.5v4.1H7.9v-4.1C7.9,44.7,9,43.6,10.4,43.6z" />
		<rect x="14.9" y="54.8" width="5.3" height="3" />
		<rect x="14.9" y="45.4" width="5.3" height="3" />
		<rect x="14.9" y="64.8" width="5.3" height="3" />
	</g>
	<!-- Created by Awesome -->
</svg>
