<svg xmlns="http://www.w3.org/2000/svg" xmlns:xlink="http://www.w3.org/1999/xlink" version="1.1" x="0px" y="0px" viewBox="0 0 100 125" enable-background="new 0 0 100 100" xml:space="preserve">
	<g>
		<path d="M50.155,48.971c7.481,0,13.568-6.087,13.568-13.569c0-7.481-6.087-13.568-13.568-13.568S36.587,27.92,36.587,35.402   C36.587,42.884,42.674,48.971,50.155,48.971z M50.155,24.334c6.104,0,11.068,4.965,11.068,11.068   c0,6.104-4.965,11.069-11.068,11.069c-6.103,0-11.068-4.965-11.068-11.069C39.087,29.299,44.052,24.334,50.155,24.334z" />
		<path d="M43.483,41.446c1.704,1.88,4.136,2.959,6.672,2.959c2.404,0,4.665-0.937,6.366-2.636L54.754,40   c-1.229,1.229-2.861,1.905-4.599,1.905c-1.832,0-3.589-0.779-4.82-2.138L43.483,41.446z" />
		<path d="M72.656,41.993l1.768,1.769c1.229-1.229,2.861-1.905,4.599-1.905c1.832,0,3.589,0.779,4.82,2.138l1.852-1.679   c-1.704-1.88-4.136-2.959-6.672-2.959C76.618,39.356,74.357,40.293,72.656,41.993z" />
		<path d="M21.036,21.834c-7.481,0-13.567,6.086-13.567,13.568c0,7.482,6.086,13.569,13.567,13.569   c7.482,0,13.569-6.087,13.569-13.569C34.604,27.92,28.518,21.834,21.036,21.834z M21.036,46.471   c-6.103,0-11.067-4.965-11.067-11.069c0-6.103,4.965-11.068,11.067-11.068c6.104,0,11.069,4.965,11.069,11.068   C32.104,41.505,27.139,46.471,21.036,46.471z" />
		<path d="M79.153,21.834c-7.481,0-13.567,6.086-13.567,13.568c0,7.482,6.086,13.569,13.567,13.569s13.568-6.087,13.568-13.569   C92.722,27.92,86.635,21.834,79.153,21.834z M79.153,46.471c-6.103,0-11.067-4.965-11.067-11.069   c0-6.103,4.965-11.068,11.067-11.068c6.104,0,11.068,4.965,11.068,11.068C90.222,41.505,85.257,46.471,79.153,46.471z" />
		<path d="M50.156,50.75c-10.523,0-19.084,8.562-19.084,19.084v20.5h2.5v-20.5c0-5.806,3.004-10.915,7.533-13.879v1.746   c0,4.565,3.401,8.342,7.8,8.954v23.679h2.5V66.655c4.399-0.612,7.801-4.39,7.801-8.954v-1.745   c4.528,2.964,7.532,8.073,7.532,13.878v20.5h2.5v-20.5C69.239,59.312,60.679,50.75,50.156,50.75z M56.707,57.701   c0,3.612-2.938,6.551-6.551,6.551c-3.612,0-6.55-2.938-6.55-6.551v-3.097c2.011-0.868,4.225-1.354,6.551-1.354   s4.54,0.486,6.551,1.354V57.701z" />
		<path d="M45,35.83c1.907,0,3.458-1.551,3.458-3.458c0-1.907-1.551-3.458-3.458-3.458c-1.907,0-3.458,1.551-3.458,3.458   C41.542,34.278,43.093,35.83,45,35.83z M45,31.413c0.528,0,0.958,0.43,0.958,0.958S45.528,33.33,45,33.33s-0.958-0.43-0.958-0.958   S44.472,31.413,45,31.413z" />
		<path d="M55,35.83c1.907,0,3.458-1.551,3.458-3.458c0-1.907-1.551-3.458-3.458-3.458s-3.459,1.551-3.459,3.458   C51.541,34.278,53.093,35.83,55,35.83z M55,31.413c0.528,0,0.958,0.43,0.958,0.958S55.528,33.33,55,33.33s-0.959-0.43-0.959-0.958   S54.472,31.413,55,31.413z" />
		<path d="M77.612,32.372c0-1.907-1.551-3.458-3.458-3.458s-3.459,1.551-3.459,3.458c0,1.907,1.552,3.458,3.459,3.458   S77.612,34.278,77.612,32.372z M73.195,32.372c0-0.528,0.431-0.958,0.959-0.958s0.958,0.43,0.958,0.958s-0.43,0.958-0.958,0.958   S73.195,32.9,73.195,32.372z" />
		<path d="M84.154,28.913c-1.907,0-3.459,1.551-3.459,3.458c0,1.907,1.552,3.458,3.459,3.458s3.458-1.551,3.458-3.458   C87.612,30.464,86.062,28.913,84.154,28.913z M84.154,33.33c-0.528,0-0.959-0.43-0.959-0.958s0.431-0.958,0.959-0.958   s0.958,0.43,0.958,0.958S84.683,33.33,84.154,33.33z" />
		<path d="M19.495,32.372c0-1.907-1.551-3.458-3.458-3.458c-1.907,0-3.458,1.551-3.458,3.458c0,1.907,1.551,3.458,3.458,3.458   C17.943,35.83,19.495,34.278,19.495,32.372z M15.078,32.372c0-0.528,0.43-0.958,0.958-0.958s0.958,0.43,0.958,0.958   s-0.43,0.958-0.958,0.958S15.078,32.9,15.078,32.372z" />
		<path d="M26.037,28.913c-1.907,0-3.459,1.551-3.459,3.458c0,1.907,1.552,3.458,3.459,3.458c1.907,0,3.458-1.551,3.458-3.458   C29.495,30.464,27.943,28.913,26.037,28.913z M26.037,33.33c-0.529,0-0.959-0.43-0.959-0.958s0.43-0.958,0.959-0.958   c0.528,0,0.958,0.43,0.958,0.958S26.565,33.33,26.037,33.33z" />
		<rect x="16.036" y="40.631" width="10" height="2.5" />
		<rect x="48.646" y="11.508" width="2.5" height="7.536" />
		<rect x="40.045" y="16.022" transform="matrix(0.7071 0.7071 -0.7071 0.7071 25.0454 -25.9215)" width="7.536" height="2.5" />
		<rect x="54.938" y="13.504" transform="matrix(0.7071 0.7071 -0.7071 0.7071 28.6699 -34.6718)" width="2.5" height="7.535" />
		<rect x="19.683" y="11.508" width="2.5" height="7.536" />
		<rect x="11.081" y="16.022" transform="matrix(0.7071 0.7071 -0.7071 0.7071 16.5621 -5.441)" width="7.536" height="2.5" />
		<rect x="25.974" y="13.504" transform="matrix(0.7071 0.7071 -0.7071 0.7071 20.1866 -14.1912)" width="2.5" height="7.535" />
		<rect x="77.801" y="11.508" width="2.5" height="7.536" />
		<rect x="69.199" y="16.022" transform="matrix(0.7071 0.7071 -0.7071 0.7071 33.5874 -46.5383)" width="7.535" height="2.5" />
		<rect x="84.092" y="13.504" transform="matrix(0.7071 0.7071 -0.7071 0.7071 37.209 -55.287)" width="2.5" height="7.535" />
		<rect x="38.417" y="71.167" width="2.5" height="19.167" />
		<rect x="58.75" y="71.167" width="2.5" height="19.167" />
	</g>
	<!--
	<text x="0" y="115" fill="#000000" font-size="5px" font-weight="bold" font-family="'Helvetica Neue', Helvetica, Arial-Unicode, Arial, Sans-serif">
	Created by Creative Mania
	</text>
	<text x="0" y="120" fill="#000000" font-size="5px" font-weight="bold" font-family="'Helvetica Neue', Helvetica, Arial-Unicode, Arial, Sans-serif">
	from the Noun Project
	</text>
	-->
</svg>
