<svg xmlns="http://www.w3.org/2000/svg" xmlns:xlink="http://www.w3.org/1999/xlink" version="1.1" x="0px" y="0px" viewBox="0 0 100 125" style="enable-background:new 0 0 100 100;" xml:space="preserve">
	<path d="M74.279129,25.6490173c0-4.3793945,3.5625-7.9418945,7.9414063-7.9418945c4.3798828,0,7.9423828,3.5625,7.9423828,7.9418945  s-3.5625,7.9418945-7.9423828,7.9418945C77.841629,33.5909119,74.279129,30.0284119,74.279129,25.6490173z M90.1629181,46.8145447  c0,4.3793945-3.5625,7.9418945-7.9423828,7.9418945c-4.3789063,0-7.9414063-3.5625-7.9414063-7.9418945  s3.5625-7.9418945,7.9414063-7.9418945C86.6004181,38.8726501,90.1629181,42.4351501,90.1629181,46.8145447z M87.1629181,46.8145447  c0-2.7250977-2.2167969-4.9418945-4.9423828-4.9418945c-2.7246094,0-4.9414063,2.2167969-4.9414063,4.9418945  s2.2167969,4.9418945,4.9414063,4.9418945C84.9461212,51.7564392,87.1629181,49.5396423,87.1629181,46.8145447z   M90.1629181,67.980072c0,4.3789063-3.5625,7.9414063-7.9423828,7.9414063c-4.3789063,0-7.9414063-3.5625-7.9414063-7.9414063  c0-4.3798828,3.5625-7.9423828,7.9414063-7.9423828C86.6004181,60.0376892,90.1629181,63.6001892,90.1629181,67.980072z   M87.1629181,67.980072c0-2.7255859-2.2167969-4.9423828-4.9423828-4.9423828c-2.7246094,0-4.9414063,2.2167969-4.9414063,4.9423828  c0,2.7246094,2.2167969,4.9414063,4.9414063,4.9414063C84.9461212,72.9214783,87.1629181,70.7046814,87.1629181,67.980072z   M68.3649445,32.8955383c0.9125366,2.8557129-0.6135254,6.0512695-3.4746094,7.2762451l-11.8676147,5.0812378  c0.9504395,0.7286987,1.6699219,1.737915,2.0411987,2.9015503c0.6150513,1.9228516,0.1242065,4.0005493-1.1363525,5.526123  c1.2907715,0.7284546,2.2717285,1.925293,2.7286987,3.3560791c0.614624,1.9230347,0.123291,4.0009766-1.1372681,5.5264893  c1.2908936,0.727417,2.2717896,1.9168091,2.7295532,3.3568115c0.9124756,2.8557129-0.6135864,6.0512085-3.4737549,7.2758179  l-4.5421143,1.9447632c-0.1472168,0.0630493-0.298645,0.1162109-0.4547119,0.1585693l-24.767334,6.7992554  c-2.637207,0.7233276-5.4364624-0.6266479-6.5123291-3.1394043l-8.2110605-19.1774292  c-0.9616699-2.2460938-0.3497925-4.809082,1.5223999-6.3787231l3.7388306-3.1347656  c0.2913818-0.244812,0.5269175-0.5581665,0.6805429-0.9064941l8.2548828-18.7058105  c0.5431519-1.4680176,1.7467041-2.7285767,3.2700806-3.3760376c1.5440674-0.656311,3.2479248-0.6464844,4.7969971,0.0288086  c2.7838135,1.2120361,4.2057495,4.4116211,3.3078613,7.4454346l-1.7007446,5.7487183L60.423172,29.2570496  c1.5234375-0.6522827,3.2630005-0.6311646,4.7709961,0.0574341C66.7016754,30.0032654,67.8592682,31.3050842,68.3649445,32.8955383z   M65.5074615,33.8088074c-0.2577515-0.7979126-0.8082886-1.4226074-1.5593872-1.7650146  c-0.7415771-0.3389893-1.5958252-0.3492432-2.3441162-0.0288696L32.4051056,44.5167542  c-0.5341797,0.2286987-1.1529541,0.1281738-1.5872803-0.2584229c-0.4335327-0.3848267-0.6074219-0.9870605-0.4418335-1.5455933  l2.605957-8.8100586c0.2318726-0.7833862,0.1663818-1.5988159-0.1307373-2.2927856  c-0.2938843-0.6863403-0.8139648-1.253479-1.4979248-1.5507813c-0.7861938-0.3426514-1.6474609-0.3494263-2.4256592-0.0183716  c-0.7792969,0.3309937-1.3704834,0.9500732-1.6650391,1.7433472l-8.2886353,18.788208  c-0.338501,0.7675171-0.8570557,1.4569092-1.4978638,1.994751l-3.7391977,3.1339111  c-0.8511963,0.7139282-1.1288452,1.8792114-0.6917725,2.8999023l8.2109995,19.1774292  c0.4893188,1.1428223,1.762085,1.7557983,2.9597168,1.4268188l24.7713013-6.7998657l4.6068726-1.9671631  c1.4547729-0.6229248,2.2440186-2.2058716,1.7969971-3.6047363c-0.2553101-0.8010864-0.8082886-1.4226685-1.5597534-1.7659302  c-0.7407837-0.3382568-1.5950317-0.3485718-2.34375-0.0280151L50.05336,65.6534119  c-0.7612305,0.3259888-1.6433716-0.0272217-1.9692993-0.7885132c-0.3259277-0.7612305,0.0272217-1.6433716,0.7885132-1.9692993  l3.1286011-1.3395386c1.4552612-0.6231079,2.2445679-2.2071533,1.7975464-3.6060181  c-0.2580566-0.7999268-0.8083496-1.4215698-1.5585327-1.7643433c-0.7415771-0.3389893-1.5958862-0.3492432-2.3446045-0.0286865  l-3.3027344,1.4141235c-0.7612915,0.3259277-1.6433716-0.0272217-1.9693604-0.7885132  c-0.3259277-0.7612915,0.0272827-1.6433716,0.7885742-1.9693604l4.9971924-2.1395874  c1.4552612-0.6231079,2.2446289-2.2071533,1.7971191-3.605835c-0.25354-0.7944336-0.8079224-1.4217529-1.5593262-1.7650146  c-0.7408447-0.3383179-1.5958862-0.3493042-2.3441772-0.0289307l-5.1709595,2.2140503  c-0.7612915,0.3259277-1.6433716-0.0272827-1.9692993-0.7885742c-0.3259888-0.7612305,0.0272217-1.6433716,0.7885132-1.9692993  l21.7584229-9.3161011C65.1647491,36.790863,65.954483,35.2077332,65.5074615,33.8088074z" />
	<!-- Created by Llisole -->
</svg>
