<?xml version="1.0" encoding="UTF-8"?>
<svg width="700pt" height="700pt" version="1.1" viewBox="0 0 700 700" xmlns="http://www.w3.org/2000/svg" xmlns:xlink="http://www.w3.org/1999/xlink">
  <path d="m513.9 332.42 0.92187-6.4531c1.6562-11.242-0.375-22.719-5.7852-32.715-5.4102-9.9922-13.906-17.969-24.227-22.73l-55.402-25.855c-4.0859-1.8984-7.7617-4.5742-10.828-7.875l-23.605-25.379c-5.4805-5.8867-11.461-11.285-17.879-16.133l-49.742-37.559-4.7617-52.371c-0.88672-9.6797-5.1328-18.746-12-25.625l-1.0508-1.0508c-5.75-5.7578-13.062-9.6953-21.031-11.332-7.9688-1.6367-16.242-0.89453-23.793 2.1328l-12.902 5.1602c-1.8867 0.75781-3.7031 1.6797-5.4258 2.7617l-57.328-57.332c-3.418-3.418-8.957-3.418-12.375 0l-86.625 86.625c-3.3047 3.3047-3.4297 8.6211-0.28125 12.078l47.453 52.121-0.76562 0.76562c-5.7344 5.7461-8.957 13.535-8.957 21.656s3.2227 15.91 8.957 21.656c5.7422 5.7461 13.535 8.9688 21.656 8.9531 0.10938 0 0.21875-0.007813 0.33203-0.007813-0.10156 8.2344 3.125 16.164 8.9492 21.984 5.7383 5.75 13.531 8.9727 21.656 8.957 0.10938 0 0.21875-0.007812 0.32812-0.007812-0.10156 8.1797 3.0781 16.055 8.832 21.871 5.75 5.8164 13.59 9.082 21.77 9.0742 0.10938 0 0.21875-0.007812 0.33203-0.007812h0.003907c-0.078125 7.2344 2.4141 14.266 7.0273 19.844 4.6172 5.5742 11.055 9.3359 18.18 10.617 7.125 1.2773 14.473-0.007813 20.738-3.6289l12.43 13.648 1.3008 105.94c-0.003906 7.5352 2.7734 14.809 7.7969 20.426s11.941 9.1836 19.43 10.016c7.4922 0.83203 15.023-1.125 21.16-5.5039 4.4609 7.1797 11.691 12.191 19.98 13.848 8.2852 1.6562 16.891-0.1875 23.77-5.0977 3.9688 6.3867 10.152 11.082 17.367 13.199 7.2148 2.1172 14.953 1.5078 21.746-1.7188v7.3281c0.007812 9.3125 4.2461 18.113 11.523 23.918 7.2773 5.8086 16.801 7.9883 25.879 5.9297 9.0781-2.0625 16.727-8.1406 20.785-16.52l40.594 40.957c1.6406 1.6602 3.8828 2.5938 6.2188 2.5938h0.30469c2.4375-0.082031 4.7305-1.1836 6.3242-3.0312l87.5-101.56c3.0312-3.5156 2.7852-8.7852-0.55469-12.008zm-242.68-246.7c4.3711-1.75 9.1602-2.1797 13.773-1.2344s8.8477 3.2266 12.176 6.5586l1.0508 1.0508h-0.003906c3.9766 3.9844 6.4375 9.2344 6.9492 14.836l2.9219 32.156-14.023-14.023c-2.0781-2.0781-5.0664-2.9727-7.9453-2.3789h-21.676c-5.1484 0-10.004-2.4062-13.121-6.5039-3.1211-4.1016-4.1445-9.4219-2.7734-14.383 1.375-4.9648 4.9883-9.0039 9.7695-10.918zm-122.38 116.87c-5.1172-5.1289-5.1172-13.434 0-18.562l30.938-30.938c5.125-5.125 13.434-5.125 18.562 0 5.125 5.125 5.125 13.438 0 18.562l-30.938 30.938c-5.1289 5.1172-13.434 5.1172-18.562 0zm30.938 30.938v-0.003907c-5.1172-5.1289-5.1172-13.43 0-18.559l30.938-30.938c5.125-5.125 13.434-5.125 18.559 0 5.1289 5.125 5.1289 13.438 0 18.562l-30.938 30.938 0.003906-0.003907c-5.1289 5.1172-13.434 5.1172-18.562 0zm40.219 34.781-0.003906-0.003907c-5.3086 0-10.094-3.1953-12.125-8.1016-2.0312-4.9023-0.91016-10.551 2.8477-14.305l30.938-30.938-0.003906 0.003907c5.125-5.125 13.438-5.125 18.562 0s5.125 13.434 0 18.562l-30.938 30.938v-0.003907c-2.457 2.4688-5.7969 3.8516-9.2812 3.8398zm30.938 30.938-0.003906-0.003907c-5.3086 0-10.094-3.1992-12.125-8.1016-2.0312-4.9062-0.91016-10.551 2.8438-14.305l30.938-30.938c5.125-5.125 13.434-5.125 18.559 0 5.1289 5.1289 5.1289 13.438 0 18.562l-30.938 30.938h0.003907c-2.457 2.4688-5.7969 3.8516-9.2812 3.8438zm204.07 185.46c0 7.25-5.875 13.125-13.125 13.125s-13.125-5.875-13.125-13.125v-83.125c0-4.832-3.918-8.75-8.75-8.75s-8.75 3.918-8.75 8.75v48.125c0 7.25-5.875 13.125-13.125 13.125s-13.125-5.875-13.125-13.125v-56.875c0-4.832-3.918-8.75-8.75-8.75s-8.75 3.918-8.75 8.75v48.125c0 7.25-5.875 13.125-13.125 13.125s-13.125-5.875-13.125-13.125v-56.875c0-4.832-3.918-8.75-8.75-8.75s-8.75 3.918-8.75 8.75v48.125c0 7.25-5.875 13.125-13.125 13.125s-13.125-5.875-13.125-13.125l-1.3477-109.5c-0.027344-2.1367-0.83984-4.1875-2.2773-5.7695l-14.516-15.941 24.156-24.164c5.7734-5.7656 9.0039-13.598 8.9766-21.758-0.027344-8.1602-3.3086-15.969-9.1211-21.695s-13.672-8.8984-21.828-8.8047c0-0.10937 0.007812-0.21875 0.007812-0.32812 0.003907-8.1797-3.2695-16.02-9.0859-21.77-5.8125-5.75-13.691-8.9297-21.867-8.8359 0.10156-8.2344-3.125-16.164-8.9492-21.988-5.8242-5.8203-13.75-9.0469-21.988-8.9453 0.097656-8.1602-3.0703-16.02-8.7969-21.836-5.7266-5.8125-13.539-9.0977-21.699-9.125-8.1602-0.03125-15.996 3.2031-21.762 8.9766l-17.777 17.777-41.285-45.344 74.535-74.527 51.578 51.578c-1.0078 1.8867-1.8359 3.8633-2.4727 5.9062-3.207 10.316-1.3164 21.543 5.0898 30.242 6.4062 8.6992 16.566 13.836 27.371 13.836h19.992l28.371 28.371c0.26172 0.25781 0.53516 0.49609 0.82422 0.71875 0.03125 0.023437 0.058594 0.054687 0.089844 0.078125l52.836 39.879c5.6016 4.2305 10.824 8.9453 15.609 14.086l23.605 25.383v-0.003906c4.5977 4.9531 10.113 8.9688 16.238 11.82l55.398 25.852c6.9102 3.1875 12.598 8.5234 16.219 15.215 3.6211 6.6914 4.9805 14.371 3.8711 21.898l-0.48047 3.3711h-33.266c-4.832 0-8.75 3.918-8.75 8.75zm60.801 35.242-43.301-43.688v-131.89h28.57l90.648 87.465z"/>
  <path d="m413.81 176.64c-1.6406 1.6406-2.5625 3.8672-2.5625 6.1875s0.92188 4.5469 2.5625 6.1875l26.25 26.25c3.418 3.418 8.957 3.418 12.375 0s3.418-8.957 0-12.375l-26.25-26.25c-1.6406-1.6406-3.8672-2.5625-6.1875-2.5625s-4.5469 0.92188-6.1875 2.5625z"/>
  <path d="m378.81 141.64c-1.6406 1.6406-2.5625 3.8672-2.5625 6.1875s0.92188 4.5469 2.5625 6.1875l8.75 8.75c3.418 3.418 8.957 3.418 12.375 0s3.418-8.957 0-12.375l-8.75-8.75c-1.6406-1.6406-3.8672-2.5625-6.1875-2.5625s-4.5469 0.92188-6.1875 2.5625z"/>
  <!-- Created by supalerk laipawat -->
</svg>
