<svg xmlns="http://www.w3.org/2000/svg" xmlns:xlink="http://www.w3.org/1999/xlink" version="1.1" x="0px" y="0px" viewBox="0 0 100 125" enable-background="new 0 0 100 100" xml:space="preserve">
	<g>
		<circle fill="#000000" cx="68.7" cy="40.7" r="2" />
		<circle fill="#000000" cx="80.7" cy="40.7" r="2" />
		<path fill="#000000" d="M50,9C27.4,9,9,27.4,9,50s18.4,41,41,41c0.6,0,1-0.4,1-1s-0.4-1-1-1c-21.5,0-39-17.5-39-39s17.5-39,39-39   c21.2,0,38.5,17,39,38h-7h-8h-8h-8h-8c-0.6,0-1,0.4-1,1v4c0,2.8,2.2,5,5,5c1.6,0,3.1-0.8,4-2c0.9,1.2,2.4,2,4,2s3.1-0.8,4-2   c0.9,1.2,2.4,2,4,2s3.1-0.8,4-2c0.9,1.2,2.4,2,4,2s3.1-0.8,4-2c0.9,1.2,2.4,2,4,2c2.8,0,5-2.2,5-5v-4C91,27.4,72.6,9,50,9z M54,57   c-1.7,0-3-1.3-3-3v-3h6v3C57,55.7,55.7,57,54,57z M62,57c-1.7,0-3-1.3-3-3v-3h6v3C65,55.7,63.7,57,62,57z M70,57c-1.7,0-3-1.3-3-3   v-3h6v3C73,55.7,71.7,57,70,57z M78,57c-1.7,0-3-1.3-3-3v-3h6v3C81,55.7,79.7,57,78,57z M89,54c0,1.7-1.3,3-3,3s-3-1.3-3-3v-3h6V54   z" />
	</g>
	<!--
	<text x="0" y="115" fill="#000000" font-size="5px" font-weight="bold" font-family="'Helvetica Neue', Helvetica, Arial-Unicode, Arial, Sans-serif">
	Created by Vipul Malhotra
	</text>
	<text x="0" y="120" fill="#000000" font-size="5px" font-weight="bold" font-family="'Helvetica Neue', Helvetica, Arial-Unicode, Arial, Sans-serif">
	from the Noun Project
	</text>
	-->
</svg>
