<svg xmlns="http://www.w3.org/2000/svg" xmlns:xlink="http://www.w3.org/1999/xlink" version="1.1" x="0px" y="0px" viewBox="0 0 100 125" style="enable-background:new 0 0 100 100;" xml:space="preserve">
	<g>
		<path d="M75.1,48.2H53.5c-2.8,0-5,2.2-5,5v22c0,2.8,2.2,5,5,5h21.6c2.8,0,5-2.2,5-5v-22C80.1,50.4,77.9,48.2,75.1,48.2z" />
		<path d="M42.5,65.4H39c-1.4,0-2.5-1.1-2.5-2.5V38.2c0-0.9,0.8-1.7,1.7-1.7h24.8c1.4,0,2.5,1.1,2.5,2.5v3.8c0,0.8,0.7,1.5,1.5,1.5   s1.5-0.7,1.5-1.5V39c0-3-2.5-5.5-5.5-5.5H38.3c-2.6,0-4.7,2.1-4.7,4.7V63c0,3,2.5,5.5,5.5,5.5h3.5c0.8,0,1.5-0.7,1.5-1.5   S43.4,65.4,42.5,65.4z" />
		<path d="M27.3,50.2h-3.5c-1.4,0-2.5-1.1-2.5-2.5V23c0-0.9,0.8-1.7,1.7-1.7h24.8c1.4,0,2.5,1.1,2.5,2.5v3.8c0,0.8,0.7,1.5,1.5,1.5   s1.5-0.7,1.5-1.5v-3.8c0-3-2.5-5.5-5.5-5.5H23.1c-2.6,0-4.7,2.1-4.7,4.7v24.7c0,3,2.5,5.5,5.5,5.5h3.5c0.8,0,1.5-0.7,1.5-1.5   S28.2,50.2,27.3,50.2z" />
	</g>
	<!-- Created by Tomasz Pasternak -->
</svg>
