<svg xmlns="http://www.w3.org/2000/svg" xmlns:xlink="http://www.w3.org/1999/xlink" version="1.1" x="0px" y="0px" viewBox="0 0 100 125" enable-background="new 0 0 100 100" xml:space="preserve">
	<polygon points="10.46,69.938 10.46,31.065 0.927,31.065 0.903,96.374 10.46,96.374 10.46,78.951 89.32,78.951 89.32,96.374   98.933,96.374 98.933,69.938 " />
	<path d="M72.905,10.637c0,3.77-3.058,6.825-6.829,6.825c-3.772,0-6.82-3.055-6.82-6.825c0-3.773,3.048-6.827,6.82-6.827  C69.848,3.81,72.905,6.864,72.905,10.637" />
	<path d="M16.713,42.942c3.301,1.766,7.421,0.537,9.219-2.758c1.768-3.312,0.535-7.435-2.756-9.219  c-3.316-1.781-7.438-0.549-9.215,2.76C12.172,37.024,13.407,41.143,16.713,42.942L16.713,42.942z" />
	<g>
		<rect x="13.316" y="45.726" width="17.612" height="21.335" />
		<path d="M98.932,52.01c0.005-3.612-2.45-6.294-6.632-6.284H34.144v21.335l64.789-0.001L98.932,52.01L98.932,52.01z" />
	</g>
	<path d="M80.149,42.662h6.591l-4.78-16.655c-0.813-2.44-3.742-6.865-9.11-6.865H59.862c-5.419,0-8.134,4.392-8.842,6.865  L47.064,36.34l-10.445-0.01c-4.891,0.03-4.9,6.305-0.007,6.301l12.769,0.013l0.002-0.01c1.24-0.018,2.495-0.77,3.048-2.475  l3.963-10.328h2.15l-3.287,12.832h20.346h1.438L74.11,29.831h2.477L80.149,42.662z" />
	<!--
	<text x="0" y="115" fill="#000000" font-size="5px" font-weight="bold" font-family="'Helvetica Neue', Helvetica, Arial-Unicode, Arial, Sans-serif">
	Created by Luis Prado
	</text>
	<text x="0" y="120" fill="#000000" font-size="5px" font-weight="bold" font-family="'Helvetica Neue', Helvetica, Arial-Unicode, Arial, Sans-serif">
	from the Noun Project
	</text>
	-->
</svg>
