<svg xmlns:x="http://ns.adobe.com/Extensibility/1.0/" xmlns:i="http://ns.adobe.com/AdobeIllustrator/10.0/" xmlns:graph="http://ns.adobe.com/Graphs/1.0/" xmlns="http://www.w3.org/2000/svg" xmlns:xlink="http://www.w3.org/1999/xlink" version="1.1" x="0px" y="0px" viewBox="0 0 100 125" style="enable-background:new 0 0 100 100;" xml:space="preserve">
	<g>
		<g>
			<path d="M48.8,52.4c-2.1,2.5-4.9,5.3-8.1,8c-0.1,0-0.2,0-0.3,0H7.1c-2.6,0-4.6,2-4.6,4.6v18.2c0,2,1.3,3.7,3,4.3     c0.7-3.4,3.7-6,7.4-6c3.7,0,6.8,2.7,7.4,6.3h6.9c0.6-3.5,3.7-6.3,7.4-6.3c3.6,0,6.7,2.6,7.4,6c1.8-0.6,3-2.3,3-4.3V65     c0-0.7-0.2-1.3-0.4-1.9c3.1-2.7,5.7-5.4,7.8-7.8c-0.7-0.3-1.4-0.8-2-1.3C49.8,53.6,49.2,53,48.8,52.4z" />
			<circle cx="12.9" cy="89.1" r="4.1" />
			<circle cx="34.6" cy="89.1" r="4.1" />
			<path d="M59.1,85.9c-1,2.9,0.5,6,3.4,7c0.6,0.2,1.2,0.3,1.8,0.3c2.3,0,4.4-1.4,5.2-3.7l6.1-17.4L67,63.5L59.1,85.9z" />
			<path d="M90.9,66.2c-0.2-1.1-0.8-2.1-1.6-2.9l-7.2-7c1.2-4.1,3.9-14,5.2-18.8c0.4-1.6,1.5-6-3.4-9c-1.9-1.2-3.8-2.1-5.2-2.9     c-0.6-0.3-1.1-0.6-1.6-0.8c-3.9-2.1-8.4,0.6-11,3.5C64.7,29.9,54,42.7,52.8,44.1c-1.6,1.9-1.4,4.8,0.6,6.5     c1.9,1.6,4.8,1.4,6.5-0.6c1.9-2.3,5.7-6.8,8.8-10.4l-2.3,13.2c-0.3,1.8,0.3,3.6,1.6,4.9L80.4,70L84,88.7c0.5,2.6,2.8,4.5,5.4,4.5     c0.3,0,0.7,0,1-0.1c3-0.6,5-3.5,4.4-6.5L90.9,66.2z" />
			<circle cx="87.8" cy="16.4" r="9.7" />
			<path d="M5.5,36h30.9l-5.7,5.7c-1.2,1.2-1.2,3.1,0,4.2c0.6,0.6,1.3,0.9,2.1,0.9c0.8,0,1.5-0.3,2.1-0.9l10.8-10.8     c1.2-1.2,1.2-3.1,0-4.2L35,20.1c-1.2-1.2-3.1-1.2-4.2,0c-1.2,1.2-1.2,3.1,0,4.2l5.7,5.7H5.5c-1.7,0-3,1.3-3,3     C2.5,34.7,3.8,36,5.5,36z" />
		</g>
	</g>
	<!-- Created by Adrien Coquet -->
</svg>
