<?xml version="1.0" encoding="UTF-8"?>
<svg width="700pt" height="700pt" version="1.1" viewBox="0 0 700 700" xmlns="http://www.w3.org/2000/svg" xmlns:xlink="http://www.w3.org/1999/xlink">
  <path d="m128.57 391.65v-217.69h-53.383l-0.13281 365.73h53.516v-97.57h441.62v97.57h53.832v-148.04z"/>
  <path d="m478.27 59.566c0 21.113-17.125 38.219-38.242 38.219-21.125 0-38.191-17.109-38.191-38.219 0-21.129 17.07-38.23 38.191-38.23s38.242 17.102 38.242 38.23"/>
  <path d="m163.59 240.48c18.484 9.8906 41.559 3.0078 51.625-15.445 9.9023-18.547 2.9961-41.637-15.434-51.625-18.57-9.9727-41.652-3.0742-51.605 15.457-10.016 18.473-3.1016 41.539 15.414 51.613z"/>
  <path d="m144.57 256.07h98.629v119.48h-98.629z"/>
  <path d="m624.02 291.26c0.027344-20.227-13.719-35.246-37.141-35.191h-325.67v119.48l362.82-0.003907z"/>
  <path d="m518.84 238.91h36.91l-26.77-93.27c-4.5547-13.664-20.957-38.445-51.016-38.445l-72.734 0.003906c-30.348 0-45.551 24.594-49.516 38.445l-22.152 57.863-58.492-0.054687c-27.391 0.16797-27.441 35.309-0.039062 35.285l71.508 0.074219 0.011719-0.054688c6.9453-0.10156 13.973-4.3125 17.07-13.859l22.191-57.836h12.039l-18.406 71.859h121.99l-16.418-71.863h13.871z"/>
  <!-- Created by Luis Prado -->
</svg>
