<svg xmlns="http://www.w3.org/2000/svg" xmlns:xlink="http://www.w3.org/1999/xlink" version="1.1" x="0px" y="0px" viewBox="0 0 100 125" style="enable-background:new 0 0 100 100;" xml:space="preserve">
	<g>
		<path d="M75.1,46.7H53.5c-3.6,0-6.5,2.9-6.5,6.5v22c0,3.6,2.9,6.5,6.5,6.5h21.6c3.6,0,6.5-2.9,6.5-6.5v-22   C81.6,49.6,78.7,46.7,75.1,46.7z M78.6,75.2c0,1.9-1.6,3.5-3.5,3.5H53.5c-1.9,0-3.5-1.6-3.5-3.5v-22c0-1.9,1.6-3.5,3.5-3.5h21.6   c1.9,0,3.5,1.6,3.5,3.5V75.2z" />
		<path d="M53.4,29.1v-5.3c0-3-2.5-5.5-5.5-5.5H23.1c-2.6,0-4.7,2.1-4.7,4.7v24.7c0,3,2.5,5.5,5.5,5.5h5l0-16.7   c0-4.1,3.4-7.5,7.5-7.5H53.4z" />
		<path d="M42.5,65.4H39c-1.4,0-2.5-1.1-2.5-2.5V38.2c0-0.9,0.8-1.7,1.7-1.7h24.8c1.4,0,2.5,1.1,2.5,2.5v3.8c0,0.8,0.7,1.5,1.5,1.5   s1.5-0.7,1.5-1.5V39c0-3-2.5-5.5-5.5-5.5H38.3c-2.6,0-4.7,2.1-4.7,4.7V63c0,3,2.5,5.5,5.5,5.5h3.5c0.8,0,1.5-0.7,1.5-1.5   S43.4,65.4,42.5,65.4z" />
	</g>
	<!--
	<text x="0" y="115" fill="#000000" font-size="5px" font-weight="bold" font-family="'Helvetica Neue', Helvetica, Arial-Unicode, Arial, Sans-serif">
	Created by Tomasz Pasternak
	</text>
	<text x="0" y="120" fill="#000000" font-size="5px" font-weight="bold" font-family="'Helvetica Neue', Helvetica, Arial-Unicode, Arial, Sans-serif">
	from the Noun Project
	</text>
	-->
</svg>
