<svg xmlns="http://www.w3.org/2000/svg" xmlns:xlink="http://www.w3.org/1999/xlink" version="1.1" x="0px" y="0px" viewBox="0 0 95 118.75" enable-background="new 0 0 95 95" xml:space="preserve">
	<path d="M47.8,34.8c0-2.2-2-4.4-6.5-7.2c-2.6-1.6-3-3.9-3.5-7.6c-0.3-2.2-0.6-4.4-1.6-6.5C32,4.6,22.5,0.3,7.2,0.4  c-1.4,0-2.5,1.5-1.7,3c0.3,0.6,1,1,1.8,1h0c13.6-0.1,21.9,3.4,25.3,10.8c0.8,1.6,1,3.5,1.3,5.4c0.5,3.7,1.1,7.8,5.4,10.5  c3.6,2.2,4.4,3.3,4.6,3.7c-0.2,0.3-0.9,0.6-1.3,0.9l-0.3,0.2c-1,0.7-1.6,1.6-1.7,2.7c-0.1,1.6,0.9,3,2.1,4.2  c-0.1,0.1-0.2,0.1-0.2,0.2c-1.8,1.2-3.8,2.6-4.3,4.6c-0.3,1.3-0.2,3.5,2.3,5.5c-0.3,1-0.3,2.4,0.1,4.5c0.1,4.1-8.3,5.4-11.3,5.6  l-1.2,0.1l-0.5,1c-7,13.9,8.7,27.3,9.4,27.9c0.4,0.3,0.8,0.5,1.3,0.5c0.6,0,1.1-0.2,1.5-0.7c0.7-0.8,0.6-2.1-0.2-2.8  c-0.1-0.1-13.1-11.2-8.8-22c5.8-0.5,14.1-3.1,13.8-9.8l0-0.2c-0.2-1-0.2-1.7-0.2-2.1c0,0,0,0,0,0c0.8-0.1,1.4-0.6,1.7-1.3l0-0.1  c0.4-1-0.1-2.1-1.1-2.5l0,0c-0.2-0.1-0.4-0.1-0.6-0.2c-0.9-0.5-2.4-1.4-2.2-2.4c0.2-0.5,1.8-1.6,2.6-2.1c1.6-1,2.8-1.9,2.9-3.3  c0-0.8-0.3-1.5-0.9-2c-1.2-1-1.8-1.7-2-2C46,38.2,47.8,37,47.8,34.8z" />
	<path d="M88.9,52.9c-0.9-0.9-2-0.8-2.8-0.8c0,0-0.1,0-0.1,0c0-2.8-0.8-5.4-2.3-7.3c-2-2.6-5-3.8-8.6-3.6c1.7-2.2,3.8-2.5,4-2.5  c1.1-0.1,1.9-1.1,1.8-2.2c-0.1-1.1-1.1-1.9-2.2-1.8c-0.2,0-5.1,0.5-7.8,5.6c-2.4-1.9-4.7-2.4-6.3-2.4c-1.7,0-3.5,0.5-5.1,1.5  l-2.1,1.3l1.7,1.8c0.9,0.9,1.3,2,1,2.9c-0.3,1.1-1.3,1.7-1.9,1.9l-1.6,0.6l0.4,1.7c0,0.2,0,0.4,0,0.5c-0.2,0.6-1.1,1.1-2.2,1.1l-2,0  l0,1.9c0,0.7,0,1.4,0.1,2.1c-0.2,0-0.4,0.1-0.6,0.2c-0.6,0.3-1.4,1-1.8,2.4c-0.4,1.7-0.5,6.3,2,10.2c3.9,6.1,3.7,6.7,2.6,9.8  c-0.8,2.2-1.1,3.5-1.4,4.5c-0.5,1.8-0.9,3.2-3.2,8.7c-0.4,1,0.1,2.2,1.1,2.6c0.3,0.1,0.5,0.2,0.8,0.2c0.8,0,1.5-0.5,1.8-1.2  c2.4-5.8,2.8-7.2,3.4-9.2c0.3-1,0.6-2.2,1.4-4.3c1.6-4.7,1.2-6.6-3-13.2c-1-1.5-1.4-3.2-1.5-4.6c1.8,3.8,5.2,6.4,10.1,7.6  c1.8,0.4,3.5,0.7,5.1,0.7c7.6,0,13.7-5,15.8-13.2c0-0.1,0-0.2,0.1-0.3c0.1,0,0.1,0,0.2,0c0,0.3,0,0.7-0.1,1.3  c-0.2,2.5-1.4,7.4-2,8.2c-2.7,4.3-5.9,6.8-13,10.1c-2.2,1-2.9,4.1-3.9,8.7c-0.5,2.3-1.1,4.9-1.9,7.6c-0.3,1.1,0.2,2.2,1.3,2.5  c0.2,0.1,0.4,0.1,0.6,0.1c0.8,0,1.6-0.5,1.9-1.4c0.9-2.8,1.5-5.5,2-7.9c0.5-2.3,1.2-5.3,1.8-6c7.8-3.6,11.5-6.6,14.6-11.6  c1.2-1.8,2.4-7.7,2.6-10C89.9,55.4,89.9,53.9,88.9,52.9z M69.7,65.6c-1.3,0-2.7-0.2-4.1-0.5c-5.5-1.4-8.3-4.6-8.6-10.2  c2-0.6,3.5-2,4-3.8c0.1-0.3,0.1-0.5,0.1-0.8c1.5-0.9,2.6-2.3,3-3.9c0.4-1.5,0.2-3-0.4-4.4c2.2-0.4,4.5,0.7,6.5,3.1l0.9,1.1l1.3-0.4  c3.7-1.2,6.6-0.7,8.2,1.5c1.1,1.5,1.6,3.6,1.4,6c-0.1,0.1-0.1,0.3-0.1,0.4c0,0.2,0,0.4,0,0.6c-0.1,0.4-0.1,0.8-0.2,1.1  C80,61.8,75.5,65.6,69.7,65.6z" />
	<!-- Created by DPIcons -->
</svg>
