<svg xmlns="http://www.w3.org/2000/svg" viewBox="0 0 64 80" x="0px" y="0px">
	<g>
		<path d="M20,34H8V13A5.006,5.006,0,0,0,3,8,1,1,0,0,0,2,9V55a1,1,0,0,0,1,1,5.006,5.006,0,0,0,5-5V50h8v1a5.006,5.006,0,0,0,5,5,1,1,0,0,0,1-1V40h2a1,1,0,0,0,1-1A5.006,5.006,0,0,0,20,34ZM4,10.171A3.006,3.006,0,0,1,6,13V34H4ZM6,51a3.006,3.006,0,0,1-2,2.829V40H6Zm2-3V40h8v8Zm12,5.829A3.006,3.006,0,0,1,18,51V40h2ZM21,38H4V36H20a3.006,3.006,0,0,1,2.829,2Z" />
		<path d="M61,8a5.006,5.006,0,0,0-5,5V34H44a5.006,5.006,0,0,0-5,5,1,1,0,0,0,1,1h2V55a1,1,0,0,0,1,1,5.006,5.006,0,0,0,5-5V50h8v1a5.006,5.006,0,0,0,5,5,1,1,0,0,0,1-1V9A1,1,0,0,0,61,8Zm-3,5a3.006,3.006,0,0,1,2-2.829V34H58ZM44,36H60v2H41.171A3.006,3.006,0,0,1,44,36Zm2,15a3.006,3.006,0,0,1-2,2.829V40h2Zm2-3V40h8v8Zm12,5.829A3.006,3.006,0,0,1,58,51V40h2Z" />
		<path d="M34,50H33V30H49a3,3,0,0,0,0-6H44V20a.949.949,0,0,0-.035-.173A2.994,2.994,0,0,0,46,17V13a1,1,0,0,0-1-1H41a1,1,0,0,0-1,1v4a2.994,2.994,0,0,0,2.035,2.827A.949.949,0,0,0,42,20v4H37V14.354A4.355,4.355,0,0,0,35,10.7V3a1,1,0,0,0-1-1H30a1,1,0,0,0-1,1v7.7a4.355,4.355,0,0,0-2,3.658V24H22V20a.949.949,0,0,0-.035-.173A2.994,2.994,0,0,0,24,17V13a1,1,0,0,0-1-1H19a1,1,0,0,0-1,1v4a2.994,2.994,0,0,0,2.035,2.827A.949.949,0,0,0,20,20v4H15a3,3,0,0,0,0,6H31V50H30a5.006,5.006,0,0,0-5,5,1,1,0,0,0,1,1H38a1,1,0,0,0,1-1A5.006,5.006,0,0,0,34,50Zm8-36h2v3a1,1,0,0,1-2,0ZM20,14h2v3a1,1,0,0,1-2,0Zm15,6H33V18h2ZM31,4h2V6H31ZM29,14.354a2.358,2.358,0,0,1,1.405-2.15A1,1,0,0,0,31,11.29V8h2v3.29a1,1,0,0,0,.595.914A2.358,2.358,0,0,1,35,14.354V16H32a1,1,0,0,0-1,1v4a1,1,0,0,0,1,1h3v2H29ZM14,27a1,1,0,0,1,1-1H49a1,1,0,0,1,0,2H15A1,1,0,0,1,14,27ZM27.171,54A3.006,3.006,0,0,1,30,52h4a3.006,3.006,0,0,1,2.829,2Z" />
	</g>
	<!-- Created by Satawat Anukul -->
</svg>
