<svg xmlns="http://www.w3.org/2000/svg" viewBox="0 0 512 640" x="0px" y="0px">
	<g data-name="Out line">
		<path d="M280,352H168a8.00008,8.00008,0,0,0-8,8v64a8.00008,8.00008,0,0,0,8,8H280a8.00008,8.00008,0,0,0,8-8V360A8.00008,8.00008,0,0,0,280,352Zm-8,64H176V368h96Z" />
		<path d="M488,288H304V275.31348a35.08124,35.08124,0,0,0-10.34326-24.97071q-1.23267-1.23266-2.56275-2.32617l7.26392-21.792A38.15822,38.15822,0,0,0,262.1582,176,38.2017,38.2017,0,0,0,224,214.1582v1.03516L214.24707,203.002a8.001,8.001,0,0,0-10.68457-1.6582l-24,16a7.99921,7.99921,0,0,0-1.9624,11.45605l20.25928,27.0127A35.07116,35.07116,0,0,0,192,275.31348V288H24a8.00008,8.00008,0,0,0-8,8V488a8.00008,8.00008,0,0,0,8,8H488a8.00008,8.00008,0,0,0,8-8V296A8.00008,8.00008,0,0,0,488,288ZM128,480H88V336h40ZM304,304v16H144V304ZM144,336H304V448H144ZM262.1582,192a22.15777,22.15777,0,0,1,21.021,29.16406l-3.95386,11.86182A31.99764,31.99764,0,0,0,240.646,208.85571,22.19419,22.19419,0,0,1,262.1582,192ZM240,226.15527A15.98408,15.98408,0,0,1,264,240H243.84521L240,235.19336ZM214.3999,251.2002l-18.92578-25.23438,10.86084-7.24121,27.418,34.27344A8.00055,8.00055,0,0,0,240,256h28.68652A19.31415,19.31415,0,0,1,288,275.31348V288H208V275.31348a19.18424,19.18424,0,0,1,5.65674-13.65625A8,8,0,0,0,214.3999,251.2002ZM32,304h96v16H32Zm0,176V336H72V480Zm112,0V464H304v16Zm216,0H320V336h40ZM320,320V304h96v16Zm56,16h40V480H376ZM480,480H432V304h48Z" />
		<path d="M488,16H24a8.00008,8.00008,0,0,0-8,8V160a8.00008,8.00008,0,0,0,8,8H176a8.00008,8.00008,0,0,0,8-8V136H328v24a8.00008,8.00008,0,0,0,8,8H488a8.00008,8.00008,0,0,0,8-8V24A8.00008,8.00008,0,0,0,488,16ZM328,32V80H280V32ZM184,32h80V80H184Zm-40,76.686V32h24V84.686ZM128,152H32V32h96Zm40,0H144V136h24Zm-12.686-32,24-24H268.686l24,24Zm160,0-24-24H328v24ZM440,152H344V32h96Zm40,0H456V32h24Z" />
		<circle cx="368" cy="88" r="8" />
		<circle cx="56" cy="88" r="8" />
	</g>
	<!-- Created by luketaibai -->
</svg>
