<svg xmlns:x="http://ns.adobe.com/Extensibility/1.0/" xmlns:i="http://ns.adobe.com/AdobeIllustrator/10.0/" xmlns:graph="http://ns.adobe.com/Graphs/1.0/" xmlns="http://www.w3.org/2000/svg" xmlns:xlink="http://www.w3.org/1999/xlink" version="1.1" x="0px" y="0px" viewBox="0 0 100 125" style="enable-background:new 0 0 100 100;" xml:space="preserve">
	<g>
		<g>
			<path d="M50.3,71.5c-1.7-0.5-4.3-1.6-7.1-2.9c-1.9,0.8-4.4,0.7-7.1-0.7c-0.7-0.3-1.3-0.8-2-1.3c-1.7-1.2-3.6-2.9-5.7-4.8     c-0.1-0.1-0.3-0.3-0.4-0.4c-0.5-0.5-0.7-1.2-0.3-1.8c0.5-0.7,1.4-0.8,2.1-0.3c0.2,0.1,0.3,0.3,0.5,0.4c2.7,2.4,5.2,4.7,7.1,5.7     c3.6,1.8,5.9,0.6,6.9-1.2c0.8-1.4,0.8-3.4-0.8-4.5c-2.3-1.5-4.8-3.7-7.2-5.8c-2.7-2.4-5.6-4.8-7.9-6.1c-2.6-1.5-8.6-3.4-15-3.8     c-3.1-0.2-6.7-0.3-8.8-0.3c-1.1,0-2,0.9-2,2l0.1,12.6c0,1.1,0.9,1.9,2,1.9l3.6,0c0.8,0,1.6,0.4,2.1,1.1c3.1,4.4,6.8,8.6,9.6,11     c6,5.1,23.7,6.9,29,7.1C54,79.7,55.2,73,50.3,71.5z" />
			<ellipse transform="matrix(0.3819 -0.9242 0.9242 0.3819 29.8786 100.5178)" cx="90.1" cy="27.9" rx="7.4" ry="7.4" />
			<ellipse transform="matrix(0.5365 -0.8439 0.8439 0.5365 -20.9457 58.3738)" cx="42.7" cy="48.3" rx="2.3" ry="2.3" />
			<ellipse transform="matrix(0.6751 -0.7378 0.7378 0.6751 -15.3394 48.8644)" cx="47.8" cy="41.8" rx="2.3" ry="2.3" />
			<ellipse transform="matrix(0.793 -0.6093 0.6093 0.793 -11.0183 40.4218)" cx="54" cy="36.4" rx="2.3" ry="2.3" />
			<ellipse transform="matrix(0.8867 -0.4624 0.4624 0.8867 -7.9574 31.8411)" cx="61" cy="32.2" rx="2.3" ry="2.3" />
			<ellipse transform="matrix(0.9535 -0.3015 0.3015 0.9535 -5.6008 22.0476)" cx="68.6" cy="29.2" rx="2.3" ry="2.3" />
			<ellipse transform="matrix(0.9914 -0.1312 0.1312 0.9914 -2.9532 10.3018)" cx="76.7" cy="27.6" rx="2.3" ry="2.3" />
		</g>
	</g>
	<!-- Created by Adrien Coquet -->
</svg>
