<svg xmlns="http://www.w3.org/2000/svg" xmlns:xlink="http://www.w3.org/1999/xlink" version="1.1" x="0px" y="0px" viewBox="0 0 512 640" style="enable-background:new 0 0 512 512;" xml:space="preserve">
	<g>
		<g>
			<path d="M398.468,111.59c11.413,11.872,11.003,30.76-0.915,42.125l-102.628,97.867    c11.72-11.067,31.111-10.531,42.345,1.534c10.249,11.007,9.032,27.8-1.852,38.078l-13.958,13.181    c13.597-12.84,37.521-10.062,47.051,8.219c6.614,12.688,3.289,27.968-7.222,37.893l-15.229,14.381    c11.269-10.642,29.632-10.555,41.015,0.194l0.036,0.034c12.41,11.719,12.494,30.64,0.188,42.261l-57.288,54.099    c-40.546,38.289-106.562,38.027-147.45-0.585l-46.478-43.89c-31.926-30.148-39.961-76.066-19.935-113.92    c14.778-26.84,18.821-53.56,13.355-83.586c-1.885-9.566,1.297-19.336,8.519-26.156c17.338-16.373,47.232-8.084,52.901,14.668    l9,51.945l10.469-9.886L356.511,110.68C368.361,99.378,387.119,99.785,398.468,111.59L398.468,111.59z" />
			<g>
				<rect x="182.916" y="47.82" transform="matrix(0.0069 -1 1 0.0069 159.277 285.0118)" width="80.433" height="28.992" />
				<rect x="252.258" y="77.15" transform="matrix(0.7075 -0.7067 0.7067 0.7075 19.7472 231.0017)" width="73.336" height="28.993" />
				<rect x="142.114" y="57.236" transform="matrix(0.7051 -0.7091 0.7091 0.7051 -20.0062 138.5779)" width="28.993" height="72.213" />
			</g>
		</g>
	</g>
	<!-- Created by SBTS -->
</svg>
