<svg xmlns="http://www.w3.org/2000/svg" xmlns:xlink="http://www.w3.org/1999/xlink" version="1.1" x="0px" y="0px" viewBox="0 0 96 120" enable-background="new 0 0 96 96" xml:space="preserve">
	<g>
		<path d="M48,43.033c-18.362,0-31.158,3.728-31.158,7.074c0,3.346,12.796,7.074,31.158,7.074c18.361,0,31.157-3.729,31.157-7.074   S66.361,43.033,48,43.033z" />
		<path d="M48,36.41C21.083,36.41,3,42.402,3,48s18.08,11.59,45,11.59c26.916,0,45-5.992,45-11.59S74.916,36.41,48,36.41z M48,58.386   c-15.688,0-32.361-2.9-32.361-8.276c0-5.379,16.674-8.28,32.361-8.28s32.359,2.901,32.359,8.28   C80.359,55.485,63.688,58.386,48,58.386z" />
	</g>
	<!-- Created by designvector -->
</svg>
