<svg xmlns="http://www.w3.org/2000/svg" xmlns:xlink="http://www.w3.org/1999/xlink" version="1.1" x="0px" y="0px" viewBox="0 0 100 125" style="enable-background:new 0 0 100 100;" xml:space="preserve">
	<g>
		<path d="M57.375,56.25c0,0.8085938,0.4873047,1.5380859,1.234375,1.8476563C58.8574219,58.2001953,59.1171875,58.25,59.375,58.25   c0.5205078,0,1.03125-0.203125,1.4140625-0.5859375l4.0400391-4.0400391C66.6318359,51.8212891,67.625,49.4248047,67.625,46.875   c0-1.1044922-0.8955078-2-2-2s-2,0.8955078-2,2c0,1.4814453-0.5771484,2.8730469-1.6240234,3.9208984l-1.0214844,1.0214844   C60.0957031,46.9248047,57.75,42.421875,54.1601563,38.8320313L52,36.671875v-0.4840698   C57.3203125,35.2386475,61.375,30.5890503,61.375,25c0-6.2724609-5.1025391-11.375-11.375-11.375S38.625,18.7275391,38.625,25   c0,5.5890503,4.0546875,10.2386475,9.375,11.1878052v0.4840698l-2.1601563,2.1601563   C42.25,42.421875,39.9042969,46.9248047,39.0205078,51.8173828l-1.0214844-1.0214844   C36.9521484,49.7480469,36.375,48.3564453,36.375,46.875c0-1.1044922-0.8955078-2-2-2s-2,0.8955078-2,2   c0,2.5498047,0.9931641,4.9462891,2.7958984,6.7490234l4.0400391,4.0400391C39.59375,58.046875,40.1044922,58.25,40.625,58.25   c0.2578125,0,0.5175781-0.0498047,0.765625-0.1523438C42.1376953,57.7880859,42.625,57.0585938,42.625,56.25   c0-5.1778564,1.9151001-10.0491333,5.375-13.8533325v19.3043823c-6.0471802,6.3487549-9.375,14.632019-9.375,23.4317627V93.75   c0,1.1044922,0.8955078,2,2,2s2-0.8955078,2-2v-8.6171875c0-7.3212891,2.6044922-14.2421875,7.375-19.7060547   c4.7705078,5.4638672,7.375,12.3847656,7.375,19.7060547V93.75c0,1.1044922,0.8955078,2,2,2s2-0.8955078,2-2v-8.6171875   c0-8.7997437-3.3278198-17.0830078-9.375-23.4317627V42.3966675C55.4598999,46.2008667,57.375,51.0721436,57.375,56.25z M42.625,25   c0-4.0664063,3.3085938-7.375,7.375-7.375s7.375,3.3085938,7.375,7.375S54.0664063,32.375,50,32.375S42.625,29.0664063,42.625,25z" />
	</g>
	<!--
	<text x="0" y="115" fill="#000000" font-size="5px" font-weight="bold" font-family="'Helvetica Neue', Helvetica, Arial-Unicode, Arial, Sans-serif">
	Created by DigitalShards
	</text>
	<text x="0" y="120" fill="#000000" font-size="5px" font-weight="bold" font-family="'Helvetica Neue', Helvetica, Arial-Unicode, Arial, Sans-serif">
	from the Noun Project
	</text>
	-->
</svg>
