<svg xmlns="http://www.w3.org/2000/svg" xmlns:xlink="http://www.w3.org/1999/xlink" version="1.1" x="0px" y="0px" viewBox="0 0 100 125" enable-background="new 0 0 100 100" xml:space="preserve">
	<path d="M24.145,36.512c-7.349-4.353-9.771-13.83-5.427-21.164c4.351-7.345,13.823-9.774,21.173-5.425  c7.333,4.347,9.764,13.824,5.413,21.169C40.959,38.429,31.479,40.855,24.145,36.512z" />
	<path d="M69.12,9.649L48.088,35.137l11.714,7.921l-5.286,11.85c0,0-25.538-12.289-25.722-12.359  c-3.837-2.057-10.193-2.576-15.019,0.749C0.526,52.886-0.709,77.712,3.34,94.629h45.28L41.079,67.28l-13.46-6.482  c-0.653-0.315-0.927-1.098-0.611-1.752c0.315-0.652,1.1-0.927,1.752-0.611l26.229,12.633c0.971,0.458,2.02,0.692,3.073,0.692  c0.835,0,1.67-0.145,2.469-0.438c1.822-0.666,3.296-2.043,4.087-3.815l7.265-16.281l10.809,7.308l15.975-19.357L69.12,9.649z   M77.132,39.454l1.167-2.614c1.615-3.62-0.011-7.865-3.631-9.48c-3.621-1.615-7.865,0.01-9.48,3.631L61.5,39.254l-7.376-4.988  L69.412,15.74L93.127,39.44l-0.011,0.013H77.132z" />
	<!--
	<text x="0" y="115" fill="#000000" font-size="5px" font-weight="bold" font-family="'Helvetica Neue', Helvetica, Arial-Unicode, Arial, Sans-serif">
	Created by Luis Prado
	</text>
	<text x="0" y="120" fill="#000000" font-size="5px" font-weight="bold" font-family="'Helvetica Neue', Helvetica, Arial-Unicode, Arial, Sans-serif">
	from the Noun Project
	</text>
	-->
</svg>
