<?xml version="1.0" encoding="UTF-8"?>
<svg width="1200pt" height="1200pt" version="1.1" viewBox="0 0 1200 1200" xmlns="http://www.w3.org/2000/svg">
  <path d="m284.9 989.48c-4.1406 10.906-7.1641 21.035-13.738 45.984-8.5547 32.555-9.3008 34.199-22.441 47.914-17.051 17.855-29.977 26.207-59.867 38.594-15.348 6.3477-21.996 10.055-26.867 14.773-6.5625 6.3477-9.0859 12.469-10.043 24-1.1055 13.945 6.7188 25.309 23.328 33.863 3.4688 1.7656 8.4102 3.8281 11.074 4.5117 2.2695 0.60156 4.4297 0.86328 6.2773 0.86328 3.7305 0 6.2656-1.1406 6.2656-3.1562 0-0.58984-3.4688-4.7266-7.668-9.2383-10.715-11.293-13.285-17.258-10.488-24.66 2.293-5.832 12.406-13.801 24.434-19.199 5.7617-2.5938 39.637-16.094 47.242-18.898 8.9883-3.2891 15.59-4.9688 21.07-4.9688 6.2031 0 11.004 2.1367 16.211 6.5391l3.5391 2.9414 72.191-0.15625 72.277-0.21484-0.22656-5.5547c-0.67188-14.375-4.4297-17.258-23.988-18.371-5.543-0.28906-10.332-0.73047-10.488-0.94922-0.66016-0.60156 2.2188-7.3789 7.0078-16.836 8.5547-16.766 20.293-32.699 27.012-36.625 2.2695-1.3086 3.2891-1.7539 6-1.7539 0.89844 0 1.9922 0.070312 3.3711 0.14453 6.9492 0.35938 10.848 1.9922 14.398 6.0586 2.9531 3.3711 3.7578 6.1914 4.9453 17.496 0.74219 6.8398 1.5469 10.766 3.2539 15.059 8.3516 21.602 33.145 45.469 47.219 45.469h0.3125c4.8008-0.070312 6.9375-1.5703 9.6016-6.7188 2.3633-4.6562 2.6641-9.8867 0.81641-13.523-0.67188-1.3086-4.5-5.7461-8.4102-9.8867-17.496-18.156-22.883-32.555-22.883-61.199 0-29.074 5.6875-50.426 18.168-67.992 1.7656-2.5195 7.7539-9.457 13.285-15.492 17.641-19.273 21.109-26.723 21.109-45.254-0.070313-10.715-0.80469-16.379-3.9102-27.898-5.2422-19.848-3.4805-29.449 7.5977-41.855 7.5352-8.4844 8.1953-11.438 5.5312-25.547-2.9531-15.434-4.0547-22.211-5.6172-35.711-1.9922-16.992-3.4688-20.762-8.7109-22.969-1.4883-0.66016-3-0.97266-4.5469-0.97266-1.8359 0-3.707 0.45703-5.6289 1.332-1.7773 0.81641-6.4336 4.9453-11.594 10.246-9.8164 10.199-14.543 13.668-20.891 15.289-2.7344 0.68359-5.3516 1.0664-8.0508 1.0664-7.3672 0-15.457-2.7617-28.789-9.4062-10.547-5.2422-13.211-6.3477-16.246-6.3477h-0.9375c-2.4961 0-3.0469 0.38281-4.3789 2.3516-2.1484 3.1094-2.8789 8.8672-2.2188 17.426 0.58984 9.3594 2.4961 17.195 8.5547 35.594 5.9023 18.023 7.4648 24.348 7.6094 31.285 0.14453 6.9492-1.4023 11.531-4.9453 15.133-4.0547 3.9961-7.6094 5.1133-25.922 8.1367-28.199 4.7148-46.441 10.117-63.781 18.758-34.352 17.23-60.262 47.855-76.426 90.527z"/>
  <path d="m696.29 694.59-17.484-60.672c-1.0078-3.4453-0.33594-7.1523 1.7539-10.031 2.0898-2.8906 5.3867-4.668 8.9766-4.8008l110.76-4.1289 86.734-212.77h84.625c20.941 0 38.051-16.871 38.051-38.074 0-13.559-7.3906-25.559-18.109-32.219l-129.86-69.527c-3.8516-2.0391-8.4102-3.0703-12.516-3.3242l-55.223 0.25391c-5.3516-6.6484-10.246-14.566-13.801-22.234-4.0781-8.6875-2.3047-19.176 4.8594-26.578 4.6328-4.6094 10.727-6.6484 16.848-6.6484h95.879c12.781 0 23.27-10.477 23.27-23.508 0-12.781-10.5-23.27-23.27-23.27l-96.902-0.007812c-11.746 0-22.477 2.8203-31.945 8.1953 7.6797-66.469 64.43-118.09 132.93-118.09 13.043 0 23.508-10.992 23.508-23.773 0-13.031-10.465-23.52-23.508-23.52-100.19 0-181.48 81.289-181.5 181.25 0 28.367 6.6602 55.211 18.133 79.246l-46.234-0.25391c-5.375 0-9.7188 4.3438-9.7188 9.9727 0 2.8203 1.2734 5.375 3.3125 7.1641l63.383 63.121-76.43 117.57-481.3 0.011719c-38.074 0-69.77 31.441-71.555 69.266v192.5c0 3.0586 2.5547 5.3516 5.3633 5.3516 2.293 0 4.332-1.2969 5.1133-3.3594l35.531-55.441v86.387l-45.742 72.602 0.25391 190.96c0 27.086 21.973 48.793 48.828 48.793 27.086 0 49.066-21.719 49.066-48.793l-0.003907-180.25 55.465-74.375v84.852l41.867 71.82c11.914-12.121 25.367-22.094 40.5-29.676 13.922-6.9102 28.414-11.879 47.258-16.02l-41.438-72.145 44.23-67.211h196.57v286.52c0 26.832 21.73 48.816 48.805 48.816 27.121 0 49.078-21.961 49.078-48.816l0.003906-266.33 31.297-31.309c-16.441-12.504-30.121-20.508-30.348-20.676-2.6055-1.5-4.5117-3.9453-5.3633-6.8125z"/>
  <path d="m780.42 751.79-76.883 370.48c-19.895 7.3555-25.094 27.551-25.094 27.551h27.336c0-28.57 43.441-40.645 44.027-40.645h0.19141l45.254-137.36 18.277 61.859c32.305-43.871 93-56.891 93-56.891l8.2578 14.855c-53.004 15.996-79.234 41.52-92.207 63.07-3.1562 5.2578-5.9023 11.172-8.1484 17.281-0.23828 0.625-0.48047 1.668-0.66016 2.2695-0.14453 0.33594-0.23828 1.5234-0.33594 1.8828-3.793 11.785-3.5898 21.406-3.5898 21.406h-0.96094c-0.61328 0-0.97266 8.0039-0.97266 13.164 0 0-84.719 6.4219-84.719 39.098h318.08s19.367-9.3711 29.195-21.516c24.602-30.301 15.336-83.629 15.336-83.629-23.293 32.723-46.586 47.242-59.148 53.207l-68.855-212.84-127.81-305.79-8.4844 46.535-131.54 4.8945 17.496 60.684c0 0.003907 45.863 26.574 72.961 60.438z"/>
  <path d="m274.93 139.03c-1.2617-0.21484-2.6406-0.32422-4.0938-0.32422-7.1992 0-16.645 2.7617-26.004 6.457-6.3945-30.145-58.141-96.191-58.141-103.13 92.891-7.8008 149.44 117.97 153.24 124.39-0.035156 1.1875-0.50391 2.2812-1.1875 3.3008-6.4922 3.2148-13.547 4.1523-17.508 4.3906-8.0625-9.25-29.867-32.648-46.305-35.086z"/>
  <path d="m273.78 146.32c16.609 2.375 44.113 35.242 44.113 35.242s0.27734 0.011718 0.79297 0.011718c4.4883 0 26.496-0.83984 36.828-16.934 0.68359-8.4844-20.676-27.445 21.324-32.867 18.121-4.0664 106.49-47.137 120.72-69.168 58.309 134.24-68.473 153.56-68.473 153.56s-2.375 8.8086-7.1289 13.906c-1.5859 1.7031-5.2422 2.2578-9.4219 2.2578-7.9688 0-17.797-2.0508-18.648-2.2422 1.4414 0.55078 24.672 9.168 35.52 10.152 0.81641 0.070313 2.0039 0.10938 3.5039 0.10938 19.32 0 91.078-5.5312 91.078-5.5312-17.27 57.254-55.945 72.336-91.859 72.336-39.961 0-76.5-18.637-76.5-18.637l31.414-8.2695s-41.004-1.5977-54.254-5.7617c-64.199-20.27-71.52-70.512-71.52-70.512s-1.1758-23.449-48.816-34.246c4.8125-3.6367 41.125-23.641 58.379-23.641 1.0625 0.003906 2.0469 0.074218 2.9492 0.23047z"/>
  <!-- Created by Pete Fecteau -->
</svg>
