<svg xmlns="http://www.w3.org/2000/svg" xmlns:xlink="http://www.w3.org/1999/xlink" version="1.1" x="0px" y="0px" viewBox="0 0 100 125" style="enable-background:new 0 0 100 100;" xml:space="preserve">
	<g>
		<path d="M81.6,47.4l-7.1-3.6c-1-0.5-2.2-0.1-2.7,0.9c-0.5,1-0.1,2.2,0.9,2.7l3.8,1.9L50,64.4L23.5,49.3l3.8-1.9   c1-0.5,1.4-1.7,0.9-2.7c-0.5-1-1.7-1.4-2.7-0.9l-7.1,3.6c-0.7,0.3-1.1,1-1.1,1.7s0.4,1.4,1,1.8L49,68.4c0.3,0.2,0.6,0.3,1,0.3   c0.3,0,0.7-0.1,1-0.3l30.7-17.5c0.6-0.4,1-1.1,1-1.8C82.7,48.4,82.3,47.7,81.6,47.4z" />
		<path d="M81.6,65.5l-7.1-3.6c-1-0.5-2.2-0.1-2.7,0.9c-0.5,1-0.1,2.2,0.9,2.7l3.8,1.9L50,82.4L23.5,67.4l3.8-1.9   c1-0.5,1.4-1.7,0.9-2.7c-0.5-1-1.7-1.4-2.7-0.9l-7.1,3.6c-0.7,0.3-1.1,1-1.1,1.7s0.4,1.4,1,1.8L49,86.5c0.3,0.2,0.6,0.3,1,0.3   c0.3,0,0.7-0.1,1-0.3L81.7,69c0.6-0.4,1-1.1,1-1.8C82.7,66.5,82.3,65.8,81.6,65.5z" />
		<path d="M81.7,28.7L50.9,12.2c-0.6-0.3-1.3-0.3-1.9,0L18.4,28.7c-0.6,0.3-1,1-1.1,1.7c0,0.7,0.4,1.4,1,1.8L49,49.7   c0.3,0.2,0.6,0.3,1,0.3c0.3,0,0.7-0.1,1-0.3l30.7-17.5c0.6-0.4,1-1,1-1.8C82.7,29.7,82.3,29.1,81.7,28.7z" />
	</g>
	<!-- Created by Tomasz Pasternak -->
</svg>
