<svg xmlns="http://www.w3.org/2000/svg" xmlns:xlink="http://www.w3.org/1999/xlink" version="1.1" viewBox="0 0 96 120" x="0px" y="0px">
	<path d="M36.252 95.968h-24.252c-1.1 0-2-0.9-2-2v-48.004c-2.42-1.828-4-4.728-4-7.996v-12c0-5.492 3.4-9.556 8.192-9.964 7.916-6.636 41.144-15.972 73.808-15.972 1.1 0 2 0.896 2 2v39.936c0 1.104-0.9 2-2 2h-45.080c2.748 8.36 3.072 20.68 3.072 26 0 12.44-7.736 24.576-8.064 25.084-0.364 0.572-1 0.916-1.676 0.916zM14 91.968h21.116c1.728-2.952 6.876-12.584 6.876-22 0-4.444-0.272-19.548-3.804-27.16-0.288-0.62-0.244-1.344 0.124-1.92s1.004-0.92 1.688-0.92h46v-35.924c-33.572 0.38-64.416 10.172-69.584 15.34-0.376 0.376-0.884 0.584-1.416 0.584-3.452 0-5 3.016-5 6v12c0 2.176 1.164 4.084 2.9 5.136 0.080 0.036 0.136 0.076 0.204 0.116 0.868 0.48 1.852 0.752 2.908 0.752 1.1 0 2 0.896 2 2s-0.9 2-2 2c-0.684 0-1.352-0.072-2-0.2l-0.012 44.196z" fill="#000000" />
	<path d="M16 33.968c-1.1 0-2-0.896-2-2v-4c0-0.756 0.428-1.448 1.1-1.788l6-3c0.992-0.492 2.192-0.092 2.688 0.9 0.492 0.992 0.096 2.184-0.896 2.68l-4.892 2.448v2.76c0 1.104-0.9 2-2 2z" fill="#000000" />
	<!--
	<text x="0" y="111" fill="#000000" font-size="5px" font-weight="bold" font-family="'Helvetica Neue', Helvetica, Arial-Unicode, Arial, Sans-serif">
	Created by iconsmind.com
	</text>
	<text x="0" y="116" fill="#000000" font-size="5px" font-weight="bold" font-family="'Helvetica Neue', Helvetica, Arial-Unicode, Arial, Sans-serif">
	from the Noun Project
	</text>
	-->
</svg>
