<svg xmlns:x="http://ns.adobe.com/Extensibility/1.0/" xmlns:i="http://ns.adobe.com/AdobeIllustrator/10.0/" xmlns:graph="http://ns.adobe.com/Graphs/1.0/" xmlns="http://www.w3.org/2000/svg" xmlns:xlink="http://www.w3.org/1999/xlink" version="1.1" x="0px" y="0px" viewBox="0 0 100 125" style="enable-background:new 0 0 100 100;" xml:space="preserve">
	<g>
		<g>
			<path d="M22.5,65.4L4.7,87.9c-2,2.6-1.6,6.3,1,8.3c1.1,0.9,2.4,1.3,3.7,1.3c1.7,0,3.5-0.8,4.6-2.2l17.2-21.6l-8.3-7.8     C22.7,65.7,22.6,65.6,22.5,65.4z" />
			<path d="M56.2,38l-8-6.2c-1.5-1.2-3.5-1.7-5.4-1.3c-1.9,0.4-3.5,1.5-4.5,3.2L25.5,54.4c-1.6,2.4-1.2,5.6,0.9,7.6l12.5,11.7     l-7,15.4c-1.4,3-0.1,6.5,2.9,7.9c0.8,0.4,1.6,0.5,2.5,0.5c2.2,0,4.4-1.3,5.4-3.5l8.8-19.3c1.1-2.3,0.5-5.1-1.3-6.8l-8-7.4     l10.4-13.3l12.6,3.6c0.6,0.1,1.1,0.2,1.7,0.2l14.4-1v-9.9l-14.2,1L56.2,38z" />
			<ellipse transform="matrix(0.43 -0.9028 0.9028 0.43 12.8873 68.1666)" cx="60.4" cy="23.9" rx="10.4" ry="10.4" />
			<path d="M94.5,2.5h-5.6c-1.2,0-2.1,0.9-2.1,2.1v90.8c0,1.2,0.9,2.1,2.1,2.1h5.6c1.2,0,2.1-0.9,2.1-2.1V4.6     C96.6,3.4,95.6,2.5,94.5,2.5z" />
		</g>
	</g>
	<!-- Created by Adrien Coquet -->
</svg>
