<svg xmlns="http://www.w3.org/2000/svg" xmlns:xlink="http://www.w3.org/1999/xlink" version="1.1" x="0px" y="0px" viewBox="0 0 100 125" enable-background="new 0 0 100 100" xml:space="preserve">
	<path d="M94.229,65.351c-1.343-7.362-7.583-14.091-19.638-21.173c-9.603-5.643-15.566-10.202-15.623-15.486  c-0.044-4.055,3.346-8.13,11.212-13.351l-5.757,0h-3.172c-8.824,4.167-12.604,5.937-16.427,9.569c-2.089,0-3.131,0-5.22,0  c5.4-4.068,11.531-6.788,17.642-9.569l-7.856,0c-0.916,0.362-2.261,0.817-3.934,1.384c-7.652,2.59-23.574,7.979-24.945,14.529  c-0.614,2.933,0.57,5.213,1.825,7.627c0.677,1.302,1.376,2.647,1.827,4.146c6.57,21.789-2.422,30.803-18.662,41.635h34.473  c10.371-7.723,20.312-18.546,13.373-32.484c3.675,0,5.511-0.002,9.186-0.002c8.169,13.117,0.299,24.256-9.694,32.486h34.729  C93.136,77.635,95.315,71.313,94.229,65.351z M45.756,43.708c-4.093-3.274-9.727-6.518-9.635-12.913c2.387,0,3.582,0,5.969,0  c0.668,6.395,6.681,9.638,11.534,12.913C50.477,43.708,48.903,43.708,45.756,43.708z" />
	<!-- Created by Bakunetsu Kaito -->
</svg>
