<svg xmlns="http://www.w3.org/2000/svg" xmlns:xlink="http://www.w3.org/1999/xlink" xmlns:serif="http://www.serif.com/" viewBox="0 0 101 125" version="1.1" xml:space="preserve" style="" x="0px" y="0px" fill-rule="evenodd" clip-rule="evenodd" stroke-linejoin="round" stroke-miterlimit="1.41421">
	<rect serif:id="Page 34" x="0.5" y="0" width="100" height="100" style="" fill="none" />
	<path d="M39.228,49.403c0.525,-5.302 4.814,-9.59 10.116,-10.116c7.165,-0.709 13.137,5.263 12.428,12.428c-0.525,5.303 -4.814,9.591 -10.116,10.116c-7.165,0.71 -13.137,-5.263 -12.428,-12.428m11.278,18.431c2.872,1.156 5.616,2.592 8.177,4.326c0.368,0.242 0.73,0.502 1.086,0.762c0.546,-3.5 1.544,-6.905 2.942,-10.152c3.246,-1.397 6.651,-2.395 10.152,-2.941c-0.261,-0.356 -0.515,-0.718 -0.763,-1.087c-1.734,-2.554 -3.17,-5.292 -4.332,-8.163c0.165,-0.413 0.33,-0.82 0.508,-1.226c0.705,-1.62 1.506,-3.196 2.401,-4.714c0.674,-1.144 1.404,-2.256 2.186,-3.329l-0.013,0c0.006,-0.007 0.006,-0.013 0.013,-0.02c-1.315,-0.203 -2.611,-0.47 -3.895,-0.8c-0.425,-0.114 -0.851,-0.229 -1.277,-0.349c-0.845,-0.248 -1.69,-0.521 -2.515,-0.82c-0.833,-0.298 -1.652,-0.622 -2.465,-0.972c-1.398,-3.246 -2.396,-6.652 -2.942,-10.152c-0.356,0.26 -0.718,0.521 -1.086,0.762c-2.561,1.741 -5.305,3.183 -8.177,4.327c-3.278,-1.309 -6.397,-3.005 -9.256,-5.089l0,0.013c-0.006,-0.007 -0.013,-0.007 -0.019,-0.013c-0.203,1.315 -0.47,2.61 -0.801,3.894c-0.108,0.426 -0.222,0.852 -0.349,1.277c-0.248,0.845 -0.521,1.69 -0.82,2.516c-0.298,0.832 -0.622,1.652 -0.972,2.465c-0.813,0.35 -1.632,0.674 -2.465,0.972c-0.825,0.299 -1.67,0.572 -2.515,0.82c-0.426,0.12 -0.852,0.235 -1.277,0.349c-1.284,0.33 -2.58,0.597 -3.895,0.8c0.007,0.007 0.007,0.013 0.013,0.02l-0.013,0c2.084,2.865 3.787,5.978 5.089,9.262c-1.144,2.872 -2.586,5.61 -4.326,8.17c-0.248,0.369 -0.502,0.731 -0.763,1.087c3.501,0.546 6.906,1.544 10.152,2.941c0.35,0.813 0.674,1.633 0.972,2.465c0.299,0.826 0.572,1.671 0.82,2.516c0.127,0.426 0.241,0.851 0.349,1.277c0.331,1.283 0.598,2.579 0.801,3.894c0.006,-0.006 0.013,-0.006 0.019,-0.012l0,0.012c2.859,-2.083 5.978,-3.78 9.256,-5.088" style="" fill-rule="nonzero" />
	<circle cx="50.504" cy="12.457" r="7.457" />
	<path d="M25.44,15.264c0,0 -1.488,-2.135 -2.547,-3.653c-0.181,-0.259 -0.191,-0.6 -0.027,-0.87c0.165,-0.269 0.473,-0.416 0.786,-0.373c3.654,0.498 11.827,1.61 14.489,1.973c0.22,0.03 0.418,0.151 0.545,0.333c0.127,0.182 0.172,0.41 0.124,0.627c-0.579,2.622 -2.357,10.677 -3.152,14.278c-0.068,0.308 -0.313,0.547 -0.622,0.609c-0.31,0.061 -0.627,-0.066 -0.808,-0.325c-1.226,-1.759 -3.103,-4.45 -3.103,-4.45c-15.344,10.703 -19.106,31.817 -8.403,47.161c10.695,15.333 31.828,19.098 47.161,8.403c15.333,-10.696 19.098,-31.828 8.403,-47.161c-3.375,-4.838 -7.948,-8.701 -13.256,-11.221c-0.985,-0.455 -1.439,-1.603 -1.031,-2.609c0.632,-1.578 1.554,-3.847 2.205,-5.451c0.209,-0.514 0.618,-0.921 1.133,-1.127c0.515,-0.206 1.091,-0.193 1.596,0.035c7.017,3.261 13.061,8.322 17.502,14.689c13.833,19.831 8.963,47.161 -10.868,60.994c-19.831,13.833 -47.161,8.963 -60.994,-10.868c-13.842,-19.844 -8.977,-47.152 10.867,-60.994l0,0Z" />
	<!--
	<text x="0" y="115" fill="#000000" font-size="5px" font-weight="bold" font-family="'Helvetica Neue', Helvetica, Arial-Unicode, Arial, Sans-serif">
	Created by Zach Bogart
	</text>
	<text x="0" y="120" fill="#000000" font-size="5px" font-weight="bold" font-family="'Helvetica Neue', Helvetica, Arial-Unicode, Arial, Sans-serif">
	from the Noun Project
	</text>
	-->
</svg>
