<svg xmlns="http://www.w3.org/2000/svg" xmlns:xlink="http://www.w3.org/1999/xlink" version="1.1" x="0px" y="0px" viewBox="0 0 60 75" enable-background="new 0 0 60 60" xml:space="preserve">
	<g>
		<path d="M51.8342361,23.5400391c-0.460022,0.8399658-1.2200317,1.4499512-2.1300049,1.7199707l-8.5100098,2.5   c-0.8400269,0.2399902-1.75,0.1699829-2.5300293-0.2000122l-4.8200073-2.25l-1.7299805,2.1099854l4.710022,0.5700073   c0.5599976,0.0599976,1.1099854,0.2700195,1.5800171,0.5800171l7.8999634,5.3300171   c0.7999878,0.5299683,1.3300171,1.3499756,1.5200195,2.2799683c0.1799927,0.9400024-0.0100098,1.9000244-0.5499878,2.6900024   c-0.6600342,0.9899902-1.7700195,1.5800171-2.9700317,1.5800171c-0.710022,0-1.3999634-0.2199707-2-0.6099854l-7.1799927-4.8500366   l-6.7000141-0.7999878l-4.6900024,5.1000366c-0.9400024,1.0299683-2.4099731,1.4099731-3.75,0.9799805l-9.7999878-3.2299805   c-1.8699951-0.6100464-2.8900142-2.6400146-2.2799678-4.5100098c0.6199946-1.8800049,2.6399531-2.9000244,4.519958-2.2800293   l7.6099854,2.5l0.960022-1.0499878c-0.6400146-1.4099731-0.4500122-3.0800171,0.5499878-4.2999878l4.6500244-5.6699829   l-1.75-0.8100586l-6.3800049,2.5900269C17.1942196,23.8699951,16.2241879,23.8699951,15.3342342,23.5   c-0.8800049-0.3699951-1.5700073-1.0700073-1.9299927-1.9599609c-0.3600464-0.8800049-0.3500366-1.8500366,0.0199585-2.7400513   c0.3699951-0.8800049,1.0599976-1.5599976,1.9500122-1.9199829l7.8200073-3.1799927   c0.9299927-0.3699951,1.9699707-0.3499756,2.8699951,0.0700073l14.4099751,6.7399902l7.210022-2.1199951   c1.9000244-0.539978,3.8900146,0.539978,4.4400024,2.4299927C52.3942337,21.7399902,52.2941971,22.710022,51.8342361,23.5400391z" />
		<path d="M37.2341995,16.7300415c2.960022,0,5.3699951-2.4100342,5.3699951-5.3600464   C42.6041946,8.4100342,40.1942215,6,37.2341995,6c-2.9599609,0-5.3599873,2.4100342-5.3599873,5.3699951   C31.8742123,14.3200073,34.2742386,16.7300415,37.2341995,16.7300415z" />
		<path d="M34.214241,52h-3.2200336V38.7300415c0-0.5500488-0.4400024-1-1-1c-0.5499878,0-1,0.4499512-1,1V52h-3.210022   c-0.5499878,0-1,0.4500122-1,1s0.4500122,1,1,1h8.4300556c0.5499878,0,1-0.4500122,1-1S34.7642288,52,34.214241,52z" />
	</g>
	<!-- Created by DinosoftLab -->
</svg>
