<svg xmlns="http://www.w3.org/2000/svg" xmlns:xlink="http://www.w3.org/1999/xlink" version="1.1" x="0px" y="0px" viewBox="0 0 287.734 239.575" style="enable-background:new 0 0 287.734 191.66;" xml:space="preserve">
	<g>
		<path d="M113.972,63.148c0.107,0.096,0.197,0.17,0.271,0.232c0.242-0.119,0.643-0.345,1.215-0.76   c0.116-0.085,0.26-0.196,0.428-0.333c0.505-0.411,1.24-1.075,2.163-2.07c-0.947-0.354-1.918-0.712-2.913-1.072   c-1.53-0.554-3.106-1.11-4.713-1.655C111.483,59.873,112.98,62.284,113.972,63.148z" />
		<path d="M155.514,17.202c-2.89-11.923-14.821-19.36-26.827-16.643c-5.667,1.282-10.344,4.599-13.44,9.006   c3.949,0.533,13.3,1.959,22.016,3.528C147.565,14.95,152.807,16.205,155.514,17.202z" />
		<path d="M111.489,26.374c9.233,5.677,17.24,12.216,23.611,18.585c1.167-0.077,2.344-0.243,3.521-0.509   c6.426-1.454,11.58-5.524,14.597-10.833c-6.362-1.075-34.073-9.476-42.052-11.915C111.111,23.24,111.214,24.804,111.489,26.374z" />
		<path d="M104.882,15.431c0,0-3.284,1.949-6.301,4.026c2.087,0.962,4.13,1.978,6.127,3.041c4.033-1.388,6.047-3.013,6.047-3.013   s0.204,0.063,0.574,0.175c4.86,1.483,39.388,11.987,42.846,12.069c0.089,0.002,0.165,0,0.211-0.012   c1.998-0.517,2.615-9.115,2.186-11.581c-0.03-0.171-0.251-0.358-0.612-0.557c-4.739-2.616-36.076-7.422-41.892-8.151   c-0.126-0.016-0.26-0.033-0.362-0.045c-2.984-0.35-6.773-8.977-23.008,3.67C87.523,17.527,104.882,15.431,104.882,15.431z" />
		<path d="M36.972,40.987c-2.73,2.584,0.422,4.237,4.183,5.246c-0.504-2.214-1.144-4.4-1.958-6.568   C38.151,40.162,37.33,40.648,36.972,40.987z" />
		<path d="M52.542,51.104c-1.373-0.366-2.833-0.491-4.24-0.642c-0.439-0.047-0.93-0.103-1.44-0.163   c0.229,1.467,0.411,2.952,0.551,4.456c0.658-0.235,1.273-0.515,1.816-0.854c0.994-0.621,2.11-1.27,2.878-2.18   C52.308,51.549,52.442,51.336,52.542,51.104z" />
		<path d="M79.236,50.921c2.74-0.998,6.334-1.136,10.441-0.683c0.152-0.329,0.319-0.653,0.508-0.968   c1.375-2.289,3.561-3.906,6.152-4.551c0.795-0.199,1.611-0.299,2.426-0.299c4.586,0,8.57,3.106,9.691,7.558l0.027,0.102l0.029,0.11   c0.066,0.236,0.16,0.572,0.295,0.996c0.151,0.482,0.369,1.133,0.638,1.867c1.919,0.634,3.842,1.302,5.75,1.988   c1.43,0.514,2.851,1.038,4.255,1.565c0.331-0.403,0.678-0.841,1.039-1.316c0.387-0.509,0.791-1.062,1.211-1.66   c0.125-0.179,0.249-0.354,0.378-0.541c1.867-2.716,4.949-4.334,8.248-4.334c2.029,0,3.986,0.607,5.66,1.762   c2.201,1.512,3.682,3.793,4.168,6.418c0.466,2.526-0.05,5.077-1.435,7.227c5.542,2.138,9.203,3.327,9.517,2.428   c1.081-3.092-4.972-12.972-16.031-23.631c-5.52-5.319-12.282-10.831-20.036-15.792c-2.447-1.565-4.996-3.072-7.63-4.503   c-0.847-0.461-1.701-0.914-2.566-1.357c-1.714-0.878-3.463-1.72-5.245-2.522c-0.694-0.313-1.392-0.62-2.096-0.92   c-16.159-6.877-34.906-10.299-54.727-5.942c-60.667,13.334-40.25,66.25-16.334,68c13.44,0.984,23.648-3.155,31.598-8.71   C67.414,64.653,74.284,52.724,79.236,50.921z M7.255,51.471C7.72,24.438,39.14,19.868,39.14,19.868   C20.739,26.234,17.397,34.432,7.255,51.471z M54.653,55.462c-2.001,1.475-4.413,2.386-6.976,2.85   c0.119,2.214,0.169,4.477,0.17,6.803c0.001,2.099-4.984,1.781-4.984-0.391c-0.001-2.062-0.042-4.076-0.133-6.053   c-3.666-0.1-7.328-0.945-10.326-2.305c-3.06-1.387-0.082-3.117,2.134-2.112c2.117,0.96,5.106,1.46,8.005,1.359   c-0.164-2.077-0.4-4.117-0.737-6.125c-4.632-0.987-9.49-2.874-10.608-6.818c-0.887-3.13,2.196-5.597,6.33-6.916   c-0.716-1.493-1.514-2.983-2.426-4.474c-1.396-2.282,3.407-2.911,4.428-1.241c0.975,1.595,1.83,3.186,2.598,4.777   c4.891-0.489,9.822,0.572,11.089,3.819c0.905,2.317-3.906,1.552-4.541-0.074c-0.503-1.289-2.728-1.158-5.119-0.516   c1.219,3.036,2.115,6.094,2.76,9.214c1.016,0.15,1.843,0.248,2.298,0.302C53.292,48.119,61.26,50.595,54.653,55.462z" />
		<path d="M136.91,65.286c2.504-3.64,1.582-8.619-2.057-11.122c-3.641-2.505-8.621-1.584-11.125,2.057   c-0.806,1.176-1.575,2.208-2.31,3.131c-0.408,0.512-0.801,0.982-1.183,1.42c-0.059,0.068-0.119,0.137-0.177,0.203   c-0.085,0.096-0.174,0.202-0.257,0.294c-1.224,1.355-2.297,2.33-3.168,2.967c-0.351,0.255-0.648,0.446-0.919,0.608   c-1.082,0.648-1.569,0.65-1.67,0.657c-0.111-0.014-0.377,0.047-1.387-0.844c-1.449-1.266-3.334-4.463-4.451-7.268   c-0.104-0.25-0.198-0.492-0.293-0.734c-0.348-0.887-0.634-1.699-0.854-2.374c-0.055-0.168-0.112-0.342-0.159-0.491   c-0.143-0.454-0.246-0.813-0.309-1.043c-0.033-0.114-0.053-0.194-0.066-0.243l-0.002-0.008c0,0-0.002-0.008-0.004-0.014   l-0.004-0.018c-1.076-4.275-5.414-6.875-9.693-5.807c-2.229,0.555-3.997,1.999-5.037,3.855c-0.337,0.601-0.604,1.242-0.777,1.916   c-0.321,1.247-0.346,2.59-0.012,3.928v-0.002c0.067,0.232,0.645,2.59,1.897,5.827c0.642,1.658,1.457,3.542,2.478,5.498   c1.533,2.891,3.488,5.976,6.4,8.701c0.495,0.468,1.036,0.927,1.614,1.368c2.748,2.095,6.405,3.762,10.659,3.752   c0.014,0,0.027,0,0.039,0c0.173,0,0.345-0.02,0.518-0.025c2.39-0.076,4.747-0.668,6.996-1.681c1.585-0.713,3.118-1.623,4.568-2.707   c0.836-0.623,1.658-1.31,2.473-2.045c2.365-2.135,4.658-4.753,6.986-7.944c0.395-0.543,0.792-1.103,1.19-1.678   C136.847,65.374,136.878,65.332,136.91,65.286z" />
		<path d="M167.058,67.812l1.572,3.497l-11.585,5.207c-1.98-3.087-5.896-4.503-9.482-3.187c-4.029,1.478-8.313,2.116-12.71,2.116   c-1.189,0.003-2.386-0.044-3.584-0.134c-1.285,1.264-2.581,2.39-3.913,3.38c-1.793,1.343-3.661,2.398-5.558,3.188   c-2.419,1.006-4.889,1.554-7.332,1.605c-0.128,0.003-0.256,0.018-0.384,0.018h-0.078c-5.471,0-9.655-2.422-12.209-4.458   c-0.538-0.429-1.008-0.841-1.398-1.209c-3.387-3.165-5.498-6.776-6.793-9.214c-1.024-1.963-1.953-4.084-2.764-6.236   c-0.675-1.791-1.271-3.602-1.738-5.37l-0.031-0.109c-0.398-1.594-0.406-3.197-0.057-4.72c-1.215-0.122-2.389-0.198-3.49-0.198   c-2.24,0-4.125,0.275-5.602,0.813c-1.818,0.661-4.504,3.644-7.613,7.097c-4.961,5.51-11.378,12.628-20.279,17.711   c-1.041,1.507-2.091,3.056-3.166,4.702c-7.896,14.375-0.477,22.705,6.645,28.48c0.072,0.059,0.142,0.114,0.213,0.172   c0.657,2.253,1.363,5.663,1.356,9.905c-0.015,5.455-1.09,12.32-5.086,20.521c-4.008,8.189-11.026,17.789-23.359,28.224   c-5.273,4.456-5.932,12.343-1.476,17.616c4.458,5.271,12.345,5.932,17.617,1.476c14.548-12.295,23.969-24.651,29.676-36.333   c4.191-8.547,6.342-16.691,7.187-23.94c1.292,1.691,2.479,3.543,3.503,5.566c2.335,4.648,3.931,10.214,3.948,17.538   c0,6.33-1.242,14.022-4.634,23.35c-2.357,6.488,0.99,13.66,7.479,16.02c1.41,0.513,2.852,0.756,4.27,0.756   c5.107,0.001,9.901-3.153,11.748-8.232c4.231-11.633,6.138-22.26,6.138-31.893c0.017-11.491-2.772-21.498-7.039-29.594   c-6.416-12.194-15.757-19.981-23.309-24.768c-0.316-0.2-0.626-0.388-0.937-0.577c4.703-5.222,10.027-10.045,15.221-14.426   c1.368,0.651,2.855,1.326,4.45,2.003c3.436,1.448,7.372,2.913,11.666,4.147l-0.537,8.017l4.938,9.953l4.643-10.096l-0.571-5.893   c3.909,0.699,8.009,1.134,12.238,1.143c0.861,0,1.729-0.024,2.599-0.063l2.379,5.295l33.445-15.031l1.57,3.496l20.658-5.264   l-10.795-24.02L167.058,67.812z" />
		<path d="M189.901,54.157c0.402,0,0.809-0.121,1.162-0.373L261.193,3.7c0.897-0.644,1.107-1.892,0.465-2.792   c-0.642-0.897-1.892-1.106-2.79-0.465L188.736,50.53c-0.898,0.642-1.107,1.892-0.465,2.789   C188.662,53.866,189.277,54.157,189.901,54.157z" />
		<path d="M287.684,58.816c-0.247-1.077-1.318-1.751-2.396-1.505l-84.016,19.193c-1.077,0.247-1.75,1.32-1.505,2.397   c0.212,0.925,1.035,1.553,1.947,1.554c0.148,0,0.298-0.017,0.448-0.052l84.016-19.192   C287.256,60.965,287.929,59.891,287.684,58.816z" />
	</g>
	<!-- Created by Gan Khoon Lay -->
</svg>
