<svg xmlns:dc="http://purl.org/dc/elements/1.1/" xmlns:cc="http://creativecommons.org/ns#" xmlns:rdf="http://www.w3.org/1999/02/22-rdf-syntax-ns#" xmlns:svg="http://www.w3.org/2000/svg" xmlns="http://www.w3.org/2000/svg" xmlns:sodipodi="http://sodipodi.sourceforge.net/DTD/sodipodi-0.dtd" xmlns:inkscape="http://www.inkscape.org/namespaces/inkscape" version="1.1" x="0px" y="0px" viewBox="0 0 100 125">
	<g transform="translate(0,-952.36218)">
		<path style="font-size:medium;font-style:normal;font-variant:normal;font-weight:normal;font-stretch:normal;text-indent:0;text-align:start;text-decoration:none;line-height:normal;letter-spacing:normal;word-spacing:normal;text-transform:none;direction:ltr;block-progression:tb;writing-mode:lr-tb;text-anchor:start;baseline-shift:baseline;opacity:1;color:#000000;fill:#000000;fill-opacity:1;stroke:none;stroke-width:3.99999976000000010;marker:none;visibility:visible;display:inline;overflow:visible;enable-background:accumulate;font-family:Sans;-inkscape-font-specification:Sans" d="M 49.6875 13 A 2.0001999 2.0001999 0 0 0 48 15 L 48 29.40625 L 20.5 78.0625 A 2.0078458 2.0078458 0 0 0 24 80.03125 L 38.5625 54.28125 L 40.9375 55.90625 A 2.0001999 2.0001999 0 0 0 43.1875 55.90625 L 45.90625 54.0625 L 48.6875 55.96875 A 2.0001999 2.0001999 0 0 0 50.9375 55.96875 L 53.78125 54.03125 L 56.71875 56 A 2.0021961 2.0021961 0 1 0 58.96875 52.6875 L 54.90625 49.9375 A 2.0001999 2.0001999 0 0 0 53.59375 49.59375 A 2.0001999 2.0001999 0 0 0 52.65625 49.9375 L 49.8125 51.875 L 47.03125 50 A 2.0001999 2.0001999 0 0 0 44.78125 50 L 42.0625 51.84375 L 40.53125 50.78125 L 50 34.03125 L 77.6875 83 L 8 83 A 2.0001999 2.0001999 0 0 0 7.8125 83 A 2.0021961 2.0021961 0 1 0 8 87 L 92 87 A 2.0001999 2.0001999 0 1 0 92 83 L 82.28125 83 L 52 29.40625 L 52 26.5625 C 55.911126 27.98594 60.390543 27.25053 63.75 25.78125 A 2.0001999 2.0001999 0 0 0 64.4375 22.625 L 62.46875 20.375 L 64.65625 16.625 A 2.0001999 2.0001999 0 0 0 62.25 13.75 C 59.437259 14.77597 55.426186 14.30883 50.5 13.0625 A 2.0001999 2.0001999 0 0 0 49.6875 13 z M 52 17.40625 C 54.437611 17.9335 56.840013 18.3184 59.0625 18.25 L 58.28125 19.59375 A 2.0001999 2.0001999 0 0 0 58.5 21.9375 L 59.25 22.78125 C 56.60401 23.33286 53.782598 23.43548 52 22.28125 L 52 17.40625 z " transform="translate(0,952.36218)" />
	</g>
	<!-- Created by counloucon -->
</svg>
