<svg xmlns="http://www.w3.org/2000/svg" xmlns:xlink="http://www.w3.org/1999/xlink" version="1.1" x="0px" y="0px" viewBox="0 0 100 125" enable-background="new 0 0 100 100" xml:space="preserve">
	<g>
		<path d="M64.8129578,66.0404816c-0.0196457-0.0559464-0.0452652-0.1155701-0.0829315-0.1817093   C64.6980896,65.8980179,64.7410049,65.9635925,64.8129578,66.0404816z" />
		<path d="M90.6377029,48.9239464c-0.0974045-0.0052757-0.2107391,0.0216942-0.3328476,0.0999756   c-0.1221085,0.0782852-0.4614639,0.2701073-1.161026,0.6064568c-0.6995621,0.3363991-1.7517853,0.8229294-3.14991,1.4731102   c-1.39814,0.650177-3.1511917,1.4444923-4.46521,2.0491714c-0.9880219,0.4546471-1.5759735,0.7563057-2.0526733,1.0231705   c0.1449203-0.4866867,0.2684479-0.9265137,0.3651733-1.3187561c0.1058426,0.032299,0.2134628,0.0740395,0.343689,0.1121521   c0.197319,0.0577202,0.4792633-0.1833572,0.3954849-0.2813301c0,0-0.0242767-0.3744583-0.3003006-0.5820847   c-0.0539017-0.040554-0.1124115-0.0741119-0.1712418-0.1071053c0.2348022-0.626091,0.6005936-1.489502,0.9417343-2.351757   c0.4949341-1.2509956,1.019104-2.4565964,1.5458527-3.6332741c0.5267563-1.1766739,1.1120834-2.2919998,1.4099274-2.8370285   c0.6482239-1.0469475,0.1412582-0.6543198,0.4916077-1.1562653c-0.3644028,0.4938927-1.1252365,1.4851761-1.8806381,2.5225792   c-0.7553864,1.0373497-1.5330887,2.1068153-2.2657776,3.2468224c-0.7326889,1.1400032-1.403862,2.3548698-1.8608246,3.2507591   c-0.1914902,0.375412-0.345314,0.691967-0.479126,0.9837456c-0.0373764,0.0135345-0.0738678,0.0261955-0.1124573,0.0408897   c-0.5661163,0.2154732-1.1500549,0.4849625-1.7650375,0.807415c-0.6149979,0.3225021-1.2654724,0.6919975-1.9432907,1.1226349   c-0.0686951,0.043644-0.1378937,0.0883446-0.2070465,0.1331482c0.0281525-0.3049507,0.057869-0.6306458,0.0854263-0.9547424   c0.325592-0.3778305,0.6583328-0.7552261,1.0087967-1.1299934c1.0617752-1.1354256,2.2428741-2.2493095,2.8748474-2.7942848   c1.3245163-1.0552864,0.5067215-0.7149506,1.1992722-1.225235c-0.7088928,0.4916-2.057991,1.4922295-3.3309326,2.4928818   c-0.567627,0.446209-1.1181183,0.895401-1.6494293,1.351181c0.0668411-0.8511887,0.1273422-1.5518303,0.1830597-2.0970383   c0.0713501-0.6980705,0.1279526-1.1440468,0.1487732-1.3392639c0.0208054-0.1952209,0.077301-0.5355072,0.131424-0.8286705   c0.0541077-0.2931938,0.1049805-0.5460587,0.1634369-0.7544289c0.0170059-0.0606308,0.0338364-0.1159058,0.0501785-0.1677094   c0.575676-0.4879761,1.1539001-0.9365234,1.5990829-1.2396507c0.5648041-0.3845978,0.8559341-0.5440216,1.0978622-0.656456   c0.2419281-0.1124573,0.4286041-0.1846161,0.5539169-0.217556s0.1934738-0.0733948,0.2306366-0.0904045   c0.0371704-0.0170097,0.0863876-0.0030136,0.1329041,0.0433617c0.0465088,0.0463715,0.0867844,0.1558456,0.0677414,0.3249474   c-0.0190277,0.1690979-0.0955276,0.3835449-0.1783142,0.5747223c-0.0827942,0.1912079,0.3293152,0.4190865,0.3978806,0.2950706   c0,0,0.1772842-0.2377319,0.2958145-0.4795341c0.1185455-0.2417984,0.1940155-0.4784508,0.2163239-0.7270432   c0.0223007-0.2486191-0.0555573-0.4990921-0.2293854-0.7193794c-0.1738205-0.2202606-0.438652-0.374279-0.7260742-0.4346008   c-0.2874298-0.0603218-0.5913391-0.036232-0.9160538,0.0341225c-0.3247147,0.0703354-0.6704025,0.2001381-1.0597534,0.3777313   c-0.3893585,0.1775932-1.3426132,0.6993561-2.2373123,1.2705536c-0.894722,0.5711975-1.7214355,1.2018967-2.4650421,1.9014053   c-0.7436066,0.6995125-1.4075546,1.4563293-1.9649811,2.28405c-0.0355911,0.0528336-0.0668869,0.1061783-0.1015625,0.1591148   c0.0023804-0.02491,0.0048904-0.0518303,0.0072327-0.0760689c0.0633545-0.6558151,0.1153183-1.0677185,0.1373978-1.247963   c0.0220871-0.1802406,0.3670349-1.4651566,0.8927689-2.8309288c0.5257416-1.3657951,1.1903458-2.8700943,1.9104919-4.5752525   c0.7201614-1.7051544,1.516655-3.6221542,2.0301437-4.596199c1.1753387-1.9331627,0.4833298-0.9948387,1.1451797-1.9539566   c-0.6668015,0.9561081-2.026207,2.6976776-3.2777557,4.3065109c-1.2515488,1.6088295-2.149292,3.2246361-2.7570572,4.7843437   c-0.6077728,1.5597305-1.0093155,3.0163956-1.1556778,3.7448578c-0.1463547,0.7284355-0.2524033,1.0255127-0.3669205,1.5339966   c-0.1145096,0.5084839-0.2722092,1.2416039-0.4745407,2.2037315c-0.2023392,0.9621315-0.4361343,2.1561241-0.5632629,3.0256119   c-0.0616074,0.4214249-0.1012344,0.7271233-0.1280823,0.9772339c-0.3879776,0.8857231-0.7560577,1.8307915-1.0710983,2.8356133   c0.0082626-0.1478691,0.0145569-0.2966919,0.0181732-0.4471092c0.0136108-0.5663605-0.0029755-1.1520233-0.038269-1.7564697   c-0.0352859-0.6044235-0.0925903-1.2478333-0.3216553-4.4881439c-0.0205841-0.2913361-0.0431976-0.5762672-0.0667419-0.8581619   c0.0298004-0.1735497,0.0597839-0.3470001,0.0925522-0.5190353c0.1693115-0.8888626,0.3903122-1.7541008,0.6442871-2.6003494   c0.2539825-0.8462715,0.830368-2.4043312,1.4306183-3.8361893c0.6002426-1.4318047,1.2159271-2.7359161,1.7995377-3.9320984   c0.5836182-1.1961823,1.1394424-2.2825317,1.6720734-3.2532578c0.5326385-0.9707489,0.886322-1.7345161,1.4214859-2.6034622   c0.5351868-0.8689461,1.1455536-1.9014053,1.8953857-3.0519352c0.7498245-1.1505299,1.6361084-2.4189243,2.1159058-3.0985661   c1.0233841-1.3840694,0.3855133-0.7523689,0.9290924-1.4568195c-0.8660965,0.4576073-1.5979538,1.9938431-2.5366135,3.1549759   c-0.9386444,1.1611309-1.7550659,2.1999741-2.4587631,3.1115093c-0.7036743,0.9115372-1.251976,1.7256165-1.7819214,2.5611038   c-0.5299454,0.8354912-1.0478897,1.8813362-1.5946732,3.0311966c-0.5467911,1.1498604-1.0937119,2.4179955-1.6643677,3.7934685   c-0.5706635,1.3754463-1.2232285,2.834816-1.7496796,4.0194168c-0.2285614,0.5143013-0.418541,0.9658089-0.5865479,1.3869247   c-0.1397247-0.9530945-0.3006821-1.833519-0.4823761-2.6387444c0.1013794-0.1852875,0.1927719-0.3443756,0.2561951-0.4510727   c0.2780075-0.4277039-0.0574646-0.3470001,0.0922852-0.5589485c-0.1032486,0.1372681-0.26474,0.3666649-0.437294,0.6278648   c-0.0654907-0.2719078-0.1334076-0.5350151-0.2037582-0.7889099c-0.1625671-0.5866127-0.3292847-1.1240501-0.4972038-1.6127434   c0.0670776-0.0858994,0.1326599-0.1683273,0.1949501-0.2434998c0.3503342-0.4227104,0.6239929-0.6694527,0.7148209-0.7327309   c0.1847839-0.0777702,0.0525742-0.3117447,0.1465225-0.32621c-0.1213379,0.018528-0.3980103,0.1636696-0.7479172,0.4613647   c-0.1376648,0.1170921-0.2902451,0.258194-0.4568481,0.4217339c-0.3741646-1.0190277-0.7503891-1.7845955-1.0973663-2.2603226   c-0.040451-0.0554543-0.0779228-0.105175-0.1138344-0.1519585c0.2183838-1.3041916,0.4423866-2.7696838,0.691494-4.3971214   c0.3179741-2.0771713,0.486599-2.9581585,0.6460342-3.706152c0.1594505-0.7480469,0.3223495-1.3539867,0.4881821-1.816534   c0.1658325-0.4625759,0.330452-0.7808838,0.4041977-0.891798c0.1565094-0.17803,0.0054169-0.1952972,0.0881882-0.2623615   c-0.0894623,0.071207-0.2771454,0.3003712-0.4702682,0.6692219c-0.1931229,0.368824-0.4004898,0.8748112-0.6246872,1.5188904   c-0.2241859,0.6441307-0.4804993,1.4232616-0.8409615,2.9360294c-0.3604584,1.512764-0.831192,3.4741821-1.1850395,5.1899414   c-0.3538437,1.7157059-0.6370659,3.1770058-0.8408813,4.3854866c-0.1588554,0.9419289-0.282341,1.7270317-0.3992538,2.4266968   c-0.3058395,0.3709335-0.5710449,0.7192993-0.8388481,1.0790901c-0.4296227,0.5771713-0.8226357,1.2091522-1.2157936,1.8732796   c-0.2988014,0.5047264-0.5674019,1.0440903-0.8861618,1.7809944c-0.0060349-0.0910492-0.0097771-0.1551285-0.0112457-0.1892776   c-0.0032425-0.0756836-0.0160828-0.373455-0.0302505-0.6367416c-0.014164-0.2632904-0.0215111-0.496109-0.0264664-0.6982231   c-0.0049667-0.2021446-0.000824-0.3732262,0.0048904-0.514843c0.0056992-0.1416397,0.0105362-0.2923431,0.0184517-0.4667702   c0.0079002-0.174427,0.0162239-0.375618,0.0251541-0.6034164c0.0089302-0.2278023,0.0261993-0.4816437,0.0392723-0.7609634   s0.126339-1.6736565,0.3427391-2.8313942c0.2164154-1.1577339,0.0649033-2.1192474,0.1238861-2.8344803   c0.0589981-0.7152061,0.3425636-1.1886673,0.2212639-1.4610901c-0.1212845-0.2724228-0.1097679-0.6098022-0.1032219-1.0595322   c0.0065651-0.4497337-0.0059547-1.0086327-0.0110779-1.6764374c-0.0051193-0.6678047-0.0144501-1.4450073-0.0168152-2.3315048   c-0.0007477-0.2790375-0.0008621-0.4882584-0.0005417-0.649662c0.1475754-0.1986694,0.2729645-0.346386,0.3474922-0.4214783   c0.2553864-0.2176075,0.0291557-0.2615108,0.1598358-0.3534336c-0.1048813,0.0707684-0.2929497,0.2374249-0.5058365,0.4731503   c0.0012894-0.1383972,0.0032196-0.2165279,0.0053291-0.292572c0.0047989-0.1734753,0.0103683-0.334959,0.0167274-0.4843979   c0.0063667-0.1494141,0.0135231-0.2868347,0.0209198-0.4118004c0.0074005-0.1249657,0.0429001-0.5276566,0.0904961-0.932663   c0.047596-0.4050579,0.1270638-0.8094997,0.1940994-1.2202702c0.067028-0.4107704,0.1454277-0.8245277,0.1847496-1.0330791   c0.090004-0.4168186-0.0391426-0.2276192,0.0115395-0.4359131c-0.0578384,0.2069817-0.1591263,0.6210461-0.2483978,1.0331039   c-0.0892601,0.4120846-0.1656799,0.8222637-0.2168274,1.2320576c-0.0511475,0.4097672-0.1008148,0.8155708-0.1274872,1.0791168   c-0.0266724,0.2635441-0.035923,0.3938637-0.0448685,0.5360718c-0.0089417,0.1422062-0.0172653,0.2963047-0.025013,0.4623928   c-0.006794,0.1458626-0.0132141,0.3013496-0.0700493,0.7128944c-0.2931633,0.3646774-0.5996208,0.8350258-0.9166031,1.4135323   c-0.3173294,0.5791245-0.6462021,1.2659225-0.8971252,1.7883797c-0.2509079,0.5224609-0.4189415,0.9090919-0.6084633,1.4119415   c-0.1895065,0.5028458-0.3919563,1.1267509-0.6155624,1.8702164c-0.2236061,0.7434387-0.4492188,1.6114807-0.6131859,2.3089828   c-0.1639671,0.697506-0.2369728,1.1353493-0.3070602,1.5747604c-0.0700874,0.439415-0.1411018,0.8798828-0.1972046,1.3237495   c-0.0373154,0.2952232-0.0723763,0.5938683-0.1095619,1.0003433c-0.025528,0.1095772-0.0511208,0.2215729-0.0767784,0.3362694   c-0.0419846-0.8416405-0.0589828-0.9885559-0.0969276-1.1523056c-0.0417824-0.1803703-0.0889664-0.3391266-0.1281586-0.4776802   c-0.0392075-0.1385002-0.0990257-0.2606354-0.1392212-0.3148575c-0.027935-0.1078033-0.5141335-0.1629257-0.5018578-0.2164536   c-0.039402,0.0576477-0.1303062,0.1867561-0.1987076,0.3426781c-0.0684166,0.1559525-0.1137733,0.3347549-0.1461449,0.5341949   c-0.0323639,0.19944-0.0389366,0.4178734,0.1917953,1.0714989c0.1829605,0.5182648,0.4240265,1.2734108,0.6351509,2.0764503   c-0.0022392,0.0116081-0.0045166,0.0237274-0.0067558,0.0353851c-0.1105804,0.1618423-0.2458801,0.3804321-0.3755684,0.6285362   c-0.2040977,0.3904381-0.3940544,0.8531952-0.5647774,1.3898582c-0.1707077,0.5366364-0.321846,1.1466675-0.5644951,2.3406906   c-0.2426491,1.1939964-0.5849037,2.829464-0.853569,4.3327332c-0.2686539,1.5032425-0.4851151,2.8710213-0.6672249,4.1019974   c-0.0292854,0.1979485-0.0556145,0.3908539-0.0806122,0.580925c-0.0039902-0.037468-0.006588-0.0775375-0.0108986-0.1144638   c-0.0194168-0.1662178-0.0427856-0.3268776-0.0758514-0.4783516c-0.0330696-0.1514702-0.1751366-1.0185623-0.3151436-1.7727051   c-0.00597-0.0321693-0.0118256-0.0611191-0.0177841-0.0928764c-0.0021477-0.0493088-0.0044518-0.1038132-0.0070229-0.1664505   c-0.0055618-0.1348991-0.012394-0.3002167-0.0180283-0.4938164c-0.0033188-0.1140785-0.0120811-0.4118767-0.0255165-0.7736244   c0.0893745-1.0556984,0.2370911-2.6260071,0.4845772-5.0862083c0.5825348-5.7909393,0.6472206-6.2985229,0.7109108-6.7690239   c0.063694-0.4705009,0.1262283-0.9026833,0.1867561-1.2966232c0.0605392-0.3939438,0.1163826-0.7500801,0.1694603-1.0679245   c0.0530739-0.3178711,0.402832-2.031723,0.7611923-3.5086937c0.3583527-1.4769707,0.7192001-2.7167473,1.0498848-3.7254295   c0.3306999-1.0087318,0.5702972-1.8103561,0.6721535-2.1390877c0.2438469-0.5716858-0.111866-0.4536171,0.0301247-0.6965752   c-0.1753426,0.2337189-0.5212135,0.8649292-0.8590279,1.7353172c-0.3378258,0.8703346-0.5999184,1.9941521-0.8912277,3.3383064   c-0.2913132,1.3441544-0.604744,2.9136887-0.8071976,3.9260025c-0.2024498,1.01231-0.2610245,1.3450813-0.3226433,1.7154732   c-0.0616341,0.370369-0.1197433,0.7794418-0.1800613,1.2263451c-0.0603371,0.4469261-0.1211586,0.931942-0.4697571,4.0805359   c-0.1694221,1.5302658-0.4365959,3.6794395-0.6798592,5.5827751c-0.0378189-0.5495033-0.0755959-1.0482101-0.1121902-1.4944153   c-0.0372772-0.4543915-0.0547371-0.6060448-0.0928764-0.8820724c-0.0381355-0.2759972-0.0891685-0.6746216-0.1545334-1.1964912   c-0.0653801-0.5218391-0.1635666-1.1656075-0.2239647-1.9362221c-0.0603867-0.7706413-0.0852737-1.0413666-0.1035423-1.3145866   c-0.0182724-0.2731972-0.0315399-0.5442047-0.0431709-0.8128433c-0.0116425-0.2686157-0.0214996-0.5349388-0.0302238-0.7993355   c-0.0087242-0.2643929-0.0222092-0.5737724-0.0435028-0.9978485c-0.0212975-0.424099-0.0363655-0.9633904-0.0513916-1.6176338   c-0.0150414-0.6542435-0.03339-1.423336-0.0490761-2.3074646s-0.0226593-1.1527939-0.0288734-1.3915825   c-0.0062294-0.2387924-0.0118141-0.4488869-0.0176544-0.6302605c-0.0058403-0.1813774-0.011219-0.3341331-0.0158272-0.4584045   s-0.0174217-0.421814-0.0340195-0.7237015c-0.016613-0.3018913-0.0360947-0.607769-0.0583916-0.9176598   c-0.0223122-0.3098412-0.0480614-0.6236992-0.0671539-0.7817574c-0.0302505-0.3175087-0.2813263-0.1397133-0.2924843-0.2991867   c0.0055962,0.1595001,0.0138855,0.4757233,0.0247841,0.787365c0.0108986,0.3115921,0.0194931,0.6189384,0.0253983,0.9220123   c0.0058937,0.3030472,0.0091362,0.6018715,0.0106392,0.8066406c0.0015068,0.2047691,0.0017662,0.3375053,0.0012512,0.4991417   c-0.0005302,0.1616364-0.0014687,0.3521233-0.0021629,0.5714302c-0.0006828,0.2193108-0.0022278,0.4673882-0.0094185,1.0615158   c-0.0071793,0.5941277-0.0172806,1.4401703-0.0290298,2.1715393c-0.0117607,0.7314186-0.018219,1.3481674-0.030262,1.850502   c-0.0120316,0.5023346-0.0210114,0.8904076-0.0229149,1.1794319c-0.0019073,0.2890205,0.0011826,0.5581512,0.0077057,0.8295708   s0.0164452,0.5451546,0.0297241,0.8211288c0.0132904,0.2759743,0.0231743,0.5545998,0.0658531,1.1038246   c0.0426941,0.5492477,0.1058693,1.2786865,0.1214256,1.8871727c0.0155563,0.60849,0.0346794,1.0915985,0.0439682,1.4502068   c0.0092888,0.3585815,0.0118141,0.5914764,0.0255051,0.8859558c0.0126076,0.2713661,0.0391655,0.6940269,0.0690041,1.1695976   c-0.1769104-0.4933014-0.3742142-1.0417519-0.5630417-1.5650826c-0.4818344-1.3354301-0.9031181-2.5016594-1.2231636-3.5122986   c-0.3200302-1.0106354-0.5754967-1.856472-0.7920494-2.5295029c-0.2165565-0.6730309-0.3248215-0.995018-0.4271011-1.2882843   c-0.1022797-0.2933197-0.195015-0.5626564-0.2823448-0.8066673c-0.0873413-0.2440147-0.1697693-0.4628067-0.2584496-0.6541939   c-0.0886688-0.1913872-0.8257217-1.8357582-1.4962578-3.1782913c-0.6705322-1.3425331-1.2067986-2.414959-1.6149559-3.2141914   c-0.4081612-0.7992287-0.6552086-1.3371544-0.7643242-1.60466c-0.1091118-0.2675095-0.2690125-0.6321907-0.3968735-0.9760284   c-0.127861-0.343811-0.223526-0.6781998-0.2969208-1.0009079c-0.0733833-0.3226585-0.1144142-0.6351776-0.1330223-0.7860832   c-0.0148239-0.3027382-0.2315712-0.1562042-0.2277985-0.3080368c-0.0080681,0.1548691-0.0214882,0.474514-0.0026779,0.8091888   c0.0188103,0.3346481,0.0591888,0.6850471,0.1294441,1.0494461c0.07024,0.3644218,0.1552925,0.7470131,0.224453,1.0375023   c0.0691757,0.2904892,0.1962242,0.6822701,0.4253006,1.3484535c0.2290726,0.6661835,0.5545082,1.6166801,0.9979897,2.8439751   c0.4434929,1.2272987,1.0547333,2.709568,1.445652,3.6210251c0.3909149,0.9114075,0.4751549,1.0979805,0.5692673,1.3105736   c0.0941238,0.2125893,0.1989403,0.450531,0.311306,0.7147713c0.1123848,0.2642365,0.232563,0.5544968,0.4147987,0.9981804   c0.1822395,0.4436607,0.4384232,1.1459503,0.7450104,2.0240555c0.2785873,0.7978935,0.5475349,1.757164,0.8193932,2.8686829   c-0.0410728-0.0867004-0.0807266-0.1705933-0.1233978-0.2604065c-0.658474-1.3858948-1.4303513-3.1804008-2.557991-5.2678146   c-1.1276512-2.0874138-1.2141685-2.2882423-1.2993355-2.4896393c-0.0851707-0.2014503-0.1629753-0.4033623-0.2327042-0.6059914   c-0.069725-0.2025833-0.1209526-0.4087906-0.157444-0.507843c-0.0631256-0.2011642-0.140625-0.0719032-0.167244-0.174015   c0.0189247,0.104763,0.0688133,0.3125687,0.1374207,0.5167465c0.0685921,0.2042007,0.1385651,0.4099464,0.2132607,0.6164894   c0.0746803,0.2064934,0.1533737,0.4142723,0.737133,1.651165c0.5837555,1.2368965,1.3748932,3.3297653,2.1667786,4.9567375   c0.7918701,1.626976,1.3576126,2.896244,1.7147408,3.7953224c0.0721474,0.1816101,0.1350937,0.3434792,0.1934204,0.495491   c0.0992317,0.4553185,0.1881294,0.8732681,0.2592087,1.2151489c0.1884117,0.906208,0.255619,1.2272186,0.3459969,1.6671715   c0.0903778,0.4399033,0.2149086,0.9925194,0.357605,1.6594772c0.1183777,0.5533142,0.255825,1.1810265,0.3597641,1.6606598   c-0.1054344-0.2283669-0.2034149-0.4185143-0.2933197-0.5629883c-0.1284256-0.2063637-0.2514763-0.3809967-0.3901443-0.5560913   c-0.5586929-1.4306755-1.1622124-2.9594231-1.6508942-4.2563553c-0.5490952-1.4572296-1.0449448-2.4789352-1.6318398-3.5860252   s-1.3038788-2.2742691-2.2036285-3.4558372c-0.8997498-1.1815643-1.9667473-2.3812714-2.8051186-3.1871681   c-0.8383865-0.8058434-1.3229904-1.1216545-1.8586731-1.3509483c-0.3047981-0.1304474-0.6220779-0.2367058-0.949585-0.3221169   c-0.8728065-1.2806931-1.5720177-2.3007774-2.0884933-3.0560799c-0.5606232-0.8198166-0.8891487-1.3408356-0.995739-1.5612221   c-0.1065788-0.2203903-0.4331741-0.7939568-0.6808014-1.2957993c-0.2476425-0.501873-0.4251308-0.9413643-0.5326481-1.3184204   c-0.1075058-0.3770599-0.1483078-0.6915855-0.144537-0.8243752c0.0377388-0.2552338-0.1442547-0.1738358-0.1102848-0.2963028   c-0.0382404,0.1298523-0.0692501,0.430172-0.0335312,0.7928734c0.0357189,0.3626747,0.1384506,0.7890396,0.31464,1.2769356   c0.1761894,0.4879227,0.4186726,1.0401039,0.5690517,1.3969383c0.1503906,0.3568573,0.3281097,0.7139969,0.7074623,1.3659515   c0.3793488,0.6519508,0.9547806,1.6178894,1.7637253,2.8760643c0.0974426,0.1515503,0.1984749,0.307785,0.3016319,0.4667206   c-0.5554504-0.0680428-1.1229439-0.0893517-1.5672951-0.0615082c-0.4888268,0.0306778-0.531414,0.4445381-0.2146912,0.4771423   c0,0,0.6059685,0.2242737,1.1416893,0.419342c0.5357399,0.1950645,1.0090179,0.4049034,1.414875,0.6547546   c0.1299591,0.0800095,0.2502899,0.1650085,0.3662376,0.2518654c0.4125481,0.6264725,0.8156891,1.2375374,1.1605797,1.7663498   c0.7578354,1.1620064,1.1005669,1.7350349,1.4225273,2.3019104c0.3219643,0.5668755,0.6184845,1.12994,0.8721733,1.6968155   c0.2537041,0.5668755,0.4892769,1.1246948,0.7310104,1.7564964c0.2417374,0.6318283,0.4832764,1.3176765,0.6910172,1.9632721   c0.0252838,0.0785408,0.0490265,0.1544075,0.0735741,0.2316589c-0.7581177-0.8423347-1.7234383-1.9207039-3.2592773-3.8741455   c-1.9167938-2.4379158-2.0146103-2.5691605-2.1066856-2.7019234c-0.0920639-0.1327629-0.1807709-0.2607651-0.261898-0.3869667   s-0.1550636-0.250576-0.1898155-0.3110504c-0.0616722-0.1258163-0.2609978,0.0326805-0.2879028-0.0326576   c0.0255661,0.0680428,0.0760193,0.2084732,0.134758,0.3517609c0.0587502,0.1432915,0.1269836,0.2887154,0.2060776,0.4351692   c0.0790825,0.1464272,0.168972,0.2935753,1.1160965,1.6361885c0.947113,1.3426094,2.7167625,3.9054909,3.5960655,5.0398865   c0.3667107,0.4730988,0.7115898,0.9066429,1.0353165,1.3073807c-0.3860016-0.1929321-0.7944565-0.4045181-1.1817703-0.5992775   c-0.8200264-0.4123154-1.5093842-0.70718-2.0393944-0.9416962c-0.4160995-0.1841278-0.7427826-0.3191299-0.9879913-0.3917274   c-0.05299-0.089119-0.1059608-0.1782608-0.1622047-0.2701073c-0.5976906-0.9760246-1.2837563-2.1366692-2.1606293-3.4251862   c-0.8768578-1.2885437-1.9364662-2.7078934-3.1152153-4.2999191c-1.1787586-1.5920296-1.3867569-1.9412422-1.5659847-2.2555122   c-0.1792393-0.3142662-0.3175735-0.5847588-0.4193268-0.8088036c-0.1017532-0.2240677-0.1698856-0.4003487-0.1908073-0.4696236   c-0.0248337-0.1330986-0.1885815-0.0589828-0.1924934-0.1228065c0.0031796,0.0707169,0.0276661,0.2407722,0.0885792,0.4541588   c0.0609131,0.2133636,0.1637859,0.4687271,0.3019905,0.7691994c0.1382198,0.3004761,0.3105755,0.6473198,0.9938087,1.6881447   s1.7151794,2.6439705,2.5970955,4.085556c0.8819122,1.4415855,1.6367149,2.7059631,2.2429123,3.8056183   c0.1107216,0.2008553,0.2144165,0.3942223,0.314846,0.5838852c-0.0771141-0.0130234-0.1549988-0.0254784-0.2337303-0.0364914   c-0.5412064-0.0757637-1.0725822-0.1169891-1.5975227-0.1076202c-0.5249405,0.0093651-1.041996,0.0589027-1.2992096,0.1028824   c-0.075737,0.0101395-0.1326485,0.0229568-0.1781998,0.0371895c-0.1727409-0.1831017-0.349678-0.3693924-0.530859-0.5587959   c-0.725914-0.7588806-0.9566727-1.0401039-1.4281769-1.4964256c-0.4714909-0.4563217-1.1787224-1.0793991-2.121357-1.8725815   c-0.9426365-0.7931862-2.1252041-1.7517128-3.5363598-2.8882942c-1.4111538-1.1365547-1.5371227-1.2627563-1.6530952-1.3987617   c-0.1159573-0.1360321-0.2091808-0.2730141-0.2809658-0.4100761c-0.0718002-0.1371117-0.1223793-0.2744293-0.1428013-0.3414421   c-0.0290279-0.139431-0.1367893-0.0531693-0.1453972-0.1255836c0.004528,0.0760193,0.0314598,0.2287788,0.0813198,0.3830299   c0.0498466,0.1542511,0.1225338,0.3096085,0.2169666,0.4664841c0.0944443,0.1568756,0.2102871,0.3156052,1.0319843,0.9916229   c0.8216972,0.6759872,2.1578732,1.7504997,3.2533703,2.6590729c1.0955105,0.908577,1.9598351,1.639431,2.584137,2.2017784   c0.6242886,0.5623207,1.0095062,0.9512444,1.5035152,1.4782562c0.2805042,0.2992363,0.6284065,0.668499,0.9913387,1.0580139   c-0.017231,0.0444183-0.032505,0.0812187-0.1369705,0.0912552c0.0599861-0.0041199,0.1348991-0.0046844,0.2196541-0.0025215   c0.1993752,0.2143669,0.4014549,0.4332619,0.5994797,0.6501007c-0.1088562-0.0408173-0.2183685-0.0818367-0.3301582-0.1233215   c-1.0593777-0.3932724-1.4804821-0.5459518-1.8996944-0.6686287c-0.4192123-0.122673-0.8306007-0.2213135-1.2345905-0.2958412   c-0.4040031-0.0745277-0.8015594-0.1210785-1.0002937-0.1304474c-0.3887024-0.0232887-0.2211857,0.2967949-0.4111691,0.2828445   c0.1857624,0.0213356,0.5589237,0.0864677,0.9353008,0.1747627s0.7558289,0.2027092,1.1361961,0.349781   c0.380352,0.1470985,0.76548,0.3148613,1.4888592,0.657383c0.7233791,0.3425255,1.6724606,0.8531952,2.4941578,1.3045769   c0.1190453,0.0653648,0.2346687,0.1290321,0.3484154,0.1917953c0.0994492,0.1193047,0.198513,0.2383537,0.2924194,0.3539772   c0.4832764,0.595108,0.8935204,1.1405983,1.216835,1.6045609c0.3232994,0.4639626,0.5940742,0.8927498,0.8450623,1.3429451   c0.0486908,0.0873413,0.0939178,0.1787491,0.1414604,0.2674828c-0.170681-0.0428734-0.3153992-0.0755043-0.4103584-0.0949593   c-0.157917-0.0323486-0.4564095-0.0700493-0.891758-0.125843c-0.4353485-0.0557404-1.0165443-0.1035538-1.7430992-0.1580582   c-0.2887268-0.0216675-0.601181-0.0285645-0.9508324-0.0372124c-0.5273247-0.4741821-1.128746-0.9466095-1.727829-1.3459053   c-0.8344994-0.556221-1.7446575-0.8154411-2.5228901-1.143322c-0.0051842-0.0053024-0.0099201-0.0102425-0.0151062-0.0155182   c-0.8613396-0.8782883-1.0453911-1.1143227-1.2057552-1.3304405c-0.1603622-0.2161407-0.2888031-0.404541-0.3860264-0.5649185   c-0.0972252-0.1603775-0.1577129-0.294838-0.176899-0.3502197c-0.0266724-0.1073875-0.1247215-0.0402222-0.1322098-0.092205   c0.0075283,0.056282,0.0413036,0.1864967,0.1022682,0.3453789c0.0609646,0.1588593,0.1539555,0.3452797,0.2764759,0.5609589   c0.1225224,0.2156792,0.2782154,0.4583015,0.7934799,1.0709343c0.0124302,0.0147705,0.0265713,0.0318336,0.0392704,0.0469627   c-0.7479801-0.3488808-1.4528313-0.5686493-1.8407497-0.5306168c-0.6111507,0.0282822-0.562952,0.2376595-0.6510658,0.3443794   c-0.4917183-0.5523643-0.5889034-0.670639-0.6763096-0.7872658c-0.1155224-0.1541481-0.2151012-0.2953262-0.30023-0.4236107   c-0.0851288-0.1282883-0.140625-0.2505264-0.1635284-0.3055954c-0.036993-0.1115074-0.1663609-0.0192757-0.1804371-0.0757103   c0.0137558,0.0596237,0.0488319,0.188118,0.1039791,0.3277245c0.0551624,0.1396103,0.1063213,0.3033295,0.1918507,0.4714775   c0.0855408,0.1681747,0.189352,0.3487549,0.7460117,1.0838013c0.5566711,0.7350502,1.4263382,1.9544716,2.2037067,3.0220833   c0.6773396,0.9302444,1.2708626,1.7559319,1.7889462,2.4711151c-0.2455559-0.2565994-0.4249763-0.4351692-0.6038284-0.6093903   c-0.2997036-0.2919807-0.6023254-0.5771942-0.9087048-0.8547897c-0.3063927-0.2775726-0.6169415-0.5469589-0.9335384-0.8099632   c-0.3165836-0.263031-1.3567257-1.0456886-2.2174244-1.7010384c-0.8606834-0.6553497-1.5460396-1.181591-2.0536232-1.5813217   s-0.8369312-0.6721306-0.9875031-0.8172951c-0.1505718-0.145195-0.3521862-0.340519-0.5169258-0.521122   c-0.1647511-0.180603-0.2961121-0.3493156-0.3930264-0.5065804c-0.0969162-0.1572876-0.159977-0.3023529-0.1807194-0.3677406   c-0.0303402-0.1351852-0.1700916-0.0449066-0.179678-0.1146736c0.0091629,0.0754547,0.0512886,0.2324562,0.1274891,0.3985214   c0.0762119,0.1660652,0.1857891,0.3417244,0.3283558,0.5277328c0.1425686,0.186058,0.3193626,0.3816414,0.4641438,0.5370255   c0.144783,0.1553841,0.3579521,0.3554153,0.742384,0.6827812c0.3844318,0.3273926,0.9434853,0.7827873,1.6771698,1.3674469   c0.7336864,0.5846558,1.6442566,1.2959023,2.3045349,1.8281403c0.6602783,0.5322609,0.9644566,0.8003082,1.2638626,1.0769005   c0.2994194,0.276619,0.597435,0.5579987,0.8925953,0.8459129c0.2951603,0.2879181,0.5863953,0.5834503,1.0459709,1.0591736   c0.2366409,0.2449913,0.5109692,0.5402145,0.7974434,0.8619461c-0.0898514-0.0088005-0.1635036-0.0154648-0.2180729-0.0178604   c-0.0456009-0.0020065-0.2805424-0.036232-0.569706-0.0769196c-0.0780144-0.0799828-0.1544704-0.1567726-0.2286892-0.2289848   c-0.276001-0.2685623-0.8018684-0.7639732-1.3173008-1.2087135s-1.0170078-0.8436241-1.4964638-1.2055511   c-0.0890408-0.0672188-0.1720982-0.1289787-0.2590675-0.194397c-0.1935081-0.1647491-0.4037189-0.3295021-0.6342468-0.4953842   c-0.1458874-0.1049957-0.3017731-0.2100449-0.4625626-0.3150406c-0.0011826-0.0008736-0.0024567-0.0018272-0.0036411-0.0026741   c-0.4321938-0.3097153-0.9846973-0.6087227-1.491148-0.8638763c-0.0150814-0.0075912-0.0297375-0.0139236-0.0447788-0.0214386   c-0.1120472-0.0566406-0.2047558-0.1009293-0.2956619-0.143158c-0.2189865-0.1017265-0.4345875-0.2067261-0.6569958-0.2905426   c-0.2224102-0.0838394-0.4442005-0.1636429-0.6667252-0.2368317c-0.2225113-0.0731888-0.9399853-0.2982101-1.5423355-0.4856071   s-1.090517-0.3357811-1.4656715-0.4429626c-0.3751431-0.1071587-0.6382885-0.1731682-0.7375202-0.1926231   c-0.1530037-0.0257339-0.1253777,0.2044868-0.1791496,0.1982079c0.0461159,0.006794,0.2213535,0.0493317,0.5135288,0.1368294   c0.2921734,0.0874939,0.698494,0.2189713,1.2177868,0.3952522c0.3181534,0.1079788,0.6782398,0.2332802,1.0150757,0.3530731   c-0.0649776,0.1124611-0.0554829,0.2638817-0.171608,0.2524033c0.1810017,0.0281029,0.5539436,0.1278496,0.9454517,0.2777252   c0.3915234,0.1498756,0.799078,0.3595352,1.2255077,0.6219978c0.4264297,0.2624893,0.8729458,0.5772743,1.2607765,0.9230118   c0.3878288,0.3457413,0.768465,0.7060738,1.1721077,1.1021233c0.403656,0.3960266,0.8394279,0.8171158,1.3038673,1.2674942   c0.1956844,0.1897659,0.3999233,0.3785248,0.6009865,0.5612907c-0.0317554,0.0031395-0.0792999,0.006279-0.1362114,0.0095749   c-0.3511715-0.1130257-0.7222862-0.2163773-1.1204605-0.3121605c-0.4538746-0.1092148-0.9503937-0.1685562-1.4675503-0.2565689   c-0.5171566-0.0880394-0.6812649-0.1062317-0.8282204-0.1084709c-0.1469421-0.0022125-0.2919941,0.0115814-0.4312305,0.0171661   c-0.1392212,0.0056076-0.2740574,0.0094681-0.399704,0.0147171c-0.1256618,0.0052261-0.1990948,0.0097542-0.3235321,0.0248108   c-0.1244259,0.0150528-0.2792053,0.0737038-0.4707584,0.1169357c-0.1539936,0.0347404-0.3341351,0.0712318-0.5374737,0.110424   c-0.406641-0.2612-0.3217831,0.0157776-0.5234489-0.1553574c0.0579662,0.0514679,0.1261101,0.1268196,0.200985,0.2152939   c-0.1507263,0.0257607-0.2329865,0.0348434-0.3096867,0.0414581c-0.1016254,0.0087242-0.1859951,0.0131493-0.2534065,0.0202522   c-0.0674229,0.0071564-0.1169357,0.0084419-0.1338959,0.0092659c-0.0314846-0.0035782-0.0510693,0.1129227-0.0655842,0.1085205   c0.0177708,0.0055351,0.0612869,0.0219002,0.1203213,0.0403252s0.1348877,0.0336113,0.2275429,0.0469398   c0.0926704,0.0133324,0.2021561,0.0284615,0.418787,0.1590385c0.1110954,0.0669594,0.2289982,0.0428238,0.3466301,0.0063324   c0.1047382,0.1299553,0.2153568,0.2648048,0.3307877,0.3948135c0.3589554,0.4042854,0.7093658,0.8132553,1.0442219,1.2349358   c0.3348427,0.4217148,0.6515923,0.8584518,1.009325,1.323082c0.3577194,0.4646301,0.7088776,0.9522476,1.0074215,1.423233   c0.1521168,0.239975,0.2945423,0.4727402,0.4282837,0.6985855c-0.2757301-0.1417465-0.5168743-0.2641373-0.7232761-0.3673325   c-0.4110279-0.205513-0.7048759-0.3008347-0.8531303-0.3406143c-0.1482563-0.0397873-0.4691639-0.1329193-0.7947159-0.204155   c-0.3255634-0.0712051-0.6333466-0.1353378-0.9253788-0.1873703c-0.2920341-0.0520325-0.5734634-0.0679398-0.8350792-0.089119   s-0.4711819-0.0272217-0.6824608-0.0120163s-0.4239082,0.0338669-0.6386242,0.0672684   c-0.2147141,0.0333786-0.4309464,0.0839996-0.5385532,0.1250458c-0.2170448,0.063179-0.0598583,0.2771072-0.169281,0.299263   c0.1080589-0.0182724,0.3257065-0.0120468,0.5322876-0.0142059c0.2065697-0.0021591,0.4055729,0.0028839,0.5973454,0.0253983   c0.1917858,0.022522,0.3756828,0.0588531,0.5792542,0.1053085c0.2035713,0.0464478,0.4396706,0.1190414,0.6876717,0.2118912   c0.248003,0.0928497,0.5116501,0.1916504,0.7862606,0.3140411c0.2746239,0.1223907,0.564394,0.2547455,0.7596264,0.3414688   c0.1952343,0.0867004,0.334198,0.1526794,0.6389065,0.2958374c0.3047199,0.1431656,0.7679768,0.3374023,1.3772221,0.6012573   c0.4053936,0.17556,0.876049,0.3769836,1.3040485,0.5604706c0.1061535,0.1778717,0.184927,0.180809,0.1758556,0.0754547   c0.1506996,0.0646667,0.2939758,0.1262512,0.4237156,0.1822739c0.5352993,0.2311172,0.750618,0.3434219,0.9259987,0.4490662   c0.1753922,0.1056366,0.3151035,0.1980743,0.414669,0.2810898c0.0995655,0.0830231,0.1839886,0.1417999,0.2683449,0.194191   c0.0843697,0.0524216,0.3479404-0.0464249,0.3268509-0.1026535c0,0,0.063282-0.1763306-0.010088-0.3447876   c-0.0733681-0.1684799-0.1958237-0.3300171-0.3538723-0.4938126c-0.1580467-0.163826-0.3536911-0.3286819-0.594347-0.5073242   c-0.2285843-0.1697235-0.9887257-0.5828094-1.6525154-0.9319992c-0.1168861-0.3814545-0.3081169-0.7576904-0.5307827-1.1458969   c-0.275692-0.4806671-0.604435-0.9748917-0.9655266-1.4959641c-0.3610916-0.5210419-0.692215-0.9731369-1.067524-1.387619   c-0.3752956-0.4144745-0.7673721-0.8096504-1.1787338-1.1823082c-0.1662712-0.1506233-0.3345337-0.2971573-0.4931736-0.4282455   c0.0892982,0.0163155,0.1672344,0.0347672,0.2323036,0.0539894c0.1263294,0.0373154,0.199995,0.0571556,0.291853,0.0777702   c0.0918713,0.0206375,0.2047291,0.049202,0.3201218,0.0815506s0.2318401,0.0785675,0.3494339,0.1337929   c0.1176052,0.0552521,0.2410927,0.0943413,0.5396748,0.1909485c0.2985954,0.0966072,0.7533073,0.2783966,1.166151,0.4668198   c0.1720467,0.0785446,0.3367329,0.1529655,0.4964657,0.2261047c0.1345139,0.0914078,0.330801,0.3017044,0.5710449,0.5091553   c0.2863712,0.2472763,0.6132107,0.5521545,0.9683056,0.9333801s0.7520981,0.8240891,1.1296577,1.2717133   c0.3775482,0.4476242,0.7618523,0.8280563,1.1500931,1.264534c0.3882275,0.4364548,0.7928352,0.9173737,1.2131424,1.4433365   c0.4203053,0.5259781,0.8523712,1.0996475,1.275753,1.4940796c0.4233665,0.3944321,0.5695381,0.2964859,0.3599701-0.0162888   c0,0-0.2011127-0.7750397-0.5917091-1.3759079c-0.03438-0.052887-0.0684147-0.1034775-0.1026802-0.1556702   c0.035862,0.0257339,0.0713882,0.0508728,0.107378,0.0757599c0.19697,0.1361389,0.4130993,0.2748947,0.6589661,0.4021759   c0.2458515,0.1273117,0.4967365,0.2755127,0.7185268,0.3542862c0.2217789,0.0787735,0.4148636-0.1814499,0.294632-0.2706451   c0,0-0.1575851-0.2885895-0.3554153-0.4899063c-0.1978455-0.2013168-0.3746414-0.3986511-0.5489788-0.5680313   c-0.1743374-0.1694412-0.3390999-0.3204498-0.4874592-0.455658c-0.1483574-0.1351547-0.6430626-0.6157684-1.0796833-1.00811   c-0.4366207-0.3923492-0.818737-0.6873398-1.1266346-0.9068298c-0.3079109-0.2195129-0.526371-0.3809662-0.7049274-0.4190598   c-0.04142-0.0087967-0.0806255-0.0168762-0.1178379-0.0248032c-0.0660343-0.0618668-0.1307945-0.1236267-0.1990414-0.1852112   c0.0255928-0.0010529,0.0518932-0.002037,0.0750141-0.0052261c0.1428261,0.0044785,0.070282-0.0533676,0.1501865-0.0401917   c-0.0795574-0.0221863-0.2105846-0.0518341-0.3050041-0.0361328c-0.0035515,0.000618-0.0063686,0.0022125-0.0098419,0.0029068   c-0.1989651-0.1768494-0.4026394-0.3506546-0.6019402-0.5102615c-0.1162548-0.0931091-0.2297554-0.1821442-0.3407345-0.2669907   c0.34659,0.1640549,0.7270966,0.3508377,1.1049938,0.5419083c0.5279007,0.2669678,1.0447483,0.5491257,1.5508518,0.8481064   c0.5060921,0.2989502,0.9993801,0.6186218,1.3186264,0.8395004c0.3192482,0.2208557,0.4560642,0.3224487,0.5718689,0.4175644   c0.1158161,0.0951385,0.2105446,0.1828156,0.285881,0.2601471c0.0753517,0.0773621,0.1306534,0.143959,0.1699753,0.1888962   c0.0393372,0.0449524,0.0701637,0.0883179,0.1545601,0.0820389c0.0844078-0.0063095,0.1321602-0.051239,0.194088-0.0735474   c0.0619431-0.022316,0.0675659-0.0012131,0.0131378,0.0244217c-0.0544281,0.0256042-0.0979958,0.4472122-0.055275,0.4516373   c0,0,0.1047363,0.073288,0.2582664,0.0509262c0.1535339-0.0223618,0.2988548-0.1431122,0.4076958-0.3022766   c0.1088562-0.1591644,0.1460304-0.332695,0.1147881-0.5104675c-0.0312386-0.177742-0.101944-0.3528137-0.1878471-0.5033875   c-0.0859146-0.1505432-0.1896744-0.2994919-0.3114738-0.4479523c-0.1217995-0.148468-0.2603416-0.2986526-0.4185066-0.4501724   c-0.1398773-0.1340256-0.515173-0.4806671-0.9376411-0.8375015c-0.16255-0.2072144-0.3375702-0.4310989-0.5113144-0.6470642   c-0.2953281-0.3670731-0.5733223-0.7031097-0.8346939-1.0097351c0.0656872,0.0114021,0.1325207,0.0228767,0.2082558,0.0352287   c0.1578541,0.0257378,0.3395386,0.0540199,0.5508308,0.0879097c0.4250278,0.5250854,0.8228798,1.0633163,1.1961823,1.6126175   c0.1402016,0.211174,0.2804642,0.4248199,0.4207802,0.6375885c0.4176064,0.6539612,0.7958221,1.291893,1.0564575,1.6387634   c0.0144768,0.019249,0.0269089,0.033226,0.040638,0.0504913c0.0759277,0.120079,0.1489983,0.2363739,0.2171974,0.3458939   c0.2572021,0.4131165,0.5112114,0.6256027,0.639225,0.7983856c0.042038,0.0567398,0.0738983,0.1043015,0.1005058,0.1427994   c-0.0699844,0.0366669-0.1341019,0.1483841-0.0924492,0.1783371c0,0,0.117527,0.0961685,0.2699776,0.070694   c0.1524506-0.0254517,0.1657295-0.1753845,0.1264725-0.3520966c-0.039257-0.1767197-0.1197929-0.4297104-0.2346191-0.7703857   c-0.1148415-0.3406448-0.3996277-0.870903-0.6897049-1.3958282c-0.2900925-0.5249023-0.584919-1.0435257-0.892868-1.5504684   c-0.2503433-0.4121094-0.5050087-0.8180923-0.7643204-1.2183151c0.3954964,0.0421066,0.8442764,0.0837402,1.3536491,0.1271286   c0.1483994,0.0126343,0.3016472,0.025322,0.4545593,0.0377808c0.0279846,0.0543976,0.0566788,0.110527,0.0868149,0.1702271   c0.265152,0.525238,0.5849915,1.182518,0.8491821,1.7072678c0.2641983,0.5247498,0.4785652,0.9153442,0.6403465,1.1792221   c0.1617775,0.2638855,0.2939377,0.4185181,0.3597908,0.4794846c0.0658684,0.060936,0.1993752,0.1848984,0.3656464,0.2483597   c0.1662674,0.0634918,0.3424072,0.0793915,0.5255089,0.0824585c0.0341988,0.0005646,0.0692635-0.0006485,0.1042213-0.0018005   c0.1667976,0.3124847,0.3320236,0.6138382,0.4939957,0.8944931c0.6166725,1.0685959,0.821209,0.9931946,0.5400238,0.2304306   c0,0-0.1726151-1.6765976-0.6587868-3.0922394c-0.1927872-0.5613708-0.39291-1.0951462-0.5993919-1.603714   c0.1140938,0.0202789,0.2597504,0.0463257,0.4636574,0.0829163c0.4042206,0.0724716,1.0178833,0.2129822,1.6672096,0.3989105   c0.0364418,0.3380203,0.0674744,0.6873398,0.0939674,1.0527649c0.0619431,0.8545837,0.361866,1.7337189,0.7121353,2.2613754   c0.3502579,0.5276566,0.4530792,0.5823669,0.5512276,0.6442871c0.0981369,0.0619659,0.2276344-0.0975571,0.3400803-0.0901718   c0.1124344,0.0073853,0.1465454-0.0781326,0.144062-0.1408463c-0.0014038-0.0353317-0.094471-0.0855942-0.1779785-0.1176071   c0.0360794-0.0354309,0.069828-0.0466003,0.1698189-0.0749588c0.1335983-0.0378876,0.181633-1.0418854,0.0111961-1.9539566   c-0.0695343-0.3720169-0.1727448-0.7232895-0.2907104-1.0591736c0.4210396,0.162384,0.8422089,0.3405151,1.2640572,0.5358124   c0.112278,0.0519562,0.2244797,0.105278,0.3364258,0.1590881c0.0430908,0.1278229,0.0849762,0.2563171,0.1340256,0.3812027   c0.1437645,0.3660965,0.2831154,0.6718445,0.4168549,0.9447098c0.1337433,0.2728882,0.2641907,0.5124741,0.3922958,0.7195282   c0.1281052,0.2070084,0.2511787,0.3849335,0.3489418,0.5084839c0.0977516,0.1235504,0.2268105,0.2741013,0.392952,0.4342422   c0.1661415,0.1601486,0.3868752,0.318512,0.6565208,0.4821091c0.2696571,0.1635895,0.5594635,0.3674088,0.80233,0.5225372   c0.2428703,0.1551514,0.373909-0.0013123,0.2281494-0.1233749c0,0-0.2430344-0.2999802-0.4524612-0.5608521   c-0.2094116-0.2608414-0.3846779-0.4834976-0.5232544-0.6685791c-0.1385918-0.1851044-0.2429466-0.3275986-0.3112831-0.4468231   c-0.0683517-0.1192245-0.1627426-0.2641602-0.2514-0.4247208c-0.0886536-0.160553-0.1838074-0.3602524-0.2861404-0.5968018   c-0.0664177-0.1535339-0.1353111-0.3242569-0.2036209-0.5095444c0.2000313,0.0973282,0.3926163,0.1887131,0.5728836,0.2685699   c0.6516724,0.288681,0.73806,0.1550217,0.3422012-0.1009369c0,0-0.5499268-0.570549-1.2395287-1.0376587   c-0.067749-0.1614761-0.13871-0.3255081-0.2050133-0.4839325c-0.1462097-0.3493423-0.2690544-0.6684952-0.3790169-0.9539948   s-0.1946526-0.5408325-0.2549629-0.7611694c-0.0063553-0.0232124-0.012249-0.0437469-0.018013-0.0636673   c0.3707657,0.3286819,0.9735947,0.8570557,2.192627,1.9052658c0.035553,0.0349503,0.0718918,0.0661926,0.109333,0.0940323   c0.0220146,0.0188904,0.0414467,0.0356445,0.0638466,0.0548935c0.2381973,0.2046356,0.4492722,0.3798141,0.6401787,0.5336227   c0.0399666,0.1047668,0.0660248,0.1730652,0.0905495,0.2382507c0.0387535,0.1029892,0.1056366,0.2791672,0.1715431,0.4527969   c0.065918,0.1736298,0.1374588,0.3426285,0.2104797,0.5084076c0.0730209,0.1658325,0.1542282,0.3264618,0.2494431,0.4356842   c0.0952072,0.1091843,0.2702751,0.0554504,0.2443352-0.0290298c0,0,0.0607224-0.2041245,0.0316658-0.3843689   c-0.0290527-0.1802444-0.07127-0.3594589-0.118454-0.540062c-0.0042191-0.0162125-0.0097275-0.0325546-0.0140648-0.0487366   c0.5364952,0.3229141,0.4357071,0.0102158-0.2202721-0.745163c-0.0110397-0.0337677-0.0237274-0.071701-0.041626-0.1241989   c-0.0568199-0.1665802-0.1595764-0.4686737-0.3124123-0.9074707c-0.1528397-0.4387894-0.3528328-1.0156555-0.6295776-1.7195396   c-0.08181-0.2080879-0.1414642-0.3593025-0.1861649-0.4722252c0.3064346,0.3197517,0.6531639,0.6984825,1.0446091,1.140831   c0.2734909,0.3090439,0.5674553,0.6468277,0.8578529,0.9728851c0.1190224,0.4367142,0.2521324,0.8845901,0.3997574,1.3465958   c0.2685776,0.8405609,0.5822639,1.7232513,0.8870354,2.3879166s0.4484978,0.6135025,0.2858963,0.1565704   c0,0-0.2034683-0.9553375-0.4720192-1.8251801c-0.039669-0.1284714-0.0768166-0.2537918-0.1148376-0.3802261   c0.0142822,0.0366669,0.0279846,0.0710526,0.0411606,0.1023941c0.0421638,0.1004181,0.1214905,0.3000107,0.2018471,0.4874573   c0.0803413,0.1874542,0.1616249,0.3628082,0.2413368,0.5273285c0.0797005,0.1645432,0.1602592,0.3173752,0.2234001,0.4309692   c0.0631523,0.1136169,0.1330452,0.2212143,0.218792,0.3156586c0.0857582,0.0944443,0.1869087,0.1720352,0.2992516,0.2322235   c0.1123428,0.0602188,0.2320213,0.1061325,0.286705,0.1007004c0.0471458-0.0046616,0.1923409,0.0413055,0.3102264,0.0365677   c0.1125107,0.5983734,0.1955948,1.2307434,0.2395515,1.8983688c0.0601768,0.9139786,0.059639,1.8895645,0.0378532,2.3967896   c-0.0824127,1.0332336,0.100338,0.5213242,0.0396957,1.047287c0.069767-0.526062,0.183075-1.5416412,0.2586555-2.5059586   s0.0824776-1.8797073,0.0484962-2.7493515c-0.004631-0.1186371-0.0126991-0.2350082-0.0192871-0.3522491   c0.1115456-0.0619202,0.2282372-0.1278992,0.3283806-0.1955566c0.1482811-0.1001282,0.077282-0.262207-0.0297623-0.2152939   c0,0-0.1619949,0.0234451-0.3198128,0.0594254c-0.0459328-0.620224-0.1204872-1.2307739-0.2319145-1.8654099   c-0.0035782-0.0203552-0.0079422-0.0423279-0.0116196-0.0629196c0.0146027-0.011734,0.030571-0.0232391,0.0433617-0.0351028   c0.0281525,0.0222397,0.0574112,0.0429306,0.087059,0.0628433c0.00597,0.0440598,0.0097923,0.0894318,0.0164833,0.1331558   c0.0464096,0.3033524,0.1069756,0.562706,0.1666794,0.7853012c0.0597191,0.2226028,0.1212997,0.4099503,0.1985664,0.5620956   c0.077282,0.1521378,0.1631699,0.2793655,0.2872086,0.4341354c0.1240387,0.1548157,0.3658791,0.3512497,0.6418266,0.3790131   c0.2759361,0.0277405,0.5006599-0.1111221,0.6785622-0.3664017c0.0764809-0.1097336,0.1469421-0.2440186,0.2130165-0.3857117   c0.0111694,0.0686111,0.0239182,0.1360321,0.0393715,0.2022018c0.0165367,0.0707932,0.0437508,0.2066193,0.0800209,0.3365479   c0.0362854,0.1299591,0.0859032,0.2517624,0.1443443,0.365303c0.058445,0.1134872,0.1210823,0.2189941,0.1578026,0.2951202   c0.0367355,0.0760727,0.3184509,0.0160599,0.3071671-0.0369339c0,0,0.0170097-0.1126862,0.0376472-0.2284393   c0.0206528-0.1157532,0.0378799-0.2350616,0.0477371-0.358017s0.0129585-0.2502365,0.0141029-0.3490601   c0.001133-0.0988159,0.00494-0.1668091,0.0060463-0.2360382c0.000412-0.025528,0.0004921-0.0521851,0.0008011-0.0780716   c0.2275429,0.0951614,0.6422768,0.0082321,0.8369026-0.1692581c0.1559753-0.1422348,0.3000488-0.6350479,0.4266777-1.1933746   c0.0681572,0.1104202,0.1433525,0.199852,0.2476006,0.2649307c0.1636963,0.1021957,0.3260918,0.0276642,0.3832245-0.0549164   c0.04142-0.0598831-0.0522156-0.1858292-0.122612-0.2362137c0.0220146-0.0136948,0.0454483-0.0372925,0.0774727-0.0856476   c0.0731888-0.1104965,0.1331749-0.2982559,0.1969337-0.5689316c0.063755-0.2706223,0.1084938-0.4900818,0.1748772-0.7247543   c0.0663681-0.2346497,0.1246948-0.501976,0.2410889-0.7878571c0.1163979-0.2858582,0.2345581-0.6021309,0.298893-0.9484901   c0.0214119-0.1152649,0.1074905-0.3081169,0.2293968-0.551178c0.0039749,0.1334343,0.0083885,0.267765,0.0147057,0.4048538   c0.0153885,0.3340302,0.0473518,0.6085396,0.0709114,0.8685341c0.0235481,0.2599945,0.0444832,0.5051346,0.0632668,0.7354355   c0.0187874,0.2302933,0.0300217,0.4456635,0.0686989,0.5882874c0.0386925,0.1425934,0.0497437,0.2125397,0.0661774,0.286087   c0.0164299,0.0735474,0.0429611,0.1558456,0.0947762,0.254715c0.0518188,0.098877,0.1530685,0.2112808,0.6341858,0.1066742   c0.1510086-0.0328369,0.2571869-0.0738831,0.3378525-0.1207504c0.017292,0.1450119,0.0124931,0.238121,0.017231,0.3260803   c0.0084534,0.1571884,0.0392952,0.2997513,0.1030655,0.4225845c0.0637817,0.1228333,0.1579056,0.2167587,0.2174034,0.2711105   c0.0274048,0.0250397,0.100956-0.0272293,0.1690598-0.0931091c-0.0111694,0.1319656-0.0195465,0.2606659-0.0215378,0.3813858   c-0.0106697,0.6471405,0.3397827,0.7275848,0.4339676,0.3172226c0,0,0.4496078-0.7575378,0.6930275-1.5439758   c0.0762901-0.2465134,0.1537743-0.4886475,0.2309761-0.7320175c0.0064735,0.0083694,0.0139999,0.0171661,0.0196495,0.0252991   c0.0535927,0.077179,0.09832,0.1630554,0.2182159,0.2648544c0.1198959,0.1018372,0.3102112,0.0944214,0.4078217,0.0172958   c0.0309715-0.0244751,0.0574417-0.051239,0.0817833-0.078743c0.2467041,0.1248093,0.4830208,0.0209732,0.6222305-0.17453   c0.0918617-0.1290359,0.1742363-0.297699,0.2429581-0.4739227c-0.0131226,0.0715103-0.0265579,0.1436462-0.0388832,0.2134094   c-0.0797501,0.4515076-0.1406898,0.8522949-0.1619987,1.20681s0.1140175,0.6830139,0.145298,0.883255   c0.031292,0.2002411,0.3814087,0.2602005,0.402832,0.1350784c0,0,0.1696892-0.2251205,0.3541412-0.4951782   c0.1844368-0.2700806,0.3081703-0.6065292,0.4347954-0.9985962c0.031601-0.0978165,0.064064-0.1989746,0.0974808-0.3034058   c0.2560806-0.2237091,0.5204887-0.4820023,0.7945862-0.7698669c-0.1799622,0.8576965-0.191967,0.9857025-0.1971779,1.0980835   c-0.0055199,0.1189194-0.0066757,0.2273636-0.0058136,0.3252792c0.0008621,0.0979233,0.0058022,0.1854935,0.0121727,0.2260513   c0.0101776,0.076767,0.0685539,0.0339966,0.0723763,0.0702057c-0.0034485-0.0354614-0.0002823-0.1136703,0.0032043-0.2017822   c0.0034981-0.0881424,0.0120316-0.18647,0.02845-0.2947388c0.0086212-0.0568237,0.0183105-0.1183243,0.0445709-0.2424698   c-0.0175247,0.3059082-0.0152626,0.5881577,0.01651,0.825325c0.0610275,0.455452,0.50811,0.5060425,0.541256,0.2131882   c0,0,0.2877731-0.5533142,0.4204483-1.138588c0.0168152-0.074173,0.0371857-0.1515274,0.0547371-0.2263107   c0.0258369,0.0213089,0.0540543,0.0425644,0.0872116,0.0625076c0.1347961,0.0811386,0.2861938,0.0831985,0.4272385,0.040863   c-0.0063019,0.1022491-0.0058365,0.1798096,0.004921,0.2269058c0.0337067,0.1475601,0.0796814,0.4630127,0.0984955,0.6715088   c0.0187988,0.2084961,0.1098099,0.3160934,0.2548752,0.2813263c0.1450729-0.03479,0.3220215-0.1875229,0.6171799-0.1465836   c0.3072433-0.0798798-0.1286774-0.3868866-0.3306046-0.6026459c0.1169891,0.3330536-0.0570831,0.4848862-0.2199783,0.4272461   c-0.1902542-0.0673218-0.1643143,0.266449-0.1970749,0.1670914c-0.0327454-0.0993652-0.023056-0.3251038,0.0747604-0.4885941   c0.0978012-0.1634903,0.1450272-0.3478012,0.3478088-0.8093414c0.0697784-0.1588364,0.1502686-0.3525848,0.2413254-0.5760117   c0.0784531-0.0889893,0.1655655-0.1872711,0.2644958-0.2977982c0.7344055-0.8205147,0.7661285-0.8729591,0.7968292-0.9244041   c0.0307007-0.0514412,0.0605392-0.1017799,0.0931702-0.1479187c0.0326157-0.0461426,0.0641022-0.0915375,0.0937729-0.1430092   c0.0296631-0.0514908,0.1408463-0.229908,0.23349-0.3890495c0.0926285-0.1591911,0.1685181-0.2986221,0.2260742-0.4217339   s0.0943985-0.2340279,0.0904846-0.298954c0.0008087-0.0967903-0.3777542-0.1202583-0.3730316-0.1521187   c-0.0032578,0.0156746-0.0597687,0.0540428-0.1056519,0.1284943c-0.0458984,0.0744476-0.1138382,0.1727791-0.2073212,0.2898445   c-0.092514,0.1158562-0.2093811,0.2483864-0.2944717,0.3319969c0.372345-0.9269218,0.797348-2.0354042,1.1623383-3.1740952   c0.0202789-0.063282,0.039093-0.1236801,0.0588531-0.1859322c0.0566559,0.4747734,0.1323547,0.9703636,0.2294006,1.4318848   c0.0030823,0.0147209,0.0070114,0.0278969,0.0101471,0.0425644c-0.0825043,0.2077293-0.1613388,0.4135246-0.2333984,0.6154633   c-0.2464447,0.6907082-0.4219131,1.3503304-0.4965286,2.0546799c-0.0169449,0.1600151-0.0263519,0.3137512-0.0319595,0.4638863   c-0.0933304,0.1699753-0.1144028,0.213623-0.131134,0.2530212c-0.0458679,0.1080322-0.0285263,0.2881165,0.1373062,0.3197174   c0.0172958,0.2810974,0.0539703,0.5407867,0.1105423,0.7718277c0.1204681,0.4920425,0.3487778,0.8533478,0.6601028,1.046051   c0.146965,0.0909958,0.2990723,0.1460648,0.4435806,0.173111c0.0759506,0.0579529,0.1616592,0.0622482,0.2247772,0.0194778   c0.0764923-0.0015945,0.1484222-0.0110626,0.2123032-0.0290222c0.2337875-0.0657043,0.1925125-0.3493958,0.0436249-0.3277588   c0,0-0.0661545-0.005661-0.1482925-0.0226974c0.0243378-0.2387314,0.0691605-0.6953354,0.0997009-1.1077271   c0.0437927-0.5910187,0.0802841-1.0904961,0.1128464-1.4976616c0.0024109-0.0300865,0.0044403-0.0559998,0.0067596-0.0850792   c0.2145996,0.3251801,0.4455719,0.5860977,0.6602402,0.7619705c-0.0390015,0.3061066-0.0689087,0.6105957-0.0431213,0.8513641   c0.0289917,0.2708054,0.3738785,0.30513,0.3914185,0.1289825c0,0,0.1456833-0.3390503,0.189949-0.6784363   c0.0442581-0.3393555,0.0919495-0.6709175,0.1460648-0.9944c0.0541306-0.323452,0.1177826-0.6382332,0.1741409-0.9477158   c0.0563507-0.3094559,0.1118317-0.6052971,0.1617813-0.8757401c0.0125732-0.0680923,0.0266342-0.12854,0.0399551-0.1927757   c0.1535645-0.1181183,0.3803253-0.3055153,0.5871658-0.5294571c0.1232834-0.1334839,0.2468414-0.2753563,0.3706131-0.4210663   c-0.0087509,0.094265-0.0167542,0.1895332-0.0236282,0.2886391c-0.0263748,0.3806877-0.0464325,0.8127899-0.0607529,1.295414   c-0.2393951,0.5598755-0.3607712,0.9647789-0.4422226,1.3266029c-0.0854645,0.379734-0.1195602,0.7184525-0.1001282,1.0182266   c0.0194244,0.2997818,0.0840836,0.565155,0.2393265,0.7987671c0.1552429,0.2336426,0.3452377,0.4070206,0.567543,0.4910126   c0.2222977,0.0840225,0.4444199,0.0871887,0.6375732-0.0047607c0.1931305-0.0919495,0.3635559-0.236084,0.47258-0.3764648   c0.1090393-0.1403809,0.0129166-0.2486496-0.0719147-0.1733475c0,0-0.2060776,0.0958328-0.350975,0.1468124   c-0.1448822,0.0509796-0.249382,0.0153427-0.3168259-0.0317764c-0.0432358-0.0302124-0.0790176-0.085907-0.1158752-0.1568527   c0.1308517,0.051033,0.2424622-0.0415649,0.2580414-0.2562866c0,0,0.5430222-0.7784424,0.6564026-1.4931602   c0.0915375-0.5770912,0.1773148-1.0902596,0.2569199-1.545166c0.0764618-0.1161385,0.1550217-0.2335892,0.2364578-0.3518143   c0.4225464-0.6133232,0.8967133-1.2170753,1.4184265-1.8155022c0.5217285-0.5984268,1.1071701-1.177784,1.4855652-2.027504   c0.2100601-0.4716606,0.4443436-0.7932854,0.6942062-1.0508347c-0.119606,0.4753647-0.2313461,0.9443207-0.3269272,1.3676491   c-0.0879745,0.3896675-0.1566925,0.7137909-0.2138138,0.9994164c-0.2658463,0.2975426-0.5245819,0.6137657-0.7790298,0.9475136   c-0.469017,0.6151543-0.9080353,1.2994804-1.2253342,1.8107185c-0.3173065,0.5112877-0.4756241,0.8151321-0.6192322,1.131279   c-0.1436157,0.3161201-0.2676773,0.6466026-0.3815231,0.9868088c-0.1138535,0.34021-0.2145996,0.6916351-0.2290039,0.9890747   c-0.0143814,0.2974319,0.013382,0.4914246,0.1287766,0.6555252c0.1153793,0.1641083,0.2792282,0.2506027,0.4421463,0.2678986   c0.1628952,0.0172653,0.3295364-0.0147247,0.4513245-0.0659027c0.121788-0.0511856,0.0639114-0.3688278-0.017128-0.3540573   c0,0-0.1616058-0.0285416-0.2503433-0.0456238c-0.0887299-0.0170898-0.1079254-0.0381699-0.0585327-0.0431061   c0.0494156-0.0049438,0.0811157,0.0094452,0.1530991-0.0161591c0.0719604-0.0256348,0.2131958-0.3269806,0.3559799-0.623703   c0.1427765-0.2967377,0.2941589-0.5769577,0.4549789-0.8400688c0.1608276-0.2631073,0.3236237-0.5131683,0.4912872-0.7350998   c0.1025772-0.1357765,0.336731-0.4096146,0.6236649-0.718399c-0.0160904,0.3282928-0.0138321,0.6511536,0.04039,0.8958359   c0.0648651,0.2927551,0.1576767,0.4743118,0.418457,0.5544205c0.2221985,0.0682487,0.2924576-0.0191956,0.3214111-0.1353607   c0.049202-0.006279,0.0968475-0.0311394,0.1523819-0.0964546c0.1318741-0.1550751,0.2417068-0.4446869,0.3546295-0.8598862   c0.1129379-0.4151459,0.1906433-0.6664162,0.2901077-0.9747124c0.099472-0.3082695,0.2126389-0.6696587,0.3469467-1.0819206   c0.0148087-0.0454483,0.0301895-0.0939827,0.0452271-0.1407166c0.0496597-0.0407906,0.0999451-0.0836372,0.1492233-0.1232414   c0.4906387-0.3944321,0.9552612-0.7421532,1.4072952-1.0472603c0.452034-0.3051567,0.8781433-0.5617256,1.3102112-0.7976074   s0.8736649-0.4430923,1.3215561-0.6291542c0.4478989-0.1860847,0.9020767-0.3536911,1.3656082-0.5273705   c0.4635239-0.1737099,0.9077988-0.3286552,1.4101639-0.4915771c0.5023575-0.1629257,1.0796585-0.3506813,1.734848-0.5389557   c0.6551971-0.188324,1.3847961-0.4072189,2.1952438-0.5647392s0.94944-0.1921577,1.0731964-0.2291641   s0.2450409-0.0750656,0.3640137-0.1153145c0.1189728-0.0402756,0.2355194-0.0839195,0.2931671-0.1083412   c0.1137161-0.0468369-0.0053787-0.1822243,0.0507202-0.2046127c-0.0554352,0.0206871-0.1684799,0.0567436-0.2834091,0.0884209   c-0.1149597,0.0316544-0.2327194,0.0552788-0.3527679,0.0716209c-0.120079,0.0163383-0.2422638,0.0249863-0.7191467,0.0325508   c-0.4768829,0.0075684-1.2905731-0.1400452-2.0422974-0.2166824c-0.7517548-0.0766373-1.44133-0.0940323-2.0720291-0.0774345   c-0.630722,0.0165977-1.2008896,0.0824547-1.7261505,0.1783905c-0.5252686,0.0959625-1.0754929,0.2197456-1.6083984,0.4035912   c-0.5329208,0.1837959-1.0561066,0.3985481-1.563179,0.6545029c-0.3710403,0.187294-0.7472458,0.3708572-1.1262894,0.5805893   c0.2682419-0.8136139,0.5017548-1.5508003,0.7047195-2.215313c0.3464355-0.2034798,0.6998215-0.4048004,1.0660629-0.6032639   c0.606102-0.3284187,2.5896912-1.2290192,4.2244415-1.9790192c1.6347427-0.75,2.9087448-1.369915,3.8308868-1.8409805   c0.9221115-0.4710922,1.4888611-0.8016243,1.7105103-0.9695168c0.2216187-0.167942,0.3175049-0.212307,0.4016876-0.2336159   c0.0841751-0.0213089,0.1451111-0.0159798,0.1892471,0.0128174c0.044136,0.0287704,0.0778427,0.0867233,0.0916367,0.1255836   c0.0194092,0.0942383,0.0979767,0.0303917,0.1035614,0.0857468c-0.0033264-0.0588799-0.0264587-0.1591949-0.077179-0.2334366   C90.8139038,48.9706001,90.7351074,48.929245,90.6377029,48.9239464z M46.3197098,61.5495377   c0.0084305,0.0089798,0.0161095,0.0139961,0.0244217,0.0222321c-0.0148354,0.0459366-0.0231094,0.0913048-0.0300293,0.1423645   c-0.0044785,0.0329895-0.0060501,0.0694809-0.0045433,0.1202278c-0.0229416-0.1515999-0.0304718-0.2460442-0.0335693-0.3352127   C46.2905006,61.5151558,46.3052368,61.5340958,46.3197098,61.5495377z M40.6693306,50.0291061   c-0.2555542-0.513607-0.5330353-1.0310707-0.8069153-1.5626907c0.617897,0.8197937,1.209259,1.5847168,1.7723999,2.2915115   c0.7948685,0.9976425,1.4911118,1.9224319,2.0531502,2.7843742c0.4825172,0.7400169,1.1734314,2.17239,1.7739296,3.6275902   c-0.0530128-0.032093-0.1044426-0.0635414-0.1610947-0.0969429c-0.3671532-0.2162971-0.7931213-0.4441223-1.2854042-0.6725655   c-0.2213173-0.1027069-0.4567223-0.207653-0.7005806-0.3121071c-0.0807266-0.0972481-0.1645966-0.1972771-0.2514496-0.2999344   c-0.0268784-0.0876236-0.0546074-0.1772308-0.0839958-0.2699013c-0.1727791-0.5449486-0.3836327-1.12397-0.6302719-1.7378616   c-0.2466393-0.6138954-0.5291748-1.2626038-0.835659-1.9519234C41.2069702,51.1393356,40.9469376,50.5870247,40.6693306,50.0291061   z M40.7612534,57.1086922c0.6883163,0.3608742,1.1870193,0.6190643,1.6253777,0.8297539   c0.0814514,0.3999634,0.186512,0.9244003,0.3150291,1.5663948c-0.2486076-0.2003136-0.5185738-0.4121361-0.8135796-0.6357918   c-0.716301-0.543045-1.5711708-1.1541595-2.5619926-1.8391266c-0.1901627-0.1314774-0.3579788-0.2476425-0.509346-0.3519974   c-0.1525917-0.3317146-0.3136101-0.6648712-0.4837418-0.9994698c0.0356293,0.0230331,0.070076,0.045166,0.1065521,0.0688667   C39.1043358,56.1791954,39.9328537,56.6743736,40.7612534,57.1086922z M32.6884613,53.2405167   c0.2130661,0.017704,0.4526138,0.0461426,0.689743,0.083252c0.4884644,0.0764046,0.9616394,0.2158585,1.4200211,0.3948898   c0.4583664,0.1790619,0.9122543,0.3689537,1.2027054,0.5406532c0.1972656,0.1166306,0.3579407,0.2086029,0.5575218,0.3247948   c0.0973015,0.2054367,0.1865616,0.3982391,0.26828,0.5774269c0.0647354,0.1419487,0.1273842,0.2767715,0.1890297,0.4082718   c-0.4559479-0.23526-0.9862137-0.4862213-1.6021767-0.7376709c-0.5872192-0.2397156-1.2434196-0.4995308-1.9691277-0.7760696   C33.2035713,53.7926483,32.9495735,53.5192451,32.6884613,53.2405167z M36.587326,57.8560677   c-0.2967033-0.4204445-0.6778297-0.9279785-1.1303291-1.4843025c-0.1062317-0.1306-0.216938-0.264576-0.3306847-0.4007607   c0.4049416,0.2258453,0.7701874,0.4323883,1.0921631,0.6187057c0.566349,0.3277512,0.9912338,0.6091805,1.6706467,1.0930634   c0.0729332,0.05196,0.1495056,0.1076202,0.2270927,0.164341c0.1259956,0.2663765,0.2482719,0.5296364,0.3661346,0.7896309   c0.2017822,0.445076,0.3927078,0.8765373,0.5562744,1.2604408c-0.2079353-0.0840492-0.4064751-0.1672707-0.5985794-0.2426758   c-0.3219643-0.1263542-0.6217422-0.2270775-0.9078178-0.3145218c-0.0315514-0.0540962-0.0615692-0.1105576-0.0934792-0.1641083   C37.1657066,58.7177582,36.8840446,58.2764893,36.587326,57.8560677z M31.5049782,63.0252686   c-0.2036095-0.304306-0.4313316-0.6372566-0.6957016-1.0041008c-0.5085735-0.7057114-1.1447906-1.5281792-1.9267273-2.4541016   c-0.7819386-0.9259186-1.6986847-1.963707-2.7374249-3.1228065c-0.1819668-0.2030449-0.3346748-0.373764-0.4657383-0.520607   c0.4042854,0.1171188,0.9814415,0.2715759,1.5972633,0.4326973c0.570055,0.1491585,1.1626511,0.3835945,1.7208023,0.7700729   c0.3019028,0.3713722,0.6139183,0.7584953,0.9078045,1.1263924c0.075737,0.0948067,0.1458359,0.1836929,0.2190628,0.2758446   c-1.262886-0.1377296-0.5704517,0.1475372-1.6248264-0.0700226c0.5190239,0.1215172,1.2501736,0.320137,1.9850693,0.5257034   c0.4105396,0.5225601,0.7784882,1.0024261,1.0929241,1.4360504c0.4561405,0.6290245,0.823267,1.1537476,1.0221539,1.4747581   c0.1988754,0.3210335,0.3120537,0.4878693,0.4425774,0.6907578c0.1168594,0.1816101,0.2475662,0.3935051,0.390789,0.6318321   c-0.3136864-0.0273323-0.6055908-0.0555878-0.8709908-0.0812187   C32.1508446,63.0967865,31.8015919,63.0597801,31.5049782,63.0252686z M36.6226349,67.7261581   c-0.0882568-0.0794449-0.1558609-0.1416168-0.2234268-0.2447052c-0.0675774-0.103096-0.1205406-0.1478729-0.1975861-0.2941208   c-0.0770645-0.1462479-0.2231293-0.4452286-0.4226608-0.8837662s-0.4533615-1.0134964-0.7593956-1.7308884   c-0.0397072-0.0930862-0.0774078-0.1796036-0.1136055-0.2612305c0.0126381,0.0009995,0.0243988,0.0019531,0.0368004,0.0029297   c0.1918259,0.3378677,0.3855667,0.6897888,0.5797577,1.0608521c0.4106789,0.7847366,0.8367119,1.6377792,1.2553596,2.4342804   C36.7169495,67.7904129,36.6641159,67.7634964,36.6226349,67.7261581z M37.8764343,63.8107605   c-0.8344612-0.2073669-1.0111389-0.2440643-1.1807137-0.2761841c-0.1569405-0.029747-0.3068047-0.0555573-0.4522934-0.0794144   c-0.1698723-0.3694916-0.3431931-0.7247314-0.5206718-1.0617981c-0.4961319-0.9422874-1.0239296-1.7548218-1.5846558-2.4348259   c0.3278427,0.0687103,0.620018,0.1236801,0.8760757,0.1724434c0.5173759,0.0985107,0.887394,0.1655502,1.0947495,0.214447   c0.2073669,0.048893,0.2871704,0.0789528,0.5664902,0.1544037c0.2793312,0.0754547,0.5830879,0.1706696,0.92062,0.2964363   c0.0537987,0.0200462,0.1100273,0.0416603,0.1656265,0.0628662c0.1303825,0.3257217,0.2558479,0.6611671,0.3792953,1.013855   c0.1920319,0.5485802,0.3672829,1.1647606,0.5097466,1.8612862c0.0204086,0.0997467,0.0369034,0.2051544,0.0548515,0.308403   C38.4296837,63.9587822,38.1534004,63.8795738,37.8764343,63.8107605z M40.3619843,64.636673   c-0.1294823-0.0540161-0.2596207-0.1035004-0.3895798-0.1541977c-0.0461807-0.1070557-0.0919991-0.213028-0.13657-0.3171997   c-0.3107948-0.7263794-0.5901031-1.3841476-0.8615456-1.9649429c-0.1718292-0.3676682-0.3284874-0.7063332-0.4835358-1.0327454   c0.0700722,0.0332489,0.1400719,0.0662155,0.2115364,0.1030159c0.3942337,0.2030182,0.8159447,0.4392052,1.0584641,0.5825195   c0.0320282,0.0189171,0.0661125,0.0412521,0.0992584,0.0620461c0.0662918,0.1655502,0.131115,0.3279076,0.1992722,0.4954872   c0.1553955,0.3820534,0.3123627,0.7705917,0.5009308,1.0717087c0.1885834,0.3011398,0.2589645,0.5066833,0.300808,0.6433296   c0.0031776,0.0103989,0.0053024,0.0172424,0.0081711,0.026741c-0.0522003,0.0027542-0.1054573,0.0523911-0.0820656,0.0873108   c0,0,0.0594444,0.1092987,0.1546249,0.155365c0.0951767,0.0460358,0.159668-0.058754,0.1559753-0.1756363   c-0.0037041-0.1169128-0.0309334-0.2929611-0.0348701-0.5496368c-0.0035133-0.2293701-0.0505791-0.5961876-0.1301117-0.9643669   c0.1910362,0.1537094,0.3937988,0.3229141,0.6070061,0.5086632c-0.0238419,0.0354881-0.0451889,0.0729294-0.0581207,0.1146736   c-0.0339317,0.1095238-0.0529099,0.229496-0.0468864,0.4300461c0.0060349,0.2005196,0.0477219,0.4664879,0.1051102,0.7631493   c0.0443916,0.2294769,0.1025276,0.483139,0.170517,0.748764C41.264782,65.0385971,40.8154602,64.8258743,40.3619843,64.636673z    M43.2220573,62.4268951c-0.4625359-0.4183617-0.8861084-0.7540398-1.2749672-1.0509644   c-0.3888474-0.2969208-0.7577095-0.5389252-1.1033592-0.7343025c-0.1880417-0.1062813-0.367382-0.194706-0.5667229-0.2789574   c-0.0166473-0.0510063-0.0321159-0.1029663-0.0491524-0.1536598c-0.0944557-0.2810478-0.2225227-0.6468582-0.367588-1.0392838   c0.1341667,0.1024246,0.2673531,0.2038193,0.3970795,0.3015556c0.7898026,0.5951309,1.4538879,1.0978279,1.9960213,1.5015984   c0.3510284,0.2614098,0.6428947,0.4881783,0.8853111,0.6811371c0.0633049,0.3075752,0.1246414,0.6049614,0.1803589,0.8753242   C43.2821465,62.486599,43.2493248,62.4515762,43.2220573,62.4268951z M45.6609383,62.4661674   c-0.361412-0.4914474-0.6886902-0.8866272-0.9737625-1.1828804c-0.1856842-0.1930046-0.3858223-0.3906708-0.6272202-0.6140442   c-0.0011597-0.0074387-0.0023422-0.0150795-0.0035019-0.0224686c-0.1290703-0.8248329-0.2424278-1.518425-0.3410301-2.0875931   c0.0871735,0.0410233,0.1727943,0.0813484,0.2540092,0.1197929c0.0921936,0.0436211,0.1798439,0.0860062,0.2630959,0.1270256   c0.1186981,0.150856,0.228611,0.2940674,0.3655815,0.4708366c0.2609596,0.3367577,0.5351181,0.706562,0.827076,1.1112595   c0.1606445,0.2226524,0.3257179,0.4546204,0.491024,0.6723862c-0.0094719,0.0777664-0.0171776,0.1577492-0.023098,0.2421341   c-0.0132256,0.18853,0.0142975,0.3918037,0.0637436,0.8455505c0.0264702,0.2428284,0.0700378,0.5623474,0.1298447,0.9219055   C45.9403992,62.8560677,45.7973824,62.6516838,45.6609383,62.4661674z M47.4750519,63.275486   c-0.0843048-0.2052307-0.1795082-0.4127274-0.2774925-0.6252403c-0.0979691-0.2125168-0.1966362-0.4308472-0.3510818-0.632164   c-0.0816154-0.1063881-0.1290169-0.1708527-0.1600647-0.2156296c0.0352287,0.0026512,0.1448059-0.1015205,0.1553574-0.0881653   c-0.0126228-0.0166245-0.0384979-0.0502853-0.0675926-0.0828629c-0.0108604-0.0121498-0.0243187-0.0233688-0.0360413-0.0352058   c-0.0045929-0.0336609-0.0152092-0.0703049-0.0404282-0.1118431c0,0-0.0620041-0.2512169-0.1781464-0.5555   c0.128479,0.2353935,0.2758331,0.51371,0.4451523,0.8450127c0.1891098,0.3700066,0.4067726,0.794445,0.6015778,1.1749763   c0.1533012,0.4640923,0.2961922,0.9049759,0.4293022,1.3225365c0.0000114,0.0005417,0.0000267,0.0010834,0.0000381,0.0016251   c0.0025482,0.1367264,0.0043755,0.2707977,0.006073,0.3993683c-0.0482788-0.1332474-0.0994759-0.272934-0.1539955-0.4215012   C47.6418762,63.6899109,47.5593719,63.48069,47.4750519,63.275486z M48.9611435,67.6849823   c-0.060627-0.143959-0.1198959-0.3017349-0.1789169-0.4726334c-0.0244598-0.0708008-0.0494347-0.1452179-0.074501-0.220726   c0.005703,0.0026474,0.0120583,0.0065384,0.0175018,0.0087738c0.0278816,0.0114059,0.070755,0.0164719,0.1168976,0.0179367   c0.1100273,0.3716049,0.2085114,0.719841,0.2964592,1.0686722c-0.0107574-0.0209198-0.0210915-0.0423355-0.0316162-0.0663147   C49.08395,67.9681931,49.0217743,67.8289642,48.9611435,67.6849823z M69.2076035,53.308403   c0.0460129-0.0876999,0.0945892-0.1707458,0.1417236-0.2564163c-0.0639038,0.1781845-0.1175156,0.3334656-0.1650772,0.475338   C69.1919708,53.4556313,69.1997604,53.3826981,69.2076035,53.308403z M72.390686,49.0307426   c0.5153275-0.5550117,1.0654373-1.0985451,1.6492996-1.6338463c-0.0718689,0.199749-0.1399612,0.4024353-0.1987839,0.5625267   c-0.0825043,0.2245331-0.1566238,0.5172844-0.2796326,1.0450974c-0.1230087,0.5278091-0.3064728,1.2956696-0.5437927,2.3063087   c-0.1550064,0.6601372-0.3478394,1.4198647-0.5247498,2.0983238c-0.0667801,0.0661621-0.134552,0.1318626-0.2003403,0.1984634   c-1.0628357,1.0763626-2.0265503,2.184021-2.7383118,3.1630821c-0.0734406,0.1010094-0.1421967,0.1987991-0.2099915,0.2959709   c0.0001297-0.000824,0.0002823-0.0016975,0.000412-0.0025215c0.0756454-0.4840622,0.14077-0.9171219,0.1931992-1.2967262   c0.0524368-0.3796082,0.076767-0.5979881,0.110939-0.8299065c0.0341797-0.2318916,0.078392-0.4707832,0.1268616-0.7179604   c0.0484543-0.2471809,0.1015472-0.5025177,0.1539917-0.7675285c0.0524368-0.2649841,0.15522-0.731678,0.2719345-1.1567039   c0.1064224-0.3876114,0.2133484-0.745163,0.3291702-1.0725822c0.0414734-0.0554848,0.0816956-0.113102,0.1236038-0.1678391   C71.1816635,50.3664818,71.7736893,49.6952553,72.390686,49.0307426z M62.8244133,58.0667038   c-0.0699425,0.1850815-0.1693192,0.4428902-0.3156815,0.7743721c-0.0373268,0.0845375-0.0760193,0.1745834-0.116127,0.269516   c-0.0005913-0.2290878,0.0109253-0.4884872,0.0228806-0.7193756c0.0041046-0.0792122,0.0080795-0.1535835,0.0120277-0.2257156   c0.0646591-0.0893784,0.1288528-0.1771812,0.1921577-0.2627754c0.0937386-0.1267166,0.1849403-0.2475128,0.2750244-0.3655815   c-0.0040932,0.1299591-0.0114403,0.2604065-0.0145416,0.3901825   C62.8616638,57.9735222,62.8425179,58.0187874,62.8244133,58.0667038z M62.4676857,57.3357201   c-0.0017128-0.099926,0.0362206-0.3467178,0.0882416-0.5759087c0.0520096-0.2292404,0.1370125-0.4448929,0.2535858-0.6472435   c0.0585327-0.1015701,0.1165771-0.2083435,0.1697578-0.3018379c-0.018219,0.2527122-0.0344582,0.5046501-0.0477638,0.7560005   c-0.0084801,0.1601181-0.0114899,0.3194389-0.0181808,0.4793015c-0.0014153,0.0019035-0.002739,0.0037041-0.0041695,0.0056076   c-0.1439552,0.1931114-0.2951317,0.3991394-0.4511719,0.6166458C62.4660645,57.5317917,62.4691124,57.418354,62.4676857,57.3357201   z M63.7292213,50.9543304c-0.2362404,0.9398422-0.4257126,1.908741-0.5493393,2.8566399   c-0.0641823,0.4921417-0.115303,0.9725494-0.1567726,1.4472694c-0.123951,0.0862389-0.2945023,0.2066994-0.4589844,0.3381004   c-0.2202988,0.1759949-0.398407,0.3954849-0.5626411,0.6351471c-0.1635284,0.2386856-0.2871056,0.5086899-0.3643341,0.7094688   c0.0259018-0.1414871,0.0518799-0.2852135,0.0779228-0.4356537c0.2427788-1.402523,0.5150337-3.1882782,0.9327774-5.3304291   c0.3198776-1.6402512,0.4223137-2.169323,0.4731903-2.4405632c0.2217026-0.2693863,0.3143196-0.4459763,0.3449936-0.5720749   c0.1084213,0.8812714,0.2064056,1.813343,0.2891769,2.6935081C63.7467842,50.8887863,63.737545,50.9212112,63.7292213,50.9543304z    M63.4019318,47.6447678c-0.0266342,0.0196114-0.0534744,0.0398636-0.0808067,0.0614052   c0.0188904-0.0836639,0.0382919-0.1662445,0.057518-0.2494202C63.3862343,47.5187225,63.3942108,47.5822334,63.4019318,47.6447678z    M60.7140465,54.6814575c-0.49366,1.6021156-0.8663063,2.8403473-1.077404,3.7231407   c-0.0043907,0.0183716-0.0081711,0.0342255-0.0124817,0.0522385c0.0083122-0.2097588,0.0172653-0.4022255,0.0279579-0.5761414   c0.0217476-0.3536377,0.039875-0.6305389,0.0543785-0.8360291c0.0144882-0.2054634,0.0737648-0.7403488,0.128788-1.375679   c0.0550194-0.6353302,0.1198311-1.3667488,0.1889534-2.195652c0.0276375-0.3314323,0.0597038-0.6823463,0.0942268-1.0441971   c0.3473091-0.5215302,0.7579651-1.0690041,1.2307816-1.6428261c0.2339249-0.2839012,0.4877167-0.5697594,0.7321777-0.8417168   C61.7631302,51.1954117,61.1967316,53.114933,60.7140465,54.6814575z M57.4724236,63.0603981   c0.0019684-0.1229057,0.0043373-0.2467422,0.0080795-0.3701897c0.0025597-0.0844345,0.0056114-0.1627159,0.0084686-0.2435226   c0.0121193,0.2035065,0.0261955,0.4152756,0.0419731,0.6334229C57.5117455,63.0716705,57.4922256,63.0649796,57.4724236,63.0603981   z M61.0633774,59.5731926c-0.0149765,0.0933647-0.029686,0.1925163-0.0437088,0.2944527   c-0.0184402,0.0306473-0.0366592,0.061142-0.0550232,0.0917664C60.9931984,59.8463631,61.0252647,59.7211647,61.0633774,59.5731926   z M62.9495621,62.181572c0.0039215,0.035511,0.0088272,0.0671921,0.0132904,0.1005173   c-0.0233803,0.0269165-0.0480843,0.0538864-0.0710258,0.0807533C62.907692,62.3126869,62.9272499,62.2515182,62.9495621,62.181572z    M63.2280464,46.1965179c-0.051548,0.1333313-0.0996704,0.2618484-0.1389008,0.376236   c-0.1154327,0.3365822-0.1937943,0.5762711-0.2707138,0.8181458c-0.0769196,0.2418785-0.1544075,0.4854279-0.2387505,0.7291298   c-0.0397835,0.1149559-0.0784912,0.2320747-0.1408806,0.4531822c-0.2921257,0.3303795-0.5872841,0.6976585-0.8603516,1.0592232   c-0.506424,0.6705627-0.9669266,1.2925339-1.3690529,1.8819008c0.0274849-0.2645493,0.0562286-0.5347061,0.086956-0.8135376   c0.112381-1.0197754,0.1157646-1.0986748,0.1425056-1.3309555c0.0267372-0.2322769,0.0836487-0.6336823,0.1778107-1.1957436   c0.094162-0.5620384,0.2568283-1.276886,0.4577599-2.1570244c0.0264549-0.1159096,0.0516891-0.2300644,0.076149-0.3434525   c0.0990906-0.1891975,0.1978836-0.3772621,0.2952118-0.5634766c0.3050652-0.5837593,0.8463898-1.5422058,1.3279915-2.3172455   c0.0138474-0.0222893,0.0272026-0.0429001,0.0409698-0.0648766C62.9468079,43.7346458,63.0752068,44.8918915,63.2280464,46.1965179   z M62.2989197,39.4620285c0.0026245-0.0146675,0.005249-0.030262,0.0078735-0.0450363   c0.0728683,0.4929695,0.1727028,1.1392593,0.2968483,1.8743858c0.0320396,0.1897659,0.0630722,0.38797,0.0935669,0.5927124   c-0.3329239,0.374279-0.6969337,0.7960663-1.0631714,1.2145576C61.8115768,42.1095734,62.0419121,40.9008865,62.2989197,39.4620285   z M59.3770332,49.3407898c-0.0381775,0.1692543-0.0771904,0.363987-0.1317711,0.6573334   c-0.1043015,0.5606956-0.2999229,1.5323219-0.495697,2.4044075s-0.3727608,1.6474075-0.5389519,2.3242722   c-0.0528069,0.2151108-0.1026039,0.4189529-0.1494522,0.6109581c-0.0541077-0.2822304-0.111908-0.5704536-0.1743889-0.8655739   c-0.0007973-0.1773872-0.0031013-0.2879677-0.0064354-0.4006844c-0.005558-0.188633-0.0141258-0.3887939-0.029541-0.6005096   c-0.0154037-0.2117157,0.0080147-0.4357605-0.032608-0.6745987c-0.000576-0.0033722-0.0012207-0.0079536-0.001812-0.0115547   c0.1401482-0.3491898,0.2939377-0.7120934,0.4661522-1.089386C58.7929916,50.5770912,59.1117134,49.9077415,59.3770332,49.3407898z    M54.3581581,44.6593323c0.0632553-0.4385643,0.1325455-0.8748398,0.1964188-1.3106499   c0.0638733-0.4358368,0.1387978-0.8687401,0.2086678-1.2967529c0.0698547-0.4280396,0.2633362-1.3762436,0.4369926-2.206974   c0.1736679-0.8307571,0.3369408-1.5386543,0.4908295-2.1230812c0.1538811-0.5844536,0.2983246-1.0446091,0.4365959-1.3839417   c0.1382713-0.3393555,0.4501724-1.1048775,0.7526398-1.7562637c0.3024826-0.651413,0.5937424-1.1940727,0.8709793-1.6292915   c0.0216789-0.0340462,0.0430527-0.0661354,0.0645256-0.0987663c-0.0271873,0.5429688,0.0688934,1.2666664,0.0473404,1.9076843   c-0.0248718,0.7395287-0.0527153,1.3689117-0.2203522,1.8828773c-0.1676331,0.5139656,0.0759163,0.9320984,0.053566,1.1937637   s-0.295311,0.5776825-0.2132454,1.1477776c0.0820656,0.5700912,0.0181046,1.3593102-0.0751457,2.3746834   c-0.0932465,1.0153732-0.2017441,2.2579803-0.2903976,3.1002655c-0.0886688,0.8422852-0.1079445,1.1152229-0.1272316,1.3620148   c-0.0192757,0.2467918-0.0379944,0.4676437-0.0495644,0.6629944c-0.0115547,0.1953468-0.0185394,0.3652458-0.0239334,0.5068359   c-0.0054016,0.1415901-0.0097504,0.2982597-0.0120811,0.4842682c-0.002327,0.1860085-0.017189,0.4016609-0.0261574,0.6474762   c-0.0089684,0.2458115-0.0177307,0.5217896-0.1665802,0.6822433c-0.1488457,0.16045,0.1355171,0.299469,0.1376534,0.5675697   c0.0021362,0.2681236,0.0069885,0.6742134,0.0138435,1.2193413c0.0005417,0.0429764,0.0011597,0.0881157,0.0017662,0.1326599   c-0.0230598,0.056488-0.0457687,0.1121788-0.0690727,0.169075c-0.0831871-0.1729584-0.1707077-0.3460999-0.2682915-0.5194206   c-0.543602-0.9653702-0.7800102-2.0667496-1.1253128-3.8981056c-0.345314-1.831356-0.3851662-1.9284782-0.4201622-2.0224609   c-0.0350113-0.0939827-0.063797-0.1827393-0.0852089-0.2663231c-0.0214233-0.0835838-0.0385094-0.1614571-0.0483932-0.1980247   c-0.0120659-0.0724182-0.1076965-0.0305748-0.1098824-0.0664482c-0.0010567,0.0365944-0.0051994,0.1143913-0.00597,0.1986694   c-0.0007744,0.0842552-0.000351,0.175148-0.0024834,0.2734032c-0.0021515,0.0982513-0.0053558,0.2037621,0.1986923,1.1699829   c0.2040482,0.9662476,0.5595436,2.8001518,0.6193733,3.9312782c0.0598335,1.131073,0.2368584,2.1623497,0.431591,3.1234779   c0.0081329,0.0401459,0.0163155,0.0784874,0.0244598,0.1184273c-0.1351051,0.2933464-0.2719078,0.576683-0.4096107,0.8415642   c-0.2547836,0.4901352-0.4775276,0.9304504-0.6726341,1.3262444c-0.2716103-0.2774658-0.2952728-0.5260086-0.322155-0.7354889   c-0.0270958-0.2112236-0.1588821-1.1945343-0.2992744-2.1947479c-0.1226768-0.8739891-0.2490959-1.7640648-0.3762245-2.665947   c0.0470314-0.7569771,0.1270103-1.6429329,0.2147141-2.6616249C54.2360229,45.528019,54.2949181,45.0978432,54.3581581,44.6593323z    M53.8147278,55.5897522c0.0244331,0.3376083,0.2219963,0.7130699,0.2092705,1.0056953   c-0.0106773,0.245739-0.086647,0.4104881-0.1063728,0.5613708c-0.0285263,0.0766106-0.0496407,0.1361084-0.0623398,0.174015   c-0.0477753,0.142643-0.1304741,0.4034348-0.2418518,0.7882156c-0.0459862,0.1588821-0.097805,0.3425217-0.1545715,0.5485268   c-0.032093-0.0651321-0.0823402-0.1418724-0.06036-0.1543045c-0.0497704,0.0279236-0.1365738,0.1019592-0.1890717,0.207756   c-0.0525093,0.1057663-0.0711823,0.2324295-0.0667305,0.3778534c0.0038757,0.1270523,0.030304,0.2709579,0.0809631,0.4465179   c-0.0125351,0.0479698-0.0248985,0.095089-0.0377541,0.1446266c-0.1723442,0.6642532-0.3482628,1.4781532-0.4738197,2.0316734   c-0.0009766,0.0043221-0.0017242,0.0080032-0.0027008,0.0123024c-0.0037346-0.0355148-0.0068092-0.0652885-0.0093956-0.0864677   c-0.0047073-0.0385513-0.0077438-0.1554375-0.0085831-0.2640877c-0.0005264-0.0679131-0.0017471-0.1339188-0.0153503-0.2004166   c-0.0055199-0.2631073-0.0148735-0.5313911-0.029232-0.7990532c0.0085297-0.0801086,0.0164032-0.156105,0.0239563-0.2323036   c0.0237541-0.2397156,0.0484581-0.4905205,0.0825195-0.7513885c0.0340576-0.2608681,0.0707703-0.5324936,0.0946999-0.8113785   c0.0239334-0.2788582,0.2288437-1.4462166,0.3806648-2.4319191c0.1518173-0.9857025,0.2627068-1.7837219,0.3371811-2.3938828   c0.0744896-0.6101608,0.117775-1.0333862,0.1348114-1.263092c0.0170364-0.2297287,0.0507851-0.5427361,0.0879478-1.0281868   c0.0161476-0.2108955,0.0331192-0.4535179,0.0507088-0.7243462c0.0141411,0.088089,0.0296059,0.1766167,0.0431938,0.2645493   c0.1556435,1.006855,0.2745209,2.0006104,0.3294525,2.5888977c0.0549278,0.5882874,0.0667419,0.8079796-0.1896133,1.0817184   C53.7659988,54.9564056,53.7902794,55.2521439,53.8147278,55.5897522z M53.3565674,48.2280655   c-0.011879,0.1352844-0.0239334,0.2689476-0.0363503,0.3987007c-0.0787468,0.8228531-0.1575699,1.5091896-0.2321358,2.0615997   c0.0507584-0.6068382,0.1130104-1.2369461,0.1765099-1.831665c0.0254135-0.2380142,0.0512009-0.46875,0.077282-0.6950836   C53.3468895,48.1837997,53.3516006,48.2059059,53.3565674,48.2280655z M51.727623,67.9980392   c-0.192276,0.2755127-0.3415184,0.4100494-0.4090996,0.4132462c-0.0675774,0.0031891-0.0919991-0.0579071-0.1601448-0.2533798   c-0.0681305-0.1954575-0.0989876-0.267952-0.1056786-0.3443832c-0.006691-0.0763779-0.0194283-0.2052002-0.0448647-0.3773651   c-0.0254288-0.1721878-0.0496941-0.3888474-0.0731888-0.6406555c-0.02351-0.2518387-0.0328369-0.511055-0.0345879-0.8048172   c-0.0017624-0.2937546,0.0055313-0.6106491,0.0174866-0.9505997s0.0315514-0.7029572,0.0557671-1.0907211   c0.0242157-0.3877373,0.0822983-1.3771477,0.1663857-2.5040016c0.0840721-1.1268539,0.1667824-2.401371,0.3108444-3.8159332   c0.1440582-1.4145927,0.3160667-2.972805,0.5247459-4.6731491c0.2086945-1.700367,0.284893-2.357933,0.3989754-2.939579   c0.1140785-0.5816727,0.2425575-1.093708,0.3943367-1.5341759c0.0937767-0.2721405,0.1960449-0.5165901,0.2825394-0.701622   c-0.1947441,1.0319977-0.4044685,2.1863098-0.5853806,3.2672806c-0.1854019,1.107708-0.3137245,2.1473236-0.4207306,3.3416519   c-0.0729828,0.8145943-0.1816444,1.7002678-0.213131,2.658947c-0.0448418,0.2152176-0.0874062,0.4192123-0.1262398,0.6039352   c-0.1542892,0.7340202-0.2013206,1.0195427-0.2425842,1.2954636c-0.0412521,0.275898-0.0770721,0.5421448-0.1152382,0.7978935   c-0.0381622,0.2557487-0.0635262,0.5027962-0.089016,0.8165741c-0.0254898,0.3137817-0.0498848,0.7603493-0.0667038,1.2762947   c-0.0168037,0.5159721-0.0081825,1.1032562,0.0129089,1.7621078c0.0210876,0.6588516,0.0633163,1.3897324,0.1011467,1.93396   c0.0378189,0.5442276,0.1197815,0.7996445,0.223362,0.9679718c0.0914726,0.1486359,0.2236176,0.3085785,0.3848686,0.2650604   c-0.0058937,0.1686096-0.0036545,0.2546692,0.0025749,0.3333588c0.0067558,0.085495,0.0138969,0.1695404,0.0214081,0.2520981   c0.0075035,0.0825577,0.015377,0.16362,0.0236244,0.2432175c0.0010567,0.0101089,0.0022278,0.0197372,0.0032959,0.0298004   C51.8920898,67.7480545,51.8071289,67.8840866,51.727623,67.9980392z M55.7578621,59.4982033   c0.028347-0.1134377,0.0552902-0.2214699,0.0803566-0.3212929c0.1162796-0.4630394,0.1986427-0.7741165,0.2543297-0.9722443   c0.0556908-0.1981277,0.0797882-0.3832626,0.1935883-0.7924614c0.0482635-0.1735268,0.1167564-0.4026146,0.2016258-0.6794395   c-0.0583649,0.421711-0.1205254,0.8750725-0.190239,1.3687592c-0.0411758,0.2915688-0.0850143,0.5954666-0.1282234,0.8934174   c-0.1053276,0.1377831-0.215126,0.2746887-0.3349953,0.4093819C55.8072472,59.434742,55.7840462,59.4672699,55.7578621,59.4982033z    M57.5576668,64.7243805c0-0.0000534,0.0000153-0.0000763,0.0000153-0.0001068   c0.0170097-0.1660385,0.0383415-0.3480301,0.0611687-0.5320587c0.0168304,0.1427002,0.0428467,0.278244,0.0889893,0.3973389   C57.6562042,64.6354904,57.6058693,64.6804733,57.5576668,64.7243805z M60.5438004,64.4986343   c0,0-0.1307793,0.1538925-0.2583733,0.3102798c0.0300064-0.2098618,0.0437126-0.5063705,0.0589981-0.8168297   c0.0217705-0.4423752,0.0565643-0.9135704,0.1187363-1.414566c0.0621605-0.5009956,0.1522827-1.0317383,0.2659531-1.5850258   c0.0019417-0.0094719,0.0035896-0.0171928,0.0054932-0.0264549c0.0754547-0.1488991,0.1490784-0.2953796,0.2280083-0.4489632   c-0.0009918,0.0296211-0.0033073,0.0576439-0.0037842,0.0878334c-0.0061913,0.3906212-0.0382805,0.8228035-0.0492439,1.0831833   c-0.0109634,0.2603264-0.0141525,0.3374786-0.0192375,0.4456139c-0.0050926,0.1080856-0.0124283,0.2458649-0.0236092,0.4124947   s-0.0268288,0.3618774-0.0394363,0.5599022c-0.0126228,0.197998-0.0267029,0.4083519-0.0516777,0.6729507   c-0.0182304,0.1930847-0.0415192,0.4151993-0.0689278,0.6646194   C60.6596298,64.3961105,60.5866241,64.4091873,60.5438004,64.4986343z M63.8110046,64.855957   c0.0101662-0.0397568,0.021759-0.0808792,0.0321159-0.1208191c0.0013237,0.0030823,0.0015297,0.0053024,0.0032806,0.0087509   C63.8638496,64.7784195,63.8530273,64.8338013,63.8110046,64.855957z M63.8963776,64.6872711   c-0.0196609,0.0005112-0.0323334,0.0028305-0.042038,0.0062256c0.0667419-0.2561569,0.1351852-0.513916,0.2095413-0.7776146   c0.1080246-0.3830795,0.2331314-0.7733421,0.3519821-1.1753616c0.0837021-0.1291885,0.1647797-0.2662468,0.244873-0.4126778   c-0.1513519,0.7835846-0.2536774,1.4452934-0.3282776,1.9721756C64.10746,64.5201492,63.9254189,64.6865463,63.8963776,64.6872711z    M70.1707916,60.0436668c-0.2597656,0.4709892-0.4850693,0.9166031-0.620842,1.2518959   c-0.0660477,0.163105-0.0194931,0.3033333,0.0607681,0.3835716c-0.0626755,0.1602211-0.1242523,0.3301468-0.1873322,0.5113411   c-0.104866,0.3011665-0.1708221,0.6216393-0.2324829,0.9492874c-0.0075378,0.0400925-0.0144882,0.081295-0.021965,0.1215668   c-0.0088501-0.0230064-0.0175247-0.0457535-0.0264359-0.0688133c-0.1824493-0.4717598-0.3027267-1.0447617-0.3692169-1.7175598   c0.9310989-1.3206825,1.9894104-2.7486038,2.1921844-2.9394493c0.0649796-0.0611725,0.138176-0.1173477,0.2143784-0.1726532   c-0.0419235,0.063385-0.0829697,0.127182-0.1225586,0.1911316C70.7316666,59.0801468,70.4305649,59.5726776,70.1707916,60.0436668z    M75.5698013,56.4784088c-0.8089752,0.2533035-1.4300308,0.9096565-1.9869766,1.5836906   c-0.0717697,0.086853-0.1401978,0.1741447-0.2102203,0.2612267c0.1262665-0.5816193,0.2316055-1.0947876,0.319725-1.5299568   c0.0745239-0.3680496,0.134346-0.6844292,0.1598053-0.9549484c0.1268463-0.0960922,0.2635498-0.1975365,0.4155884-0.3074989   c0.6529007-0.4721718,1.2739868-0.8971252,1.8604355-1.269062c0.4437637-0.281456,0.8714294-0.524826,1.2796783-0.736515   c-0.2066498,0.5767822-0.4154816,1.2139397-0.6138153,1.9230995c-0.0491791,0.1758423-0.0980148,0.3562393-0.1463547,0.5379753   C76.3442459,56.1714745,76.0038071,56.3425064,75.5698013,56.4784088z" />
		<path d="M76.1350403,66.5128326c0.026619-0.0032425,0.1013184-0.019249,0.1432343,0.0058746   c0.0419235,0.025116,0.2119141-0.142395,0.4102097-0.3204727c0.1982956-0.1781311,0.4325256-0.3218613,0.6499939-0.481514   c0.2174683-0.1596832,0.4427872-0.3184662,0.6538696-0.4822617c0.2110977-0.1637726,1.0160065-0.6139984,1.7579117-1.05513   c0.7419128-0.4411392,1.4204865-0.8950424,2.0807266-1.2961884s1.325264-0.6817017,1.6530151-0.7937508   c0.6598511-0.1528091,0.3084259-0.2692337,0.6405563-0.3100204c-0.335968,0.0340462-1.0454559,0.0799561-1.8130646,0.1652412   c-0.7676163,0.0852814-1.5949097,0.222084-2.449585,0.4807167c-0.8546753,0.2585754-1.6935501,0.6961365-2.2871628,1.0555954   c-0.5936127,0.3594551-0.8644943,0.5900612-1.1050415,0.8418999c-0.2405624,0.2518311-0.450737,0.5209656-0.6159515,0.814621   c-0.1652145,0.2936478-0.3154297,0.5840378-0.3994217,0.8697891c-0.0839844,0.285759-0.0444565,0.4240036,0.019722,0.5455704   c0.0641861,0.1215897,0.1243362,0.2316589,0.2162704,0.3127213c0.0919418,0.0810394,0.1990051,0.1208496,0.3146667,0.1182022   c0.1156769-0.002655,0.2426605,0.0074081,0.3622894,0.0023651s0.2314529-0.0263824,0.3315887-0.0707169   c0.1001205-0.0443192,0.1922302-0.0956802,0.2508316-0.1402817c0.058609-0.0445709-0.0327454-0.1913071-0.0726089-0.1664963   c0,0-0.0821075,0.0349426-0.159874,0.0587006c-0.0777588,0.0237503-0.1627731,0.0165405-0.2486725,0.01194   c-0.0858994-0.0045853-0.1778107-0.0229874-0.2773132-0.0591125c-0.0995178-0.0361099-0.1232529-0.0906372-0.1135635-0.0994873   C76.0873566,66.5117569,76.1084213,66.5160522,76.1350403,66.5128326z" />
		<path d="M17.0275211,70.8342743c-0.0615559-0.1647568-0.1423244-0.3776016-0.278883-0.610527   c-0.1365471-0.2329407-0.3103294-0.5004272-0.5130901-0.8151016c-0.2027493-0.314682-0.2901421-0.4255981-0.3592005-0.5087738   c-0.0690575-0.0831223-0.1407404-0.1646423-0.2148552-0.2445755c-0.0741024-0.0799332-0.1506233-0.1584244-0.2225761-0.2275696   c-0.0719404-0.0691757-0.1882601-0.1824341-0.4025106-0.3454056c-0.2142515-0.1629791-0.503891-0.3632889-0.8782606-0.6118088   c-0.3743572-0.2485123-0.8394413-0.5406036-1.4365673-0.7867203c-0.597126-0.2461243-0.6233883-0.2502441-0.7405825-0.3120804   c-0.1172066-0.0618439-0.2940273-0.159996-0.5204763-0.2959442c-0.226449-0.1359558-0.5197945-0.2850113-0.8499269-0.4875107   c-0.3301201-0.202507-0.4365444-0.2543869-0.5471888-0.2940445c-0.1106577-0.0396576-0.249752-0.0498734-0.3983421-0.063797   c-0.1485891-0.0139465-0.3120794-0.0242386-0.3967972-0.033165c-0.1608391-0.0452728-0.1339731,0.0942078-0.2100945,0.057869   c0.0752602,0.0373688,0.1908197,0.1585236,0.2830257,0.2842941c0.092206,0.1257629,0.177309,0.2236557,0.2428808,0.314827   c0.0655575,0.0911789,0.1208868,0.1582413,0.282073,0.3231506c0.1611872,0.164856,0.4047108,0.447258,0.6179075,0.6790237   c0.2131824,0.2317657,0.3965015,0.4137573,0.5477161,0.5541153c0.1512146,0.1403503,0.2768106,0.2438049,0.6411829,0.4639893   c0.3643723,0.2201767,0.873436,0.5481644,1.3319445,0.7436447c0.4585085,0.1954727,0.8173733,0.35186,1.0674725,0.4737167   c0.2500982,0.1218491,0.3810349,0.1949387,0.4637451,0.2539444s0.1511507,0.10672,0.2181883,0.1558685   c0.0670509,0.0491562,0.1313734,0.1012421,0.1938305,0.1553879s0.122714,0.1106567,0.2638283,0.2710037   c0.1411142,0.1603546,0.3711405,0.4318008,0.5718422,0.6636124c0.2006893,0.2318192,0.3895273,0.4109268,0.5700293,0.5340118   c0.1805,0.1230927,0.3136368,0.2207794,0.4148483,0.2571411c0.1012001,0.0363846,0.3539639-0.1767426,0.3146286-0.2233734   C17.083313,71.1594772,17.089077,70.9990768,17.0275211,70.8342743z" />
		<path d="M21.302866,71.120491c-0.1291866-0.2355728-0.2485542-0.4410858-0.3573208-0.6176529   c-0.1087666-0.1765594-0.2073936-0.324791-0.2984791-0.4497604c-0.0910873-0.1249924-0.7706528-0.9243469-1.4213715-1.706749   c-0.6507301-0.782402-1.2751102-1.5510559-1.8946629-2.2896042c-0.619566-0.7385254-1.2435989-1.4424667-1.8777437-2.1128693   c-0.6341448-0.6704292-0.7852564-0.7951393-0.877862-0.9291344c-0.0925913-0.1339989-0.1561937-0.2553902-0.1952457-0.3605652   c-0.039052-0.1052017-0.0542994-0.1932907-0.0551748-0.2542534c-0.0008745-0.0609398,0.0567961-0.0843582,0.1446142-0.0848236   c0.0878181-0.0004616,0.1912708,0.0313454,0.3089924,0.0985107c0.1177216,0.0671425,0.247963,0.170311,0.317111,0.2332077   c0.1412811,0.1396828,0.1056261,0.028614,0.1777725,0.1054077c-0.0721073-0.0777702-0.2082939-0.2117424-0.3352671-0.3117981   s-0.2458401-0.1660881-0.3585043-0.1970749c-0.1126652-0.0309334-0.2195396-0.0237503-0.2968197,0.0517273   c-0.0772934,0.0755043-0.080883,0.17453-0.0585976,0.2857285c0.0222864,0.1111984,0.0690069,0.2351837,0.1391716,0.3731995   c0.0701771,0.1380119,0.156683,0.2954559,0.4021635,0.8032951c0.2454796,0.5078697,0.75453,1.2930183,1.3105583,2.0763969   c0.5560417,0.7833786,1.1998634,1.5291901,1.8813324,2.2753525c0.6814575,0.7461929,1.4014912,1.4914856,1.8102932,1.9012527   c0.4088039,0.4097672,0.4974842,0.516922,0.6024799,0.6557388c0.1049824,0.1387863,0.2254963,0.3082199,0.3614388,0.5074005   c0.1359539,0.1992111,0.2876968,0.4275284,0.4695606,0.5789948c0.1818638,0.151474,0.3192863,0.0707169,0.2439098-0.0575943   C21.4452152,71.6948242,21.432066,71.3560638,21.302866,71.120491z" />
	</g>
	<!-- Created by Jhonatan -->
</svg>
