<svg xmlns:x="http://ns.adobe.com/Extensibility/1.0/" xmlns:i="http://ns.adobe.com/AdobeIllustrator/10.0/" xmlns:graph="http://ns.adobe.com/Graphs/1.0/" xmlns="http://www.w3.org/2000/svg" xmlns:xlink="http://www.w3.org/1999/xlink" version="1.1" x="0px" y="0px" viewBox="0 0 56 70" style="enable-background:new 0 0 56 56;" xml:space="preserve">
	<polygon points="19.9300537,18.513916 19.9300537,12.029541 13.0736084,12.029541 4,12.029541 4,18.513916 13.0736084,18.513916 " />
	<polygon points="43.4993896,26.998291 43.4993896,20.513916 36.6429443,20.513916 29.786499,20.513916 29.786499,26.998291   36.6429443,26.998291 " />
	<polygon points="14.0736084,26.998291 20.9300537,26.998291 27.786499,26.998291 27.786499,20.513916 20.9300537,20.513916   14.0736084,20.513916 " />
	<polygon points="19.9300537,35.482666 19.9300537,28.998291 13.0736084,28.998291 4,28.998291 4,35.482666 13.0736084,35.482666 " />
	<rect x="4" y="37.4836426" width="8.0736084" height="6.484375" />
	<polygon points="21.9300537,12.029541 21.9300537,18.513916 28.786499,18.513916 35.6429443,18.513916 35.6429443,12.029541   28.786499,12.029541 " />
	<polygon points="52,28.998291 44.4993896,28.998291 37.6429443,28.998291 37.6429443,35.482666 44.4993896,35.482666 52,35.482666   " />
	<rect x="45.4993896" y="37.4836426" width="6.5006104" height="6.484375" />
	<rect x="4" y="20.513916" width="8.0736084" height="6.484375" />
	<polygon points="14.0736084,43.9680176 20.9300537,43.9680176 27.786499,43.9680176 27.786499,37.4836426 20.9300537,37.4836426   14.0736084,37.4836426 " />
	<polygon points="52,45.9680176 44.4993896,45.9680176 37.6429443,45.9680176 37.6429443,52 52,52 " />
	<polygon points="14.0736084,10.029541 20.9300537,10.029541 27.786499,10.029541 27.786499,4 14.0736084,4 " />
	<polygon points="29.786499,10.029541 36.6429443,10.029541 43.4993896,10.029541 43.4993896,4 29.786499,4 " />
	<rect x="4" y="4" width="8.0736084" height="6.029541" />
	<polygon points="21.9300537,28.998291 21.9300537,35.482666 28.786499,35.482666 35.6429443,35.482666 35.6429443,28.998291   28.786499,28.998291 " />
	<polygon points="19.9300537,45.9680176 13.0736084,45.9680176 4,45.9680176 4,52 19.9300537,52 " />
	<polygon points="21.9300537,52 35.6429443,52 35.6429443,45.9680176 28.786499,45.9680176 21.9300537,45.9680176 " />
	<polygon points="43.4993896,43.9680176 43.4993896,37.4836426 36.6429443,37.4836426 29.786499,37.4836426 29.786499,43.9680176   36.6429443,43.9680176 " />
	<rect x="45.4993896" y="20.513916" width="6.5006104" height="6.484375" />
	<polygon points="37.6429443,12.029541 37.6429443,18.513916 44.4993896,18.513916 52,18.513916 52,12.029541 44.4993896,12.029541   " />
	<rect x="45.4993896" y="4" width="6.5006104" height="6.029541" />
	<!--
	<text x="0" y="71" fill="#000000" font-size="5px" font-weight="bold" font-family="'Helvetica Neue', Helvetica, Arial-Unicode, Arial, Sans-serif">
	Created by Vectorstall
	</text>
	<text x="0" y="76" fill="#000000" font-size="5px" font-weight="bold" font-family="'Helvetica Neue', Helvetica, Arial-Unicode, Arial, Sans-serif">
	from the Noun Project
	</text>
	-->
</svg>
