<svg xmlns="http://www.w3.org/2000/svg" xmlns:xlink="http://www.w3.org/1999/xlink" xml:space="preserve" version="1.1" style="shape-rendering:geometricPrecision;text-rendering:geometricPrecision;image-rendering:optimizeQuality;" viewBox="0 0 846.66 1058.325" x="0px" y="0px" fill-rule="evenodd" clip-rule="evenodd">
	<g>
		<path class="fil0" d="M249.33 520.52l128.32 128.32c98.67,95.94 307.08,-112.46 211.14,-211.14l-128.32 -128.31 -76.44 76.44 -162.11 -162.11 44.15 -44.15 -98.36 -98.35 -146.55 146.54 98.36 98.35 44.15 -44.15 162.11 162.11 -76.45 76.45zm-222.14 52.93l200.95 0 112.97 112.96c76.35,74.25 186.24,32.81 252.15,-33.09 22.32,-22.32 42.41,-49.84 55.76,-79.87l176.48 0 0 192 -798.31 0 0 -192zm164.56 -393.88l-72.23 72.23 -24.05 -24.04 72.23 -72.23 24.05 24.04z" />
	</g>
	<!--
	<text x="0" y="861.66" fill="#000000" font-size="5px" font-weight="bold" font-family="'Helvetica Neue', Helvetica, Arial-Unicode, Arial, Sans-serif">
	Created by jokokerto
	</text>
	<text x="0" y="866.66" fill="#000000" font-size="5px" font-weight="bold" font-family="'Helvetica Neue', Helvetica, Arial-Unicode, Arial, Sans-serif">
	from the Noun Project
	</text>
	-->
</svg>
