<svg xmlns="http://www.w3.org/2000/svg" xmlns:xlink="http://www.w3.org/1999/xlink" xml:space="preserve" version="1.1" style="shape-rendering:geometricPrecision;text-rendering:geometricPrecision;image-rendering:optimizeQuality;" viewBox="0 0 333 416.25" x="0px" y="0px" fill-rule="evenodd" clip-rule="evenodd">
	<g>
		<path class="fil0" d="M288 310c-4,23 -26,15 -34,7l-54 -50c-10,-10 12,-35 22,-26l36 31c-1,-15 -3,-28 -10,-43 -2,-2 -5,-4 -8,-6l0 -44c-28,0 -53,9 -68,26l0 99c8,-7 19,-13 29,-17l11 8c-15,3 -31,14 -41,25l-8 0c-10,-11 -27,-22 -41,-25l9 -9c11,4 22,11 30,18l0 -99c-14,-17 -39,-26 -68,-26l0 44c-3,1 -6,3 -7,5 -7,14 -8,27 -7,42l31 -29c9,-9 32,13 22,23l-53 53c-6,8 -30,10 -34,-7 -6,-32 -6,-132 25,-153 47,-32 146,-32 193,0 31,21 31,121 25,153zm-121 -302c36,0 65,27 65,59 0,33 -29,60 -65,60 -36,0 -65,-27 -65,-60 0,-32 29,-59 65,-59z" />
	</g>
	<!--
	<text x="0" y="348" fill="#000000" font-size="5px" font-weight="bold" font-family="'Helvetica Neue', Helvetica, Arial-Unicode, Arial, Sans-serif">
	Created by Cantasia
	</text>
	<text x="0" y="353" fill="#000000" font-size="5px" font-weight="bold" font-family="'Helvetica Neue', Helvetica, Arial-Unicode, Arial, Sans-serif">
	from the Noun Project
	</text>
	-->
</svg>
