<svg xmlns:x="http://ns.adobe.com/Extensibility/1.0/" xmlns:i="http://ns.adobe.com/AdobeIllustrator/10.0/" xmlns:graph="http://ns.adobe.com/Graphs/1.0/" xmlns="http://www.w3.org/2000/svg" xmlns:xlink="http://www.w3.org/1999/xlink" version="1.1" x="0px" y="0px" viewBox="0 0 100 125" style="enable-background:new 0 0 100 100;" xml:space="preserve">
	<g>
		<g>
			<path d="M75.5,76.8c-1.8,0.7-4.7,1.4-7.8,2.2c-1.1,1.9-3.2,3.4-6.4,4c-0.8,0.1-1.6,0.2-2.5,0.3c-2.2,0.1-4.9-0.1-7.9-0.4     c-0.2,0-0.4,0-0.6,0c-0.7-0.1-1.3-0.6-1.4-1.3c-0.1-0.9,0.7-1.6,1.5-1.6c0.2,0,0.5,0,0.7,0.1c3.8,0.3,7.4,0.6,9.6,0.1     c4.2-0.8,5.3-3.4,5-5.5c-0.2-1.7-1.5-3.4-3.6-3.2c-2.9,0.2-6.4,0-9.7-0.2c-3.8-0.2-7.8-0.3-10.6,0c-3.1,0.4-9.4,2.7-15,6.6     c-2.7,1.9-5.7,4.1-7.6,5.5c-0.9,0.7-1.1,2-0.4,2.9l8.2,10.5c0.7,0.9,2,1.1,2.9,0.4l3-2.3c0.7-0.6,1.6-0.7,2.5-0.5     c5.5,1.7,11.3,2.8,15.1,3c8.3,0.4,24.3-9.6,28.8-12.8C83.9,81.2,80.6,74.9,75.5,76.8z" />
			<circle cx="57.7" cy="14.5" r="12" />
			<path d="M57.7,31.9c-1.7,0-3,1.4-3,3v20.2l-3.1-3.1c-1.2-1.2-3.1-1.2-4.3,0s-1.2,3.1,0,4.3l8.3,8.3c0.6,0.6,1.4,0.9,2.1,0.9     s1.5-0.3,2.1-0.9l8.3-8.3c1.2-1.2,1.2-3.1,0-4.3c-1.2-1.2-3.1-1.2-4.3,0l-3.1,3.1V34.9C60.7,33.3,59.4,31.9,57.7,31.9z" />
		</g>
	</g>
	<!-- Created by Adrien Coquet -->
</svg>
