<svg xmlns="http://www.w3.org/2000/svg" xmlns:xlink="http://www.w3.org/1999/xlink" version="1.1" x="0px" y="0px" viewBox="0 0 100 125" style="enable-background:new 0 0 100 100;" xml:space="preserve">
	<g>
		<path d="M81.6,65.5l-7.1-3.6c-0.6-0.3-1.3-0.3-1.9,0L50,74.5L27.4,61.9c-0.6-0.3-1.3-0.3-1.9,0l-7.1,3.6c-0.7,0.3-1.1,1-1.1,1.7   s0.4,1.4,1,1.8L49,86.5c0.3,0.2,0.6,0.3,1,0.3s0.7-0.1,1-0.3L81.7,69c0.6-0.4,1-1.1,1-1.8C82.7,66.5,82.3,65.8,81.6,65.5z" />
		<path d="M81.6,45.9l-7.1-3.6c-1-0.5-2.2-0.1-2.7,0.9c-0.5,1-0.1,2.2,0.9,2.7l3.8,1.9L50,62.9L23.5,47.8l3.8-1.9   c1-0.5,1.4-1.7,0.9-2.7c-0.5-1-1.7-1.4-2.7-0.9l-7.1,3.6c-0.7,0.3-1.1,1-1.1,1.7s0.4,1.4,1,1.8L49,67c0.3,0.2,0.6,0.3,1,0.3   s0.7-0.1,1-0.3l30.7-17.5c0.6-0.4,1-1.1,1-1.8C82.7,46.9,82.3,46.3,81.6,45.9z" />
		<path d="M18.3,32.2L49,49.7c0.3,0.2,0.6,0.3,1,0.3s0.7-0.1,1-0.3l30.7-17.5c0.6-0.4,1-1,1-1.8c0-0.7-0.4-1.4-1.1-1.7L50.9,12.2   c-0.6-0.3-1.3-0.3-1.9,0L18.3,28.7c-0.6,0.3-1,1-1.1,1.7C17.3,31.2,17.7,31.9,18.3,32.2z M50,16.3l26.6,14.3L50,45.7L23.4,30.6   L50,16.3z" />
	</g>
	<!--
	<text x="0" y="115" fill="#000000" font-size="5px" font-weight="bold" font-family="'Helvetica Neue', Helvetica, Arial-Unicode, Arial, Sans-serif">
	Created by Tomasz Pasternak
	</text>
	<text x="0" y="120" fill="#000000" font-size="5px" font-weight="bold" font-family="'Helvetica Neue', Helvetica, Arial-Unicode, Arial, Sans-serif">
	from the Noun Project
	</text>
	-->
</svg>
