<svg xmlns:x="http://ns.adobe.com/Extensibility/1.0/" xmlns:i="http://ns.adobe.com/AdobeIllustrator/10.0/" xmlns:graph="http://ns.adobe.com/Graphs/1.0/" xmlns="http://www.w3.org/2000/svg" xmlns:xlink="http://www.w3.org/1999/xlink" version="1.1" x="0px" y="0px" viewBox="0 0 100 125" style="enable-background:new 0 0 100 100;" xml:space="preserve">
	<g>
		<path d="M88.5,60.2c-2.7,1-7,2.1-11.8,3.2c-1.7,2.8-4.8,5.1-9.7,6c-1.1,0.2-2.4,0.3-3.8,0.4c-3.4,0.1-7.4-0.3-11.8-0.6     c-0.3,0-0.6,0-0.9-0.1c-1.1-0.1-2-0.9-2.1-2c-0.1-1.4,1-2.5,2.3-2.3c0.3,0,0.7,0.1,1,0.1c5.7,0.5,11.1,1,14.5,0.3     c6.3-1.2,8.1-5,7.7-8.2c-0.3-2.6-2.3-5.1-5.4-4.9c-4.4,0.3-9.6,0-14.7-0.4c-5.8-0.4-11.7-0.6-16-0.1c-4.7,0.5-14.2,4-22.6,9.7     c-4.1,2.8-8.7,6.1-11.5,8.2c-1.4,1-1.7,3-0.6,4.4l12.2,15.8c1,1.4,3,1.6,4.4,0.6l4.5-3.5c1.1-0.8,2.5-1.1,3.7-0.7     c8.2,2.6,17,4.3,22.7,4.6c12.5,0.6,36.6-14.2,43.5-19C101.1,67,96.1,57.4,88.5,60.2z" />
		<path d="M39.1,30.5h22.2v7.3c0,2.6,2.9,4.1,5.1,2.6l18.3-12.8c1.8-1.3,1.8-4,0-5.3L66.3,9.7c-2.1-1.5-5.1,0-5.1,2.6v7.3H39.1     c-1.3,0-2.3,1-2.3,2.3v6.2C36.7,29.5,37.8,30.5,39.1,30.5z" />
	</g>
	<!--
	<text x="0" y="115" fill="#000000" font-size="5px" font-weight="bold" font-family="'Helvetica Neue', Helvetica, Arial-Unicode, Arial, Sans-serif">
	Created by Adrien Coquet
	</text>
	<text x="0" y="120" fill="#000000" font-size="5px" font-weight="bold" font-family="'Helvetica Neue', Helvetica, Arial-Unicode, Arial, Sans-serif">
	from the Noun Project
	</text>
	-->
</svg>
