<svg xmlns="http://www.w3.org/2000/svg" xmlns:xlink="http://www.w3.org/1999/xlink" version="1.1" x="0px" y="0px" viewBox="0 0 100 125" enable-background="new 0 0 100 100" xml:space="preserve">
	<g>
		<g>
			<g>
				<path d="M54.644,31.499c-4.137,0-7.502-3.365-7.502-7.501c0-4.138,3.365-7.503,7.502-7.503s7.502,3.366,7.502,7.503     C62.146,28.133,58.781,31.499,54.644,31.499z M54.644,18.265c-3.16,0-5.731,2.571-5.731,5.732c0,3.159,2.571,5.73,5.731,5.73     s5.731-2.571,5.731-5.73C60.375,20.836,57.804,18.265,54.644,18.265z" />
			</g>
			<g>
				<path d="M46.948,18.015c-0.227,0-0.453-0.086-0.626-0.259l-3.104-3.102c-0.346-0.346-0.346-0.907,0-1.253     c0.345-0.346,0.905-0.347,1.253,0l3.104,3.102c0.346,0.346,0.346,0.907,0,1.253C47.402,17.929,47.175,18.015,46.948,18.015z" />
			</g>
			<g>
				<path d="M55.653,15.628c-0.489,0-0.886-0.396-0.886-0.886v-4.408c0-0.489,0.396-0.886,0.886-0.886s0.886,0.396,0.886,0.886v4.408     C56.539,15.232,56.142,15.628,55.653,15.628z" />
			</g>
			<g>
				<path d="M62.559,18.195c-0.274,0-0.545-0.127-0.718-0.366c-0.287-0.396-0.199-0.95,0.197-1.237l4.545-3.293     c0.397-0.288,0.951-0.198,1.237,0.197c0.287,0.396,0.199,0.95-0.197,1.237l-4.545,3.293C62.92,18.14,62.738,18.195,62.559,18.195     z" />
			</g>
			<g>
				<path d="M66.08,35.51c-0.227,0-0.454-0.086-0.626-0.259l-3.103-3.103c-0.346-0.346-0.346-0.907,0-1.253     c0.346-0.346,0.907-0.346,1.253,0l3.103,3.103c0.346,0.346,0.346,0.907,0,1.253C66.534,35.423,66.307,35.51,66.08,35.51z" />
			</g>
			<g>
				<path d="M54.272,38.666c-0.489,0-0.886-0.396-0.886-0.886v-4.409c0-0.489,0.396-0.886,0.886-0.886s0.886,0.396,0.886,0.886v4.409     C55.158,38.27,54.762,38.666,54.272,38.666z" />
			</g>
			<g>
				<path d="M42.824,35.521c-0.274,0-0.545-0.127-0.718-0.366c-0.287-0.396-0.199-0.95,0.197-1.237l4.545-3.293     c0.397-0.288,0.95-0.198,1.237,0.197c0.287,0.396,0.199,0.95-0.197,1.237l-4.545,3.293     C43.186,35.466,43.004,35.521,42.824,35.521z" />
			</g>
			<g>
				<path d="M44.499,24.892h-4.146c-0.489,0-0.886-0.396-0.886-0.886s0.396-0.886,0.886-0.886h4.146c0.489,0,0.886,0.396,0.886,0.886     S44.988,24.892,44.499,24.892z" />
			</g>
			<g>
				<path d="M69.361,24.892h-4.833c-0.489,0-0.886-0.396-0.886-0.886s0.396-0.886,0.886-0.886h4.833c0.489,0,0.886,0.396,0.886,0.886     S69.851,24.892,69.361,24.892z" />
			</g>
		</g>
		<path d="M75.851,77.234c-0.389,0-0.777-0.148-1.074-0.444c-0.593-0.593-0.593-1.555,0-2.148c12.066-12.068,12.066-31.703,0-43.77   c-0.593-0.593-0.593-1.555,0-2.147c0.593-0.594,1.555-0.594,2.147,0c13.25,13.251,13.25,34.812,0,48.064   C76.628,77.086,76.24,77.234,75.851,77.234z" />
		<path d="M29.935,77.234c-0.389,0-0.777-0.148-1.074-0.445c-9.346-9.345-12.431-23.401-7.857-35.808   c1.705-4.624,4.349-8.747,7.858-12.256c0.593-0.593,1.554-0.593,2.148,0c0.593,0.593,0.593,1.555,0,2.148   c-3.196,3.195-5.604,6.95-7.156,11.158c-4.164,11.299-1.355,24.099,7.155,32.61c0.593,0.593,0.593,1.555,0,2.147   C30.712,77.086,30.324,77.234,29.935,77.234z" />
		<g>
			<polygon points="73.134,78.435 73.992,70.431 80.537,76.976   " />
			<path d="M72.348,79.293l1.112-10.371l8.48,8.48L72.348,79.293z M74.524,71.939l-0.604,5.638l5.214-1.028L74.524,71.939z" />
		</g>
		<g>
			<polygon points="32.453,27.886 31.293,35.59 24.748,29.045   " />
			<path d="M31.772,37.044l-8.479-8.478l9.981-1.501L31.772,37.044z M26.203,29.524l4.611,4.611l0.817-5.428L26.203,29.524z" />
		</g>
		<g>
			<g>
				<g>
					<circle cx="53.631" cy="81.708" r="6.616" />
					<path d="M53.631,89.211c-4.137,0-7.503-3.365-7.503-7.502c0-4.137,3.366-7.502,7.503-7.502c4.136,0,7.501,3.365,7.501,7.502      C61.133,85.846,57.768,89.211,53.631,89.211z M53.631,75.978c-3.16,0-5.731,2.571-5.731,5.73c0,3.16,2.571,5.731,5.731,5.731      c3.159,0,5.73-2.571,5.73-5.731C59.361,78.549,56.791,75.978,53.631,75.978z" />
				</g>
			</g>
		</g>
	</g>
	<!-- Created by Eric Bird -->
</svg>
