<svg xmlns:x="http://ns.adobe.com/Extensibility/1.0/" xmlns:i="http://ns.adobe.com/AdobeIllustrator/10.0/" xmlns:graph="http://ns.adobe.com/Graphs/1.0/" xmlns="http://www.w3.org/2000/svg" xmlns:xlink="http://www.w3.org/1999/xlink" version="1.1" x="0px" y="0px" viewBox="0 0 100 125" enable-background="new 0 0 100 100" xml:space="preserve">
	<g>
		<path d="M96.703,16.737c0,3.917-3.175,7.093-7.093,7.093H12.421c-3.918,0-7.093-3.176-7.093-7.093l0,0    c0-3.918,3.175-7.094,7.093-7.094H89.61C93.528,9.644,96.703,12.819,96.703,16.737L96.703,16.737z" />
		<rect x="5.328" y="89" width="91.375" height="4.387" />
		<path d="M21.83,51.604C22.687,55.23,26.966,74,25.804,86h10.128c0,0-2.921-24.371-10.718-33.657c0,0,22.9-11.343,24.972-25.343    h-8.939C38.921,37,24.638,49.157,21.83,51.604z" />
		<path d="M15.334,48.861C21.282,40.59,23.513,31,24.071,27H10v59h5V49.688C15,49.482,15.216,49.027,15.334,48.861z" />
		<path d="M19.797,51.542c-0.088-0.357,0.034-0.991,0.314-1.229C20.282,50.168,36.439,37,39.215,27H26.05    C25.564,31,23,41.08,17,49.999V86h6.865c0,0-0.014-0.268-0.01-0.303C25.122,73.676,19.85,51.761,19.797,51.542z" />
		<path d="M75.98,27H62.813c2.775,10,18.933,23.168,19.104,23.313c0.28,0.238,0.402,0.744,0.314,1.102    c-0.054,0.218-5.324,22.2-4.055,34.218C78.18,85.668,78.166,86,78.166,86H85V49.999C79,41.08,76.465,31,75.98,27z" />
		<path d="M80.197,51.604C77.39,49.157,63.106,37,60.782,27h-8.94c2.071,14,24.976,25.343,24.976,25.343    C69.021,61.629,66.097,86,66.097,86h10.131C75.062,74,79.341,55.23,80.197,51.604z" />
		<path d="M77.96,27c0.558,4,2.771,13.588,8.72,21.861c0.118,0.166,0.32,0.622,0.32,0.826V86h5V27H77.96z" />
	</g>
	<!--
	<text x="0" y="115" fill="#000000" font-size="5px" font-weight="bold" font-family="'Helvetica Neue', Helvetica, Arial-Unicode, Arial, Sans-serif">
	Created by stephanie wauters
	</text>
	<text x="0" y="120" fill="#000000" font-size="5px" font-weight="bold" font-family="'Helvetica Neue', Helvetica, Arial-Unicode, Arial, Sans-serif">
	from the Noun Project
	</text>
	-->
</svg>
