<svg xmlns="http://www.w3.org/2000/svg" viewBox="0 0 512 640" x="0px" y="0px">
	<g>
		<path d="M405.85,303.925l.843-5.9a48.115,48.115,0,0,0-27.439-50.692L328.6,223.694a31.852,31.852,0,0,1-9.9-7.2l-21.583-23.205a126.345,126.345,0,0,0-16.347-14.75L235.294,144.2,230.94,96.318A38.068,38.068,0,0,0,219.968,72.89l-.961-.961a37.959,37.959,0,0,0-40.983-8.412L166.23,68.235a31.3,31.3,0,0,0-4.962,2.524L108.853,18.343a8,8,0,0,0-11.313,0l-79.2,79.2a8,8,0,0,0-.259,11.043l43.387,47.653-.7.7a28.03,28.03,0,0,0,0,39.6h0a27.913,27.913,0,0,0,19.8,8.187c.1,0,.2-.006.305-.007a27.916,27.916,0,0,0,8.18,20.1h0a27.911,27.911,0,0,0,19.8,8.188c.1,0,.2-.006.3-.007a27.947,27.947,0,0,0,27.98,28.292c.1,0,.2-.007.305-.008a28,28,0,0,0,42.008,24.535l11.363,12.48L192,395.155a27.987,27.987,0,0,0,44.238,22.8,27.97,27.97,0,0,0,40,8A27.984,27.984,0,0,0,312,436.451v6.7a28,28,0,0,0,53.2,12.186l37.113,37.445A8,8,0,0,0,408,495.155c.093,0,.186,0,.279,0a8,8,0,0,0,5.782-2.774l80-92.852a8,8,0,0,0-.506-10.979ZM183.967,78.373a21.974,21.974,0,0,1,23.725,4.868l.959.96h0a22.04,22.04,0,0,1,6.353,13.565l2.673,29.4-12.523-12.522-.3-.3a7.989,7.989,0,0,0-7.266-2.176H177.772a15.078,15.078,0,0,1-5.6-29.077ZM72.083,185.22h0a12.014,12.014,0,0,1,0-16.971l28.284-28.285a12,12,0,1,1,16.971,16.971L89.054,185.221A12.015,12.015,0,0,1,72.083,185.22Zm28.284,28.285h0a12.014,12.014,0,0,1,0-16.971l28.285-28.284a12,12,0,0,1,16.971,16.971l-28.285,28.284A12.015,12.015,0,0,1,100.367,213.505Zm36.77,31.8a12,12,0,0,1-8.485-20.486l28.284-28.284a12,12,0,0,1,16.971,16.971l-28.284,28.284A11.923,11.923,0,0,1,137.137,245.3Zm28.284,28.284a12,12,0,0,1-8.485-20.485l28.284-28.285a12,12,0,1,1,16.971,16.971l-28.284,28.284A11.923,11.923,0,0,1,165.421,273.588ZM352,443.155a12,12,0,0,1-24,0v-76a8,8,0,0,0-16,0v44a12,12,0,0,1-24,0v-52a8,8,0,0,0-16,0v44a12,12,0,0,1-24,0v-52a8,8,0,0,0-16,0v44a12,12,0,0,1-24,0l-1.231-100.112a8,8,0,0,0-2.083-5.274l-13.272-14.576L213.5,253.1a27.982,27.982,0,0,0-20.09-47.779c0-.1.007-.2.007-.3a27.969,27.969,0,0,0-28.3-27.98,27.937,27.937,0,0,0-28.284-28.284,27.982,27.982,0,0,0-47.779-20.1L72.8,144.909,35.055,103.455,103.2,35.314l47.157,47.157a31.354,31.354,0,0,0-2.26,5.4,31.078,31.078,0,0,0,29.679,40.3h18.277l25.941,25.94a8.011,8.011,0,0,0,.754.656c.029.023.054.05.083.072L271.135,191.3a110.32,110.32,0,0,1,14.271,12.877l21.583,23.206a47.775,47.775,0,0,0,14.848,10.806l50.65,23.637a32.2,32.2,0,0,1,18.367,33.931l-.44,3.082H360a8,8,0,0,0-8,8Zm55.589,32.22L368,435.431V314.843h26.122L477,394.809Z" />
		<path d="M314.343,161.5a8,8,0,0,0,0,11.314l24,24A8,8,0,1,0,349.657,185.5l-24-24A8,8,0,0,0,314.343,161.5Z" />
		<path d="M282.343,129.5a8,8,0,0,0,0,11.314l8,8A8,8,0,1,0,301.657,137.5l-8-8A8,8,0,0,0,282.343,129.5Z" />
	</g>
	<!-- Created by supalerk laipawat -->
</svg>
