<svg xmlns="http://www.w3.org/2000/svg" data-name="Layer 1" viewBox="0 0 100 125" x="0px" y="0px">
	<path d="M82.43,81.43H76.48V24.5h2.7a1,1,0,0,0,1-1V17.57a1,1,0,0,0-1-1H20.82a1,1,0,0,0-1,1V23.5a1,1,0,0,0,1,1h2.7V81.43H17.57a1,1,0,0,0,0,2H82.43A1,1,0,0,0,82.43,81.43ZM49,81.43H45.08V63.51H49V81.43Zm5.92,0H51V63.51h3.92V81.43Zm19.57,0H56.92V62.51a1,1,0,0,0-1-1H44.08a1,1,0,0,0-1,1V81.43H25.52V24.5h49V81.43ZM21.82,22.5V18.57H78.18V22.5H21.82Zm9,16.27H46.94a1,1,0,0,0,1-1V29.29a1,1,0,0,0-1-1H30.82a1,1,0,0,0-1,1v8.48A1,1,0,0,0,30.82,38.77Zm9.06-8.48h6.06v6.48H39.88V30.29Zm-8.06,0h6.06v6.48H31.82V30.29Zm21.24,8.48H69.18a1,1,0,0,0,1-1V29.29a1,1,0,0,0-1-1H53.06a1,1,0,0,0-1,1v8.48A1,1,0,0,0,53.06,38.77Zm9.06-8.48h6.06v6.48H62.12V30.29Zm-8.06,0h6.06v6.48H54.06V30.29ZM30.82,55.45H46.94a1,1,0,0,0,1-1V46a1,1,0,0,0-1-1H30.82a1,1,0,0,0-1,1v8.48A1,1,0,0,0,30.82,55.45ZM39.88,47h6.06v6.48H39.88V47Zm-8.06,0h6.06v6.48H31.82V47Zm21.24,8.48H69.18a1,1,0,0,0,1-1V46a1,1,0,0,0-1-1H53.06a1,1,0,0,0-1,1v8.48A1,1,0,0,0,53.06,55.45ZM62.12,47h6.06v6.48H62.12V47Zm-8.06,0h6.06v6.48H54.06V47ZM30.82,72.12h8.06a1,1,0,0,0,1-1V62.51a1,1,0,0,0-1-1H30.82a1,1,0,0,0-1,1v8.62A1,1,0,0,0,30.82,72.12Zm1-8.62h6.06v6.62H31.82V63.51Zm37.36-2H61.12a1,1,0,0,0-1,1v8.62a1,1,0,0,0,1,1h8.06a1,1,0,0,0,1-1V62.51A1,1,0,0,0,69.18,61.51Zm-1,8.62H62.12V63.51h6.06v6.62Z" />
	<!-- Created by Hare Krishna -->
</svg>
