<svg xmlns:x="http://ns.adobe.com/Extensibility/1.0/" xmlns:i="http://ns.adobe.com/AdobeIllustrator/10.0/" xmlns:graph="http://ns.adobe.com/Graphs/1.0/" xmlns="http://www.w3.org/2000/svg" xmlns:xlink="http://www.w3.org/1999/xlink" version="1.1" x="0px" y="0px" viewBox="0 0 100 125" style="enable-background:new 0 0 100 100;" xml:space="preserve">
	<g>
		<g>
			<path d="M33.5,48.8c-3.5,2.8-3.1,8.2,0.7,10.5l8.1,4.8c1.7,1,3.6,1.5,5.6,1.5h42.8c1.9,0,3.4-1.5,3.4-3.4c0-1.7-1.3-3.2-2.9-3.4     l-34.1-4.8c-1.3-0.2-2.7-0.5-3.9-1l-13.5-5.2C37.6,47,35.2,47.4,33.5,48.8z" />
			<circle cx="23.2" cy="44.5" r="8.1" />
			<path d="M94.2,69.7H47.3c-2.6,0-5.2-0.7-7.5-2L11.6,51.4v-5.1c0-2.4-1.9-4.3-4.3-4.3h0c-2.4,0-4.3,1.9-4.3,4.3v46.9     c0,2.4,1.9,4.3,4.3,4.3c2.4,0,4.3-1.9,4.3-4.3V82.7h76.8v10.5c0,2.4,1.9,4.3,4.3,4.3c2.4,0,4.3-1.9,4.3-4.3V72.6     C97.1,71,95.8,69.7,94.2,69.7z" />
			<circle cx="36.7" cy="28.4" r="2.8" />
			<circle cx="32.3" cy="34.5" r="2.2" />
			<path d="M26.1,19.8c0.8,2.5,3.2,4.4,6,4.4c2,0,3.8-0.9,4.9-2.4c1.2,1.3,2.9,2.2,4.8,2.2c3.2,0,5.8-2.4,6.3-5.5     c2.3-1,3.9-3.3,3.9-6c0-3.4-2.6-6.2-5.9-6.5c-1.1-2.1-3.2-3.5-5.7-3.5c-1.8,0-3.4,0.7-4.6,1.9c-1.1-1.2-2.6-1.9-4.4-1.9     c-2.8,0-5.2,2-5.8,4.6c-3,0.6-5.2,3.2-5.2,6.3C20.4,16.7,22.9,19.4,26.1,19.8z" />
		</g>
	</g>
	<!--
	<text x="0" y="115" fill="#000000" font-size="5px" font-weight="bold" font-family="'Helvetica Neue', Helvetica, Arial-Unicode, Arial, Sans-serif">
	Created by Adrien Coquet
	</text>
	<text x="0" y="120" fill="#000000" font-size="5px" font-weight="bold" font-family="'Helvetica Neue', Helvetica, Arial-Unicode, Arial, Sans-serif">
	from the Noun Project
	</text>
	-->
</svg>
