<svg xmlns:x="http://ns.adobe.com/Extensibility/1.0/" xmlns:i="http://ns.adobe.com/AdobeIllustrator/10.0/" xmlns:graph="http://ns.adobe.com/Graphs/1.0/" xmlns="http://www.w3.org/2000/svg" xmlns:xlink="http://www.w3.org/1999/xlink" version="1.1" x="0px" y="0px" viewBox="0 0 100 125" style="enable-background:new 0 0 100 100;" xml:space="preserve">
	<g>
		<g>
			<path d="M5273.1,2400.1v-2c0-2.8-5-4-9.7-4s-9.7,1.3-9.7,4v2c0,1.8,0.7,3.6,2,4.9l5,4.9c0.3,0.3,0.4,0.6,0.4,1v6.4     c0,0.4,0.2,0.7,0.6,0.8l2.9,0.9c0.5,0.1,1-0.2,1-0.8v-7.2c0-0.4,0.2-0.7,0.4-1l5.1-5C5272.4,2403.7,5273.1,2401.9,5273.1,2400.1z      M5263.4,2400c-4.8,0-7.4-1.3-7.5-1.8v0c0.1-0.5,2.7-1.8,7.5-1.8c4.8,0,7.3,1.3,7.5,1.8C5270.7,2398.7,5268.2,2400,5263.4,2400z" />
			<path d="M5268.4,2410.3c-0.6,0-1,0.4-1,1c0,0.6,0.4,1,1,1h4.3c0.6,0,1-0.4,1-1c0-0.6-0.4-1-1-1H5268.4z" />
			<path d="M5272.7,2413.7h-4.3c-0.6,0-1,0.4-1,1c0,0.6,0.4,1,1,1h4.3c0.6,0,1-0.4,1-1C5273.7,2414.1,5273.3,2413.7,5272.7,2413.7z" />
			<path d="M5272.7,2417h-4.3c-0.6,0-1,0.4-1,1c0,0.6,0.4,1,1,1h4.3c0.6,0,1-0.4,1-1C5273.7,2417.5,5273.3,2417,5272.7,2417z" />
		</g>
		<g>
			<ellipse transform="matrix(0.1082 -0.9941 0.9941 0.1082 6.4227 44.3858)" cx="28" cy="18.6" rx="8.6" ry="8.6" />
			<path d="M95.7,14.5c-1.8-1.1-4.2-0.5-5.3,1.3L86,23c-2,3.3-5.5,5.4-9.4,5.5c-1.3,0-2.4,0.1-2.8,0.1l-6.3-0.4     c-1.3-0.1-2.7,0.2-9.6,4.2c-3,1.8-5.4,4.3-7.1,7.3l-1,1.9c-0.3-0.1-0.7-0.1-1-0.2l-7.8-1.2c-0.4-0.1-0.8-0.3-1.1-0.7     c-6.5-9.6-7.9-10.1-9.8-10.2L23.6,29c-0.9-0.1-2-0.1-11.4,3.5C10,33.4,8.2,35,7.2,37.1l-4.3,8.5c-1,1.9-0.2,4.2,1.7,5.2     c0.6,0.3,1.2,0.4,1.7,0.4c1.4,0,2.8-0.8,3.5-2.1l4.3-8.5c0.2-0.4,0.5-0.6,0.8-0.8c0.7-0.3,1.3-0.5,1.9-0.7l-3.1,13.7     c-0.6,2.4,0.2,4.9,1.9,6.7l1.5,1.5L8.3,84.8c-0.9,2.3,0.3,4.9,2.6,5.7c0.5,0.2,1,0.3,1.5,0.3c1.8,0,3.5-1.1,4.2-2.9l7.4-20.1l4,4     c0.1,0.1,0.2,0.2,0.2,0.4l5.4,15.6c0.6,1.8,2.4,3,4.2,3c0.5,0,1-0.1,1.4-0.2c2.3-0.8,3.6-3.3,2.8-5.6l-5.4-15.6     c-0.5-1.4-1.3-2.7-2.4-3.8l-7-7l5.1-15.9c0.3,0.4,0.6,0.9,0.9,1.4c1.5,2.1,3.8,3.6,6.3,3.9l7.2,1.1c0.3,1,0.9,1.9,1.9,2.4     c0.6,0.3,1.2,0.5,1.8,0.5c1.4,0,2.7-0.7,3.4-2l3.5-6.5c0.8-1.5,2-2.8,3.5-3.9l-1.3,12.1l-2.1,13.9c-0.2,1.2-0.5,2.3-1,3.4     l-7.2,15.3c-1.1,2.3-0.1,5.1,2.2,6.1c0.6,0.3,1.3,0.4,2,0.4c1.7,0,3.4-1,4.2-2.7l7.2-15.2c0.9-1.9,1.5-3.9,1.8-5.9l0.6-4.1l6,5.9     c1.2,1.1,2,2.6,2.4,4.2l3.5,14.3c0.5,2.1,2.4,3.5,4.5,3.5c0.4,0,0.7,0,1.1-0.1c2.5-0.6,4-3.1,3.4-5.6l-3.5-14.3     c-0.8-3.3-2.5-6.3-4.9-8.6l-6-5.8l4.2-19.9c0-0.1,0-0.3,0-0.4c6-0.5,11.4-3.9,14.6-9.1l4.4-7.2C98,17.9,97.5,15.6,95.7,14.5z" />
			<ellipse transform="matrix(0.1082 -0.9941 0.9941 0.1082 46.4059 87.2063)" cx="71.8" cy="17.7" rx="8.5" ry="8.5" />
		</g>
	</g>
	<!-- Created by Adrien Coquet -->
</svg>
