<svg xmlns="http://www.w3.org/2000/svg" data-name="Layer 1" viewBox="0 0 61.96 117.92500000000001" x="0px" y="0px">
	<path d="M64.18,55c-0.44-12.15-4.67-14.17-7.57-15.28-2-.75-6.11-2.07-8.45-1.75s-4.87,3.14-9.1,3.14-7.16-2.76-9.38-3.11-7,1.09-9.34,1.71a18,18,0,0,0-11.7,11C4.93,60-.25,75.9,3.64,80.67A6.47,6.47,0,0,0,5.09,82l0,0,0,0,0.2,0.12,0.13,0.07a5.52,5.52,0,0,0,2,.63,9.25,9.25,0,0,0,3.75-.27c2-.54,18.76-13.09,18.76-13.09,0.74-.48.43-1.43,0.18-2.42l0-.13,0.27,0.1a6.63,6.63,0,0,0,3.78-.4s3.79-1.5,4-2.89a4.91,4.91,0,0,0-1.06-4,6.45,6.45,0,0,0-2.74-2.45l2.86-5.16S37.68,51,37,50.52s-1.57.66-1.57,0.66l-4.5,6.53a1.67,1.67,0,0,0-.24.29l-1.33,2a5.94,5.94,0,0,1-.74-1.11A3.24,3.24,0,0,0,27,57.35c-0.58-.17-1,0.07-1,0.32s0.46,0.95.8,2c0.22,0.72.8,2.67,1.1,3.67l-0.21-.24c-0.76-.81-1.2-1.42-1.95-0.94,0,0-12.18,7.45-12.75,7.4s1-1.27,1.71-1.84,1.58-1.36,1.74-1.48c0.69-1.85,2.28-6,2.63-5.67s-0.4,3.05-.79,4.43c3-2,5.78-3.71,5.78-3.71a4.71,4.71,0,0,1,1.2-.54L25,60a9.8,9.8,0,0,0-.53-1.3,2.76,2.76,0,0,1-.39-1.35,2,2,0,0,1,2.09-1.73,2.88,2.88,0,0,1,.8.12,4.46,4.46,0,0,1,2.1,1.62L29.33,57a3.06,3.06,0,0,1,.34-0.44l4.74-6.88,0,0,0,0a3.37,3.37,0,0,1,2.4-1.34A2.12,2.12,0,0,1,38,48.6,2.73,2.73,0,0,1,38.81,52l0,0.09,0,0.08-2.39,4.31a10.91,10.91,0,0,1,2.17,2.33,6.63,6.63,0,0,1,1.38,5.38c-0.34,2-3.37,3.43-5.16,4.14A9.83,9.83,0,0,1,32,69a2.79,2.79,0,0,1-1.47,2.83c-0.82.52-14.17,9.5-14.17,9.5a3.53,3.53,0,0,0-.68,1.75,15.23,15.23,0,0,0,0,2.63l0.58,6.93c0.33,3.87,3.54,4.13,7.92,4.13H52.35c4.37,0,7.09-.89,7.92-4.13S64.62,67.19,64.18,55Z" transform="translate(-2.26 -2.43)" />
	<path d="M26.18,57h0Z" transform="translate(-2.26 -2.43)" />
	<path d="M36.9,49.69h0Z" transform="translate(-2.26 -2.43)" />
	<path d="M39.05,38.91C48.43,38.91,53,27.43,53,17.39s-6.23-15-13.92-15-13.92,4.93-13.92,15S29.67,38.91,39.05,38.91Z" transform="translate(-2.26 -2.43)" />
	<!--
	<text x="0" y="109.34" fill="#000000" font-size="5px" font-weight="bold" font-family="'Helvetica Neue', Helvetica, Arial-Unicode, Arial, Sans-serif">
	Created by Ignat
	</text>
	<text x="0" y="114.34" fill="#000000" font-size="5px" font-weight="bold" font-family="'Helvetica Neue', Helvetica, Arial-Unicode, Arial, Sans-serif">
	from the Noun Project
	</text>
	-->
</svg>
