<svg xmlns:x="http://ns.adobe.com/Extensibility/1.0/" xmlns:i="http://ns.adobe.com/AdobeIllustrator/10.0/" xmlns:graph="http://ns.adobe.com/Graphs/1.0/" xmlns="http://www.w3.org/2000/svg" xmlns:xlink="http://www.w3.org/1999/xlink" version="1.1" x="0px" y="0px" viewBox="0 0 100 125" style="enable-background:new 0 0 100 100;" xml:space="preserve">
	<g>
		<g>
			<path d="M48.3,52.2c1.3-3.1,3.3-7,6.4-9.9H21.7c-8.7,0-12.1,9.4-14,14.4c-0.3,0.7-0.5,1.3-0.7,1.8C5.2,63,2.8,74.9,2.6,76.2     c-0.5,2.7,1.2,5.3,3.9,5.8c0.3,0.1,0.7,0.1,1,0.1c2.3,0,4.4-1.6,4.9-4c0.9-4.7,2.8-13.1,3.9-15.8c0.2-0.6,0.5-1.3,0.8-2.1l0.4,19     c0.1,2.5,2.1,4.6,4.7,4.6h12.6c2.5,0,4.6-2,4.7-4.6l0.5-27H48.3z" />
			<circle cx="28.4" cy="27.7" r="11.6" />
			<path d="M97.4,76.2c-0.3-1.3-2.6-13.2-4.5-17.7c-0.2-0.5-0.4-1.1-0.7-1.8c-1.8-5-5.3-14.4-14-14.4H65c-8.7,0-12.1,9.3-14,14.4     c-0.3,0.7-0.5,1.3-0.7,1.8c-1.9,4.5-4.2,16.3-4.5,17.7c-0.5,2.7,1.2,5.3,3.9,5.8c2.7,0.5,5.3-1.2,5.8-3.9     c0.9-4.7,2.8-13.1,3.9-15.8c0.2-0.6,0.5-1.3,0.8-2.1l0.4,19c0.1,2.5,2.1,4.6,4.7,4.6h12.6c2.5,0,4.6-2,4.7-4.6l0.4-19     c0.3,0.8,0.5,1.5,0.8,2.1c1.1,2.7,3,11.1,3.9,15.8c0.5,2.4,2.5,4,4.9,4c0.3,0,0.6,0,1-0.1C96.2,81.5,97.9,78.9,97.4,76.2z" />
			<circle cx="71.6" cy="27.7" r="11.6" />
		</g>
	</g>
	<!--
	<text x="0" y="115" fill="#000000" font-size="5px" font-weight="bold" font-family="'Helvetica Neue', Helvetica, Arial-Unicode, Arial, Sans-serif">
	Created by Adrien Coquet
	</text>
	<text x="0" y="120" fill="#000000" font-size="5px" font-weight="bold" font-family="'Helvetica Neue', Helvetica, Arial-Unicode, Arial, Sans-serif">
	from the Noun Project
	</text>
	-->
</svg>
