<svg xmlns="http://www.w3.org/2000/svg" xmlns:xlink="http://www.w3.org/1999/xlink" xml:space="preserve" version="1.1" style="shape-rendering:geometricPrecision;text-rendering:geometricPrecision;image-rendering:optimizeQuality;" viewBox="0 0 846.66 1058.325" x="0px" y="0px" fill-rule="evenodd" clip-rule="evenodd">
	<g>
		<path class="fil0" d="M107.34 686.17l631.98 0c17.35,0 31.51,-14.18 31.51,-31.5l0 -377.16c0,-17.37 -14.15,-31.5 -31.51,-31.5l-330.31 0 0 90.95 -40 0 0 -21.64 -101.56 0 0 21.64 -40 0 0 -90.95 -120.11 0c-17.4,0 -31.51,14.1 -31.51,31.5l0 377.16c0,17.4 14.11,31.5 31.51,31.5zm261.67 -410.85l0 -29.31 -101.56 0 0 29.31 101.56 0zm0 -69.31l0 -31.79c0,-29.58 24.2,-53.73 53.74,-53.73 29.6,0 53.73,24.13 53.73,53.73l0 31.79 262.84 0c39.33,0 71.51,32.17 71.51,71.5l0 377.16c0,39.29 -32.19,71.5 -71.51,71.5l-631.98 0c-39.25,0 -71.51,-32.24 -71.51,-71.5l0 -377.16c0,-39.26 32.25,-71.5 71.51,-71.5l120.11 0 0 -31.79c0,-29.58 24.2,-53.73 53.74,-53.73 29.6,0 53.73,24.13 53.73,53.73l0 31.79 34.09 0zm67.47 0l0 -31.79c0,-7.52 -6.21,-13.73 -13.73,-13.73 -7.56,0 -13.74,6.14 -13.74,13.73l0 31.79 27.47 0zm-141.56 0l0 -31.79c0,-7.52 -6.21,-13.73 -13.73,-13.73 -7.58,0 -13.74,6.17 -13.74,13.73l0 31.79 27.47 0zm-113.37 206.48c29.03,0 67.29,-56.76 113.56,-56.76 46.29,0 84.54,56.76 113.55,56.76 29.03,0 67.27,-56.76 113.57,-56.76 46.28,0 84.52,56.76 113.55,56.76 29.01,0 67.27,-56.76 113.56,-56.76l0 40c-29.03,0 -67.29,56.76 -113.56,56.76 -46.29,0 -84.54,-56.76 -113.55,-56.76 -29.03,0 -67.28,56.76 -113.57,56.76 -46.28,0 -84.52,-56.76 -113.55,-56.76 -29.01,0 -67.26,56.76 -113.56,56.76l0 -40zm-79.53 192.65c29.03,0 67.29,-56.76 113.56,-56.76 46.29,0 84.54,56.76 113.55,56.76 29.03,0 67.27,-56.76 113.57,-56.76 46.28,0 84.52,56.76 113.55,56.76 29.01,0 67.27,-56.76 113.56,-56.76l0 40c-29.03,0 -67.29,56.76 -113.56,56.76 -46.29,0 -84.54,-56.76 -113.55,-56.76 -29.03,0 -67.28,56.76 -113.57,56.76 -46.28,0 -84.52,-56.76 -113.55,-56.76 -29.01,0 -67.26,56.76 -113.56,56.76l0 -40z" />
	</g>
	<!-- Created by ZakaUddin -->
</svg>
