<svg xmlns="http://www.w3.org/2000/svg" xmlns:xlink="http://www.w3.org/1999/xlink" xml:space="preserve" version="1.1" style="shape-rendering:geometricPrecision;text-rendering:geometricPrecision;image-rendering:optimizeQuality;" viewBox="0 0 846.66 1058.325" x="0px" y="0px" fill-rule="evenodd" clip-rule="evenodd">
	<g>
		<path class="fil0" d="M549.58 260.88l0 428.98c0,10.48 -8.51,19 -19,19l-214.49 0c-10.49,0 -19,-8.52 -19,-19l0 -428.98c0,-164.1 252.49,-164.09 252.49,0zm-175.67 383.6c-24.99,0 -24.99,-38 0,-38l98.86 0c24.99,0 24.99,38 0,38l-98.86 0zm0 -62.63c-24.99,0 -24.99,-38 0,-38l98.86 0c24.99,0 24.99,38 0,38l-98.86 0zm0 -62.63c-24.99,0 -24.99,-38 0,-38l98.86 0c24.99,0 24.99,38 0,38l-98.86 0zm120.36 -260.88l0 77.64c0,17.58 -14.29,31.86 -31.87,31.86l-78.13 0c-17.58,0 -31.86,-14.28 -31.86,-31.86l0 -77.64c0,-91.96 141.86,-93.32 141.86,0zm-103.86 0l0 71.5 65.86 0 0 -71.5c0,-43.07 -65.86,-43.19 -65.86,0zm-55.32 2.54l0 409.98 176.49 0 0 -409.98c0,-115.52 -176.49,-115.52 -176.49,0z" />
	</g>
	<!-- Created by Susannanova -->
</svg>
