<svg xmlns="http://www.w3.org/2000/svg" xmlns:xlink="http://www.w3.org/1999/xlink" version="1.1" x="0px" y="0px" viewBox="0 0 23.573 30" style="enable-background:new 0 0 23.573 24;" xml:space="preserve">
	<path d="M0.787,24h22c0.55,0,0.891-0.437,0.758-0.971L20.029,8.971C19.896,8.436,19.336,8,18.787,8h-6V5.816  c1.162-0.414,2-1.512,2-2.816c0-1.656-1.344-3-3-3c-1.656,0-3,1.344-3,3c0,1.305,0.838,2.402,2,2.816V8h-6  c-0.55,0-1.109,0.436-1.242,0.971L0.029,23.029C-0.104,23.563,0.237,24,0.787,24z M9.787,3c0-1.102,0.897-2,2-2c1.102,0,2,0.898,2,2  c0,1.103-0.898,2-2,2C10.684,5,9.787,4.103,9.787,3z" />
	<!-- Created by Hea Poh Lin -->
</svg>
