<svg xmlns="http://www.w3.org/2000/svg" xmlns:xlink="http://www.w3.org/1999/xlink" version="1.1" x="0px" y="0px" viewBox="0 0 53 66.25" enable-background="new 0 0 53 53" xml:space="preserve">
	<g>
		<path d="M43.6455,28.11548c-0.61926-4.42072-2.93335-8.43384-6.46167-11.20416c0.87769-3.71735-0.18896-7.80646-3.14136-10.58716   C29.58716,2.1348,22.62233,2.42109,18.49951,6.80658c-2.61047,2.7702-3.49402,6.60791-2.66504,10.09955   c-3.52856,2.77271-5.83911,6.78986-6.44995,11.21625c-1.85352,0.55054-3.55542,1.57629-4.89575,3.005   c-6.56436,6.98532-1.58364,18.5293,8.01367,18.5293c2.82007,0,5.54028-1.11041,7.60767-3.08337   c2.03198,0.81567,4.17639,1.24939,6.39722,1.24939c2.22095,0,4.36133-0.43207,6.38696-1.24213   c4.9035,4.73043,12.84098,3.52387,15.77319-0.55573c4.00195-4.40723,3.7207-11.30762-0.62598-15.38086   C46.7771,29.45502,45.2727,28.59851,43.6455,28.11548z M19.95556,8.17767c3.44225-3.6613,9.1367-3.76286,12.71582-0.39697   c3.26379,3.07416,3.71143,8.09998,1.19385,11.71826c-1.11499-1.57312-2.68774-2.71814-4.48926-3.31683   c1.06055-0.84735,1.75439-2.1355,1.75439-3.59528c0-2.54736-2.07227-4.62012-4.62012-4.62012s-4.62012,2.07275-4.62012,4.62012   c0,1.45728,0.69165,2.74335,1.74902,3.59082c-1.8262,0.61145-3.35359,1.73816-4.47876,3.32428   C16.74499,16.07574,17.01391,11.29907,19.95556,8.17767z M23.39013,12.58685c0-1.72021,1.39941-3.12012,3.12012-3.12012   s3.12012,1.3999,3.12012,3.12012c0,1.71179-1.38647,3.10406-3.09546,3.11761c-0.00928,0-0.01831-0.00189-0.02759-0.00189   c-0.0094,0-0.01855,0.00128-0.02808,0.00128C24.77319,15.68677,23.39013,14.29645,23.39013,12.58685z M26.51025,17.20697   c0.00867,0,0.0166-0.0025,0.02527-0.00256c2.60339,0.00964,4.95398,1.33307,6.32422,3.49463   c-1.69519,1.69733-3.93396,2.63684-6.34753,2.63684c-2.26692,0-4.53803-0.8362-6.34302-2.63232   c1.42315-2.27115,3.83416-3.49046,6.31006-3.49969C26.48986,17.20392,26.49963,17.20697,26.51025,17.20697z M5.94677,32.49652   c3.44354-3.66978,9.13525-3.76208,12.71582-0.39551c3.27246,3.0755,3.71973,8.10413,1.19226,11.72119   c-1.10925-1.55347-2.69617-2.70502-4.49451-3.3111c1.06677-0.84698,1.76514-2.13934,1.76514-3.60443   c0-2.54785-2.07226-4.62012-4.62012-4.62012s-4.62012,2.07227-4.62012,4.62012c0,1.45782,0.69177,2.74414,1.74951,3.59149   c-1.11609,0.37299-2.15869,0.95459-3.05811,1.73663c-0.54321,0.47028-1.01367,1.00562-1.42407,1.58716   C2.74511,40.39478,3.01355,35.61743,5.94677,32.49652z M9.38525,36.90668c0-1.7207,1.39941-3.12012,3.12012-3.12012   s3.12012,1.39941,3.12012,3.12012c0,1.71265-1.38696,3.10474-3.09668,3.11774c-0.00732,0-0.01416-0.00153-0.02148-0.00153   c-0.0094,0-0.0188,0.00128-0.02808,0.00128C10.77087,40.0097,9.38525,38.61841,9.38525,36.90668z M12.50537,41.52679   c0.0083,0,0.01575-0.00238,0.02393-0.00244c2.56689,0.00781,4.96167,1.35956,6.32031,3.49451   c-1.69507,1.69836-3.93384,2.63782-6.34717,2.63782c-2.28391,0-4.55229-0.84895-6.34131-2.63092   c0.38599-0.61615,0.84485-1.1781,1.39893-1.65814c1.36011-1.18329,3.10596-1.83667,4.91919-1.84344   C12.48816,41.52423,12.49634,41.52679,12.50537,41.52679z M21.49975,44.96613c3.08032-4.39111,2.54077-10.55579-1.46802-14.32214   c-2.2848-2.14854-5.37082-3.23595-8.56384-2.93109c0.63098-3.41577,2.41321-6.51703,5.05481-8.79541   c1.7718,3.87656,5.63929,6.4184,9.9895,6.4184c4.15566,0,8.16311-2.40299,9.98511-6.41217   c2.64172,2.27649,4.42859,5.37421,5.06604,8.78558c-3.47654-0.33119-6.80853,1.01312-9.06482,3.41809   c-3.58936,3.81952-3.91394,9.66864-0.97693,13.84045C28.30261,46.08087,24.72863,46.08307,21.49975,44.96613z M37.39502,36.90668   c0-1.7207,1.39941-3.12012,3.12012-3.12012s3.12012,1.39941,3.12012,3.12012c0,1.71259-1.38684,3.10468-3.09644,3.11774   c-0.00732,0-0.0144-0.00153-0.02173-0.00153c-0.0094,0-0.0188,0.00128-0.02808,0.00128   C38.78051,40.0097,37.39502,38.61841,37.39502,36.90668z M40.51513,41.52679c0.0083,0,0.01599-0.00238,0.02429-0.00244   c2.59998,0.00769,4.95166,1.33069,6.32288,3.4917c-3.48919,3.49861-9.14657,3.54749-12.69336,0.00763   c0.37866-0.60504,0.84094-1.17377,1.38916-1.65411c1.37183-1.18427,3.12158-1.83862,4.93091-1.8454   C40.49804,41.52423,40.5061,41.52679,40.51513,41.52679z M47.86914,43.81696c-1.11523-1.57245-2.68787-2.71674-4.48804-3.31506   c1.06042-0.84723,1.75415-2.13531,1.75415-3.59521c0-2.54785-2.07227-4.62012-4.62012-4.62012s-4.62012,2.07227-4.62012,4.62012   c0,1.45807,0.69202,2.74457,1.75012,3.59192c-1.11707,0.37317-2.16394,0.95526-3.07141,1.73914   c-0.53638,0.47009-1.00671,1.00812-1.4126,1.58246c-2.40625-3.42706-2.13733-8.20325,0.79541-11.32367   c3.44453-3.67083,9.1362-3.76126,12.7168-0.39453C49.95617,35.1792,50.39672,40.22375,47.86914,43.81696z" />
	</g>
	<!--
	<text x="0" y="68" fill="#000000" font-size="5px" font-weight="bold" font-family="'Helvetica Neue', Helvetica, Arial-Unicode, Arial, Sans-serif">
	Created by Vectors Point
	</text>
	<text x="0" y="73" fill="#000000" font-size="5px" font-weight="bold" font-family="'Helvetica Neue', Helvetica, Arial-Unicode, Arial, Sans-serif">
	from the Noun Project
	</text>
	-->
</svg>
