<svg xmlns="http://www.w3.org/2000/svg" xmlns:xlink="http://www.w3.org/1999/xlink" version="1.1" x="0px" y="0px" viewBox="0 0 100 125" style="enable-background:new 0 0 100 100;" xml:space="preserve">
	<g>
		<path d="M82.9,13.5c-6.4-1-12.5,2.8-14.6,8.7c-2.6,0.2-5.2,0.7-7.6,1.6l2.6,7.1c1.5-0.5,3-0.9,4.6-1.1c1.2,5.1,5.4,9.2,10.9,10   C86,41,92.9,36,94,28.8C95.1,21.5,90.1,14.7,82.9,13.5z" />
		<path d="M32.4,71.5c-0.8-5.7-5.2-10.4-11.2-11.4C14,59,7.1,64,6,71.2c-1.1,7.3,3.9,14.1,11.1,15.2c6,0.9,11.7-2.3,14.1-7.5   c0.9,0.1,1.9,0.1,2.7,0.1c2.2,0,4.3-0.2,6.1-0.7L38.2,71C36.6,71.5,34.6,71.6,32.4,71.5z" />
		<path d="M41.1,69.8l4.3,6.3c3.1-2.1,5.3-5.3,6.4-9.3l-7.3-2C43.8,67,42.7,68.7,41.1,69.8z" />
		<path d="M44.5,52.9l0,0.3c0.4,2.2,0.5,4.3,0.5,6.2c0,0.6,0,1.1-0.1,1.7l7.5,0.5c0-0.7,0.1-1.4,0.1-2.2c0-2.3-0.2-4.7-0.6-7.4   L44.5,52.9z" />
		<path d="M44.1,47.9L44.1,47.9h7.6c0-2.6,0.4-5,1.3-7.2l-7-2.8C44.7,41,44.1,44.4,44.1,47.9z" />
		<path d="M48.4,33.3l6.2,4.3c1.4-2,3.1-3.6,5.3-4.9L56,26.1C52.9,28,50.4,30.4,48.4,33.3z" />
	</g>
	<!-- Created by Melissa Schmitt -->
</svg>
