<?xml version="1.0" encoding="UTF-8"?>
<svg width="700pt" height="700pt" version="1.1" viewBox="0 0 700 700" xmlns="http://www.w3.org/2000/svg" xmlns:xlink="http://www.w3.org/1999/xlink">
  <path d="m527.52 139.44h-353.92c-13.441 0-25.199 10.641-25.762 24.078-0.55859 14 10.641 25.762 24.641 25.762h115.36l3.3594 128.8-29.121 196c-2.2383 15.121 8.3984 29.121 22.961 31.359 15.121 2.2383 29.121-8.3984 31.359-22.961l29.121-194.32c0.55859-2.2383 2.2383-3.9219 4.4805-3.9219 2.2383 0 3.9219 1.6797 4.4805 3.9219l29.121 194.32c2.2383 13.441 14 23.52 27.441 23.52 1.1211 0 2.8008 0 3.9219-0.55859 15.121-2.2383 25.199-16.238 22.961-31.359l-29.121-196 3.3594-128.8h114.8c13.441 0 25.199-10.641 25.762-24.078-0.003906-14.004-11.203-25.762-25.203-25.762z"/>
  <path d="m404.88 68.879c0 30.309-24.57 54.883-54.879 54.883s-54.879-24.574-54.879-54.883 24.57-54.879 54.879-54.879 54.879 24.57 54.879 54.879"/>
  <!-- Created by Adrien Coquet -->
</svg>
