<svg xmlns="http://www.w3.org/2000/svg" xmlns:xlink="http://www.w3.org/1999/xlink" viewBox="0 0 42 52.5" version="1.1" x="0px" y="0px">
	<g stroke="none" stroke-width="1" fill="none" fill-rule="evenodd">
		<g transform="translate(-4.000000, -4.000000)" fill="#000000" fill-rule="nonzero">
			<path d="M4.33012697,36.5146484 L4.33012697,35.0146484 L10.9260254,35.0146489 C12.386768,35.014649 13.3708064,35.3746296 14.0187554,36.0352437 C14.2347503,36.2554606 14.2720347,36.3097149 14.5380441,36.7338561 C16.6739971,40.1395471 20.4053451,42.25 24.5,42.25 C28.6074375,42.25 32.3488494,40.1262567 34.4810358,36.7033303 C34.4581583,36.740057 34.5990471,36.5097928 34.6489212,36.4331635 C34.7375967,36.2969175 34.8271426,36.1743761 34.9290145,36.055014 C35.4928701,35.3943502 36.2905568,35.014649 37.4006347,35.0146489 L45.8203125,35.0146484 L45.8203125,36.5146484 L37.4006348,36.5146489 C36.7363723,36.514649 36.3530309,36.6971206 36.0699684,37.028782 C35.9713545,37.1443269 36.0224532,37.065816 35.7542259,37.4964174 C33.350945,41.3545479 29.130862,43.75 24.5,43.75 C19.8835614,43.75 15.6748036,41.3695238 13.2672885,37.5308381 C13.0684162,37.2137443 13.0563348,37.1961641 12.9478796,37.0855889 C12.6015582,36.7324981 12.0060484,36.514649 10.9260253,36.5146489 L4.33012697,36.5146484 Z M20.2119533,27.9120486 C20.4840402,26.9491282 20.4183289,26.0540094 20.0148195,25.2266924 C19.61131,24.3993753 18.9464026,23.796504 18.0200975,23.4180784 C17.7480106,24.3809988 17.8137219,25.2761176 18.2172314,26.1034347 C18.6207409,26.9307517 19.2856482,27.5336231 20.2119533,27.9120486 Z M21.6554341,28.3199248 L21.1989032,29.9355958 L19.6446685,29.3006407 C18.3845943,28.7858597 17.4380447,27.9276234 16.8690403,26.7609914 C16.3000358,25.5943594 16.2064905,24.3200851 16.5766167,23.0102022 L17.0331476,21.3945312 L18.5873823,22.0294863 C19.8474565,22.5442673 20.7940061,23.4025036 21.3630105,24.5691356 C21.932015,25.7357676 22.0255603,27.0100419 21.6554341,28.3199248 Z M26.9396926,29.0404832 C27.8213671,28.5673055 28.4196148,27.898235 28.7344356,27.0332718 C29.0492564,26.1683087 29.0210424,25.2712248 28.6497933,24.3420201 C27.7681189,24.8151979 27.1698712,25.4842684 26.8550504,26.3492316 C26.5402295,27.2141947 26.5684436,28.1112786 26.9396926,29.0404832 Z M27.6490171,30.3621711 L26.1696676,31.1561096 L25.546754,29.5970099 C25.0417353,28.3329914 25.0015703,27.0559196 25.4455114,25.8362013 C25.8894526,24.6164831 26.7411067,23.6640069 27.9404688,23.0203323 L29.4198183,22.2263938 L30.042732,23.7854935 C30.5477506,25.049512 30.5879157,26.3265838 30.1439745,27.5463021 C29.7000334,28.7660203 28.8483793,29.7184965 27.6490171,30.3621711 Z M24.830127,37.3660254 C24.5172391,36.4155791 23.9622179,35.7102373 23.1650635,35.25 C22.3679091,34.7897627 21.4795546,34.6617712 20.5,34.8660254 C20.812888,35.8164717 21.3679091,36.5218135 22.1650635,36.9820508 C22.9622179,37.4422881 23.8505724,37.5702796 24.830127,37.3660254 Z M26.2549084,36.8969858 L26.7798988,38.4917267 L25.1363175,38.834442 C23.8038067,39.1122938 22.5391619,38.9300874 21.4150635,38.2810889 C20.2909651,37.6320904 19.5008474,36.627979 19.0752187,35.335065 L18.5502282,33.7403241 L20.1938095,33.3976088 C21.5263203,33.119757 22.7909651,33.3019634 23.9150635,33.9509619 C25.0391619,34.5999604 25.8292796,35.6040718 26.2549084,36.8969858 Z M11.2024284,19.1619087 C9.75037367,20.1633748 8.73294296,20.3892014 6.94813944,20.1394104 C4.82374036,19.8420916 4.00072528,16.5024462 5.54867225,15.367243 C5.41132292,15.4679696 9.98017929,11.9594354 12.1741049,10.3192975 C12.3751794,10.1689779 12.5735613,10.0210772 12.7692105,9.87563809 C16.685399,6.96447445 19.1852531,5.26114617 20.1273987,4.99179327 C21.3100964,4.6536682 22.0499339,4.51928037 22.8413306,4.4877161 C23.0375611,4.47988959 23.2385466,4.47784628 23.491568,4.47991148 C23.6320861,4.48105841 24.1529852,4.48893053 24.1989452,4.48950754 C25.1392637,4.50131295 29.5003882,4.68903821 37.3239318,5.05413425 L44.8924599,4.13983907 C45.3035859,4.08935914 45.6777915,4.3817206 45.7282715,4.79284668 C45.7787514,5.20397276 45.48639,5.57817837 45.0752639,5.6286583 L37.4437539,6.55068668 L37.3173821,6.55546136 C29.4893173,6.1900693 25.0962445,6.00089106 24.1801146,5.98938934 C24.1295568,5.9887546 23.6136451,5.98095785 23.4793252,5.97986151 C23.2483552,5.9779763 23.0699608,5.97978994 22.9011095,5.98652445 C22.2408974,6.01285652 21.6154597,6.1264642 20.5397188,6.43401106 C19.8694519,6.62563574 17.3042193,8.37351095 13.6640917,11.0794602 C13.4695465,11.2240786 13.2722496,11.3711705 13.0722441,11.5206908 C10.8911615,13.1512276 6.31475091,16.6655628 6.43573915,16.5768348 C5.96935409,16.9188632 6.36981285,18.543852 7.15604462,18.6538885 C8.57585046,18.8525964 9.21441403,18.7108623 10.3508007,17.927109 C11.2338133,17.318105 13.346599,16.0356697 16.7112136,14.0651129 C17.0152638,13.1865783 17.8189365,12.6328231 19.1356677,12.3718487 C20.2489229,12.151203 22.9412549,11.6764723 27.2230136,10.9456729 C27.6313227,10.8759837 28.0188168,11.1504895 28.0885059,11.5587985 C28.1581951,11.9671076 27.8836894,12.3546017 27.4753803,12.4242908 C23.2083826,13.1525708 20.5222369,13.6262108 19.427293,13.8432272 C18.1720772,14.0920093 17.9210633,14.4362628 18.1335049,15.5304052 C18.2611573,16.1878556 18.5222666,16.506428 18.9798758,16.6127492 L25.0102467,15.5494321 C26.8083028,15.3689491 28.4293581,15.5890341 29.9188278,16.2047651 C31.5365482,16.8735135 33.9675277,16.7833026 36.2740282,16.1527897 C37.3801261,15.850423 38.8260932,14.8429246 40.5675836,13.1216759 C40.8205299,12.8716697 41.1436446,12.7046653 41.4938887,12.6429078 L44.9901684,11.8888204 C45.3980894,11.8168941 45.7870824,12.0892715 45.8590088,12.4971924 C45.9309351,12.9051133 45.6585577,13.2941064 45.2506368,13.3660327 L41.754359,14.1201198 C41.7043238,14.1289423 41.6581624,14.1528012 41.6220256,14.188518 C39.7134458,16.074914 38.0774063,17.2148481 36.6695611,17.5997015 C34.0722903,18.3097004 31.330487,18.4114456 29.3457779,17.590988 C28.0900456,17.0718816 26.7165543,16.8854075 25.2145024,17.0343764 L19.1062013,18.1136145 L18.9848062,18.1350198 L18.8629459,18.1164443 C17.6783126,17.935867 16.9194254,17.1222946 16.6640751,15.8319759 C13.7996981,17.5163692 11.9734863,18.6301186 11.2024284,19.1619087 Z" />
		</g>
	</g>
	<!-- Created by  Boris -->
</svg>
