<svg xmlns="http://www.w3.org/2000/svg" data-name="Layer 1" viewBox="0 0 100 125" x="0px" y="0px">
	<path d="M94.45978,20.69244l-.06494-.06494a1.84133,1.84133,0,0,0-2.60407,0L75.77985,36.63843a1.74358,1.74358,0,1,1-2.40369-2.40369l16.01092-16.011a1.84133,1.84133,0,0,0-2.60406-2.604L70.77209,31.63068a1.95329,1.95329,0,0,1-2.70971.30609,1.95328,1.95328,0,0,1,.306-2.70978L84.37933,13.21606a1.84133,1.84133,0,0,0-2.604-2.60406L65.7644,26.623a1.9534,1.9534,0,0,1-2.70977.306,1.95328,1.95328,0,0,1,.306-2.70978L79.37158,8.20831a1.8413,1.8413,0,0,0,0-2.60406l-.06494-.06494a1.84134,1.84134,0,0,0-2.4715-.12024l-9.74279,8.01129C56.93372,21.78333,53.7821,26.16962,53.74274,33.2392,53.72,37.33728,52.88794,41.42535,49.037,45.188,36.574,57.36511,19.61371,67.27448,7.37952,83.7774c-3.238,4.3678-2.89789,7.16651-.61115,9.45331s5.07886,2.63184,9.45331-.61114C32.72467,80.38538,42.634,63.42505,54.8111,50.9621c3.76263-3.85095,7.8507-4.683,11.94879-4.70575,7.06958-.03931,11.45587-3.191,19.8089-13.34961L94.58,23.16394A1.84135,1.84135,0,0,0,94.45978,20.69244Z" />
	<!--
	<text x="0" y="115" fill="#000000" font-size="5px" font-weight="bold" font-family="'Helvetica Neue', Helvetica, Arial-Unicode, Arial, Sans-serif">
	Created by Lnhi
	</text>
	<text x="0" y="120" fill="#000000" font-size="5px" font-weight="bold" font-family="'Helvetica Neue', Helvetica, Arial-Unicode, Arial, Sans-serif">
	from the Noun Project
	</text>
	-->
</svg>
