<?xml version="1.0" encoding="UTF-8"?>
<svg width="700pt" height="700pt" version="1.1" viewBox="0 0 700 700" xmlns="http://www.w3.org/2000/svg" xmlns:xlink="http://www.w3.org/1999/xlink">
  <path d="m228.48 369.6-12.32-2.2383c-1.1211 0-2.2383 0.55859-2.2383 1.6797l-1.6797 10.641c0 1.1211-1.1211 1.6797-1.6797 1.6797-3.9219 0.55859-8.9609 1.6797-11.199-0.55859-3.9219-3.9219-6.1602-10.078-9.5195-16.801 0.55859 0-2.8008-0.55859-3.3594 0.55859-2.8008 6.7188-8.3984 12.32-14.559 7.8398-6.1602-4.4805-10.078-12.32-13.441-19.602-2.2383-5.0391 2.2383-14-8.9609-12.879-0.55859 0-2.2383-5.6016-1.1211-7.8398 1.1211-3.3594 3.9219-6.1602 6.7188-9.5195 0.55859-0.55859 0.55859-1.1211 0.55859-1.6797l-2.2383-14c3.9219-1.6797 3.3594-1.6797 7.2812-3.3594l1.6797 1.6797c1.6797-0.55859 2.8008-1.1211 2.8008-1.6797 0.55859-24.078 24.641-30.801 35.281-47.602 5.6016-9.5195 14.559-16.801 22.961-24.078 14-12.32 14.559-12.32 23.52 1.6797 0.55859 1.1211 1.6797 1.1211 2.8008 0.55859l11.199-10.078c-0.55859-0.55859-0.55859-1.6797-1.1211-2.2383l-3.3594 1.1211c-2.2383-2.8008-2.2383-2.8008-4.4805-6.1602l10.641-15.68c3.9219 0.55859 4.4805 0.55859 8.3984 1.1211 0.55859 1.1211 1.6797 1.6797 2.8008 1.1211 4.4805-2.8008 9.5195-5.6016 14-8.3984 8.9609-6.1602 18.48-12.32 27.441-18.48 2.2383-1.1211 6.1602-1.6797 6.1602-2.8008 3.9219-17.359 19.039-11.762 29.121-13.441 16.801-2.2383 35.84-1.1211 47.039 15.121 10.078 14.559 23.52 19.039 40.32 16.801 8.9609-1.1211 10.641 2.8008 12.879 10.078 1.6797 5.0391 7.2812 10.641 12.32 12.32 11.199 3.3594 22.961 2.8008 25.762 19.039 1.6797 7.2812 10.078 14.559 17.359 19.602 14.559 10.641 30.238 20.16 44.801 29.68 1.1211 0.55859 2.2383 0 2.8008-0.55859l2.2383-5.6016c0.55859-1.1211 2.2383-1.1211 3.3594 0 2.8008 5.0391 4.4805 8.9609 6.1602 12.879 1.1211 3.3594 1.6797 7.2812 2.2383 12.32 0 1.1211 1.6797 2.2383 2.8008 1.1211l9.5195-7.2812c0.55859-0.55859 1.6797-0.55859 2.2383 0 6.7188 6.7188 14 14.559 20.719 22.398 2.8008 3.3594 6.1602 7.8398 5.0391 11.199-0.55859 3.3594-5.6016 6.1602-9.5195 7.8398-5.0391 2.2383-11.199 2.8008-14 3.3594-0.55859 0-1.1211 0.55859-1.1211 1.1211-3.3594 7.2812-4.4805 14.559-8.3984 15.68-4.4805 1.6797-10.641-0.55859-16.238-4.4805-0.55859-0.55859-1.1211-0.55859-1.6797 0l-36.398 11.199c-0.55859 0-1.1211 0.55859-1.1211 1.1211-6.7188 14.559-16.238 16.801-34.719 5.6016-1.1211-0.55859-1.6797-1.1211-2.8008-1.1211h-43.68c-1.1211 0-1.6797 0.55859-1.6797 1.6797v21.84c0 1.1211-1.1211 2.2383-2.2383 1.6797-8.9609-1.1211-19.039 2.2383-22.398-11.199-0.55859-1.1211-8.9609-1.6797-12.879-0.55859-3.3594 1.1211-6.1602 4.4805-9.5195 7.2812-0.55859 0.55859-1.1211 1.6797-0.55859 2.2383l3.9219 5.6016c0.55859 1.1211 0 2.8008-1.6797 2.8008l-15.121-1.6797c-1.1211 0-1.6797-1.1211-1.6797-2.2383 2.2383-9.5195 14.559-19.039-0.55859-26.879-1.1211 0.55859-2.2383 1.1211-2.2383 1.6797-0.55859 5.6016-1.1211 16.801-2.2383 16.801-8.9609 0.55859-17.922-0.55859-26.879-2.2383-3.3594-0.55859-7.2812-5.6016-9.5195-4.4805-16.801 5.6016-29.68 1.6797-40.32-11.762-0.55859-1.1211-2.2383-1.1211-2.8008 0-7.8594 12.309-6.7383 16.227 3.9023 21.828 1.6797 0.55859 1.1211 2.8008-0.55859 3.3594l-20.719 4.4805c-1.1211 0-2.2383-0.55859-2.2383-1.6797-1.1211-3.9219-1.1211-8.3984-3.3594-10.078-3.3594-2.8008-8.9609-4.4805-13.441-4.4805-5.6016 0.55859-11.199 2.8008-16.238 4.4805-1.1211 0.55859-2.2383 0-2.2383-1.1211l-4.4805-16.801c-1.125 0-1.6875-0.55859-2.2461-0.55859zm-41.441-70.562-2.8008-1.6797c-1.1172-0.55859-2.2383-0.55859-2.7969 0.5625l-12.32 17.922c-0.55859 0.55859-0.55859 2.2383 0.55859 2.8008l2.8008 1.6797c0.55859 0.55859 2.2383 0.55859 2.8008-0.55859l12.32-17.922c0.55859-1.125 0-2.2422-0.5625-2.8047z"/>
  <path d="m133.28 305.76-5.6016 27.441c0 0.55859 0 1.1211 0.55859 1.6797l16.238 13.441c1.1211 0.55859 1.1211 2.2383 0 2.8008-3.9219 2.8008-7.2812 5.6016-11.199 7.8398-3.3594-2.2383-3.3594-2.2383-6.7188-4.4805 5.0391-20.719-14.559-13.441-25.199-17.922-1.1211-0.55859-1.6797-1.6797-1.1211-2.2383 5.0391-11.199 1.1211-27.441 19.602-30.801 4.4805-0.55859 8.9609-2.8008 12.879-4.4805 4.4805-2.2383 8.3984-5.0391 12.879-7.2812 1.6797-1.1211 3.3594 1.1211 2.2383 2.8008l-12.32 14.559c0.003906-1.1211-1.1172-2.2422-2.2344-3.3594z"/>
	<!-- Created by Shawn Erdely -->
</svg>
