<svg xmlns="http://www.w3.org/2000/svg" xmlns:xlink="http://www.w3.org/1999/xlink" version="1.1" x="0px" y="0px" viewBox="0 0 1173.885 1052.3625" enable-background="new 0 0 1173.885 841.89" xml:space="preserve">
	<path d="M889.353,448.523c26.691-22.1,56.944-47.145,64.806-91.928c3.8-21.653,13.771-96.525-17.456-150.91  c-14.384-25.052-37.537-43.619-68.815-55.184c-21.627-7.996-46.898-12.639-77.257-14.195c-29.757-1.52-56.751,3.333-80.224,14.433  c-25.78,12.192-46.746,31.584-62.315,57.64c-34.473,57.695-11.74,127.234,8.355,174.521c6.481,15.249,24.094,22.357,39.345,15.875  c15.248-6.48,22.356-24.096,15.875-39.344c-23.801-56.003-27.637-94.222-12.068-120.277c18.504-30.967,47.289-45.01,87.964-42.926  c51.668,2.647,83.433,15.513,97.108,39.332c16.854,29.354,16.132,77.958,10.393,110.663c-3.847,21.913-19.215,35.587-43.972,56.083  c-18.939,15.681-40.406,33.454-55.421,59.407c-17.501,30.25-22.737,65.465-16.011,107.656c2.355,14.76,15.104,25.277,29.589,25.277  c1.571,0.002,3.16-0.121,4.762-0.377c16.361-2.609,27.511-17.988,24.9-34.35C829.102,498.404,854.375,477.482,889.353,448.523z" />
	<path d="M950.933,608.367c-16.55-0.615-30.467,12.338-31.066,28.895c-0.188,5.238-0.326,10.33-0.457,15.254  c-1.123,42.021-2.544,62.91-22.403,78.484c-27.711,21.729-60.253,28.109-91.635,17.971c-36.208-11.699-65.82-43.654-77.281-83.395  c-3.064-10.633-5.803-21.145-8.449-31.311c-9.896-37.994-19.24-73.881-43.723-112.762c-9.532-15.141-19.677-29.734-29.485-43.848  c-16.488-23.724-32.233-46.388-44.67-70.628c0.037,2.669,0.062,5.339,0.062,8.013c0,31.256-2.552,62.178-7.609,92.613  c0.983,1.417,1.967,2.833,2.948,4.245c9.427,13.562,19.175,27.588,27.981,41.574c19.531,31.021,27.362,61.092,36.432,95.912  c2.744,10.537,5.581,21.432,8.863,32.812c8.411,29.17,23.704,56.051,44.226,77.734c20.321,21.471,45.308,37.422,72.258,46.133  c15.804,5.105,31.828,7.666,47.881,7.666c8.686,0,17.377-0.748,26.051-2.25c26.18-4.527,50.8-15.721,73.175-33.266  c42.943-33.674,44.171-79.643,45.359-124.096c0.128-4.785,0.26-9.732,0.438-14.686C980.428,622.875,967.491,608.966,950.933,608.367  z" />
	<path d="M1037.716,124.823c-22.228-38.712-60.533-67.493-113.854-85.541c-36.727-12.431-79.835-19.767-131.786-22.427  c-48.555-2.488-94.648,4.254-133.291,19.494c-46.599,18.378-82.604,48.414-107.018,89.272c-5.309,8.885-10.115,18.188-14.402,27.85  c8.541,16.249,16.303,32.953,23.258,50.092c5.087,12.532,9.706,25.196,13.857,37.978c4.361-31.027,13.98-60.356,28.791-85.144  c44.964-75.25,135.662-82.183,185.735-79.621c103.872,5.319,170.043,31.536,196.676,77.922  c31.482,54.835,34.497,88.912,35.084,172.318c0.116,16.495,13.525,29.788,29.995,29.789c0.073,0,0.143,0,0.215-0.001  c16.568-0.116,29.905-13.642,29.789-30.21C1080.172,242.245,1077.986,194.963,1037.716,124.823z" />
	<path d="M526.756,181.35C500.449,126.5,465.14,76.747,421.497,33.103c-3.588-3.589-8.359-5.565-13.435-5.565  s-9.846,1.976-13.434,5.565c-7.409,7.408-7.409,19.462-0.001,26.87c54.948,54.948,94.473,119.569,118.578,188.431  c19.399,55.419,28.808,113.586,28.23,171.672C540.173,546.98,491.24,673.494,394.626,770.11c-3.589,3.588-5.565,8.359-5.565,13.435  s1.976,9.847,5.564,13.435c3.589,3.589,8.361,5.565,13.435,5.565s9.847-1.978,13.438-5.567  c51.594-51.596,91.544-111.73,118.739-178.731c17.994-44.335,29.91-90.383,35.633-137.531c2.63-21.679,3.955-43.59,3.955-65.674  c0-70.122-13.318-138.49-39.587-203.204C536.047,201.508,531.55,191.345,526.756,181.35z" />
	<path d="M386.586,251.048c-21.946-54.071-54.187-102.602-95.827-144.244c-3.588-3.588-8.359-5.564-13.435-5.564  s-9.846,1.976-13.434,5.564c-3.59,3.589-5.566,8.361-5.566,13.436s1.976,9.846,5.565,13.435  c155.143,155.146,155.143,407.587,0,562.735c-7.409,7.408-7.409,19.463,0,26.871c3.588,3.588,8.359,5.563,13.435,5.563  c5.073,0,9.846-1.978,13.438-5.567c41.637-41.637,73.877-90.168,95.825-144.243c21.199-52.231,31.947-107.406,31.947-163.993  C418.533,358.454,407.784,303.279,386.586,251.048z" />
	<path d="M140.417,183.785c-5.075,0-9.846,1.976-13.434,5.565c-7.409,7.408-7.409,19.462,0,26.87  c109.628,109.631,109.628,288.013-0.002,397.644c-7.407,7.408-7.407,19.463,0.001,26.871c3.588,3.587,8.36,5.563,13.435,5.563  s9.846-1.977,13.437-5.566c60.329-60.332,93.554-140.484,93.554-225.691c0-85.208-33.225-165.36-93.555-225.69  C150.264,185.762,145.493,183.785,140.417,183.785z" />
	<!-- Created by corpus delicti -->
</svg>
