<?xml version="1.0" encoding="UTF-8"?>
<svg width="700pt" height="700pt" version="1.1" viewBox="0 0 700 700" xmlns="http://www.w3.org/2000/svg" xmlns:xlink="http://www.w3.org/1999/xlink">
  <path d="m534.24 75.602c-35.84-5.6016-70 15.68-81.762 48.719-14.559 1.1211-29.121 3.9219-42.559 8.9609l14.559 39.762c8.3984-2.8008 16.801-5.0391 25.762-6.1602 6.7188 28.559 30.238 51.52 61.039 56 40.324 6.7188 78.961-21.281 85.121-61.602 6.1602-40.883-21.84-78.961-62.16-85.68z"/>
  <path d="m251.44 400.4c-4.4805-31.922-29.121-58.238-62.719-63.84-40.324-6.1602-78.961 21.84-85.121 62.16-6.1602 40.879 21.84 78.961 62.16 85.121 33.602 5.0391 65.52-12.879 78.961-42 5.0391 0.55859 10.641 0.55859 15.121 0.55859 12.32 0 24.078-1.1211 34.16-3.9219l-10.082-40.875c-8.9609 2.7969-20.16 3.3594-32.48 2.7969z"/>
  <path d="m300.16 390.88 24.078 35.281c17.359-11.762 29.68-29.68 35.84-52.078l-40.879-11.199c-3.918 12.316-10.078 21.836-19.039 27.996z"/>
  <path d="m319.2 296.24v1.6797c2.2383 12.32 2.8008 24.078 2.8008 34.719 0 3.3594 0 6.1602-0.55859 9.5195l42 2.8008c0-3.9219 0.55859-7.8398 0.55859-12.32 0-12.879-1.1211-26.32-3.3594-41.441z"/>
  <path d="m316.96 268.24h42.559c0-14.559 2.2383-28 7.2812-40.32l-39.199-15.68c-7.2812 17.363-10.641 36.402-10.641 56z"/>
  <path d="m341.04 186.48 34.719 24.078c7.8398-11.199 17.359-20.16 29.68-27.441l-21.836-36.957c-17.363 10.641-31.363 24.078-42.562 40.32z"/>
  <!-- Created by Melissa Schmitt -->
</svg>
