<svg xmlns:x="http://ns.adobe.com/Extensibility/1.0/" xmlns:i="http://ns.adobe.com/AdobeIllustrator/10.0/" xmlns:graph="http://ns.adobe.com/Graphs/1.0/" xmlns="http://www.w3.org/2000/svg" xmlns:xlink="http://www.w3.org/1999/xlink" version="1.1" x="0px" y="0px" viewBox="0 0 100 125" style="enable-background:new 0 0 100 100;" xml:space="preserve">
	<g>
		<g>
			<path d="M5273.1,2400.1v-2c0-2.8-5-4-9.7-4s-9.7,1.3-9.7,4v2c0,1.8,0.7,3.6,2,4.9l5,4.9c0.3,0.3,0.4,0.6,0.4,1v6.4     c0,0.4,0.2,0.7,0.6,0.8l2.9,0.9c0.5,0.1,1-0.2,1-0.8v-7.2c0-0.4,0.2-0.7,0.4-1l5.1-5C5272.4,2403.7,5273.1,2401.9,5273.1,2400.1z      M5263.4,2400c-4.8,0-7.4-1.3-7.5-1.8v0c0.1-0.5,2.7-1.8,7.5-1.8c4.8,0,7.3,1.3,7.5,1.8C5270.7,2398.7,5268.2,2400,5263.4,2400z" />
			<path d="M5268.4,2410.3c-0.6,0-1,0.4-1,1c0,0.6,0.4,1,1,1h4.3c0.6,0,1-0.4,1-1c0-0.6-0.4-1-1-1H5268.4z" />
			<path d="M5272.7,2413.7h-4.3c-0.6,0-1,0.4-1,1c0,0.6,0.4,1,1,1h4.3c0.6,0,1-0.4,1-1C5273.7,2414.1,5273.3,2413.7,5272.7,2413.7z" />
			<path d="M5272.7,2417h-4.3c-0.6,0-1,0.4-1,1c0,0.6,0.4,1,1,1h4.3c0.6,0,1-0.4,1-1C5273.7,2417.5,5273.3,2417,5272.7,2417z" />
		</g>
		<g>
			<path d="M96.1,28.5h-7.8c-0.8,0-1.4,0.6-1.4,1.4v50.6H13.2V29.9c0-0.8-0.6-1.4-1.4-1.4H3.9c-0.8,0-1.4,0.6-1.4,1.4v59.8     c0,0.8,0.6,1.4,1.4,1.4h92.1c0.8,0,1.4-0.6,1.4-1.4V29.9C97.5,29.2,96.9,28.5,96.1,28.5z" />
			<path d="M48.7,68.1c0.8,0.7,2,0.7,2.9,0l20.5-17.7c0.5-0.4,0.8-1,0.8-1.7v-7.5c0-1.9-2.2-2.9-3.6-1.7l-13.9,12V10.2     c0-0.8-0.6-1.4-1.4-1.4h-7.9c-0.8,0-1.4,0.6-1.4,1.4v41.2l-13.9-12c-1.4-1.2-3.6-0.2-3.6,1.7v7.5c0,0.6,0.3,1.2,0.8,1.7     L48.7,68.1z" />
		</g>
	</g>
	<!--
	<text x="0" y="115" fill="#000000" font-size="5px" font-weight="bold" font-family="'Helvetica Neue', Helvetica, Arial-Unicode, Arial, Sans-serif">
	Created by Adrien Coquet
	</text>
	<text x="0" y="120" fill="#000000" font-size="5px" font-weight="bold" font-family="'Helvetica Neue', Helvetica, Arial-Unicode, Arial, Sans-serif">
	from the Noun Project
	</text>
	-->
</svg>
