<?xml version="1.0" encoding="UTF-8"?>
<svg width="700pt" height="700pt" version="1.1" viewBox="0 0 700 700" xmlns="http://www.w3.org/2000/svg" xmlns:xlink="http://www.w3.org/1999/xlink">
  <path d="m210.66 507.06c-0.21875-48.344-12.797-83.453-26.141-120.64-12.961-36.148-26.414-73.555-28.602-124.47l21.875-0.92969c2.0234 47.633 14.875 83.398 27.289 118.02 13.398 37.297 27.18 75.797 27.453 127.91z"/>
  <path d="m129.34 184.46-17.227-13.453c14.93-19.086 36.367-34.398 65.68-46.812 24.062-10.172 48.289-16.242 67.758-21.109 11.812-2.9531 25.211-6.2891 28.492-8.5859l0.054688-0.054688c7.2188-4.9219 10.555-19.742 8.9141-39.539l21.82-1.8047c1.6406 20.18-0.16406 46.867-18.32 59.336-6.5625 4.5391-18.156 7.4375-35.656 11.812-36.914 9.3516-92.695 23.297-121.52 60.211z"/>
  <path d="m570.66 184.41c-28.82-36.914-84.656-50.859-121.57-60.102-17.445-4.375-28.984-7.2188-35.547-11.758-18.156-12.469-20.016-39.156-18.32-59.336l21.82 1.8047c-1.6406 19.797 1.6953 34.562 8.9141 39.539 3.3359 2.2969 16.68 5.6328 28.492 8.5859 19.469 4.8672 43.695 10.938 67.812 21.109 29.312 12.359 50.859 27.672 65.734 46.812z"/>
  <path d="m339.06 319.32h21.875v37.625h-21.875z"/>
  <path d="m339.06 392.93h21.875v114.08h-21.875z"/>
  <path d="m242.81 278.36c-1.5859 0-3.2266-0.054687-4.8125-0.16406l-16.352-0.98437 1.3125-21.82 16.352 0.98438c19.141 1.1484 37.516-7.1641 49.219-22.312l4.6484-6.0156c4.2109-5.4688 9.0781-34.344 9.0781-49.109h21.875c0 6.2891-0.92969 18.211-3.0625 30.68-3.9922 23.297-8.9688 29.695-10.609 31.828l-4.6484 6.0156c-15.094 19.578-38.391 30.898-63 30.898z"/>
  <path d="m457.19 278.36c-24.609 0-47.906-11.32-63-30.898l-4.6484-6.0156c-1.6406-2.0781-6.6172-8.5312-10.609-31.773-2.1328-12.469-3.0625-24.391-3.0625-30.68h21.875c0 14.766 4.8672 43.641 9.0781 49.055l4.6484 6.0156c11.648 15.094 30.078 23.461 49.219 22.312l16.352-0.98438 1.3125 21.82-16.352 0.98437c-1.6406 0.10938-3.2266 0.16406-4.8125 0.16406z"/>
  <path d="m489.45 507.06-21.875-0.10938c0.27344-52.117 14.055-89.141 27.453-124.96 12.414-33.305 25.266-67.758 27.289-115.34l21.875 0.92969c-2.1875 51.078-15.641 87.172-28.656 122.06-13.289 35.602-25.867 69.18-26.086 117.41z"/>
  <path d="m548.79 352.95c-21.328-19.414-28.164-57.586-28.438-59.227l21.547-3.7188-10.773 1.8594 10.773-1.8594c1.5859 8.9688 8.5312 34.891 21.656 46.812z"/>
  <path d="m152.03 352.95-14.766-16.188c13.07-11.922 20.07-37.789 21.656-46.812l21.547 3.7734c-0.27344 1.6406-7.1094 39.812-28.438 59.227z"/>
  <!-- Created by IconPai -->
</svg>
