<svg xmlns="http://www.w3.org/2000/svg" xmlns:xlink="http://www.w3.org/1999/xlink" version="1.1" x="0px" y="0px" viewBox="0 0 90 112.5" enable-background="new 0 0 90 90" xml:space="preserve">
	<path fill="#000000" d="M73.8,12.9c-1.2-0.3-2.4,0.5-2.7,1.7l-3.4,14.3c-3.9-2.2-7.5-0.2-10.8,1.7c-3.9,2.2-7.2,4.1-11.3,0  c-4.7-4.7-9.1-2.2-13,0c-3.4,1.9-6.3,3.6-9.7,1.4l-4.1-17.3c-0.3-1.2-1.5-2-2.7-1.7c-1.2,0.3-2,1.5-1.7,2.7l14.2,59.8  c0.2,1,1.1,1.7,2.2,1.7h28.2c1,0,2-0.7,2.2-1.7l14.2-59.8C75.8,14.4,75,13.2,73.8,12.9z M57.3,72.6H32.7l-9-37.9  c3.8,1.3,7.2-0.6,10.1-2.3c4.2-2.4,6.9-3.7,10.3-0.3c2.2,2.2,4.4,3,6.5,3c2.8,0,5.3-1.4,7.5-2.7c3.7-2.1,6.3-3.3,9.1-1.3L57.3,72.6z  " />
	<!-- Created by Tommy Lau -->
</svg>
