<?xml version="1.0" encoding="UTF-8"?>
<svg width="1200pt" height="1200pt" version="1.1" viewBox="0 0 1200 1200" xmlns="http://www.w3.org/2000/svg">
  <path d="m776.36 698.18c-50.91-18.184-109.09-27.273-165.45-27.273-56.363 0-114.55 9.0898-165.45 27.273-16.363 5.4531-34.547 3.6367-50.91-7.2734-14.547-9.0898-23.637-25.453-23.637-43.637v-434.55c0-23.637 14.547-43.637 36.363-50.91 23.637-9.0898 21.816-7.2734 32.727-10.91 1.8164-7.2734-9.0898-50.91 32.727-69.09 34.547-14.547 69.09-25.453 105.45-30.91-98.184-21.816-201.82-3.6367-290.91 54.547-78.18 50.91-145.45 130.91-141.82 227.27 0 20 0 49.09-16.363 80-20 34.547-45.453 70.91-78.184 110.91-29.09 36.363-38.184 69.09-27.273 96.363 9.0898 27.273 34.547 41.816 52.727 49.09-18.184 56.363 0 109.09 18.184 127.27-27.273 63.637 5.4531 116.36 60 125.45 112.73 18.184 143.64 32.727 152.73 38.184v178.18c0 9.0898 7.2734 18.184 18.184 18.184h381.82c9.0898 0 18.184-9.0898 18.184-18.184 0-1.8164 0-134.55 3.6367-205.45 7.2734-116.36 98.184-96.363 167.27-258.18-29.09 5.4531-56.363 10.91-81.816 21.816-14.547 5.4531-27.273 5.4531-38.184 1.8203z"/>
  <path d="m1169.1 196.36c-7.2734-1.8164-12.727-5.4531-20-7.2734v376.36c0 18.184-9.0898 36.363-25.453 45.453-14.547 9.0898-34.547 10.91-50.91 3.6367-40-18.184-83.637-27.273-127.27-27.273s-87.273 9.0898-127.27 27.273c-12.727 5.4531-29.09 5.4531-43.637 0-40-18.184-83.637-27.273-129.09-27.273-43.637 0-89.09 9.0898-127.27 27.273-18.184 7.2734-38.184 5.4531-52.727-5.4531-14.547-9.0898-23.637-27.273-23.637-45.453v-374.55c-7.2734 1.8164-14.547 5.4531-20 7.2734-7.2734 1.8164-12.727 9.0898-12.727 16.363v432.73c0 5.4531 1.8164 10.91 7.2734 14.547 5.4531 3.6367 10.91 3.6367 16.363 1.8164 110.91-40 245.45-40 356.36 0 3.6367 1.8164 9.0898 1.8164 12.727 0 112.73-40 245.45-40 358.18 0 5.4531 1.8164 10.91 1.8164 16.363-1.8164 5.4531-3.6367 7.2734-9.0898 7.2734-14.547v-432.73c-1.8203-7.2734-7.2734-12.727-14.547-16.363z"/>
  <path d="m476.36 132.73v432.73c0 5.4531 3.6367 12.727 9.0898 14.547 5.4531 3.6367 10.91 3.6367 16.363 1.8164 89.09-40 196.36-40 285.45 0 5.4531 1.8164 10.91 1.8164 14.547 0 90.91-40 194.55-40 285.45 0 5.4531 1.8164 12.727 1.8164 16.363-1.8164 5.4531-3.6367 9.0898-9.0898 9.0898-14.547l0.003906-432.73c0-7.2734-3.6367-14.547-10.91-16.363-98.18-43.637-209.09-45.453-307.27-3.6367-98.184-41.816-210.91-40-307.27 3.6367-7.2734 1.8203-10.91 9.0898-10.91 16.363zm376.36 74.547c58.184-25.453 125.45-25.453 185.45 0 9.0898 3.6367 12.727 14.547 9.0898 23.637s-14.547 12.727-23.637 9.0898c-49.09-21.816-107.27-21.816-154.55 0-9.0898 3.6367-20 0-23.637-9.0898-7.2656-7.2734-1.8125-18.184 7.2773-23.637zm0 118.18c58.184-25.453 125.45-25.453 185.45 0 9.0898 3.6367 12.727 14.547 9.0898 23.637s-14.547 12.727-23.637 9.0898c-49.09-21.816-107.27-21.816-154.55 0-9.0898 3.6367-20 0-23.637-9.0898-7.2656-9.0898-1.8125-20 7.2773-23.637zm0 118.18c58.184-25.453 125.45-25.453 185.45 0 9.0898 3.6367 12.727 14.547 9.0898 23.637-3.6367 9.0898-14.547 12.727-23.637 9.0898-49.09-21.816-107.27-21.816-154.55 0-9.0898 3.6367-20 0-23.637-9.0898-7.2656-9.0898-1.8125-20 7.2773-23.637zm-301.82-236.36c58.184-25.453 125.45-25.453 185.45 0 9.0898 3.6367 12.727 14.547 9.0898 23.637s-14.547 12.727-23.637 9.0898c-49.09-21.816-107.27-21.816-154.55 0-9.0898 3.6367-20 0-23.637-9.0898-5.4492-7.2734-1.8164-18.184 7.2773-23.637zm0 118.18c58.184-25.453 125.45-25.453 185.45 0 9.0898 3.6367 12.727 14.547 9.0898 23.637s-14.547 12.727-23.637 9.0898c-49.09-21.816-107.27-21.816-154.55 0-9.0898 3.6367-20 0-23.637-9.0898-5.4492-9.0898-1.8164-20 7.2773-23.637zm0 118.18c58.184-25.453 125.45-25.453 185.45 0 9.0898 3.6367 12.727 14.547 9.0898 23.637-3.6367 9.0898-14.547 12.727-23.637 9.0898-49.09-21.816-107.27-21.816-154.55 0-9.0898 3.6367-20 0-23.637-9.0898-5.4492-9.0898-1.8164-20 7.2773-23.637z"/>
  <!-- Created by ProSymbols, royalty-free license purchased by Jan Miksovsky -->
</svg>
