<?xml version="1.0" encoding="UTF-8"?>
<svg width="700pt" height="700pt" version="1.1" viewBox="0 0 700 700" xmlns="http://www.w3.org/2000/svg" xmlns:xlink="http://www.w3.org/1999/xlink">
  <path d="m78.43 340.98c4.6133 23.07 25.043 39.816 48.57 39.816 16.359 0 31.641-8.0625 40.879-21.562l97.258-142.14c11.586-16.938 17.711-36.734 17.711-57.254v-13.648c0-55.91-45.484-101.39-101.39-101.39-40.613 0-77.191 24.121-93.191 61.449l-20.5 47.836 20.59 8.8242 20.5-47.832c12.461-29.086 40.957-47.879 72.602-47.879 43.551 0 78.988 35.438 78.988 78.988v13.648c0 15.988-4.7695 31.41-13.797 44.602l-97.258 142.14c-5.0625 7.4023-13.434 11.816-22.395 11.816-12.887 0-24.078-9.1719-26.605-21.812l-5.0391-25.188-21.965 4.3945z"/>
  <path d="m99.531 269.47 4.6914 14.074 21.25-7.0859-4.6914-14.074c-9.9258-29.781-4.6094-62.551 14.227-87.664l-17.922-13.441c-23.242 30.996-29.805 71.438-17.555 108.19z"/>
  <path d="m186.53 159.04-53.273 39.957 23.184 34.777-15.91 15.906 15.84 15.84 28.891-28.891-21.613-32.426 36.324-27.242z"/>
  <path d="m596.45 235.22v-44.82c0-24.703-20.098-44.801-44.801-44.801-8.1562 0-15.805 2.2031-22.398 6.0273l-0.003906-39.625c0-24.703-20.098-44.801-44.801-44.801-8.1562 0-15.805 2.2031-22.398 6.0273v-6.0273c0-24.703-20.098-44.801-44.801-44.801s-44.801 20.098-44.801 44.801v39.629c-6.5938-3.8242-14.238-6.0273-22.398-6.0273-10.121 0-19.461 3.375-26.973 9.0547-16.191-63.09-73.547-109.86-141.62-109.86-58.559 0-111.3 34.777-134.37 88.602l-26.32 61.41c-1.7656 4.125-5.8047 6.7891-10.293 6.7891h-7.6289v22.398h7.6289c13.461 0 25.582-7.9922 30.883-20.363l26.32-61.41c19.531-45.578 64.191-75.027 113.78-75.027 68.254 0 123.79 55.531 123.79 123.79v13.648c0 25.055-7.4766 49.227-21.625 69.902l-97.258 142.14c-13.414 19.613-35.605 31.316-59.363 31.316-34.168 0-63.832-24.316-70.535-57.824l-9.0352-45.172-21.965 4.3945 9.0352 45.172c8.7891 43.938 47.691 75.832 92.5 75.832 31.156 0 60.258-15.352 77.852-41.062l33.195-48.52v0.30859c0 38.891 15.145 75.453 42.645 102.96l2.1562 2.1562v118.56h268.8v-112.27h-22.398l-0.003906 89.875h-224v-105.44l-8.7148-8.7148c-23.27-23.27-36.082-54.207-36.082-87.117v-33.047l41.664-60.891c1.0781-1.5781 2.125-3.1758 3.1367-4.7891v71.719l6.1914 3.0938c23.812 11.91 38.605 35.848 38.605 62.473v5.9141h22.398v-5.9141c0-32.797-16.996-62.504-44.801-79.117v-149.58l0.003907-0.58594c0-12.352 10.051-22.398 22.398-22.398 12.352 0 22.398 10.051 22.398 22.398v123.2h22.398v-123.2l0.003906-78.402c0-12.352 10.051-22.398 22.398-22.398 12.352 0 22.398 10.051 22.398 22.398v201.6h22.398l0.003906-156.8c0-12.352 10.051-22.398 22.398-22.398 12.352 0 22.398 10.051 22.398 22.398v156.8h22.398v-78.398c0-12.352 10.051-22.398 22.398-22.398 12.352 0 22.398 10.051 22.398 22.398v44.82z"/>
  <path d="m638.2 215.61-15.84 15.84c69.871 69.871 69.871 183.55 0 253.43l15.84 15.84c78.605-78.602 78.605-206.5 0-285.11z"/>
  <path d="m590.68 263.13-15.84 15.84c43.668 43.668 43.668 114.72 0 158.39l15.84 15.84c52.402-52.402 52.402-137.67 0-190.07z"/>
  <path d="m543.16 405.68c12.691-12.691 19.684-29.566 19.684-47.52 0-17.949-6.9883-34.824-19.684-47.516l-15.84 15.84c17.469 17.469 17.469 45.891 0 63.355z"/>
  <!-- Created by Eucalyp -->
</svg>
