<svg xmlns="http://www.w3.org/2000/svg" xmlns:xlink="http://www.w3.org/1999/xlink" version="1.1" x="0px" y="0px" viewBox="0 0 90 112.5" enable-background="new 0 0 90 90" xml:space="preserve">
	<g display="none">
		<g display="inline">
			<path d="M23.8,22L23.8,22c-2.1,0-3.8-1.7-3.8-3.8V9.7c0-2.1,1.7-3.8,3.8-3.8h0c2.1,0,3.8,1.7,3.8,3.8v8.5    C27.6,20.3,25.9,22,23.8,22z" />
			<path d="M65.8,22L65.8,22c-2.1,0-3.8-1.7-3.8-3.8V9.7c0-2.1,1.7-3.8,3.8-3.8h0c2.1,0,3.8,1.7,3.8,3.8v8.5    C69.7,20.3,67.9,22,65.8,22z" />
			<path d="M79.3,15.9c2.7,0,4.9,2.2,4.9,4.9v54.9c0,2.7-2.2,4.9-4.9,4.9H10.4c-2.7,0-4.9-2.2-4.9-4.9V20.8c0-2.7,2.2-4.9,4.9-4.9    h5.9v2.6c0,4.1,3.3,7.4,7.4,7.4c4.1,0,7.4-3.3,7.4-7.4v-2.6h27.3v2.6c0,4.1,3.3,7.4,7.4,7.4c4.1,0,7.4-3.3,7.4-7.4v-2.6H79.3     M79.3,13.9h-7.9v4.6c0,3-2.4,5.4-5.4,5.4c-3,0-5.4-2.4-5.4-5.4v-4.6H29.2v4.6c0,3-2.4,5.4-5.4,5.4h0c-3,0-5.4-2.4-5.4-5.4v-4.6    h-7.9c-3.8,0-6.9,3.1-6.9,6.9v54.9c0,3.8,3.1,6.9,6.9,6.9h68.9c3.8,0,6.9-3.1,6.9-6.9V20.8C86.3,17,83.1,13.9,79.3,13.9L79.3,13.9    z" />
			<rect x="8.5" y="28" width="72.5" height="2" />
			<path d="M47.8,43.6h-5.7c-1,0-1.8-0.8-1.8-1.8v-5.7c0-1,0.8-1.8,1.8-1.8h5.7c1,0,1.8,0.8,1.8,1.8v5.7    C49.6,42.8,48.8,43.6,47.8,43.6z M42.1,35.3c-0.4,0-0.8,0.3-0.8,0.8v5.7c0,0.4,0.3,0.8,0.8,0.8h5.7c0.4,0,0.8-0.3,0.8-0.8v-5.7    c0-0.4-0.3-0.8-0.8-0.8H42.1z" />
			<path d="M58.6,43.6h-5.7c-1,0-1.8-0.8-1.8-1.8v-5.7c0-1,0.8-1.8,1.8-1.8h5.7c1,0,1.8,0.8,1.8,1.8v5.7    C60.4,42.8,59.6,43.6,58.6,43.6z M52.9,35.3c-0.4,0-0.8,0.3-0.8,0.8v5.7c0,0.4,0.3,0.8,0.8,0.8h5.7c0.4,0,0.8-0.3,0.8-0.8v-5.7    c0-0.4-0.3-0.8-0.8-0.8H52.9z" />
			<path d="M69.4,43.6h-5.7c-1,0-1.8-0.8-1.8-1.8v-5.7c0-1,0.8-1.8,1.8-1.8h5.7c1,0,1.8,0.8,1.8,1.8v5.7    C71.2,42.8,70.4,43.6,69.4,43.6z M63.7,35.3c-0.4,0-0.8,0.3-0.8,0.8v5.7c0,0.4,0.3,0.8,0.8,0.8h5.7c0.4,0,0.8-0.3,0.8-0.8v-5.7    c0-0.4-0.3-0.8-0.8-0.8H63.7z" />
			<path d="M80.2,43.6h-5.7c-1,0-1.8-0.8-1.8-1.8v-5.7c0-1,0.8-1.8,1.8-1.8h5.7c1,0,1.8,0.8,1.8,1.8v5.7C82,42.8,81.2,43.6,80.2,43.6    z M74.5,35.3c-0.4,0-0.8,0.3-0.8,0.8v5.7c0,0.4,0.3,0.8,0.8,0.8h5.7c0.4,0,0.8-0.3,0.8-0.8v-5.7c0-0.4-0.3-0.8-0.8-0.8H74.5z" />
			<path d="M15.5,54.8H9.8C8.8,54.8,8,54,8,53v-5.7c0-1,0.8-1.8,1.8-1.8h5.7c1,0,1.8,0.8,1.8,1.8V53C17.3,54,16.5,54.8,15.5,54.8z     M9.8,46.5c-0.4,0-0.8,0.3-0.8,0.8V53c0,0.4,0.3,0.8,0.8,0.8h5.7c0.4,0,0.8-0.3,0.8-0.8v-5.7c0-0.4-0.3-0.8-0.8-0.8H9.8z" />
			<path d="M26.3,54.8h-5.7c-1,0-1.8-0.8-1.8-1.8v-5.7c0-1,0.8-1.8,1.8-1.8h5.7c1,0,1.8,0.8,1.8,1.8V53C28,54,27.2,54.8,26.3,54.8z     M20.6,46.5c-0.4,0-0.8,0.3-0.8,0.8V53c0,0.4,0.3,0.8,0.8,0.8h5.7c0.4,0,0.8-0.3,0.8-0.8v-5.7c0-0.4-0.3-0.8-0.8-0.8H20.6z" />
			<path d="M37,54.8h-5.7c-1,0-1.8-0.8-1.8-1.8v-5.7c0-1,0.8-1.8,1.8-1.8H37c1,0,1.8,0.8,1.8,1.8V53C38.8,54,38,54.8,37,54.8z     M31.4,46.5c-0.4,0-0.8,0.3-0.8,0.8V53c0,0.4,0.3,0.8,0.8,0.8H37c0.4,0,0.8-0.3,0.8-0.8v-5.7c0-0.4-0.3-0.8-0.8-0.8H31.4z" />
			<path d="M47.8,54.3h-5.7c-0.7,0-1.3-0.6-1.3-1.3v-5.7c0-0.7,0.6-1.3,1.3-1.3h5.7c0.7,0,1.3,0.6,1.3,1.3V53    C49.1,53.7,48.5,54.3,47.8,54.3z" />
			<path d="M58.6,54.8h-5.7c-1,0-1.8-0.8-1.8-1.8v-5.7c0-1,0.8-1.8,1.8-1.8h5.7c1,0,1.8,0.8,1.8,1.8V53C60.4,54,59.6,54.8,58.6,54.8z     M52.9,46.5c-0.4,0-0.8,0.3-0.8,0.8V53c0,0.4,0.3,0.8,0.8,0.8h5.7c0.4,0,0.8-0.3,0.8-0.8v-5.7c0-0.4-0.3-0.8-0.8-0.8H52.9z" />
			<path d="M69.4,54.8h-5.7c-1,0-1.8-0.8-1.8-1.8v-5.7c0-1,0.8-1.8,1.8-1.8h5.7c1,0,1.8,0.8,1.8,1.8V53C71.2,54,70.4,54.8,69.4,54.8z     M63.7,46.5c-0.4,0-0.8,0.3-0.8,0.8V53c0,0.4,0.3,0.8,0.8,0.8h5.7c0.4,0,0.8-0.3,0.8-0.8v-5.7c0-0.4-0.3-0.8-0.8-0.8H63.7z" />
			<path d="M80.2,54.8h-5.7c-1,0-1.8-0.8-1.8-1.8v-5.7c0-1,0.8-1.8,1.8-1.8h5.7c1,0,1.8,0.8,1.8,1.8V53C82,54,81.2,54.8,80.2,54.8z     M74.5,46.5c-0.4,0-0.8,0.3-0.8,0.8V53c0,0.4,0.3,0.8,0.8,0.8h5.7c0.4,0,0.8-0.3,0.8-0.8v-5.7c0-0.4-0.3-0.8-0.8-0.8H74.5z" />
			<path d="M15.5,66H9.8c-1,0-1.8-0.8-1.8-1.8v-5.7c0-1,0.8-1.8,1.8-1.8h5.7c1,0,1.8,0.8,1.8,1.8v5.7C17.3,65.2,16.5,66,15.5,66z     M9.8,57.7c-0.4,0-0.8,0.3-0.8,0.8v5.7C9,64.6,9.4,65,9.8,65h5.7c0.4,0,0.8-0.3,0.8-0.8v-5.7c0-0.4-0.3-0.8-0.8-0.8H9.8z" />
			<path d="M26.3,66h-5.7c-1,0-1.8-0.8-1.8-1.8v-5.7c0-1,0.8-1.8,1.8-1.8h5.7c1,0,1.8,0.8,1.8,1.8v5.7C28,65.2,27.2,66,26.3,66z     M20.6,57.7c-0.4,0-0.8,0.3-0.8,0.8v5.7c0,0.4,0.3,0.8,0.8,0.8h5.7c0.4,0,0.8-0.3,0.8-0.8v-5.7c0-0.4-0.3-0.8-0.8-0.8H20.6z" />
			<path d="M37,66h-5.7c-1,0-1.8-0.8-1.8-1.8v-5.7c0-1,0.8-1.8,1.8-1.8H37c1,0,1.8,0.8,1.8,1.8v5.7C38.8,65.2,38,66,37,66z     M31.4,57.7c-0.4,0-0.8,0.3-0.8,0.8v5.7c0,0.4,0.3,0.8,0.8,0.8H37c0.4,0,0.8-0.3,0.8-0.8v-5.7c0-0.4-0.3-0.8-0.8-0.8H31.4z" />
			<path d="M47.8,66h-5.7c-1,0-1.8-0.8-1.8-1.8v-5.7c0-1,0.8-1.8,1.8-1.8h5.7c1,0,1.8,0.8,1.8,1.8v5.7C49.6,65.2,48.8,66,47.8,66z     M42.1,57.7c-0.4,0-0.8,0.3-0.8,0.8v5.7c0,0.4,0.3,0.8,0.8,0.8h5.7c0.4,0,0.8-0.3,0.8-0.8v-5.7c0-0.4-0.3-0.8-0.8-0.8H42.1z" />
			<path d="M58.6,66h-5.7c-1,0-1.8-0.8-1.8-1.8v-5.7c0-1,0.8-1.8,1.8-1.8h5.7c1,0,1.8,0.8,1.8,1.8v5.7C60.4,65.2,59.6,66,58.6,66z     M52.9,57.7c-0.4,0-0.8,0.3-0.8,0.8v5.7c0,0.4,0.3,0.8,0.8,0.8h5.7c0.4,0,0.8-0.3,0.8-0.8v-5.7c0-0.4-0.3-0.8-0.8-0.8H52.9z" />
			<path d="M69.4,66h-5.7c-1,0-1.8-0.8-1.8-1.8v-5.7c0-1,0.8-1.8,1.8-1.8h5.7c1,0,1.8,0.8,1.8,1.8v5.7C71.2,65.2,70.4,66,69.4,66z     M63.7,57.7c-0.4,0-0.8,0.3-0.8,0.8v5.7c0,0.4,0.3,0.8,0.8,0.8h5.7c0.4,0,0.8-0.3,0.8-0.8v-5.7c0-0.4-0.3-0.8-0.8-0.8H63.7z" />
			<path d="M80.2,66h-5.7c-1,0-1.8-0.8-1.8-1.8v-5.7c0-1,0.8-1.8,1.8-1.8h5.7c1,0,1.8,0.8,1.8,1.8v5.7C82,65.2,81.2,66,80.2,66z     M74.5,57.7c-0.4,0-0.8,0.3-0.8,0.8v5.7c0,0.4,0.3,0.8,0.8,0.8h5.7c0.4,0,0.8-0.3,0.8-0.8v-5.7c0-0.4-0.3-0.8-0.8-0.8H74.5z" />
			<path d="M15.5,77.2H9.8c-1,0-1.8-0.8-1.8-1.8v-5.7c0-1,0.8-1.8,1.8-1.8h5.7c1,0,1.8,0.8,1.8,1.8v5.7    C17.3,76.4,16.5,77.2,15.5,77.2z M9.8,69C9.4,69,9,69.3,9,69.7v5.7c0,0.4,0.3,0.8,0.8,0.8h5.7c0.4,0,0.8-0.3,0.8-0.8v-5.7    c0-0.4-0.3-0.8-0.8-0.8H9.8z" />
			<path d="M26.3,77.2h-5.7c-1,0-1.8-0.8-1.8-1.8v-5.7c0-1,0.8-1.8,1.8-1.8h5.7c1,0,1.8,0.8,1.8,1.8v5.7C28,76.4,27.2,77.2,26.3,77.2    z M20.6,69c-0.4,0-0.8,0.3-0.8,0.8v5.7c0,0.4,0.3,0.8,0.8,0.8h5.7c0.4,0,0.8-0.3,0.8-0.8v-5.7c0-0.4-0.3-0.8-0.8-0.8H20.6z" />
			<path d="M37,77.2h-5.7c-1,0-1.8-0.8-1.8-1.8v-5.7c0-1,0.8-1.8,1.8-1.8H37c1,0,1.8,0.8,1.8,1.8v5.7C38.8,76.4,38,77.2,37,77.2z     M31.4,69c-0.4,0-0.8,0.3-0.8,0.8v5.7c0,0.4,0.3,0.8,0.8,0.8H37c0.4,0,0.8-0.3,0.8-0.8v-5.7c0-0.4-0.3-0.8-0.8-0.8H31.4z" />
			<path d="M47.8,77.2h-5.7c-1,0-1.8-0.8-1.8-1.8v-5.7c0-1,0.8-1.8,1.8-1.8h5.7c1,0,1.8,0.8,1.8,1.8v5.7    C49.6,76.4,48.8,77.2,47.8,77.2z M42.1,69c-0.4,0-0.8,0.3-0.8,0.8v5.7c0,0.4,0.3,0.8,0.8,0.8h5.7c0.4,0,0.8-0.3,0.8-0.8v-5.7    c0-0.4-0.3-0.8-0.8-0.8H42.1z" />
			<path d="M58.6,77.2h-5.7c-1,0-1.8-0.8-1.8-1.8v-5.7c0-1,0.8-1.8,1.8-1.8h5.7c1,0,1.8,0.8,1.8,1.8v5.7    C60.4,76.4,59.6,77.2,58.6,77.2z M52.9,69c-0.4,0-0.8,0.3-0.8,0.8v5.7c0,0.4,0.3,0.8,0.8,0.8h5.7c0.4,0,0.8-0.3,0.8-0.8v-5.7    c0-0.4-0.3-0.8-0.8-0.8H52.9z" />
		</g>
	</g>
	<g>
		<g>
			<path d="M23.8,22L23.8,22c-2.1,0-3.8-1.7-3.8-3.8V9.7c0-2.1,1.7-3.8,3.8-3.8h0c2.1,0,3.8,1.7,3.8,3.8v8.5    C27.6,20.3,25.9,22,23.8,22z" />
			<path d="M65.8,22L65.8,22c-2.1,0-3.8-1.7-3.8-3.8V9.7c0-2.1,1.7-3.8,3.8-3.8h0c2.1,0,3.8,1.7,3.8,3.8v8.5    C69.7,20.3,67.9,22,65.8,22z" />
			<path d="M79.3,15.9c2.7,0,4.9,2.2,4.9,4.9v54.9c0,2.7-2.2,4.9-4.9,4.9H10.4c-2.7,0-4.9-2.2-4.9-4.9V20.8c0-2.7,2.2-4.9,4.9-4.9    h5.9v2.6c0,4.1,3.3,7.4,7.4,7.4c4.1,0,7.4-3.3,7.4-7.4v-2.6h27.3v2.6c0,4.1,3.3,7.4,7.4,7.4c4.1,0,7.4-3.3,7.4-7.4v-2.6H79.3     M79.3,13.9h-7.9v4.6c0,3-2.4,5.4-5.4,5.4c-3,0-5.4-2.4-5.4-5.4v-4.6H29.2v4.6c0,3-2.4,5.4-5.4,5.4h0c-3,0-5.4-2.4-5.4-5.4v-4.6    h-7.9c-3.8,0-6.9,3.1-6.9,6.9v54.9c0,3.8,3.1,6.9,6.9,6.9h68.9c3.8,0,6.9-3.1,6.9-6.9V20.8C86.3,17,83.1,13.9,79.3,13.9L79.3,13.9    z" />
			<rect x="8.5" y="28" width="72.5" height="2" />
			<path d="M47.8,43.6h-5.7c-1,0-1.8-0.8-1.8-1.8v-5.7c0-1,0.8-1.8,1.8-1.8h5.7c1,0,1.8,0.8,1.8,1.8v5.7    C49.6,42.8,48.8,43.6,47.8,43.6z M42.1,35.3c-0.4,0-0.8,0.3-0.8,0.8v5.7c0,0.4,0.3,0.8,0.8,0.8h5.7c0.4,0,0.8-0.3,0.8-0.8v-5.7    c0-0.4-0.3-0.8-0.8-0.8H42.1z" />
			<path d="M58.6,43.6h-5.7c-1,0-1.8-0.8-1.8-1.8v-5.7c0-1,0.8-1.8,1.8-1.8h5.7c1,0,1.8,0.8,1.8,1.8v5.7    C60.4,42.8,59.6,43.6,58.6,43.6z M52.9,35.3c-0.4,0-0.8,0.3-0.8,0.8v5.7c0,0.4,0.3,0.8,0.8,0.8h5.7c0.4,0,0.8-0.3,0.8-0.8v-5.7    c0-0.4-0.3-0.8-0.8-0.8H52.9z" />
			<path d="M69.4,43.6h-5.7c-1,0-1.8-0.8-1.8-1.8v-5.7c0-1,0.8-1.8,1.8-1.8h5.7c1,0,1.8,0.8,1.8,1.8v5.7    C71.2,42.8,70.4,43.6,69.4,43.6z M63.7,35.3c-0.4,0-0.8,0.3-0.8,0.8v5.7c0,0.4,0.3,0.8,0.8,0.8h5.7c0.4,0,0.8-0.3,0.8-0.8v-5.7    c0-0.4-0.3-0.8-0.8-0.8H63.7z" />
			<path d="M80.2,43.6h-5.7c-1,0-1.8-0.8-1.8-1.8v-5.7c0-1,0.8-1.8,1.8-1.8h5.7c1,0,1.8,0.8,1.8,1.8v5.7C82,42.8,81.2,43.6,80.2,43.6    z M74.5,35.3c-0.4,0-0.8,0.3-0.8,0.8v5.7c0,0.4,0.3,0.8,0.8,0.8h5.7c0.4,0,0.8-0.3,0.8-0.8v-5.7c0-0.4-0.3-0.8-0.8-0.8H74.5z" />
			<path d="M15.5,54.3H9.8c-0.7,0-1.3-0.6-1.3-1.3v-5.7c0-0.7,0.6-1.3,1.3-1.3h5.7c0.7,0,1.3,0.6,1.3,1.3V53    C16.8,53.7,16.2,54.3,15.5,54.3z" />
			<path d="M26.3,54.3h-5.7c-0.7,0-1.3-0.6-1.3-1.3v-5.7c0-0.7,0.6-1.3,1.3-1.3h5.7c0.7,0,1.3,0.6,1.3,1.3V53    C27.5,53.7,27,54.3,26.3,54.3z" />
			<path d="M37.1,54.3h-5.7c-0.7,0-1.3-0.6-1.3-1.3v-5.7c0-0.7,0.6-1.3,1.3-1.3h5.7c0.7,0,1.3,0.6,1.3,1.3V53    C38.3,53.7,37.8,54.3,37.1,54.3z" />
			<path d="M47.8,54.3h-5.7c-0.7,0-1.3-0.6-1.3-1.3v-5.7c0-0.7,0.6-1.3,1.3-1.3h5.7c0.7,0,1.3,0.6,1.3,1.3V53    C49.1,53.7,48.5,54.3,47.8,54.3z" />
			<path d="M58.6,54.3h-5.7c-0.7,0-1.3-0.6-1.3-1.3v-5.7c0-0.7,0.6-1.3,1.3-1.3h5.7c0.7,0,1.3,0.6,1.3,1.3V53    C59.9,53.7,59.3,54.3,58.6,54.3z" />
			<path d="M69.4,54.3h-5.7c-0.7,0-1.3-0.6-1.3-1.3v-5.7c0-0.7,0.6-1.3,1.3-1.3h5.7c0.7,0,1.3,0.6,1.3,1.3V53    C70.7,53.7,70.1,54.3,69.4,54.3z" />
			<path d="M80.2,54.3h-5.7c-0.7,0-1.3-0.6-1.3-1.3v-5.7c0-0.7,0.6-1.3,1.3-1.3h5.7c0.7,0,1.3,0.6,1.3,1.3V53    C81.5,53.7,80.9,54.3,80.2,54.3z" />
			<path d="M15.5,66H9.8c-1,0-1.8-0.8-1.8-1.8v-5.7c0-1,0.8-1.8,1.8-1.8h5.7c1,0,1.8,0.8,1.8,1.8v5.7C17.3,65.2,16.5,66,15.5,66z     M9.8,57.7c-0.4,0-0.8,0.3-0.8,0.8v5.7C9,64.6,9.4,65,9.8,65h5.7c0.4,0,0.8-0.3,0.8-0.8v-5.7c0-0.4-0.3-0.8-0.8-0.8H9.8z" />
			<path d="M26.3,66h-5.7c-1,0-1.8-0.8-1.8-1.8v-5.7c0-1,0.8-1.8,1.8-1.8h5.7c1,0,1.8,0.8,1.8,1.8v5.7C28,65.2,27.2,66,26.3,66z     M20.6,57.7c-0.4,0-0.8,0.3-0.8,0.8v5.7c0,0.4,0.3,0.8,0.8,0.8h5.7c0.4,0,0.8-0.3,0.8-0.8v-5.7c0-0.4-0.3-0.8-0.8-0.8H20.6z" />
			<path d="M37,66h-5.7c-1,0-1.8-0.8-1.8-1.8v-5.7c0-1,0.8-1.8,1.8-1.8H37c1,0,1.8,0.8,1.8,1.8v5.7C38.8,65.2,38,66,37,66z     M31.4,57.7c-0.4,0-0.8,0.3-0.8,0.8v5.7c0,0.4,0.3,0.8,0.8,0.8H37c0.4,0,0.8-0.3,0.8-0.8v-5.7c0-0.4-0.3-0.8-0.8-0.8H31.4z" />
			<path d="M47.8,66h-5.7c-1,0-1.8-0.8-1.8-1.8v-5.7c0-1,0.8-1.8,1.8-1.8h5.7c1,0,1.8,0.8,1.8,1.8v5.7C49.6,65.2,48.8,66,47.8,66z     M42.1,57.7c-0.4,0-0.8,0.3-0.8,0.8v5.7c0,0.4,0.3,0.8,0.8,0.8h5.7c0.4,0,0.8-0.3,0.8-0.8v-5.7c0-0.4-0.3-0.8-0.8-0.8H42.1z" />
			<path d="M58.6,66h-5.7c-1,0-1.8-0.8-1.8-1.8v-5.7c0-1,0.8-1.8,1.8-1.8h5.7c1,0,1.8,0.8,1.8,1.8v5.7C60.4,65.2,59.6,66,58.6,66z     M52.9,57.7c-0.4,0-0.8,0.3-0.8,0.8v5.7c0,0.4,0.3,0.8,0.8,0.8h5.7c0.4,0,0.8-0.3,0.8-0.8v-5.7c0-0.4-0.3-0.8-0.8-0.8H52.9z" />
			<path d="M69.4,66h-5.7c-1,0-1.8-0.8-1.8-1.8v-5.7c0-1,0.8-1.8,1.8-1.8h5.7c1,0,1.8,0.8,1.8,1.8v5.7C71.2,65.2,70.4,66,69.4,66z     M63.7,57.7c-0.4,0-0.8,0.3-0.8,0.8v5.7c0,0.4,0.3,0.8,0.8,0.8h5.7c0.4,0,0.8-0.3,0.8-0.8v-5.7c0-0.4-0.3-0.8-0.8-0.8H63.7z" />
			<path d="M80.2,66h-5.7c-1,0-1.8-0.8-1.8-1.8v-5.7c0-1,0.8-1.8,1.8-1.8h5.7c1,0,1.8,0.8,1.8,1.8v5.7C82,65.2,81.2,66,80.2,66z     M74.5,57.7c-0.4,0-0.8,0.3-0.8,0.8v5.7c0,0.4,0.3,0.8,0.8,0.8h5.7c0.4,0,0.8-0.3,0.8-0.8v-5.7c0-0.4-0.3-0.8-0.8-0.8H74.5z" />
			<path d="M15.5,77.2H9.8c-1,0-1.8-0.8-1.8-1.8v-5.7c0-1,0.8-1.8,1.8-1.8h5.7c1,0,1.8,0.8,1.8,1.8v5.7    C17.3,76.4,16.5,77.2,15.5,77.2z M9.8,69C9.4,69,9,69.3,9,69.7v5.7c0,0.4,0.3,0.8,0.8,0.8h5.7c0.4,0,0.8-0.3,0.8-0.8v-5.7    c0-0.4-0.3-0.8-0.8-0.8H9.8z" />
			<path d="M26.3,77.2h-5.7c-1,0-1.8-0.8-1.8-1.8v-5.7c0-1,0.8-1.8,1.8-1.8h5.7c1,0,1.8,0.8,1.8,1.8v5.7C28,76.4,27.2,77.2,26.3,77.2    z M20.6,69c-0.4,0-0.8,0.3-0.8,0.8v5.7c0,0.4,0.3,0.8,0.8,0.8h5.7c0.4,0,0.8-0.3,0.8-0.8v-5.7c0-0.4-0.3-0.8-0.8-0.8H20.6z" />
			<path d="M37,77.2h-5.7c-1,0-1.8-0.8-1.8-1.8v-5.7c0-1,0.8-1.8,1.8-1.8H37c1,0,1.8,0.8,1.8,1.8v5.7C38.8,76.4,38,77.2,37,77.2z     M31.4,69c-0.4,0-0.8,0.3-0.8,0.8v5.7c0,0.4,0.3,0.8,0.8,0.8H37c0.4,0,0.8-0.3,0.8-0.8v-5.7c0-0.4-0.3-0.8-0.8-0.8H31.4z" />
			<path d="M47.8,77.2h-5.7c-1,0-1.8-0.8-1.8-1.8v-5.7c0-1,0.8-1.8,1.8-1.8h5.7c1,0,1.8,0.8,1.8,1.8v5.7    C49.6,76.4,48.8,77.2,47.8,77.2z M42.1,69c-0.4,0-0.8,0.3-0.8,0.8v5.7c0,0.4,0.3,0.8,0.8,0.8h5.7c0.4,0,0.8-0.3,0.8-0.8v-5.7    c0-0.4-0.3-0.8-0.8-0.8H42.1z" />
			<path d="M58.6,77.2h-5.7c-1,0-1.8-0.8-1.8-1.8v-5.7c0-1,0.8-1.8,1.8-1.8h5.7c1,0,1.8,0.8,1.8,1.8v5.7    C60.4,76.4,59.6,77.2,58.6,77.2z M52.9,69c-0.4,0-0.8,0.3-0.8,0.8v5.7c0,0.4,0.3,0.8,0.8,0.8h5.7c0.4,0,0.8-0.3,0.8-0.8v-5.7    c0-0.4-0.3-0.8-0.8-0.8H52.9z" />
		</g>
	</g>
	<g display="none">
		<g display="inline">
			<path d="M23.8,22L23.8,22c-2.1,0-3.8-1.7-3.8-3.8V9.7c0-2.1,1.7-3.8,3.8-3.8h0c2.1,0,3.8,1.7,3.8,3.8v8.5    C27.6,20.3,25.9,22,23.8,22z" />
			<path d="M65.8,22L65.8,22c-2.1,0-3.8-1.7-3.8-3.8V9.7c0-2.1,1.7-3.8,3.8-3.8h0c2.1,0,3.8,1.7,3.8,3.8v8.5    C69.7,20.3,67.9,22,65.8,22z" />
			<path d="M79.3,15.9c2.7,0,4.9,2.2,4.9,4.9v54.9c0,2.7-2.2,4.9-4.9,4.9H10.4c-2.7,0-4.9-2.2-4.9-4.9V20.8c0-2.7,2.2-4.9,4.9-4.9    h5.9v2.6c0,4.1,3.3,7.4,7.4,7.4c4.1,0,7.4-3.3,7.4-7.4v-2.6h27.3v2.6c0,4.1,3.3,7.4,7.4,7.4c4.1,0,7.4-3.3,7.4-7.4v-2.6H79.3     M79.3,13.9h-7.9v4.6c0,3-2.4,5.4-5.4,5.4c-3,0-5.4-2.4-5.4-5.4v-4.6H29.2v4.6c0,3-2.4,5.4-5.4,5.4h0c-3,0-5.4-2.4-5.4-5.4v-4.6    h-7.9c-3.8,0-6.9,3.1-6.9,6.9v54.9c0,3.8,3.1,6.9,6.9,6.9h68.9c3.8,0,6.9-3.1,6.9-6.9V20.8C86.3,17,83.1,13.9,79.3,13.9L79.3,13.9    z" />
			<rect x="8.5" y="28" width="72.5" height="2" />
			<path d="M47.8,43.1h-5.7c-0.7,0-1.3-0.6-1.3-1.3v-5.7c0-0.7,0.6-1.3,1.3-1.3h5.7c0.7,0,1.3,0.6,1.3,1.3v5.7    C49.1,42.5,48.5,43.1,47.8,43.1z" />
			<path d="M58.6,43.1h-5.7c-0.7,0-1.3-0.6-1.3-1.3v-5.7c0-0.7,0.6-1.3,1.3-1.3h5.7c0.7,0,1.3,0.6,1.3,1.3v5.7    C59.9,42.5,59.3,43.1,58.6,43.1z" />
			<path d="M69.4,43.1h-5.7c-0.7,0-1.3-0.6-1.3-1.3v-5.7c0-0.7,0.6-1.3,1.3-1.3h5.7c0.7,0,1.3,0.6,1.3,1.3v5.7    C70.7,42.5,70.1,43.1,69.4,43.1z" />
			<path d="M80.2,43.6h-5.7c-1,0-1.8-0.8-1.8-1.8v-5.7c0-1,0.8-1.8,1.8-1.8h5.7c1,0,1.8,0.8,1.8,1.8v5.7C82,42.8,81.2,43.6,80.2,43.6    z M74.5,35.3c-0.4,0-0.8,0.3-0.8,0.8v5.7c0,0.4,0.3,0.8,0.8,0.8h5.7c0.4,0,0.8-0.3,0.8-0.8v-5.7c0-0.4-0.3-0.8-0.8-0.8H74.5z" />
			<path d="M15.5,54.8H9.8C8.8,54.8,8,54,8,53v-5.7c0-1,0.8-1.8,1.8-1.8h5.7c1,0,1.8,0.8,1.8,1.8V53C17.3,54,16.5,54.8,15.5,54.8z     M9.8,46.5c-0.4,0-0.8,0.3-0.8,0.8V53c0,0.4,0.3,0.8,0.8,0.8h5.7c0.4,0,0.8-0.3,0.8-0.8v-5.7c0-0.4-0.3-0.8-0.8-0.8H9.8z" />
			<path d="M26.3,54.3h-5.7c-0.7,0-1.3-0.6-1.3-1.3v-5.7c0-0.7,0.6-1.3,1.3-1.3h5.7c0.7,0,1.3,0.6,1.3,1.3V53    C27.5,53.7,27,54.3,26.3,54.3z" />
			<path d="M37.1,54.3h-5.7c-0.7,0-1.3-0.6-1.3-1.3v-5.7c0-0.7,0.6-1.3,1.3-1.3h5.7c0.7,0,1.3,0.6,1.3,1.3V53    C38.3,53.7,37.8,54.3,37.1,54.3z" />
			<path d="M47.8,54.3h-5.7c-0.7,0-1.3-0.6-1.3-1.3v-5.7c0-0.7,0.6-1.3,1.3-1.3h5.7c0.7,0,1.3,0.6,1.3,1.3V53    C49.1,53.7,48.5,54.3,47.8,54.3z" />
			<path d="M58.6,54.3h-5.7c-0.7,0-1.3-0.6-1.3-1.3v-5.7c0-0.7,0.6-1.3,1.3-1.3h5.7c0.7,0,1.3,0.6,1.3,1.3V53    C59.9,53.7,59.3,54.3,58.6,54.3z" />
			<path d="M69.4,54.3h-5.7c-0.7,0-1.3-0.6-1.3-1.3v-5.7c0-0.7,0.6-1.3,1.3-1.3h5.7c0.7,0,1.3,0.6,1.3,1.3V53    C70.7,53.7,70.1,54.3,69.4,54.3z" />
			<path d="M80.2,54.8h-5.7c-1,0-1.8-0.8-1.8-1.8v-5.7c0-1,0.8-1.8,1.8-1.8h5.7c1,0,1.8,0.8,1.8,1.8V53C82,54,81.2,54.8,80.2,54.8z     M74.5,46.5c-0.4,0-0.8,0.3-0.8,0.8V53c0,0.4,0.3,0.8,0.8,0.8h5.7c0.4,0,0.8-0.3,0.8-0.8v-5.7c0-0.4-0.3-0.8-0.8-0.8H74.5z" />
			<path d="M15.5,66H9.8c-1,0-1.8-0.8-1.8-1.8v-5.7c0-1,0.8-1.8,1.8-1.8h5.7c1,0,1.8,0.8,1.8,1.8v5.7C17.3,65.2,16.5,66,15.5,66z     M9.8,57.7c-0.4,0-0.8,0.3-0.8,0.8v5.7C9,64.6,9.4,65,9.8,65h5.7c0.4,0,0.8-0.3,0.8-0.8v-5.7c0-0.4-0.3-0.8-0.8-0.8H9.8z" />
			<path d="M26.3,65.5h-5.7c-0.7,0-1.3-0.6-1.3-1.3v-5.7c0-0.7,0.6-1.3,1.3-1.3h5.7c0.7,0,1.3,0.6,1.3,1.3v5.7    C27.5,64.9,27,65.5,26.3,65.5z" />
			<path d="M37.1,65.5h-5.7c-0.7,0-1.3-0.6-1.3-1.3v-5.7c0-0.7,0.6-1.3,1.3-1.3h5.7c0.7,0,1.3,0.6,1.3,1.3v5.7    C38.3,64.9,37.8,65.5,37.1,65.5z" />
			<path d="M47.8,65.5h-5.7c-0.7,0-1.3-0.6-1.3-1.3v-5.7c0-0.7,0.6-1.3,1.3-1.3h5.7c0.7,0,1.3,0.6,1.3,1.3v5.7    C49.1,64.9,48.5,65.5,47.8,65.5z" />
			<path d="M58.6,65.5h-5.7c-0.7,0-1.3-0.6-1.3-1.3v-5.7c0-0.7,0.6-1.3,1.3-1.3h5.7c0.7,0,1.3,0.6,1.3,1.3v5.7    C59.9,64.9,59.3,65.5,58.6,65.5z" />
			<path d="M69.4,65.5h-5.7c-0.7,0-1.3-0.6-1.3-1.3v-5.7c0-0.7,0.6-1.3,1.3-1.3h5.7c0.7,0,1.3,0.6,1.3,1.3v5.7    C70.7,64.9,70.1,65.5,69.4,65.5z" />
			<path d="M80.2,66h-5.7c-1,0-1.8-0.8-1.8-1.8v-5.7c0-1,0.8-1.8,1.8-1.8h5.7c1,0,1.8,0.8,1.8,1.8v5.7C82,65.2,81.2,66,80.2,66z     M74.5,57.7c-0.4,0-0.8,0.3-0.8,0.8v5.7c0,0.4,0.3,0.8,0.8,0.8h5.7c0.4,0,0.8-0.3,0.8-0.8v-5.7c0-0.4-0.3-0.8-0.8-0.8H74.5z" />
			<path d="M15.5,77.2H9.8c-1,0-1.8-0.8-1.8-1.8v-5.7c0-1,0.8-1.8,1.8-1.8h5.7c1,0,1.8,0.8,1.8,1.8v5.7    C17.3,76.4,16.5,77.2,15.5,77.2z M9.8,69C9.4,69,9,69.3,9,69.7v5.7c0,0.4,0.3,0.8,0.8,0.8h5.7c0.4,0,0.8-0.3,0.8-0.8v-5.7    c0-0.4-0.3-0.8-0.8-0.8H9.8z" />
			<path d="M26.3,76.7h-5.7c-0.7,0-1.3-0.6-1.3-1.3v-5.7c0-0.7,0.6-1.3,1.3-1.3h5.7c0.7,0,1.3,0.6,1.3,1.3v5.7    C27.5,76.1,27,76.7,26.3,76.7z" />
			<path d="M37.1,76.7h-5.7c-0.7,0-1.3-0.6-1.3-1.3v-5.7c0-0.7,0.6-1.3,1.3-1.3h5.7c0.7,0,1.3,0.6,1.3,1.3v5.7    C38.3,76.1,37.8,76.7,37.1,76.7z" />
			<path d="M47.8,76.7h-5.7c-0.7,0-1.3-0.6-1.3-1.3v-5.7c0-0.7,0.6-1.3,1.3-1.3h5.7c0.7,0,1.3,0.6,1.3,1.3v5.7    C49.1,76.1,48.5,76.7,47.8,76.7z" />
			<path d="M58.6,76.7h-5.7c-0.7,0-1.3-0.6-1.3-1.3v-5.7c0-0.7,0.6-1.3,1.3-1.3h5.7c0.7,0,1.3,0.6,1.3,1.3v5.7    C59.9,76.1,59.3,76.7,58.6,76.7z" />
		</g>
	</g>
	<g display="none">
		<g display="inline">
			<path d="M23.8,22L23.8,22c-2.1,0-3.8-1.7-3.8-3.8V9.7c0-2.1,1.7-3.8,3.8-3.8h0c2.1,0,3.8,1.7,3.8,3.8v8.5    C27.6,20.3,25.9,22,23.8,22z" />
			<path d="M65.8,22L65.8,22c-2.1,0-3.8-1.7-3.8-3.8V9.7c0-2.1,1.7-3.8,3.8-3.8h0c2.1,0,3.8,1.7,3.8,3.8v8.5    C69.7,20.3,67.9,22,65.8,22z" />
			<path d="M79.3,15.9c2.7,0,4.9,2.2,4.9,4.9v54.9c0,2.7-2.2,4.9-4.9,4.9H10.4c-2.7,0-4.9-2.2-4.9-4.9V20.8c0-2.7,2.2-4.9,4.9-4.9    h5.9v2.6c0,4.1,3.3,7.4,7.4,7.4c4.1,0,7.4-3.3,7.4-7.4v-2.6h27.3v2.6c0,4.1,3.3,7.4,7.4,7.4c4.1,0,7.4-3.3,7.4-7.4v-2.6H79.3     M79.3,13.9h-7.9v4.6c0,3-2.4,5.4-5.4,5.4c-3,0-5.4-2.4-5.4-5.4v-4.6H29.2v4.6c0,3-2.4,5.4-5.4,5.4h0c-3,0-5.4-2.4-5.4-5.4v-4.6    h-7.9c-3.8,0-6.9,3.1-6.9,6.9v54.9c0,3.8,3.1,6.9,6.9,6.9h68.9c3.8,0,6.9-3.1,6.9-6.9V20.8C86.3,17,83.1,13.9,79.3,13.9L79.3,13.9    z" />
			<rect x="8.5" y="28" width="72.5" height="2" />
			<path d="M47.8,43.6h-5.7c-1,0-1.8-0.8-1.8-1.8v-5.7c0-1,0.8-1.8,1.8-1.8h5.7c1,0,1.8,0.8,1.8,1.8v5.7    C49.6,42.8,48.8,43.6,47.8,43.6z M42.1,35.3c-0.4,0-0.8,0.3-0.8,0.8v5.7c0,0.4,0.3,0.8,0.8,0.8h5.7c0.4,0,0.8-0.3,0.8-0.8v-5.7    c0-0.4-0.3-0.8-0.8-0.8H42.1z" />
			<path d="M58.6,43.6h-5.7c-1,0-1.8-0.8-1.8-1.8v-5.7c0-1,0.8-1.8,1.8-1.8h5.7c1,0,1.8,0.8,1.8,1.8v5.7    C60.4,42.8,59.6,43.6,58.6,43.6z M52.9,35.3c-0.4,0-0.8,0.3-0.8,0.8v5.7c0,0.4,0.3,0.8,0.8,0.8h5.7c0.4,0,0.8-0.3,0.8-0.8v-5.7    c0-0.4-0.3-0.8-0.8-0.8H52.9z" />
			<path d="M69.4,43.6h-5.7c-1,0-1.8-0.8-1.8-1.8v-5.7c0-1,0.8-1.8,1.8-1.8h5.7c1,0,1.8,0.8,1.8,1.8v5.7    C71.2,42.8,70.4,43.6,69.4,43.6z M63.7,35.3c-0.4,0-0.8,0.3-0.8,0.8v5.7c0,0.4,0.3,0.8,0.8,0.8h5.7c0.4,0,0.8-0.3,0.8-0.8v-5.7    c0-0.4-0.3-0.8-0.8-0.8H63.7z" />
			<path d="M80.2,43.1h-5.7c-0.7,0-1.3-0.6-1.3-1.3v-5.7c0-0.7,0.6-1.3,1.3-1.3h5.7c0.7,0,1.3,0.6,1.3,1.3v5.7    C81.5,42.5,80.9,43.1,80.2,43.1z" />
			<path d="M15.5,54.3H9.8c-0.7,0-1.3-0.6-1.3-1.3v-5.7c0-0.7,0.6-1.3,1.3-1.3h5.7c0.7,0,1.3,0.6,1.3,1.3V53    C16.8,53.7,16.2,54.3,15.5,54.3z" />
			<path d="M26.3,54.8h-5.7c-1,0-1.8-0.8-1.8-1.8v-5.7c0-1,0.8-1.8,1.8-1.8h5.7c1,0,1.8,0.8,1.8,1.8V53C28,54,27.2,54.8,26.3,54.8z     M20.6,46.5c-0.4,0-0.8,0.3-0.8,0.8V53c0,0.4,0.3,0.8,0.8,0.8h5.7c0.4,0,0.8-0.3,0.8-0.8v-5.7c0-0.4-0.3-0.8-0.8-0.8H20.6z" />
			<path d="M37,54.8h-5.7c-1,0-1.8-0.8-1.8-1.8v-5.7c0-1,0.8-1.8,1.8-1.8H37c1,0,1.8,0.8,1.8,1.8V53C38.8,54,38,54.8,37,54.8z     M31.4,46.5c-0.4,0-0.8,0.3-0.8,0.8V53c0,0.4,0.3,0.8,0.8,0.8H37c0.4,0,0.8-0.3,0.8-0.8v-5.7c0-0.4-0.3-0.8-0.8-0.8H31.4z" />
			<path d="M47.8,54.8h-5.7c-1,0-1.8-0.8-1.8-1.8v-5.7c0-1,0.8-1.8,1.8-1.8h5.7c1,0,1.8,0.8,1.8,1.8V53C49.6,54,48.8,54.8,47.8,54.8z     M42.1,46.5c-0.4,0-0.8,0.3-0.8,0.8V53c0,0.4,0.3,0.8,0.8,0.8h5.7c0.4,0,0.8-0.3,0.8-0.8v-5.7c0-0.4-0.3-0.8-0.8-0.8H42.1z" />
			<path d="M58.6,54.8h-5.7c-1,0-1.8-0.8-1.8-1.8v-5.7c0-1,0.8-1.8,1.8-1.8h5.7c1,0,1.8,0.8,1.8,1.8V53C60.4,54,59.6,54.8,58.6,54.8z     M52.9,46.5c-0.4,0-0.8,0.3-0.8,0.8V53c0,0.4,0.3,0.8,0.8,0.8h5.7c0.4,0,0.8-0.3,0.8-0.8v-5.7c0-0.4-0.3-0.8-0.8-0.8H52.9z" />
			<path d="M69.4,54.8h-5.7c-1,0-1.8-0.8-1.8-1.8v-5.7c0-1,0.8-1.8,1.8-1.8h5.7c1,0,1.8,0.8,1.8,1.8V53C71.2,54,70.4,54.8,69.4,54.8z     M63.7,46.5c-0.4,0-0.8,0.3-0.8,0.8V53c0,0.4,0.3,0.8,0.8,0.8h5.7c0.4,0,0.8-0.3,0.8-0.8v-5.7c0-0.4-0.3-0.8-0.8-0.8H63.7z" />
			<path d="M80.2,54.3h-5.7c-0.7,0-1.3-0.6-1.3-1.3v-5.7c0-0.7,0.6-1.3,1.3-1.3h5.7c0.7,0,1.3,0.6,1.3,1.3V53    C81.5,53.7,80.9,54.3,80.2,54.3z" />
			<path d="M15.5,65.5H9.8c-0.7,0-1.3-0.6-1.3-1.3v-5.7c0-0.7,0.6-1.3,1.3-1.3h5.7c0.7,0,1.3,0.6,1.3,1.3v5.7    C16.8,64.9,16.2,65.5,15.5,65.5z" />
			<path d="M26.3,66h-5.7c-1,0-1.8-0.8-1.8-1.8v-5.7c0-1,0.8-1.8,1.8-1.8h5.7c1,0,1.8,0.8,1.8,1.8v5.7C28,65.2,27.2,66,26.3,66z     M20.6,57.7c-0.4,0-0.8,0.3-0.8,0.8v5.7c0,0.4,0.3,0.8,0.8,0.8h5.7c0.4,0,0.8-0.3,0.8-0.8v-5.7c0-0.4-0.3-0.8-0.8-0.8H20.6z" />
			<path d="M37,66h-5.7c-1,0-1.8-0.8-1.8-1.8v-5.7c0-1,0.8-1.8,1.8-1.8H37c1,0,1.8,0.8,1.8,1.8v5.7C38.8,65.2,38,66,37,66z     M31.4,57.7c-0.4,0-0.8,0.3-0.8,0.8v5.7c0,0.4,0.3,0.8,0.8,0.8H37c0.4,0,0.8-0.3,0.8-0.8v-5.7c0-0.4-0.3-0.8-0.8-0.8H31.4z" />
			<path d="M47.8,66h-5.7c-1,0-1.8-0.8-1.8-1.8v-5.7c0-1,0.8-1.8,1.8-1.8h5.7c1,0,1.8,0.8,1.8,1.8v5.7C49.6,65.2,48.8,66,47.8,66z     M42.1,57.7c-0.4,0-0.8,0.3-0.8,0.8v5.7c0,0.4,0.3,0.8,0.8,0.8h5.7c0.4,0,0.8-0.3,0.8-0.8v-5.7c0-0.4-0.3-0.8-0.8-0.8H42.1z" />
			<path d="M58.6,66h-5.7c-1,0-1.8-0.8-1.8-1.8v-5.7c0-1,0.8-1.8,1.8-1.8h5.7c1,0,1.8,0.8,1.8,1.8v5.7C60.4,65.2,59.6,66,58.6,66z     M52.9,57.7c-0.4,0-0.8,0.3-0.8,0.8v5.7c0,0.4,0.3,0.8,0.8,0.8h5.7c0.4,0,0.8-0.3,0.8-0.8v-5.7c0-0.4-0.3-0.8-0.8-0.8H52.9z" />
			<path d="M69.4,66h-5.7c-1,0-1.8-0.8-1.8-1.8v-5.7c0-1,0.8-1.8,1.8-1.8h5.7c1,0,1.8,0.8,1.8,1.8v5.7C71.2,65.2,70.4,66,69.4,66z     M63.7,57.7c-0.4,0-0.8,0.3-0.8,0.8v5.7c0,0.4,0.3,0.8,0.8,0.8h5.7c0.4,0,0.8-0.3,0.8-0.8v-5.7c0-0.4-0.3-0.8-0.8-0.8H63.7z" />
			<path d="M80.2,65.5h-5.7c-0.7,0-1.3-0.6-1.3-1.3v-5.7c0-0.7,0.6-1.3,1.3-1.3h5.7c0.7,0,1.3,0.6,1.3,1.3v5.7    C81.5,64.9,80.9,65.5,80.2,65.5z" />
			<path d="M15.5,76.7H9.8c-0.7,0-1.3-0.6-1.3-1.3v-5.7c0-0.7,0.6-1.3,1.3-1.3h5.7c0.7,0,1.3,0.6,1.3,1.3v5.7    C16.8,76.1,16.2,76.7,15.5,76.7z" />
			<path d="M26.3,77.2h-5.7c-1,0-1.8-0.8-1.8-1.8v-5.7c0-1,0.8-1.8,1.8-1.8h5.7c1,0,1.8,0.8,1.8,1.8v5.7C28,76.4,27.2,77.2,26.3,77.2    z M20.6,69c-0.4,0-0.8,0.3-0.8,0.8v5.7c0,0.4,0.3,0.8,0.8,0.8h5.7c0.4,0,0.8-0.3,0.8-0.8v-5.7c0-0.4-0.3-0.8-0.8-0.8H20.6z" />
			<path d="M37,77.2h-5.7c-1,0-1.8-0.8-1.8-1.8v-5.7c0-1,0.8-1.8,1.8-1.8H37c1,0,1.8,0.8,1.8,1.8v5.7C38.8,76.4,38,77.2,37,77.2z     M31.4,69c-0.4,0-0.8,0.3-0.8,0.8v5.7c0,0.4,0.3,0.8,0.8,0.8H37c0.4,0,0.8-0.3,0.8-0.8v-5.7c0-0.4-0.3-0.8-0.8-0.8H31.4z" />
			<path d="M47.8,77.2h-5.7c-1,0-1.8-0.8-1.8-1.8v-5.7c0-1,0.8-1.8,1.8-1.8h5.7c1,0,1.8,0.8,1.8,1.8v5.7    C49.6,76.4,48.8,77.2,47.8,77.2z M42.1,69c-0.4,0-0.8,0.3-0.8,0.8v5.7c0,0.4,0.3,0.8,0.8,0.8h5.7c0.4,0,0.8-0.3,0.8-0.8v-5.7    c0-0.4-0.3-0.8-0.8-0.8H42.1z" />
			<path d="M58.6,77.2h-5.7c-1,0-1.8-0.8-1.8-1.8v-5.7c0-1,0.8-1.8,1.8-1.8h5.7c1,0,1.8,0.8,1.8,1.8v5.7    C60.4,76.4,59.6,77.2,58.6,77.2z M52.9,69c-0.4,0-0.8,0.3-0.8,0.8v5.7c0,0.4,0.3,0.8,0.8,0.8h5.7c0.4,0,0.8-0.3,0.8-0.8v-5.7    c0-0.4-0.3-0.8-0.8-0.8H52.9z" />
		</g>
	</g>
	<g display="none">
		<g display="inline">
			<path d="M23.8,22L23.8,22c-2.1,0-3.8-1.7-3.8-3.8V9.7c0-2.1,1.7-3.8,3.8-3.8h0c2.1,0,3.8,1.7,3.8,3.8v8.5    C27.6,20.3,25.9,22,23.8,22z" />
			<path d="M65.8,22L65.8,22c-2.1,0-3.8-1.7-3.8-3.8V9.7c0-2.1,1.7-3.8,3.8-3.8h0c2.1,0,3.8,1.7,3.8,3.8v8.5    C69.7,20.3,67.9,22,65.8,22z" />
			<path d="M79.3,15.9c2.7,0,4.9,2.2,4.9,4.9v54.9c0,2.7-2.2,4.9-4.9,4.9H10.4c-2.7,0-4.9-2.2-4.9-4.9V20.8c0-2.7,2.2-4.9,4.9-4.9    h5.9v2.6c0,4.1,3.3,7.4,7.4,7.4c4.1,0,7.4-3.3,7.4-7.4v-2.6h27.3v2.6c0,4.1,3.3,7.4,7.4,7.4c4.1,0,7.4-3.3,7.4-7.4v-2.6H79.3     M79.3,13.9h-7.9v4.6c0,3-2.4,5.4-5.4,5.4c-3,0-5.4-2.4-5.4-5.4v-4.6H29.2v4.6c0,3-2.4,5.4-5.4,5.4h0c-3,0-5.4-2.4-5.4-5.4v-4.6    h-7.9c-3.8,0-6.9,3.1-6.9,6.9v54.9c0,3.8,3.1,6.9,6.9,6.9h68.9c3.8,0,6.9-3.1,6.9-6.9V20.8C86.3,17,83.1,13.9,79.3,13.9L79.3,13.9    z" />
			<rect x="8.5" y="28" width="72.5" height="2" />
			<path d="M47.8,43.1h-5.7c-0.7,0-1.3-0.6-1.3-1.3v-5.7c0-0.7,0.6-1.3,1.3-1.3h5.7c0.7,0,1.3,0.6,1.3,1.3v5.7    C49.1,42.5,48.5,43.1,47.8,43.1z" />
			<path d="M58.6,43.1h-5.7c-0.7,0-1.3-0.6-1.3-1.3v-5.7c0-0.7,0.6-1.3,1.3-1.3h5.7c0.7,0,1.3,0.6,1.3,1.3v5.7    C59.9,42.5,59.3,43.1,58.6,43.1z" />
			<path d="M69.4,43.1h-5.7c-0.7,0-1.3-0.6-1.3-1.3v-5.7c0-0.7,0.6-1.3,1.3-1.3h5.7c0.7,0,1.3,0.6,1.3,1.3v5.7    C70.7,42.5,70.1,43.1,69.4,43.1z" />
			<path d="M80.2,43.1h-5.7c-0.7,0-1.3-0.6-1.3-1.3v-5.7c0-0.7,0.6-1.3,1.3-1.3h5.7c0.7,0,1.3,0.6,1.3,1.3v5.7    C81.5,42.5,80.9,43.1,80.2,43.1z" />
			<path d="M15.5,54.3H9.8c-0.7,0-1.3-0.6-1.3-1.3v-5.7c0-0.7,0.6-1.3,1.3-1.3h5.7c0.7,0,1.3,0.6,1.3,1.3V53    C16.8,53.7,16.2,54.3,15.5,54.3z" />
			<path d="M26.3,54.3h-5.7c-0.7,0-1.3-0.6-1.3-1.3v-5.7c0-0.7,0.6-1.3,1.3-1.3h5.7c0.7,0,1.3,0.6,1.3,1.3V53    C27.5,53.7,27,54.3,26.3,54.3z" />
			<path d="M37.1,54.3h-5.7c-0.7,0-1.3-0.6-1.3-1.3v-5.7c0-0.7,0.6-1.3,1.3-1.3h5.7c0.7,0,1.3,0.6,1.3,1.3V53    C38.3,53.7,37.8,54.3,37.1,54.3z" />
			<path d="M47.8,54.3h-5.7c-0.7,0-1.3-0.6-1.3-1.3v-5.7c0-0.7,0.6-1.3,1.3-1.3h5.7c0.7,0,1.3,0.6,1.3,1.3V53    C49.1,53.7,48.5,54.3,47.8,54.3z" />
			<path d="M58.6,54.3h-5.7c-0.7,0-1.3-0.6-1.3-1.3v-5.7c0-0.7,0.6-1.3,1.3-1.3h5.7c0.7,0,1.3,0.6,1.3,1.3V53    C59.9,53.7,59.3,54.3,58.6,54.3z" />
			<path d="M69.4,54.3h-5.7c-0.7,0-1.3-0.6-1.3-1.3v-5.7c0-0.7,0.6-1.3,1.3-1.3h5.7c0.7,0,1.3,0.6,1.3,1.3V53    C70.7,53.7,70.1,54.3,69.4,54.3z" />
			<path d="M80.2,54.3h-5.7c-0.7,0-1.3-0.6-1.3-1.3v-5.7c0-0.7,0.6-1.3,1.3-1.3h5.7c0.7,0,1.3,0.6,1.3,1.3V53    C81.5,53.7,80.9,54.3,80.2,54.3z" />
			<path d="M15.5,65.5H9.8c-0.7,0-1.3-0.6-1.3-1.3v-5.7c0-0.7,0.6-1.3,1.3-1.3h5.7c0.7,0,1.3,0.6,1.3,1.3v5.7    C16.8,64.9,16.2,65.5,15.5,65.5z" />
			<path d="M26.3,65.5h-5.7c-0.7,0-1.3-0.6-1.3-1.3v-5.7c0-0.7,0.6-1.3,1.3-1.3h5.7c0.7,0,1.3,0.6,1.3,1.3v5.7    C27.5,64.9,27,65.5,26.3,65.5z" />
			<path d="M37.1,65.5h-5.7c-0.7,0-1.3-0.6-1.3-1.3v-5.7c0-0.7,0.6-1.3,1.3-1.3h5.7c0.7,0,1.3,0.6,1.3,1.3v5.7    C38.3,64.9,37.8,65.5,37.1,65.5z" />
			<path d="M47.8,65.5h-5.7c-0.7,0-1.3-0.6-1.3-1.3v-5.7c0-0.7,0.6-1.3,1.3-1.3h5.7c0.7,0,1.3,0.6,1.3,1.3v5.7    C49.1,64.9,48.5,65.5,47.8,65.5z" />
			<path d="M58.6,65.5h-5.7c-0.7,0-1.3-0.6-1.3-1.3v-5.7c0-0.7,0.6-1.3,1.3-1.3h5.7c0.7,0,1.3,0.6,1.3,1.3v5.7    C59.9,64.9,59.3,65.5,58.6,65.5z" />
			<path d="M69.4,65.5h-5.7c-0.7,0-1.3-0.6-1.3-1.3v-5.7c0-0.7,0.6-1.3,1.3-1.3h5.7c0.7,0,1.3,0.6,1.3,1.3v5.7    C70.7,64.9,70.1,65.5,69.4,65.5z" />
			<path d="M80.2,65.5h-5.7c-0.7,0-1.3-0.6-1.3-1.3v-5.7c0-0.7,0.6-1.3,1.3-1.3h5.7c0.7,0,1.3,0.6,1.3,1.3v5.7    C81.5,64.9,80.9,65.5,80.2,65.5z" />
			<path d="M15.5,76.7H9.8c-0.7,0-1.3-0.6-1.3-1.3v-5.7c0-0.7,0.6-1.3,1.3-1.3h5.7c0.7,0,1.3,0.6,1.3,1.3v5.7    C16.8,76.1,16.2,76.7,15.5,76.7z" />
			<path d="M26.3,76.7h-5.7c-0.7,0-1.3-0.6-1.3-1.3v-5.7c0-0.7,0.6-1.3,1.3-1.3h5.7c0.7,0,1.3,0.6,1.3,1.3v5.7    C27.5,76.1,27,76.7,26.3,76.7z" />
			<path d="M37.1,76.7h-5.7c-0.7,0-1.3-0.6-1.3-1.3v-5.7c0-0.7,0.6-1.3,1.3-1.3h5.7c0.7,0,1.3,0.6,1.3,1.3v5.7    C38.3,76.1,37.8,76.7,37.1,76.7z" />
			<path d="M47.8,76.7h-5.7c-0.7,0-1.3-0.6-1.3-1.3v-5.7c0-0.7,0.6-1.3,1.3-1.3h5.7c0.7,0,1.3,0.6,1.3,1.3v5.7    C49.1,76.1,48.5,76.7,47.8,76.7z" />
			<path d="M58.6,76.7h-5.7c-0.7,0-1.3-0.6-1.3-1.3v-5.7c0-0.7,0.6-1.3,1.3-1.3h5.7c0.7,0,1.3,0.6,1.3,1.3v5.7    C59.9,76.1,59.3,76.7,58.6,76.7z" />
		</g>
	</g>
	<g display="none">
		<path display="inline" d="M21.2,20.5L21.2,20.5c-2.1,0-3.7-1.7-3.7-3.7V8.4c0-2.1,1.7-3.7,3.7-3.7h0c2.1,0,3.7,1.7,3.7,3.7v8.3   C25,18.8,23.3,20.5,21.2,20.5z" />
		<path display="inline" d="M62.3,20.5L62.3,20.5c-2.1,0-3.7-1.7-3.7-3.7V8.4c0-2.1,1.7-3.7,3.7-3.7h0c2.1,0,3.7,1.7,3.7,3.7v8.3   C66.1,18.8,64.4,20.5,62.3,20.5z" />
		<path display="inline" d="M75.5,14.5c2.7,0,4.8,2.2,4.8,4.8V73c0,2.7-2.2,4.8-4.8,4.8H8.1c-2.7,0-4.8-2.2-4.8-4.8V19.3   c0-2.7,2.2-4.8,4.8-4.8h5.8V17c0,4,3.3,7.3,7.3,7.3c4,0,7.3-3.3,7.3-7.3v-2.6h26.7V17c0,4,3.3,7.3,7.3,7.3c4,0,7.3-3.3,7.3-7.3   v-2.6H75.5 M75.5,12.5h-7.8V17c0,2.9-2.4,5.3-5.3,5.3c-2.9,0-5.3-2.4-5.3-5.3v-4.5H26.5V17c0,2.9-2.4,5.3-5.3,5.3h0   c-2.9,0-5.3-2.4-5.3-5.3v-4.5H8.1c-3.7,0-6.8,3-6.8,6.8V73c0,3.7,3,6.8,6.8,6.8h67.4c3.7,0,6.8-3,6.8-6.8V19.3   C82.3,15.6,79.3,12.5,75.5,12.5L75.5,12.5z" />
		<path display="inline" d="M80.6,85.8H13.2c-1.8,0-3.6-0.6-5-1.8c-0.4-0.3-0.5-1-0.1-1.4c0.3-0.4,1-0.5,1.4-0.1   c1,0.9,2.4,1.3,3.7,1.3h67.4c3.2,0,5.8-2.6,5.8-5.8V24.4c0-1.4-0.5-2.8-1.5-3.9c-0.4-0.4-0.3-1,0.1-1.4c0.4-0.4,1-0.3,1.4,0.1   c1.3,1.4,2,3.3,2,5.2v53.7C88.3,82.3,84.9,85.8,80.6,85.8z" />
		<rect x="6.2" y="26.3" display="inline" width="70.9" height="2" />
		<path display="inline" d="M44.7,41h-5.6c-0.7,0-1.2-0.6-1.2-1.2v-5.6c0-0.7,0.6-1.2,1.2-1.2h5.6c0.7,0,1.2,0.6,1.2,1.2v5.6   C46,40.5,45.4,41,44.7,41z" />
		<path display="inline" d="M55.3,41h-5.6c-0.7,0-1.2-0.6-1.2-1.2v-5.6c0-0.7,0.6-1.2,1.2-1.2h5.6c0.7,0,1.2,0.6,1.2,1.2v5.6   C56.5,40.5,56,41,55.3,41z" />
		<path display="inline" d="M65.8,41h-5.6c-0.7,0-1.2-0.6-1.2-1.2v-5.6c0-0.7,0.6-1.2,1.2-1.2h5.6c0.7,0,1.2,0.6,1.2,1.2v5.6   C67.1,40.5,66.5,41,65.8,41z" />
		<path display="inline" d="M76.4,41h-5.6c-0.7,0-1.2-0.6-1.2-1.2v-5.6c0-0.7,0.6-1.2,1.2-1.2h5.6c0.7,0,1.2,0.6,1.2,1.2v5.6   C77.6,40.5,77,41,76.4,41z" />
		<path display="inline" d="M13.1,52H7.5c-0.7,0-1.2-0.6-1.2-1.2v-5.6c0-0.7,0.6-1.2,1.2-1.2h5.6c0.7,0,1.2,0.6,1.2,1.2v5.6   C14.3,51.5,13.8,52,13.1,52z" />
		<path display="inline" d="M23.6,52h-5.6c-0.7,0-1.2-0.6-1.2-1.2v-5.6c0-0.7,0.6-1.2,1.2-1.2h5.6c0.7,0,1.2,0.6,1.2,1.2v5.6   C24.9,51.5,24.3,52,23.6,52z" />
		<path display="inline" d="M34.2,52h-5.6c-0.7,0-1.2-0.6-1.2-1.2v-5.6c0-0.7,0.6-1.2,1.2-1.2h5.6c0.7,0,1.2,0.6,1.2,1.2v5.6   C35.4,51.5,34.9,52,34.2,52z" />
		<path display="inline" d="M44.7,52h-5.6c-0.7,0-1.2-0.6-1.2-1.2v-5.6c0-0.7,0.6-1.2,1.2-1.2h5.6c0.7,0,1.2,0.6,1.2,1.2v5.6   C46,51.5,45.4,52,44.7,52z" />
		<path display="inline" d="M55.3,52h-5.6c-0.7,0-1.2-0.6-1.2-1.2v-5.6c0-0.7,0.6-1.2,1.2-1.2h5.6c0.7,0,1.2,0.6,1.2,1.2v5.6   C56.5,51.5,56,52,55.3,52z" />
		<path display="inline" d="M65.8,52h-5.6c-0.7,0-1.2-0.6-1.2-1.2v-5.6c0-0.7,0.6-1.2,1.2-1.2h5.6c0.7,0,1.2,0.6,1.2,1.2v5.6   C67.1,51.5,66.5,52,65.8,52z" />
		<path display="inline" d="M76.4,52h-5.6c-0.7,0-1.2-0.6-1.2-1.2v-5.6c0-0.7,0.6-1.2,1.2-1.2h5.6c0.7,0,1.2,0.6,1.2,1.2v5.6   C77.6,51.5,77,52,76.4,52z" />
		<path display="inline" d="M13.1,63H7.5c-0.7,0-1.2-0.6-1.2-1.2v-5.6c0-0.7,0.6-1.2,1.2-1.2h5.6c0.7,0,1.2,0.6,1.2,1.2v5.6   C14.3,62.4,13.8,63,13.1,63z" />
		<path display="inline" d="M23.6,63h-5.6c-0.7,0-1.2-0.6-1.2-1.2v-5.6c0-0.7,0.6-1.2,1.2-1.2h5.6c0.7,0,1.2,0.6,1.2,1.2v5.6   C24.9,62.4,24.3,63,23.6,63z" />
		<path display="inline" d="M34.2,63h-5.6c-0.7,0-1.2-0.6-1.2-1.2v-5.6c0-0.7,0.6-1.2,1.2-1.2h5.6c0.7,0,1.2,0.6,1.2,1.2v5.6   C35.4,62.4,34.9,63,34.2,63z" />
		<path display="inline" d="M44.7,63h-5.6c-0.7,0-1.2-0.6-1.2-1.2v-5.6c0-0.7,0.6-1.2,1.2-1.2h5.6c0.7,0,1.2,0.6,1.2,1.2v5.6   C46,62.4,45.4,63,44.7,63z" />
		<path display="inline" d="M55.3,63h-5.6c-0.7,0-1.2-0.6-1.2-1.2v-5.6c0-0.7,0.6-1.2,1.2-1.2h5.6c0.7,0,1.2,0.6,1.2,1.2v5.6   C56.5,62.4,56,63,55.3,63z" />
		<path display="inline" d="M65.8,63h-5.6c-0.7,0-1.2-0.6-1.2-1.2v-5.6c0-0.7,0.6-1.2,1.2-1.2h5.6c0.7,0,1.2,0.6,1.2,1.2v5.6   C67.1,62.4,66.5,63,65.8,63z" />
		<path display="inline" d="M76.4,63h-5.6c-0.7,0-1.2-0.6-1.2-1.2v-5.6c0-0.7,0.6-1.2,1.2-1.2h5.6c0.7,0,1.2,0.6,1.2,1.2v5.6   C77.6,62.4,77,63,76.4,63z" />
		<path display="inline" d="M13.1,73.9H7.5c-0.7,0-1.2-0.6-1.2-1.2v-5.6c0-0.7,0.6-1.2,1.2-1.2h5.6c0.7,0,1.2,0.6,1.2,1.2v5.6   C14.3,73.4,13.8,73.9,13.1,73.9z" />
		<path display="inline" d="M23.6,73.9h-5.6c-0.7,0-1.2-0.6-1.2-1.2v-5.6c0-0.7,0.6-1.2,1.2-1.2h5.6c0.7,0,1.2,0.6,1.2,1.2v5.6   C24.9,73.4,24.3,73.9,23.6,73.9z" />
		<path display="inline" d="M34.2,73.9h-5.6c-0.7,0-1.2-0.6-1.2-1.2v-5.6c0-0.7,0.6-1.2,1.2-1.2h5.6c0.7,0,1.2,0.6,1.2,1.2v5.6   C35.4,73.4,34.9,73.9,34.2,73.9z" />
		<path display="inline" d="M44.7,73.9h-5.6c-0.7,0-1.2-0.6-1.2-1.2v-5.6c0-0.7,0.6-1.2,1.2-1.2h5.6c0.7,0,1.2,0.6,1.2,1.2v5.6   C46,73.4,45.4,73.9,44.7,73.9z" />
		<path display="inline" d="M55.3,73.9h-5.6c-0.7,0-1.2-0.6-1.2-1.2v-5.6c0-0.7,0.6-1.2,1.2-1.2h5.6c0.7,0,1.2,0.6,1.2,1.2v5.6   C56.5,73.4,56,73.9,55.3,73.9z" />
	</g>
	<g display="none">
		<path display="inline" d="M20.7,17.9L20.7,17.9c-2,0-3.5-1.6-3.5-3.5V6.5c0-2,1.6-3.5,3.5-3.5h0c2,0,3.5,1.6,3.5,3.5v7.8   C24.2,16.3,22.7,17.9,20.7,17.9z" />
		<path display="inline" d="M59.6,17.9L59.6,17.9c-2,0-3.5-1.6-3.5-3.5V6.5c0-2,1.6-3.5,3.5-3.5h0c2,0,3.5,1.6,3.5,3.5v7.8   C63.1,16.3,61.6,17.9,59.6,17.9z" />
		<path display="inline" d="M72.1,12.3c2.5,0,4.6,2,4.6,4.6v50.8c0,2.5-2,4.6-4.6,4.6H8.3c-2.5,0-4.6-2-4.6-4.6V16.8   c0-2.5,2-4.6,4.6-4.6h5.5v2.4c0,3.8,3.1,6.9,6.9,6.9c3.8,0,6.9-3.1,6.9-6.9v-2.4h25.3v2.4c0,3.8,3.1,6.9,6.9,6.9   c3.8,0,6.9-3.1,6.9-6.9v-2.4H72.1 M72.1,10.4h-7.4v4.3c0,2.8-2.3,5-5,5c-2.8,0-5-2.3-5-5v-4.3h-29v4.3c0,2.8-2.3,5-5,5h0   c-2.8,0-5-2.3-5-5v-4.3H8.3c-3.5,0-6.4,2.9-6.4,6.4v50.8c0,3.5,2.9,6.4,6.4,6.4h63.8c3.5,0,6.4-2.9,6.4-6.4V16.8   C78.5,13.3,75.6,10.4,72.1,10.4L72.1,10.4z" />
		<path display="inline" d="M76.9,79.7H13.1c-1.7,0-3.4-0.6-4.7-1.7C8,77.7,8,77.1,8.3,76.7c0.3-0.4,0.9-0.4,1.3-0.1   c1,0.8,2.2,1.3,3.5,1.3h63.8c3,0,5.5-2.5,5.5-5.5V21.6c0-1.4-0.5-2.7-1.4-3.7c-0.3-0.4-0.3-1,0.1-1.3c0.4-0.3,1-0.3,1.3,0.1   c1.2,1.4,1.9,3.1,1.9,4.9v50.8C84.2,76.5,80.9,79.7,76.9,79.7z" />
		<path display="inline" d="M82,84.8H18.2c-1.7,0-3.4-0.6-4.7-1.7c-0.4-0.3-0.4-0.9-0.1-1.3c0.3-0.4,0.9-0.4,1.3-0.1   c1,0.8,2.2,1.3,3.5,1.3H82c3,0,5.5-2.5,5.5-5.5V26.7c0-1.4-0.5-2.7-1.4-3.7c-0.3-0.4-0.3-1,0.1-1.3c0.4-0.3,1-0.3,1.3,0.1   c1.2,1.4,1.9,3.1,1.9,4.9v50.8C89.3,81.5,86,84.8,82,84.8z" />
		<rect x="6.5" y="23.5" display="inline" width="67.1" height="1.9" />
		<path display="inline" d="M42.9,37.4h-5.3c-0.6,0-1.2-0.5-1.2-1.2V31c0-0.6,0.5-1.2,1.2-1.2h5.3c0.6,0,1.2,0.5,1.2,1.2v5.3   C44.1,36.9,43.6,37.4,42.9,37.4z" />
		<path display="inline" d="M52.9,37.4h-5.3c-0.6,0-1.2-0.5-1.2-1.2V31c0-0.6,0.5-1.2,1.2-1.2h5.3c0.6,0,1.2,0.5,1.2,1.2v5.3   C54.1,36.9,53.6,37.4,52.9,37.4z" />
		<path display="inline" d="M62.9,37.4h-5.3c-0.6,0-1.2-0.5-1.2-1.2V31c0-0.6,0.5-1.2,1.2-1.2h5.3c0.6,0,1.2,0.5,1.2,1.2v5.3   C64.1,36.9,63.5,37.4,62.9,37.4z" />
		<path display="inline" d="M72.9,37.4h-5.3c-0.6,0-1.2-0.5-1.2-1.2V31c0-0.6,0.5-1.2,1.2-1.2h5.3c0.6,0,1.2,0.5,1.2,1.2v5.3   C74.1,36.9,73.5,37.4,72.9,37.4z" />
		<path display="inline" d="M13,47.8H7.7c-0.6,0-1.2-0.5-1.2-1.2v-5.3c0-0.6,0.5-1.2,1.2-1.2H13c0.6,0,1.2,0.5,1.2,1.2v5.3   C14.2,47.2,13.7,47.8,13,47.8z" />
		<path display="inline" d="M23,47.8h-5.3c-0.6,0-1.2-0.5-1.2-1.2v-5.3c0-0.6,0.5-1.2,1.2-1.2H23c0.6,0,1.2,0.5,1.2,1.2v5.3   C24.2,47.2,23.6,47.8,23,47.8z" />
		<path display="inline" d="M33,47.8h-5.3c-0.6,0-1.2-0.5-1.2-1.2v-5.3c0-0.6,0.5-1.2,1.2-1.2H33c0.6,0,1.2,0.5,1.2,1.2v5.3   C34.1,47.2,33.6,47.8,33,47.8z" />
		<path display="inline" d="M42.9,47.8h-5.3c-0.6,0-1.2-0.5-1.2-1.2v-5.3c0-0.6,0.5-1.2,1.2-1.2h5.3c0.6,0,1.2,0.5,1.2,1.2v5.3   C44.1,47.2,43.6,47.8,42.9,47.8z" />
		<path display="inline" d="M52.9,47.8h-5.3c-0.6,0-1.2-0.5-1.2-1.2v-5.3c0-0.6,0.5-1.2,1.2-1.2h5.3c0.6,0,1.2,0.5,1.2,1.2v5.3   C54.1,47.2,53.6,47.8,52.9,47.8z" />
		<path display="inline" d="M62.9,47.8h-5.3c-0.6,0-1.2-0.5-1.2-1.2v-5.3c0-0.6,0.5-1.2,1.2-1.2h5.3c0.6,0,1.2,0.5,1.2,1.2v5.3   C64.1,47.2,63.5,47.8,62.9,47.8z" />
		<path display="inline" d="M72.9,47.8h-5.3c-0.6,0-1.2-0.5-1.2-1.2v-5.3c0-0.6,0.5-1.2,1.2-1.2h5.3c0.6,0,1.2,0.5,1.2,1.2v5.3   C74.1,47.2,73.5,47.8,72.9,47.8z" />
		<path display="inline" d="M13,58.1H7.7c-0.6,0-1.2-0.5-1.2-1.2v-5.3c0-0.6,0.5-1.2,1.2-1.2H13c0.6,0,1.2,0.5,1.2,1.2V57   C14.2,57.6,13.7,58.1,13,58.1z" />
		<path display="inline" d="M23,58.1h-5.3c-0.6,0-1.2-0.5-1.2-1.2v-5.3c0-0.6,0.5-1.2,1.2-1.2H23c0.6,0,1.2,0.5,1.2,1.2V57   C24.2,57.6,23.6,58.1,23,58.1z" />
		<path display="inline" d="M33,58.1h-5.3c-0.6,0-1.2-0.5-1.2-1.2v-5.3c0-0.6,0.5-1.2,1.2-1.2H33c0.6,0,1.2,0.5,1.2,1.2V57   C34.1,57.6,33.6,58.1,33,58.1z" />
		<path display="inline" d="M42.9,58.1h-5.3c-0.6,0-1.2-0.5-1.2-1.2v-5.3c0-0.6,0.5-1.2,1.2-1.2h5.3c0.6,0,1.2,0.5,1.2,1.2V57   C44.1,57.6,43.6,58.1,42.9,58.1z" />
		<path display="inline" d="M52.9,58.1h-5.3c-0.6,0-1.2-0.5-1.2-1.2v-5.3c0-0.6,0.5-1.2,1.2-1.2h5.3c0.6,0,1.2,0.5,1.2,1.2V57   C54.1,57.6,53.6,58.1,52.9,58.1z" />
		<path display="inline" d="M62.9,58.1h-5.3c-0.6,0-1.2-0.5-1.2-1.2v-5.3c0-0.6,0.5-1.2,1.2-1.2h5.3c0.6,0,1.2,0.5,1.2,1.2V57   C64.1,57.6,63.5,58.1,62.9,58.1z" />
		<path display="inline" d="M72.9,58.1h-5.3c-0.6,0-1.2-0.5-1.2-1.2v-5.3c0-0.6,0.5-1.2,1.2-1.2h5.3c0.6,0,1.2,0.5,1.2,1.2V57   C74.1,57.6,73.5,58.1,72.9,58.1z" />
		<path display="inline" d="M13,68.5H7.7c-0.6,0-1.2-0.5-1.2-1.2v-5.3c0-0.6,0.5-1.2,1.2-1.2H13c0.6,0,1.2,0.5,1.2,1.2v5.3   C14.2,68,13.7,68.5,13,68.5z" />
		<path display="inline" d="M23,68.5h-5.3c-0.6,0-1.2-0.5-1.2-1.2v-5.3c0-0.6,0.5-1.2,1.2-1.2H23c0.6,0,1.2,0.5,1.2,1.2v5.3   C24.2,68,23.6,68.5,23,68.5z" />
		<path display="inline" d="M33,68.5h-5.3c-0.6,0-1.2-0.5-1.2-1.2v-5.3c0-0.6,0.5-1.2,1.2-1.2H33c0.6,0,1.2,0.5,1.2,1.2v5.3   C34.1,68,33.6,68.5,33,68.5z" />
		<path display="inline" d="M42.9,68.5h-5.3c-0.6,0-1.2-0.5-1.2-1.2v-5.3c0-0.6,0.5-1.2,1.2-1.2h5.3c0.6,0,1.2,0.5,1.2,1.2v5.3   C44.1,68,43.6,68.5,42.9,68.5z" />
		<path display="inline" d="M52.9,68.5h-5.3c-0.6,0-1.2-0.5-1.2-1.2v-5.3c0-0.6,0.5-1.2,1.2-1.2h5.3c0.6,0,1.2,0.5,1.2,1.2v5.3   C54.1,68,53.6,68.5,52.9,68.5z" />
	</g>
	<!-- Created by Rohit Arun Rao -->
</svg>
