<svg id="Color" xmlns="http://www.w3.org/2000/svg" xmlns:xlink="http://www.w3.org/1999/xlink" viewBox="0 0 474.28 510.06"><defs><style>.cls-1{stroke:#0a95d3;stroke-miterlimit:10;stroke-width:10px;fill:url(#radial-gradient);}.cls-2{fill:url(#linear-gradient);}.cls-3{fill:url(#linear-gradient-2);}</style><radialGradient id="radial-gradient" cx="251.5" cy="371.87" r="189.13" gradientTransform="translate(0 -371.87) scale(1 2)" gradientUnits="userSpaceOnUse"><stop offset="0" stop-color="#a2dae8"/><stop offset="0.49" stop-color="#a0dae8"/><stop offset="0.67" stop-color="#99d8e8"/><stop offset="0.79" stop-color="#8ed5e7"/><stop offset="0.89" stop-color="#7dd1e7"/><stop offset="0.98" stop-color="#67cce6"/><stop offset="1" stop-color="#61cbe6"/></radialGradient><linearGradient id="linear-gradient" x1="247.03" x2="247.03" y2="250" gradientUnits="userSpaceOnUse"><stop offset="0" stop-color="#008dce"/><stop offset="0.29" stop-color="#0087ca"/><stop offset="0.67" stop-color="#0077be"/><stop offset="1" stop-color="#0063b0"/></linearGradient><linearGradient id="linear-gradient-2" x1="203.28" y1="500.25" x2="203.28" y2="281.62" gradientUnits="userSpaceOnUse"><stop offset="0" stop-color="#0d80ba"/><stop offset="1" stop-color="#0764b0"/></linearGradient></defs><path class="cls-1" d="M19.55,505.06S21.88,362.4,61.12,325.82c45.06-42,89.78-37.91,111.73-43.23s35.57-43.42,35.57-43.42l75.82-.5s6.06,30.67,27.35,41.31,103.19,6.93,136.34,55.87c27.93,41.23,35.51,169.21,35.51,169.21Z" transform="translate(-14.47)"/><path class="cls-2" d="M246,250c66.24,0,99.22-63.48,99.22-134.38S301.43,0,247.13,0s-98.31,44.5-98.31,115.61S179.77,250,246,250Z" transform="translate(-14.47)"/><path class="cls-3" d="M206.06,499.56C213,478.79,230.8,465,242.7,452.74c12.16-12.53,22.74-30.27,27.35-48.47,1.85-7.32-5.77-17-10.26-16,1.38-8.64-9.79-19.7-16-15.78.81-7.49-13.59-16.13-19.35-12.21-1.19-6.76,22.82-56.28,24.31-62.42,2.19-9.07-2.34-13.83-6.51-15.38-5.44-2-11.73-.82-16,8.25-4.58,9.73-20.11,45.73-30.87,70.2-5.75,13.07-16.42,35.75-16.42,35.75s-5.23-7.42-6.56-23c-.63-7.27-6.75-22.36-14.06-30a11,11,0,0,0-12.8-2.25c-6.08,3.07-5.84,7.87-4.28,12.77,1.35,4.19,2.87,6.42,6.32,18.71,7.24,25.77-2.6,38.38,1.82,63.92,6.22,35.94-13.14,63.41-13.14,63.41" transform="translate(-14.47)"/></svg>