<svg xmlns="http://www.w3.org/2000/svg" xmlns:xlink="http://www.w3.org/1999/xlink" version="1.1" x="0px" y="0px" viewBox="0 0 100 125" enable-background="new 0 0 100 100" xml:space="preserve">
	<path d="M28.3,66l-2.2-0.4c-0.2,0-0.4,0.1-0.4,0.3l-0.3,1.9c0,0.2-0.2,0.3-0.3,0.3c-0.7,0.1-1.6,0.3-2-0.1c-0.7-0.7-1.1-1.8-1.7-3  c0.1,0-0.5-0.1-0.6,0.1c-0.5,1.2-1.5,2.2-2.6,1.4c-1.1-0.8-1.8-2.2-2.4-3.5c-0.4-0.9,0.4-2.5-1.6-2.3c-0.1,0-0.4-1-0.2-1.4  c0.2-0.6,0.7-1.1,1.2-1.7c0.1-0.1,0.1-0.2,0.1-0.3l-0.4-2.5c0.7-0.3,0.6-0.3,1.3-0.6l0.3,0.3c0.3-0.1,0.5-0.2,0.5-0.3  c0.1-4.3,4.4-5.5,6.3-8.5c1-1.7,2.6-3,4.1-4.3c2.5-2.2,2.6-2.2,4.2,0.3c0.1,0.2,0.3,0.2,0.5,0.1l2-1.8c-0.1-0.1-0.1-0.3-0.2-0.4  l-0.6,0.2c-0.4-0.5-0.4-0.5-0.8-1.1l1.9-2.8c0.7,0.1,0.8,0.1,1.5,0.2l0,0c0.1,0.2,0.3,0.3,0.5,0.2c0.8-0.5,1.7-1,2.5-1.5  c1.6-1.1,3.3-2.2,4.9-3.3c0.4-0.2,1.1-0.3,1.1-0.5c0.7-3.1,3.4-2.1,5.2-2.4c3-0.4,6.4-0.2,8.4,2.7c1.8,2.6,4.2,3.4,7.2,3  c1.6-0.2,1.9,0.5,2.3,1.8c0.3,0.9,1.3,1.9,2.2,2.2c2,0.6,4.1,0.5,4.6,3.4c0.3,1.3,1.8,2.6,3.1,3.5c2.6,1.9,5.4,3.6,8,5.3  c0.2,0.1,0.4,0,0.5-0.1l0.4-1c0.1-0.2,0.4-0.2,0.6,0c0.5,0.9,0.8,1.6,1.1,2.3c0.2,0.6,0.3,1.3,0.4,2.2c0,0.2,0.3,0.4,0.5,0.2  l1.7-1.3c0.1-0.1,0.3-0.1,0.4,0c1.2,1.2,2.5,2.6,3.7,4c0.5,0.6,1.1,1.4,0.9,2c-0.1,0.6-1,1.1-1.7,1.4c-0.9,0.4-2,0.5-2.5,0.6  c-0.1,0-0.2,0.1-0.2,0.2c-0.6,1.3-0.8,2.6-1.5,2.8c-0.8,0.3-1.9-0.1-2.9-0.8c-0.1-0.1-0.2-0.1-0.3,0l-6.5,2c-0.1,0-0.2,0.1-0.2,0.2  c-1.2,2.6-2.9,3-6.2,1c-0.2-0.1-0.3-0.2-0.5-0.2c-2.7,0-5.3,0-7.8,0c-0.2,0-0.3,0.1-0.3,0.3v3.9c0,0.2-0.2,0.4-0.4,0.3  c-1.6-0.2-3.4,0.4-4-2c-0.1-0.2-1.6-0.3-2.3-0.1c-0.6,0.2-1.1,0.8-1.7,1.3c-0.1,0.1-0.2,0.3-0.1,0.4l0.7,1c0.1,0.2,0,0.5-0.3,0.5  l-2.7-0.3c-0.2,0-0.3-0.2-0.3-0.4c0.4-1.7,2.6-3.4-0.1-4.8c-0.2,0.1-0.4,0.2-0.4,0.3c-0.1,1-0.2,3-0.4,3c-1.6,0.1-3.2-0.1-4.8-0.4  c-0.6-0.1-1.3-1-1.7-0.8c-3,1-5.3,0.3-7.2-2.1c-0.1-0.2-0.4-0.2-0.5,0C37.9,68.3,38.1,69,40,70c0.3,0.1,0.2,0.5-0.1,0.6l-3.7,0.8  c-0.2,0-0.4-0.1-0.4-0.3c-0.2-0.7-0.2-1.5-0.6-1.8c-0.6-0.5-1.6-0.8-2.4-0.8c-1,0.1-2,0.5-2.9,0.8c-0.2,0.1-0.4,0-0.4-0.2l-0.8-3  C28.5,66.1,28.4,66,28.3,66z M20.9,53.4l-0.5-0.3C20.2,53,20,53,19.9,53.2l-2.2,3.2c-0.1,0.1-0.1,0.4,0.1,0.5l0.5,0.3  c0.1,0.1,0.4,0.1,0.5-0.1l2.2-3.2C21.1,53.7,21,53.5,20.9,53.4z" />
	<path d="M11.3,54.6l-1,4.9c0,0.1,0,0.2,0.1,0.3l2.9,2.4c0.2,0.1,0.2,0.4,0,0.5c-0.7,0.5-1.3,1-2,1.4c-0.6-0.4-0.6-0.4-1.2-0.8  c0.9-3.7-2.6-2.4-4.5-3.2c-0.2-0.1-0.3-0.3-0.2-0.4c0.9-2,0.2-4.9,3.5-5.5c0.8-0.1,1.6-0.5,2.3-0.8c0.8-0.4,1.5-0.9,2.3-1.3  c0.3-0.2,0.6,0.2,0.4,0.5l-2.2,2.6C11.7,55,11.5,54.8,11.3,54.6z" />
	<!--
	<text x="0" y="115" fill="#000000" font-size="5px" font-weight="bold" font-family="'Helvetica Neue', Helvetica, Arial-Unicode, Arial, Sans-serif">
	Created by Shawn Erdely
	</text>
	<text x="0" y="120" fill="#000000" font-size="5px" font-weight="bold" font-family="'Helvetica Neue', Helvetica, Arial-Unicode, Arial, Sans-serif">
	from the Noun Project
	</text>
	-->
</svg>
