<svg xmlns="http://www.w3.org/2000/svg" xmlns:xlink="http://www.w3.org/1999/xlink" version="1.1" x="0px" y="0px" viewBox="0 0 64 80" enable-background="new 0 0 64 64" xml:space="preserve">
	<g>
		<g>
			<path d="M11,62h37.532c0.007-0.001,0.014,0,0.02,0c0.014,0,0.025-0.007,0.04-0.008c0.091-0.006,0.179-0.024,0.265-0.054    c0.054-0.018,0.104-0.038,0.153-0.063c0.03-0.016,0.056-0.038,0.084-0.057c0.173-0.116,0.313-0.272,0.387-0.47l4.394-7.966    c0.129-0.234,0.159-0.51,0.083-0.767l-8.043-27.172c-0.008-0.029-0.03-0.049-0.041-0.076c-0.027-0.069-0.061-0.131-0.102-0.192    c-0.031-0.045-0.061-0.088-0.098-0.127c-0.048-0.051-0.102-0.092-0.16-0.132c-0.045-0.031-0.087-0.062-0.137-0.085    c-0.061-0.029-0.125-0.045-0.192-0.061c-0.058-0.014-0.112-0.029-0.172-0.032c-0.02-0.001-0.037-0.011-0.057-0.011h-6.27v-8.232    v-1.113v-1.083V4.677C38.687,3.201,37.319,2,35.638,2H21.175c-1.682,0-3.05,1.201-3.05,2.677v7.631    c0,0.05,0.021,0.094,0.029,0.142c0.011,0.075,0.017,0.15,0.044,0.222c0.028,0.072,0.075,0.13,0.119,0.193    c0.027,0.04,0.041,0.086,0.075,0.123l1.903,2.051v2.938v1.647v5.104h-5.72c-0.513,0-0.943,0.389-0.995,0.899l-3.575,35.272    c-0.028,0.282,0.063,0.562,0.253,0.771C10.448,61.88,10.717,62,11,62z M49.204,57.711L47.028,36.25l4.894,16.532L49.204,57.711z     M23.346,20.301c-0.619,0-1.05-0.356-1.05-0.677v-1.647v-1.58h2.098v3.227C24.394,19.944,23.963,20.301,23.346,20.301z     M26.394,19.624v-3.227h1.207c0.313,0,0.609-0.058,0.891-0.144v1.983v2.081c0,0.32-0.43,0.677-1.048,0.677    c-0.619,0-1.05-0.356-1.05-0.677V19.624z M30.492,14.653c0-0.32,0.43-0.676,1.048-0.676c0.619,0,1.05,0.356,1.05,0.676v1.843    v1.741c0,0.32-0.431,0.677-1.05,0.677c-0.618,0-1.048-0.356-1.048-0.677V14.653z M34.59,14.653v-0.354    c0-0.32,0.43-0.676,1.048-0.676c0.618,0,1.049,0.356,1.049,0.676v1.083v1.113c0,0.32-0.431,0.676-1.049,0.676    c-0.618,0-1.048-0.356-1.048-0.676V14.653z M21.175,4h14.462c0.618,0,1.049,0.356,1.049,0.677v7.119    c-0.329-0.106-0.679-0.173-1.049-0.173c-0.903,0-1.708,0.354-2.266,0.904c-0.512-0.34-1.142-0.55-1.832-0.55    c-0.541,0-1.041,0.135-1.481,0.352c-0.48-0.724-1.318-1.215-2.288-1.269c1.076-0.564,2.244-1.425,2.983-2.706    c0.276-0.479,0.112-1.09-0.366-1.366c-0.48-0.277-1.09-0.112-1.366,0.366c-0.855,1.481-2.652,2.225-3.603,2.527l-0.167-0.474    c-0.184-0.521-0.754-0.793-1.276-0.61c-0.521,0.184-0.794,0.755-0.61,1.276l0.814,2.304c0.141,0.4,0.519,0.667,0.943,0.667h2.478    c0.483,0,0.891,0.31,0.891,0.676c0,0.367-0.408,0.677-0.891,0.677h-5.172l-2.304-2.482V4.677C20.125,4.356,20.556,4,21.175,4z     M22.295,22.127c0.329,0.107,0.68,0.174,1.05,0.174c0.601,0,1.158-0.159,1.63-0.423c0.555,0.673,1.451,1.117,2.468,1.117    c1.521,0,2.774-0.986,3-2.267c0.341,0.116,0.708,0.186,1.095,0.186c1.393,0,2.558-0.829,2.921-1.95    c0.362,0.134,0.76,0.208,1.177,0.208c0.37,0,0.72-0.067,1.049-0.173v5.729H22.295V22.127z M15.479,26.728h4.816V29.5    c0,0.552,0.448,1,1,1s1-0.448,1-1v-2.772h14.391V29.5c0,0.552,0.448,1,1,1s1-0.448,1-1v-2.772h5.366L47.425,60H12.106    L15.479,26.728z" />
		</g>
	</g>
	<!-- Created by Denicon -->
</svg>
