<svg xmlns:x="http://ns.adobe.com/Extensibility/1.0/" xmlns:i="http://ns.adobe.com/AdobeIllustrator/10.0/" xmlns:graph="http://ns.adobe.com/Graphs/1.0/" xmlns="http://www.w3.org/2000/svg" xmlns:xlink="http://www.w3.org/1999/xlink" version="1.1" x="0px" y="0px" viewBox="0 0 100 125" style="enable-background:new 0 0 100 100;" xml:space="preserve">
	<g>
		<g>
			<path d="M5273.1,2400.1v-2c0-2.8-5-4-9.7-4s-9.7,1.3-9.7,4v2c0,1.8,0.7,3.6,2,4.9l5,4.9c0.3,0.3,0.4,0.6,0.4,1v6.4     c0,0.4,0.2,0.7,0.6,0.8l2.9,0.9c0.5,0.1,1-0.2,1-0.8v-7.2c0-0.4,0.2-0.7,0.4-1l5.1-5C5272.4,2403.7,5273.1,2401.9,5273.1,2400.1z      M5263.4,2400c-4.8,0-7.4-1.3-7.5-1.8v0c0.1-0.5,2.7-1.8,7.5-1.8c4.8,0,7.3,1.3,7.5,1.8C5270.7,2398.7,5268.2,2400,5263.4,2400z" />
			<path d="M5268.4,2410.3c-0.6,0-1,0.4-1,1c0,0.6,0.4,1,1,1h4.3c0.6,0,1-0.4,1-1c0-0.6-0.4-1-1-1H5268.4z" />
			<path d="M5272.7,2413.7h-4.3c-0.6,0-1,0.4-1,1c0,0.6,0.4,1,1,1h4.3c0.6,0,1-0.4,1-1C5273.7,2414.1,5273.3,2413.7,5272.7,2413.7z" />
			<path d="M5272.7,2417h-4.3c-0.6,0-1,0.4-1,1c0,0.6,0.4,1,1,1h4.3c0.6,0,1-0.4,1-1C5273.7,2417.5,5273.3,2417,5272.7,2417z" />
		</g>
		<g>
			<path d="M81.7,24.9l-63.2,0c-2.4,0-4.5,1.9-4.6,4.3c-0.1,2.5,1.9,4.6,4.4,4.6h20.6l0.6,23l-5.2,35c-0.4,2.7,1.5,5.2,4.1,5.6     c2.7,0.4,5.2-1.5,5.6-4.1l5.2-34.7c0.1-0.4,0.4-0.7,0.8-0.7h0c0.4,0,0.7,0.3,0.8,0.7l5.2,34.7c0.4,2.4,2.5,4.2,4.9,4.2     c0.2,0,0.5,0,0.7-0.1c2.7-0.4,4.5-2.9,4.1-5.6l-5.2-35l0.6-23l20.5,0c2.4,0,4.5-1.9,4.6-4.3C86.2,27,84.2,24.9,81.7,24.9z" />
			<circle cx="50" cy="12.3" r="9.8" />
		</g>
	</g>
	<!-- Created by Adrien Coquet -->
</svg>
